<svg width="270" height="270" viewBox="0 0 270 270" fill="none" xmlns="http://www.w3.org/2000/svg">
<g clip-path="url(#clip0_380_50137)">
<path d="M75.4378 189.404C97.7373 176.675 104.98 149.943 106.342 125.442C106.574 121.347 107.414 117.098 105.801 113.341C104.189 109.584 99.8909 106.725 96.0858 108.106C92.9278 109.256 91.257 112.655 89.3255 115.417C86.7045 119.094 83.0993 121.956 78.9242 123.674C76.2008 124.785 72.9172 125.307 70.4835 123.674C67.1419 121.405 67.1709 116.508 67.5862 112.462C68.3524 104.89 69.0896 97.3317 69.7978 89.7859C70.1937 85.7393 70.5897 81.5962 69.6819 77.6366C68.7741 73.6769 66.3114 69.8332 62.5546 68.4039C58.7978 66.9746 53.8144 68.7516 52.6362 72.6532C52.1533 74.2757 52.3272 76.0141 52.0664 77.6849C51.8056 79.3556 50.8399 81.152 49.1691 81.4803C47.4984 81.8087 45.9918 80.5145 44.8908 79.2108C41.0277 74.7296 38.7196 69.1958 36.5466 63.7006C34.3737 58.2055 32.2876 52.6137 28.8978 47.7945C25.508 42.9754 20.5826 38.9675 14.8073 38.1369C9.03207 37.3064 2.51318 40.3002 0.523713 45.863C-1.46576 51.4258 1.32529 57.5487 4.53162 62.5128C9.31408 69.859 15.1297 76.478 21.7994 82.166C22.997 83.1897 24.2911 84.3003 24.6967 85.8455C25.3245 88.6269 22.5141 91.08 19.7713 91.727C16.6519 92.4514 13.3973 91.8333 10.2103 91.9202C7.02329 92.0071 3.44997 93.0791 1.99167 95.9667C-0.0557435 99.9553 3.01538 104.659 6.16376 107.778C12.4734 114.106 19.8277 119.297 27.903 123.124C30.8003 124.486 33.8328 125.732 36.0444 128.049C38.256 130.367 39.3763 134.143 37.6669 136.867C35.9575 139.59 32.1331 140.17 29.062 139.3C25.9908 138.431 23.3543 136.48 20.4763 135.09C15.0971 132.473 7.8635 132.192 3.85559 136.683C1.21906 139.638 0.61063 144.023 1.45084 147.905C2.29106 151.788 4.39642 155.264 6.67561 158.529C14.6431 169.828 25.3052 179.312 37.8311 184.981C50.357 190.65 62.2069 192.958 75.4958 189.443" fill="#F5F5F5"/>
<path d="M74.105 207.541C74.0028 196.109 72.8095 184.713 70.5413 173.508C67.7009 159.827 64.0799 146.319 59.6959 133.052L56.2771 122.612C55.1568 119.184 54.0461 115.784 52.752 112.52C50.2639 106.267 47.4298 100.157 44.263 94.2187C41.2788 88.5304 38.2463 83.238 35.3683 78.3126C32.4903 73.3873 29.6993 68.8482 26.9952 64.792C22.7512 58.4271 18.0106 52.4078 12.8178 46.7902C10.9828 44.8007 9.51487 43.3038 8.50082 42.2994L7.34191 41.1695C7.21371 41.036 7.07482 40.9133 6.92664 40.8025C7.03543 40.9494 7.15486 41.0882 7.28397 41.2177L8.39459 42.4056C9.36035 43.439 10.809 44.9746 12.6053 46.993C17.7045 52.6808 22.3694 58.7435 26.5606 65.13C29.2357 69.1572 31.9785 73.706 34.8371 78.6507C37.6958 83.5954 40.709 88.8877 43.6642 94.5664C46.8072 100.478 49.6281 106.555 52.1146 112.771C53.3894 116.016 54.4904 119.386 55.601 122.825C56.7116 126.263 57.8416 129.739 58.9908 133.274C63.3596 146.509 66.9901 159.976 69.8653 173.614C72.1555 184.773 73.3971 196.122 73.5738 207.512" fill="#E0E0E0"/>
<path d="M52.5782 112.472C52.8347 111.934 53.0229 111.366 53.1384 110.782C53.4571 109.681 53.8531 108.077 54.3263 106.078C55.292 102.09 56.3833 96.5462 57.5906 90.4233C58.7978 84.3004 59.9856 78.7859 60.99 74.8262C61.4826 72.8947 61.8978 71.2433 62.2069 70.1423C62.3954 69.5778 62.5249 68.9952 62.5932 68.4039C62.307 68.9263 62.0833 69.4806 61.9268 70.0554C61.5405 71.137 61.0383 72.7209 60.4782 74.691C59.3386 78.6217 58.0638 84.1458 56.8566 90.2784L53.8048 106.011C53.4281 107.894 53.1094 109.487 52.839 110.762C52.6984 111.323 52.6111 111.895 52.5782 112.472Z" fill="#E0E0E0"/>
<path d="M1.33496 97.9563C2.00683 98.1603 2.69509 98.3057 3.39203 98.3909C4.72478 98.6324 6.64665 98.9704 9.00311 99.4726C13.7353 100.438 20.2156 101.964 27.2946 103.983C34.3737 106.001 40.6994 108.126 45.2385 109.777C47.508 110.589 49.3333 111.294 50.5888 111.776C51.228 112.069 51.8943 112.299 52.5783 112.462C51.9871 112.079 51.3595 111.756 50.7047 111.496C49.4782 110.927 47.6819 110.144 45.422 109.265C40.9215 107.469 34.6054 105.277 27.4974 103.239C21.4432 101.485 15.3025 100.044 9.09968 98.9221C6.72391 98.4972 4.78273 98.2364 3.44032 98.0819C2.74461 97.9688 2.03919 97.9267 1.33496 97.9563Z" fill="#E0E0E0"/>
<path d="M2.745 143.811C2.94916 143.958 3.17362 144.075 3.41137 144.158L5.34289 145.018L12.5378 148.108C18.6221 150.706 27.0242 154.405 36.199 158.5C45.3737 162.595 53.8145 166.226 59.9567 168.698C63.0182 169.944 65.5098 170.919 67.2482 171.595L69.2473 172.329C69.477 172.424 69.7168 172.492 69.962 172.532C69.7624 172.383 69.5409 172.266 69.3053 172.185L67.3738 171.325L60.1402 168.206C54.0559 165.598 45.6538 161.899 36.479 157.804C27.3043 153.71 18.8539 150.078 12.7213 147.606C9.65985 146.37 7.16818 145.385 5.42981 144.709L3.43069 143.984C3.20971 143.9 2.97957 143.841 2.745 143.811Z" fill="#E0E0E0"/>
<path d="M241.636 121.127C244.675 117.643 247.713 114.125 250.082 110.197C252.452 106.27 254.121 101.881 254.242 97.3556C254.242 96.6683 253.951 91.9081 253.255 91.716C252.762 91.5794 252.42 95.7846 252.017 96.0877C248.139 98.9737 245.622 103.256 244.172 107.73C242.808 112.092 241.957 116.586 241.636 121.127Z" fill="#263238"/>
<path d="M204.134 147.536C205.293 144.514 211.002 129.404 210.972 129.404C210.942 129.404 201.138 124.257 204.533 113.775C206.164 108.711 210.367 98.5615 214.273 89.4176C216.301 84.6802 220.028 80.884 224.712 78.7841C229.396 76.6843 234.695 76.4347 239.553 78.0849L240.554 78.426C251.14 82.7432 253.432 94.1709 248.852 104.692L227.817 153.692L209.384 147.963L204.134 147.536Z" fill="#FFBF9D"/>
<path d="M210.157 129.531C210.157 129.531 216.939 132.064 225.879 130.088C225.879 130.088 219.692 136.586 209.071 132.229L210.157 129.531Z" fill="#FF9A6C"/>
<path d="M213.362 100.042C213.225 100.441 213.247 100.879 213.423 101.262C213.6 101.644 213.917 101.943 214.307 102.093C214.495 102.174 214.697 102.217 214.902 102.218C215.106 102.219 215.309 102.179 215.497 102.099C215.686 102.02 215.858 101.904 216.001 101.757C216.145 101.61 216.258 101.435 216.334 101.243C216.473 100.844 216.451 100.406 216.274 100.023C216.098 99.6398 215.78 99.3417 215.389 99.1925C215.201 99.1106 214.999 99.0677 214.794 99.0663C214.59 99.0648 214.387 99.1049 214.198 99.1841C214.009 99.2633 213.838 99.3801 213.694 99.5275C213.55 99.6748 213.438 99.8498 213.362 100.042Z" fill="#263238"/>
<path d="M214.332 94.7365C214.46 95.0304 215.959 94.5111 217.658 95.1332C219.358 95.7553 220.32 97.0926 220.572 96.9554C220.696 96.8917 220.622 96.4215 220.21 95.7994C219.648 94.9881 218.863 94.3838 217.965 94.0703C217.077 93.7422 216.113 93.7284 215.216 94.0311C214.557 94.2711 214.268 94.6042 214.332 94.7365Z" fill="#263238"/>
<path d="M228.07 105.297C227.932 105.696 227.953 106.133 228.13 106.516C228.307 106.898 228.625 107.196 229.015 107.344C229.203 107.426 229.405 107.469 229.61 107.47C229.815 107.472 230.017 107.432 230.206 107.352C230.395 107.273 230.567 107.156 230.71 107.009C230.854 106.861 230.967 106.686 231.042 106.494C231.18 106.095 231.158 105.657 230.981 105.274C230.805 104.891 230.487 104.593 230.097 104.443C229.909 104.362 229.706 104.32 229.502 104.319C229.297 104.318 229.095 104.358 228.906 104.438C228.717 104.518 228.546 104.635 228.402 104.782C228.259 104.93 228.146 105.105 228.07 105.297Z" fill="#263238"/>
<path d="M230.089 100.731C230.213 100.927 231.716 100.585 233.417 100.996C235.117 101.406 236.075 102.3 236.332 102.212C236.451 102.166 236.382 101.853 235.969 101.442C235.405 100.901 234.619 100.498 233.719 100.288C232.83 100.069 231.866 100.06 230.969 100.262C230.328 100.422 230.025 100.643 230.089 100.731Z" fill="#263238"/>
<path d="M220.377 110.608C220.418 110.525 219.432 110.036 217.813 109.315C217.401 109.141 217.021 108.938 217.049 108.644C217.076 108.35 217.388 107.96 217.763 107.571L220.137 104.969C223.47 101.239 226.039 98.1439 225.871 98.0196C225.704 97.8953 222.873 100.812 219.54 104.529C218.731 105.449 217.953 106.324 217.216 107.165C216.89 107.579 216.425 107.993 216.425 108.64C216.436 108.797 216.487 108.95 216.572 109.087C216.658 109.224 216.776 109.342 216.917 109.431C217.135 109.563 217.369 109.67 217.614 109.75C219.278 110.36 220.336 110.695 220.377 110.608Z" fill="#263238"/>
<path d="M217.674 115.514C217.85 115.73 219.248 114.521 221.259 114.836C223.269 115.15 224.435 116.764 224.636 116.605C224.739 116.549 224.612 116.041 224.085 115.401C223.381 114.581 222.411 114.034 221.345 113.854C220.321 113.686 219.272 113.922 218.418 114.512C217.796 114.964 217.584 115.427 217.674 115.514Z" fill="#263238"/>
<path d="M233.684 92.582C233.439 93.0062 234.734 94.1442 235.872 95.7972C237.01 97.4501 237.666 99.0256 238.151 98.9498C238.377 98.9051 238.519 98.4068 238.425 97.6069C238.266 96.5927 237.876 95.6284 237.287 94.7877C236.697 93.947 235.924 93.252 235.025 92.7558C234.319 92.4182 233.803 92.3853 233.684 92.582Z" fill="#263238"/>
<path d="M217.125 90.3089C217.4 90.7154 218.585 90.3664 219.991 90.4384C221.397 90.5104 222.573 90.8639 222.87 90.4793C223.003 90.291 222.843 89.8941 222.345 89.4935C221.674 89.0123 220.876 88.7408 220.05 88.7136C219.225 88.6863 218.41 88.9043 217.709 89.3402C217.193 89.7253 217.005 90.1122 217.125 90.3089Z" fill="#263238"/>
<path d="M245.416 112.723C245.618 112.723 253.129 113.023 250.554 120.127C247.978 127.23 241.574 123.11 241.637 122.901C241.7 122.692 245.416 112.723 245.416 112.723Z" fill="#FFBF9D"/>
<path d="M244.811 121.11C244.848 121.11 244.898 121.247 245.062 121.422C245.295 121.661 245.607 121.794 245.931 121.791C246.755 121.791 247.759 120.83 248.245 119.549C248.479 118.94 248.582 118.283 248.546 117.627C248.563 117.377 248.522 117.125 248.427 116.896C248.331 116.666 248.184 116.465 247.998 116.311C247.876 116.215 247.726 116.169 247.575 116.181C247.424 116.193 247.282 116.263 247.175 116.377C247.014 116.543 247.006 116.701 246.969 116.701C246.932 116.701 246.866 116.521 247.022 116.263C247.12 116.102 247.265 115.981 247.434 115.916C247.672 115.841 247.927 115.868 248.147 115.99C248.4 116.161 248.609 116.397 248.753 116.678C248.897 116.958 248.972 117.272 248.97 117.592C249.037 118.328 248.935 119.07 248.674 119.755C248.122 121.181 246.957 122.26 245.878 122.172C245.677 122.155 245.482 122.091 245.308 121.984C245.133 121.877 244.983 121.73 244.869 121.554C244.762 121.295 244.782 121.115 244.811 121.11Z" fill="#FF9A6C"/>
<path d="M222.839 79.6538C221.921 78.5852 226.863 76.1788 230.223 75.9964C235.302 75.701 242.372 77.0041 245.923 79.6234C250.206 82.7726 253.276 86.6298 254.009 91.8379C254.742 97.046 253.695 102.397 251.642 107.254C251.015 108.735 250.246 110.234 248.939 111.193C247.327 112.379 245.013 112.636 244.253 114.829C244.128 115.23 243.923 115.602 243.65 115.924C243.377 116.246 243.042 116.512 242.664 116.706C240.809 117.574 239.705 115.685 239.471 114.099C238.972 110.729 240.085 107.354 241.184 104.109C241.966 101.815 242.774 99.4741 244.276 97.5499C245.088 96.503 246.086 95.6039 246.841 94.5093C247.597 93.4147 248.087 92.0464 247.725 90.7824C247.632 90.5036 247.513 90.2345 247.367 89.9788C246.699 88.7393 245.709 87.6967 244.497 86.9578C243.284 86.219 241.894 85.8104 240.469 85.7741C235.863 85.6568 228.103 85.1486 226.845 83.1157C225.003 80.1881 224.875 78.6851 224.875 78.6851L222.839 79.6538Z" fill="#263238"/>
<path d="M234.964 143.905L235.095 137.495L213.117 145.644C213.117 145.644 209.054 132.473 209.054 131.853L204.184 134.889L196.089 131.419L187.994 127.43L171.621 156.052L154.445 206.591L194.907 233.53L224.914 201.439L243.164 173.684L253.192 156.112L234.964 143.905Z" fill="#B366FF"/>
<path d="M211.079 145.257C211.053 145.061 211.043 144.863 211.049 144.665C211.049 144.265 211.049 143.697 211.023 143.009L211.121 143.065C208.762 144.151 206.585 145.556 204.659 147.237L204.489 147.389V147.169C204.489 146.905 204.455 146.625 204.438 146.341C204.264 143.441 204.12 140.816 204.014 138.912C203.971 137.984 203.937 137.224 203.912 136.66C203.912 136.415 203.912 136.211 203.912 136.048C203.884 136.043 203.859 136.028 203.842 136.007C203.824 135.985 203.816 135.958 203.819 135.932C203.822 135.905 203.835 135.88 203.856 135.862C203.877 135.844 203.905 135.834 203.933 135.834C203.962 135.834 203.989 135.844 204.01 135.862C204.031 135.88 204.044 135.905 204.047 135.932C204.05 135.958 204.042 135.985 204.025 136.007C204.007 136.028 203.982 136.043 203.954 136.048C203.954 136.208 203.988 136.412 204.014 136.656C204.056 137.22 204.111 137.98 204.179 138.904C204.315 140.804 204.48 143.429 204.654 146.329C204.654 146.613 204.688 146.893 204.701 147.157L204.519 147.085C206.46 145.393 208.671 143.997 211.07 142.949L211.172 142.909V143.009C211.172 143.697 211.142 144.253 211.134 144.665C211.131 144.863 211.112 145.061 211.079 145.257Z" fill="#263238"/>
<path d="M233.232 144.238C233.151 144.29 233.064 144.333 232.972 144.366L232.214 144.7L229.405 145.885L220.089 149.717L215.665 151.517L215.476 151.591L215.512 151.405C215.877 149.47 216.049 147.507 216.024 145.542L216.127 145.6L214.031 146.538L213.47 146.777C213.345 146.831 213.277 146.855 213.273 146.847C213.328 146.806 213.388 146.771 213.452 146.744L213.995 146.471L216.064 145.481L216.163 145.431V145.542C216.226 147.523 216.076 149.505 215.714 151.459L215.561 151.348L219.981 149.539L229.324 145.761L232.169 144.638L232.945 144.345C233.036 144.299 233.132 144.263 233.232 144.238Z" fill="#263238"/>
<path d="M199.202 97.9724H14.833C10.9381 97.9724 7.78064 101.13 7.78064 105.025V232.684C7.78064 236.579 10.9381 239.737 14.833 239.737H199.202C203.097 239.737 206.255 236.579 206.255 232.684V105.025C206.255 101.13 203.097 97.9724 199.202 97.9724Z" fill="#455A64"/>
<path d="M0.0216064 230.579H215.054V234.369C215.054 236.654 214.147 238.845 212.531 240.461C210.915 242.077 208.724 242.985 206.438 242.985H8.63743C6.35237 242.985 4.1609 242.077 2.54512 240.461C0.92934 238.845 0.0216064 236.654 0.0216064 234.369V230.579Z" fill="#455A64"/>
<path d="M200.373 103.607H13.1097V223.323H200.373V103.607Z" fill="#263238"/>
<path d="M87.4529 229.253L90.1199 233.837H127.667L130.145 229.253H87.4529Z" fill="#263238"/>
<path d="M197 223H17L17.1888 107H197V223Z" fill="#FAFAFA"/>
<path d="M32.084 112.111C32.0698 112.401 31.9711 112.68 31.7999 112.913C31.6288 113.147 31.3928 113.326 31.1212 113.427C30.8496 113.528 30.5544 113.547 30.272 113.482C29.9896 113.417 29.7325 113.27 29.5326 113.061C29.3327 112.851 29.1986 112.587 29.1471 112.302C29.0956 112.017 29.1289 111.723 29.2428 111.456C29.3567 111.19 29.5463 110.963 29.7881 110.803C30.0298 110.643 30.3131 110.558 30.6029 110.557C31.0052 110.568 31.387 110.737 31.6647 111.028C31.9423 111.319 32.0931 111.709 32.084 112.111Z" fill="#263238"/>
<path d="M23.1003 112.111C23.0861 112.401 22.9873 112.68 22.8161 112.913C22.645 113.147 22.409 113.326 22.1374 113.427C21.8659 113.528 21.5706 113.547 21.2882 113.482C21.0059 113.417 20.7488 113.27 20.5488 113.061C20.3489 112.851 20.2149 112.587 20.1634 112.302C20.1118 112.017 20.1451 111.723 20.259 111.456C20.373 111.19 20.5625 110.963 20.8043 110.803C21.0461 110.643 21.3294 110.558 21.6191 110.557C22.0214 110.568 22.4033 110.737 22.6809 111.028C22.9586 111.319 23.1094 111.709 23.1003 112.111Z" fill="#263238"/>
<path d="M27.7181 112.111C27.7039 112.401 27.6051 112.68 27.434 112.913C27.2628 113.147 27.0268 113.326 26.7552 113.427C26.4837 113.528 26.1884 113.547 25.906 113.482C25.6237 113.417 25.3666 113.27 25.1666 113.061C24.9667 112.851 24.8327 112.587 24.7812 112.302C24.7296 112.017 24.7629 111.723 24.8768 111.456C24.9908 111.19 25.1803 110.963 25.4221 110.803C25.6639 110.643 25.9472 110.558 26.2369 110.557C26.6392 110.568 27.0211 110.737 27.2987 111.028C27.5764 111.319 27.7272 111.709 27.7181 112.111Z" fill="#263238"/>
<path d="M204.551 229.253C204.551 229.33 160.503 229.388 106.171 229.388C51.8375 229.388 7.78064 229.33 7.78064 229.253C7.78064 229.175 51.8279 229.112 106.171 229.112C160.513 229.112 204.551 229.175 204.551 229.253Z" fill="#263238"/>
<path d="M87.6029 136.753C90.5284 134.987 93.6767 133.62 96.9641 132.687L98.9003 123.418L114.554 123.142L116.81 132.339C120.127 133.158 123.32 134.415 126.306 136.076L134.22 130.892L145.484 141.768L140.585 149.866C142.352 152.793 143.72 155.943 144.651 159.232L153.916 161.168L154.192 176.822L144.995 179.077C144.174 182.385 142.916 185.569 141.253 188.545L146.442 196.459L135.566 207.723L127.478 202.819C124.551 204.586 121.401 205.953 118.112 206.885L116.175 216.154L100.517 216.425L98.2662 207.229C94.9575 206.418 91.7719 205.17 88.7936 203.516L80.8796 208.705L69.6161 197.829L74.5194 189.741C72.7511 186.814 71.382 183.664 70.4487 180.375L61.1842 178.438L60.9083 162.785L70.105 160.529C70.9233 157.212 72.1799 154.018 73.8417 151.032L68.6577 143.118L79.534 131.855L87.6029 136.753ZM95.9477 157.61C93.6405 160 92.0938 163.021 91.5032 166.289C90.9125 169.558 91.3044 172.929 92.6294 175.975C93.9543 179.021 96.1527 181.606 98.9467 183.403C101.741 185.2 105.005 186.128 108.326 186.069C111.647 186.011 114.877 184.969 117.606 183.076C120.335 181.182 122.442 178.522 123.659 175.431C124.876 172.341 125.15 168.958 124.445 165.712C123.74 162.466 122.089 159.502 119.699 157.194C118.112 155.663 116.238 154.459 114.185 153.652C112.132 152.845 109.94 152.45 107.734 152.49C105.529 152.53 103.353 153.004 101.33 153.885C99.3078 154.766 97.4788 156.037 95.9477 157.625V157.61Z" fill="#E0E0E0"/>
<path d="M150.145 142.741C150.36 141.583 150.726 140.459 151.234 139.396L149.298 136.783L152.802 132.678L155.707 134.198C156.675 133.53 157.728 132.995 158.838 132.605L159.322 129.377L164.7 128.956L165.668 132.068C166.827 132.282 167.952 132.65 169.013 133.162L171.627 131.226L175.731 134.735L174.211 137.639C174.881 138.609 175.419 139.664 175.809 140.776L179.032 141.26L179.453 146.642L176.341 147.61C176.129 148.769 175.761 149.895 175.247 150.955L177.183 153.574L173.679 157.674L170.775 156.154C169.805 156.824 168.75 157.361 167.638 157.751L167.154 160.979L161.777 161.401L160.808 158.283C159.65 158.071 158.525 157.705 157.464 157.194L154.845 159.13L150.75 155.583L152.27 152.678C151.601 151.708 151.064 150.653 150.673 149.542L147.449 149.058L147.028 143.675L150.14 142.707L150.145 142.741ZM157.44 144.372C157.325 145.583 157.593 146.799 158.206 147.849C158.818 148.899 159.745 149.73 160.856 150.226C161.966 150.721 163.204 150.855 164.395 150.61C165.586 150.364 166.67 149.751 167.494 148.857C168.318 147.963 168.84 146.832 168.988 145.625C169.135 144.418 168.9 143.196 168.316 142.129C167.731 141.063 166.827 140.207 165.73 139.682C164.633 139.157 163.4 138.989 162.202 139.203C160.953 139.426 159.81 140.052 158.95 140.985C158.09 141.919 157.559 143.109 157.44 144.372Z" fill="#E0E0E0"/>
<path d="M32.2679 196.774C32.3071 195.383 32.5334 194.004 32.9407 192.674L30.1963 189.997L33.5555 184.586L37.1954 185.844C38.212 184.89 39.3515 184.076 40.5837 183.424L40.5546 179.576L46.76 178.124L48.4396 181.585C49.8302 181.623 51.2093 181.85 52.5393 182.258L55.2451 179.513L60.6566 182.872L59.3981 186.512C60.3521 187.529 61.1661 188.668 61.8183 189.9L65.6664 189.871L67.1185 196.072L63.6528 197.742C63.6096 199.132 63.3818 200.511 62.9751 201.842L65.7196 204.543L62.3604 209.959L58.7205 208.7C57.7048 209.656 56.5651 210.47 55.3322 211.121L55.3613 214.969L49.1608 216.421L47.4763 212.96C46.0895 212.912 44.7155 212.677 43.3911 212.263L40.6902 215.007L35.2738 211.648L36.5323 208.008C35.5783 206.992 34.7644 205.852 34.1121 204.62L30.2398 204.649L28.7877 198.449L32.2486 196.764L32.2679 196.774ZM41.2371 198.516C41.548 199.831 42.2416 201.024 43.2302 201.945C44.2188 202.865 45.4581 203.472 46.7915 203.689C48.1249 203.906 49.4927 203.723 50.722 203.163C51.9513 202.603 52.9871 201.691 53.6985 200.542C54.4098 199.394 54.7649 198.06 54.7188 196.71C54.6727 195.36 54.2275 194.054 53.4395 192.956C52.6515 191.859 51.5559 191.02 50.2913 190.545C49.0266 190.07 47.6495 189.981 46.334 190.288C45.4569 190.492 44.6288 190.868 43.8973 191.393C43.1659 191.919 42.5455 192.584 42.0718 193.35C41.5982 194.116 41.2806 194.968 41.1374 195.857C40.9941 196.746 41.028 197.655 41.2371 198.531V198.516Z" fill="#E0E0E0"/>
<path d="M43.4057 145.069C43.5638 144.195 43.8406 143.346 44.2285 142.547L42.7764 140.572L45.4193 137.479L47.5974 138.627C48.3282 138.122 49.1224 137.717 49.9595 137.421L50.3177 135.001L54.3739 134.682L55.1 137.029C55.973 137.192 56.8209 137.468 57.6218 137.852L59.5967 136.4L62.6848 139.043L61.5425 141.221C62.047 141.951 62.4508 142.745 62.7429 143.583L65.1631 143.936L65.4825 147.993L63.1398 148.699C62.9797 149.572 62.7046 150.42 62.3218 151.221L63.7739 153.191L61.1311 156.284L58.9529 155.137C58.2233 155.643 57.4288 156.048 56.5908 156.342L56.2375 158.762L52.1812 159.077L51.4504 156.729C50.5764 156.571 49.728 156.294 48.9285 155.907L46.9585 157.359L43.8655 154.716L45.0078 152.538C44.5033 151.808 44.0995 151.013 43.8074 150.176L41.3873 149.817L41.0726 145.761L43.4202 145.035L43.4057 145.069ZM48.8995 147.039C48.968 147.897 49.2892 148.716 49.8225 149.392C50.3559 150.067 51.0776 150.57 51.8963 150.836C52.7151 151.102 53.5943 151.119 54.423 150.886C55.2516 150.652 55.9926 150.179 56.5522 149.525C57.1119 148.87 57.4651 148.065 57.5674 147.21C57.6698 146.356 57.5165 145.49 57.127 144.722C56.7376 143.954 56.1294 143.319 55.3792 142.897C54.629 142.474 53.7706 142.284 52.9121 142.349C52.3403 142.392 51.7827 142.548 51.2712 142.808C50.7598 143.067 50.3046 143.425 49.9318 143.861C49.559 144.296 49.2759 144.801 49.0987 145.347C48.9216 145.892 48.8539 146.467 48.8995 147.039Z" fill="#EBEBEB"/>
<path d="M150.348 188.753C150.488 188.003 150.726 187.274 151.055 186.585L149.792 184.891L152.062 182.234L153.935 183.202C154.562 182.767 155.244 182.419 155.963 182.166L156.268 180.075L159.753 179.804L160.378 181.822C161.129 181.96 161.858 182.198 162.546 182.529L164.24 181.265L166.898 183.536L165.93 185.404C166.364 186.032 166.712 186.716 166.965 187.437L169.056 187.742L169.327 191.227L167.309 191.851C167.171 192.602 166.934 193.332 166.602 194.02L167.866 195.714L165.596 198.366L163.727 197.398C163.098 197.831 162.414 198.179 161.694 198.434L161.389 200.52L157.904 200.791L157.28 198.778C156.529 198.638 155.8 198.4 155.111 198.071L153.417 199.334L150.75 197.064L151.718 195.196C151.284 194.569 150.935 193.887 150.682 193.168L148.596 192.863L148.32 189.378L150.339 188.753H150.348ZM155.068 190.443C155.125 191.184 155.401 191.891 155.861 192.474C156.32 193.058 156.943 193.492 157.649 193.722C158.356 193.951 159.115 193.966 159.83 193.763C160.545 193.561 161.183 193.151 161.665 192.585C162.146 192.019 162.449 191.323 162.534 190.585C162.62 189.847 162.484 189.1 162.144 188.439C161.805 187.778 161.277 187.233 160.627 186.873C159.977 186.513 159.235 186.354 158.495 186.416C157.507 186.497 156.592 186.967 155.949 187.721C155.307 188.476 154.99 189.455 155.068 190.443Z" fill="#EBEBEB"/>
<path d="M107.969 218.555H62.2987C59.6143 218.549 56.9786 217.839 54.6552 216.496C52.3317 215.154 50.4018 213.227 49.0585 210.906C47.7151 208.586 47.0053 205.954 47 203.274C46.9947 200.594 47.6942 197.96 49.0283 195.634L71.8773 156.128L94.717 116.621C96.064 114.297 97.9997 112.367 100.33 111.025C102.66 109.684 105.302 108.977 107.992 108.977C110.682 108.977 113.324 109.684 115.654 111.025C117.984 112.367 119.92 114.297 121.267 116.621L144.116 156.128L166.965 195.634C168.299 197.961 168.999 200.596 168.993 203.277C168.987 205.957 168.277 208.59 166.932 210.91C165.588 213.231 163.657 215.158 161.332 216.5C159.007 217.842 156.37 218.55 153.685 218.555H107.969Z" fill="#FF6666"/>
<path d="M156.847 200.031C156.847 200.031 156.965 200.261 157.193 200.74C157.581 201.698 157.73 202.739 157.625 203.769C157.52 204.8 157.165 205.788 156.592 206.647C156.141 207.325 155.563 207.906 154.889 208.358C154.107 208.861 153.211 209.159 152.286 209.223C144.565 209.305 133.422 209.287 119.638 209.324L71.2229 209.379H64.3038C63.0697 209.366 61.87 208.965 60.8704 208.234C59.8709 207.502 59.1206 206.475 58.723 205.294C58.301 204.114 58.2221 202.837 58.4954 201.614C58.5683 201.31 58.6684 201.007 58.7685 200.694C58.8687 200.381 59.0326 200.114 59.1691 199.838L60.0795 198.228C61.2449 196.066 62.4284 193.895 63.6119 191.696L78.2877 164.471L93.0545 137.265C95.4276 132.867 97.7644 128.552 100.065 124.32C100.647 123.271 101.184 122.213 101.804 121.174C102.419 120.111 103.297 119.23 104.353 118.616C105.387 118.017 106.548 117.676 107.738 117.622C108.929 117.568 110.115 117.801 111.199 118.303C112.274 118.795 113.212 119.547 113.93 120.493C114.552 121.447 115.114 122.44 115.614 123.465C116.68 125.433 117.736 127.375 118.764 129.288C120.84 133.116 122.846 136.83 124.782 140.43C128.67 147.616 132.284 154.314 135.58 160.423C142.171 172.651 147.497 182.55 151.184 189.405L155.408 197.29C155.882 198.21 156.246 198.872 156.492 199.351C156.738 199.829 156.856 200.059 156.856 200.059C156.856 200.059 156.71 199.829 156.455 199.369L155.326 197.336L151.02 189.488C147.306 182.652 141.916 172.789 135.288 160.589L124.445 140.614L118.4 129.491C117.362 127.577 116.315 125.636 115.241 123.667C114.74 122.673 114.184 121.709 113.575 120.778C112.903 119.895 112.028 119.19 111.026 118.726C110.006 118.253 108.889 118.033 107.768 118.084C106.647 118.135 105.554 118.456 104.58 119.021C103.594 119.604 102.772 120.434 102.195 121.431C101.594 122.434 101.048 123.511 100.474 124.559L93.4642 137.505C88.7119 146.3 83.7774 155.4 78.7338 164.729L63.9943 191.935C62.8016 194.134 61.6272 196.314 60.4528 198.467C59.8128 199.482 59.3078 200.577 58.9506 201.724C58.6908 202.871 58.7635 204.069 59.16 205.174C59.5198 206.27 60.2105 207.224 61.1348 207.903C62.0591 208.581 63.1706 208.949 64.3129 208.956H71.232L119.648 209.002L152.286 209.048C153.18 208.995 154.047 208.717 154.807 208.238C155.471 207.803 156.043 207.24 156.492 206.582C157.193 205.54 157.567 204.309 157.566 203.049C157.555 202.001 157.309 200.969 156.847 200.031Z" fill="#263238"/>
<path d="M100.44 191.39C100.44 187.349 103.797 184.335 108.575 184.335C113.353 184.335 116.633 187.349 116.633 191.39C116.633 195.431 113.353 198.583 108.575 198.583C103.797 198.583 100.44 195.376 100.44 191.39ZM100.516 150.002H116.633L113.925 180.496H103.158L100.516 150.002Z" fill="white"/>
<path d="M110.155 112.133C109.22 111.803 108.25 111.592 107.266 111.503C104.875 111.449 102.541 112.266 100.665 113.813C98.8326 115.408 97.3566 117.402 96.3401 119.655C95.508 121.373 95.1149 122.519 95.0417 122.471C95.0665 122.189 95.1312 121.912 95.2338 121.65C95.4623 120.919 95.7309 120.201 96.0384 119.502C97.005 117.137 98.5005 115.049 100.4 113.412C102.356 111.791 104.82 110.988 107.312 111.159C108.058 111.218 108.79 111.405 109.478 111.713C109.926 111.933 110.173 112.104 110.155 112.133Z" fill="white"/>
<path d="M91.2631 128.95C91.3891 128.123 91.6161 127.341 91.9317 126.649C92.3794 125.469 92.8027 124.568 92.8824 124.635C92.7529 125.45 92.5238 126.219 92.2077 126.898C91.9803 127.671 91.6595 128.367 91.2631 128.95Z" fill="white"/>
<g opacity="0.3">
<path d="M131.001 133.153L59.7957 177.021L50.5516 193.047L136.027 141.855L131.001 133.153Z" fill="white"/>
</g>
<g opacity="0.3">
<path d="M142.211 152.597L47.8317 208.263C48.2101 209.723 48.9102 211.079 49.8808 212.233L143.875 155.482L142.211 152.597Z" fill="white"/>
</g>
<path d="M220.626 189.934L208.376 184.152L200.921 182.056V186.37C200.921 186.37 187.286 191.219 187.039 192.345C186.792 193.471 188.155 196.5 190.651 195.939C190.651 195.939 189.25 197.665 189.833 199.568C190.417 201.47 191.708 201.828 194.093 201.384C194.093 201.384 192.474 203.839 193.744 205.09C195.013 206.341 196.99 206.026 196.99 206.026C196.99 206.026 197.015 209.016 198.574 209.275C200.133 209.534 204.478 209.227 206.101 208.723L214.344 206.134L219.685 204.922L220.626 189.934Z" fill="#FFBF9D"/>
<path d="M197.515 193.648C197.561 193.8 195.951 194.374 193.925 194.937C191.899 195.5 190.209 195.827 190.163 195.675C190.117 195.524 191.727 194.945 193.753 194.386C195.779 193.828 197.468 193.496 197.515 193.648Z" fill="#FF9A6C"/>
<path d="M199.615 198.914C199.657 199.094 198.52 199.687 197.071 200.243C195.622 200.798 194.41 201.092 194.365 200.912C194.32 200.731 195.465 200.138 196.913 199.588C198.362 199.037 199.574 198.738 199.615 198.914Z" fill="#FF9A6C"/>
<path d="M201.717 204.195C201.748 204.314 200.534 204.473 199.11 204.701C197.685 204.929 196.573 205.257 196.472 205.143C196.371 205.029 197.417 204.57 198.934 204.309C200.451 204.047 201.695 204.097 201.717 204.195Z" fill="#FF9A6C"/>
<path d="M218.5 189L245.838 198.156L244.25 216.722L214.323 204.714L218.5 189Z" fill="#FFBF9D"/>
<path d="M252.835 155.793C252.835 155.793 256.38 159.423 258.445 165.951C260.51 172.48 270.232 200.155 269.996 208.96C269.738 218.066 263.552 224.565 249.958 220.965C241.847 218.802 232.182 215.341 232.182 215.341L239.053 192.956L244.427 194.328L235.749 178.182L252.835 155.793Z" fill="#B366FF"/>
<path d="M248.808 166C248.859 166.04 245.134 171.478 240.493 178.147C235.851 184.817 232.052 190.544 232 190.5C231.948 190.456 235.674 184.684 240.315 178.014C244.957 171.345 248.76 165.965 248.808 166Z" fill="#263238"/>
<g opacity="0.3">
<path d="M264.175 198.563C264.088 198.03 263.875 197.527 263.552 197.095C263.229 196.663 262.806 196.316 262.32 196.083C261.343 195.622 260.292 195.34 259.216 195.251C254.366 194.583 249.459 194.384 244.566 194.215L244.999 194.41C251.045 195.528 256.963 197.253 262.662 199.559C262.974 199.732 263.341 199.776 263.685 199.681C263.871 199.567 264.017 199.398 264.105 199.198C264.192 198.998 264.217 198.777 264.175 198.563Z" fill="black"/>
</g>
<g opacity="0.3">
<path d="M152.754 98.476C147.672 97.6096 141.592 99.0859 136.51 98.2194C135.755 98.0936 134.922 97.9726 134.254 98.3598C133.451 98.8196 133.175 99.8458 133.136 100.78C133.116 102.062 133.364 103.334 133.864 104.514C134.364 105.694 135.105 106.757 136.04 107.634C137.944 109.374 140.321 110.509 142.87 110.896C144.898 111.24 147.081 111.172 148.887 110.194C152.062 108.471 153.587 101.966 152.754 98.476Z" fill="black"/>
</g>
<path d="M133.03 107.774C133.03 107.774 129.946 104.159 129.501 102.493C129.206 101.39 129.351 98.2969 129.501 96.3365C129.535 95.6759 129.762 95.0398 130.153 94.5065C130.545 93.9732 131.083 93.5661 131.703 93.3355C131.885 93.2454 132.088 93.2064 132.29 93.2226C132.492 93.2388 132.686 93.3096 132.851 93.4275C133.269 92.8596 133.739 92.3314 134.254 91.8495C135.464 90.6104 136.04 89.773 138.703 90.5426C138.703 90.5426 140.663 88.4758 141.791 88.6307C142.548 88.7427 143.296 88.9043 144.032 89.1147C144.032 89.1147 148.325 88.9308 149.206 90.2958C149.706 90.912 150.381 91.3625 151.142 91.5881C151.814 91.8251 152.431 92.1944 152.957 92.6741C153.484 93.1538 153.908 93.7343 154.206 94.381C154.707 95.5689 154.997 96.8351 155.063 98.1226L150.707 98.2969C150.707 98.2969 151.016 108.321 149.918 109.13C148.819 109.938 148.403 109.648 148.403 109.648C148.403 109.648 147.565 112 144.298 110.262C144.298 110.262 141.587 111.08 140.426 109.962C139.264 108.844 135.014 98.1033 135.014 98.1033L135.135 103.428C135.135 103.428 137.376 106.879 136.278 107.687C135.179 108.495 133.03 107.774 133.03 107.774Z" fill="#FFBF9D"/>
<path d="M138.47 94.1874C138.573 94.3884 138.656 94.5992 138.717 94.8167L139.308 96.5592C139.792 98.0113 140.455 100.083 141.161 102.343C141.868 104.604 142.459 106.7 143.127 108.074C143.384 108.628 143.681 109.162 144.017 109.672C144.254 110.035 144.404 110.219 144.39 110.233C144.375 110.248 144.337 110.199 144.259 110.112C144.146 109.991 144.039 109.863 143.94 109.73C143.568 109.236 143.244 108.707 142.972 108.152C142.251 106.753 141.645 104.676 140.929 102.421C140.213 100.165 139.588 98.1033 139.143 96.6124C138.94 95.9009 138.765 95.3104 138.63 94.8457C138.557 94.6316 138.503 94.4113 138.47 94.1874Z" fill="#FF9A6C"/>
<path d="M143.828 92.9482C143.925 93.1558 144 93.3733 144.051 93.5968L144.569 95.3925C144.99 96.9076 145.537 99.0083 146.176 101.332C146.815 103.655 147.333 105.765 147.71 107.295C147.889 108.021 148.035 108.631 148.151 109.105C148.216 109.326 148.258 109.553 148.277 109.783C148.185 109.573 148.111 109.356 148.054 109.134C147.918 108.65 147.749 108.06 147.541 107.339C147.115 105.823 146.544 103.723 145.934 101.399C145.324 99.076 144.777 96.9656 144.395 95.4361C144.22 94.7052 144.07 94.1002 143.959 93.621C143.894 93.4014 143.85 93.1761 143.828 92.9482Z" fill="#FF9A6C"/>
<path d="M265.773 243.144C265.773 243.236 206.173 243.303 132.679 243.303C59.1856 243.303 -0.426758 243.26 -0.426758 243.144C-0.426758 243.028 59.155 242.985 132.679 242.985C206.204 242.985 265.773 243.083 265.773 243.144Z" fill="#263238"/>
<path d="M122.564 59H195.69C195.69 59 188.939 26.7106 158.574 26.7106C131.566 26.7106 122.564 59 122.564 59Z" fill="#E0E0E0"/>
<path d="M159.91 0H158.344V26.6984H159.91V0Z" fill="#E0E0E0"/>
<path d="M244.238 261.379C243.581 261.621 242.888 261.75 242.187 261.76L230.94 261.957C229.835 261.972 228.745 261.699 227.779 261.162C226.812 260.625 226.003 259.845 225.432 258.899L219.641 249.255C219.072 248.306 218.762 247.225 218.744 246.119C218.725 245.013 218.998 243.922 219.535 242.955L224.994 233.122C225.532 232.156 226.314 231.349 227.262 230.78C228.21 230.211 229.291 229.901 230.396 229.88L241.635 229.687C242.741 229.669 243.833 229.942 244.801 230.478C245.768 231.014 246.579 231.794 247.151 232.742L252.942 242.385C253.507 243.335 253.814 244.416 253.833 245.522C253.851 246.627 253.581 247.717 253.048 248.686L247.59 258.518C246.852 259.843 245.662 260.859 244.238 261.379ZM231.189 255.009L241.713 254.856L246.809 245.673L241.383 236.626L230.867 236.776L225.779 246.03L231.189 255.009Z" fill="#E0E0E0"/>
<path d="M231.189 255.009C231.044 254.823 230.911 254.628 230.791 254.425L229.683 252.659C228.703 251.068 227.353 248.817 225.644 246.089C225.627 246.063 225.618 246.034 225.617 246.003C225.615 245.973 225.622 245.943 225.636 245.916L230.683 236.677C230.708 236.651 230.738 236.63 230.772 236.618C230.806 236.605 230.843 236.601 230.879 236.606L241.394 236.455L241.601 236.564L241.651 236.703L241.711 236.866L241.893 237.16L242.247 237.751C242.481 238.137 242.7 238.509 242.943 238.919C243.404 239.675 243.857 240.433 244.31 241.191C245.216 242.708 246.09 244.162 246.926 245.566C246.946 245.597 246.956 245.634 246.957 245.671C246.957 245.708 246.948 245.745 246.93 245.777L241.853 254.934C241.834 254.956 241.81 254.973 241.783 254.983C241.756 254.993 241.726 254.996 241.698 254.991L233.982 255.041L231.898 255.027C231.661 255.036 231.423 255.027 231.186 255.001C231.437 254.965 231.689 254.946 231.943 254.946L234.046 254.861L241.693 254.65L241.539 254.707L246.586 245.469L246.592 245.688C245.744 244.279 244.862 242.828 243.959 241.32C243.506 240.561 243.045 239.806 242.584 239.051C242.351 238.665 242.131 238.292 241.889 237.882L241.534 237.291L241.353 236.997L241.293 236.834L241.263 236.753L241.242 236.696C241.242 236.696 241.613 236.902 241.429 236.803L230.922 236.95L231.117 236.879L225.98 246.049L225.981 245.873C227.59 248.629 228.909 250.872 229.848 252.479C230.284 253.243 230.634 253.845 230.894 254.304C231.014 254.53 231.113 254.766 231.189 255.009Z" fill="#263238"/>
<path d="M244.238 261.379C244.238 261.379 244.588 261.251 245.201 260.879C246.086 260.35 246.828 259.612 247.362 258.73L252.874 248.666C253.482 247.575 253.743 246.326 253.625 245.084C253.566 244.428 253.405 243.785 253.149 243.178C252.841 242.561 252.499 241.961 252.123 241.383C250.646 238.938 249.075 236.334 247.425 233.593C247.054 232.892 246.591 232.244 246.046 231.667C245.477 231.093 244.798 230.638 244.051 230.329C243.303 230.02 242.501 229.864 241.692 229.869L239.096 229.895L233.781 229.991L231.038 230.07C230.144 230.028 229.251 230.157 228.406 230.451C227.561 230.759 226.794 231.248 226.158 231.883C225.55 232.529 225.046 233.265 224.664 234.065L222.083 238.705L219.594 243.192C218.857 244.614 218.706 246.268 219.173 247.8C219.427 248.531 219.775 249.227 220.208 249.87C220.612 250.544 221.001 251.206 221.396 251.856C222.17 253.162 222.925 254.42 223.653 255.65C224.38 256.881 225.082 258.066 225.77 259.163C226.486 260.18 227.492 260.959 228.656 261.397C229.197 261.598 229.762 261.723 230.336 261.771C230.895 261.807 231.465 261.774 232.003 261.78L235.085 261.743L240.019 261.694C241.056 261.728 242.094 261.697 243.127 261.601C243.824 261.485 244.179 261.345 244.185 261.362C243.859 261.528 243.515 261.654 243.159 261.737C242.125 261.867 241.084 261.924 240.042 261.907L235.145 262.008L232.067 262.081C231.515 262.088 230.964 262.123 230.37 262.091C229.765 262.047 229.168 261.92 228.597 261.714C227.366 261.264 226.3 260.453 225.537 259.387C224.807 258.25 224.128 257.075 223.387 255.858C222.646 254.642 221.888 253.376 221.082 252.082C220.688 251.443 220.29 250.785 219.888 250.107C219.435 249.439 219.071 248.715 218.804 247.953C218.3 246.313 218.458 244.541 219.243 243.015L221.721 238.524L224.302 233.883C224.527 233.487 224.727 233.1 224.982 232.711C225.241 232.315 225.54 231.946 225.872 231.609C226.546 230.935 227.36 230.417 228.255 230.09C229.148 229.78 230.091 229.641 231.035 229.683L233.778 229.604L239.093 229.508L241.689 229.482C242.566 229.475 243.436 229.644 244.246 229.979C245.04 230.307 245.761 230.791 246.365 231.403C246.935 232.005 247.419 232.683 247.804 233.417C249.431 236.179 250.984 238.784 252.464 241.23C252.848 241.824 253.194 242.441 253.501 243.078C253.891 243.999 254.064 244.997 254.006 245.996C253.948 246.994 253.661 247.966 253.168 248.836L247.53 258.835C246.961 259.727 246.18 260.464 245.256 260.979C244.934 261.154 244.592 261.288 244.238 261.379Z" fill="#263238"/>
<path d="M168.573 269.821C167.926 270.056 167.235 270.142 166.55 270.072C165.866 270.003 165.205 269.779 164.619 269.419L160.478 266.915C159.793 266.497 159.229 265.908 158.842 265.205C158.455 264.502 158.259 263.71 158.273 262.907L158.353 258.073C158.37 257.272 158.598 256.489 159.014 255.803C159.43 255.118 160.019 254.553 160.721 254.167L164.958 251.832C165.662 251.446 166.454 251.252 167.256 251.268C168.058 251.285 168.842 251.511 169.529 251.924L173.673 254.437C174.358 254.853 174.921 255.441 175.308 256.143C175.694 256.845 175.89 257.635 175.875 258.436L175.799 263.279C175.785 264.079 175.563 264.862 175.153 265.55C174.743 266.238 174.161 266.807 173.463 267.2L169.215 269.531C169.009 269.644 168.794 269.741 168.573 269.821ZM166.786 254.831L166.631 254.888L162.412 257.198C162.242 257.291 162.099 257.427 161.997 257.592C161.895 257.757 161.839 257.946 161.833 258.14L161.756 262.982C161.753 263.175 161.8 263.364 161.893 263.533C161.985 263.702 162.12 263.843 162.284 263.944L166.425 266.449C166.59 266.548 166.778 266.602 166.971 266.606C167.164 266.61 167.354 266.564 167.523 266.472L171.769 264.134C171.94 264.042 172.083 263.906 172.185 263.741C172.287 263.575 172.343 263.386 172.348 263.192L172.428 258.358C172.432 258.165 172.386 257.975 172.293 257.806C172.201 257.637 172.065 257.495 171.9 257.396L167.759 254.891C167.617 254.811 167.459 254.763 167.297 254.75C167.134 254.738 166.971 254.762 166.818 254.819L166.786 254.831Z" fill="#E0E0E0"/>
<path d="M166.818 254.819C166.919 254.742 167.041 254.697 167.168 254.691C167.324 254.678 167.48 254.7 167.626 254.755C167.814 254.841 167.998 254.937 168.175 255.044L171.506 256.976L172.051 257.303C172.263 257.444 172.426 257.645 172.521 257.88C172.602 258.116 172.63 258.368 172.605 258.616C172.606 258.847 172.599 259.08 172.604 259.319C172.576 260.253 172.57 261.299 172.558 262.376C172.554 262.645 172.551 262.914 172.543 263.194C172.544 263.528 172.416 263.849 172.187 264.091C171.961 264.285 171.71 264.448 171.441 264.577L170.674 265.005C169.633 265.571 168.626 266.152 167.46 266.754C167.285 266.818 167.098 266.845 166.911 266.832C166.725 266.819 166.544 266.766 166.379 266.678L165.594 266.198L164.065 265.279L162.598 264.374L162.232 264.157C162.094 264.078 161.969 263.977 161.864 263.858C161.648 263.609 161.531 263.29 161.536 262.961L161.62 259.909L161.66 258.527C161.655 258.296 161.676 258.065 161.722 257.839C161.786 257.607 161.915 257.399 162.095 257.24C163.555 256.383 164.703 255.833 165.517 255.406C165.923 255.16 166.355 254.959 166.804 254.806C166.711 254.886 166.609 254.954 166.5 255.01L165.61 255.557C164.854 256.018 163.632 256.669 162.31 257.476C162.182 257.599 162.089 257.754 162.041 257.925C162.011 258.128 162 258.334 162.006 258.539L161.994 259.92L161.948 262.977C161.946 263.201 162.026 263.418 162.172 263.588C162.362 263.756 162.572 263.9 162.799 264.014L164.31 264.912L165.838 265.832L166.61 266.298C166.718 266.355 166.837 266.389 166.959 266.397C167.082 266.404 167.204 266.386 167.319 266.343L170.47 264.627L171.241 264.207C171.482 264.101 171.708 263.962 171.912 263.795C172.072 263.632 172.161 263.414 172.161 263.186C172.161 262.909 172.173 262.637 172.176 262.368C172.211 261.301 172.233 260.277 172.26 259.315C172.279 259.08 172.286 258.847 172.281 258.614C172.308 258.413 172.292 258.208 172.236 258.012C172.165 257.841 172.05 257.692 171.903 257.579L171.377 257.254L168.122 255.202C167.952 255.038 167.744 254.917 167.517 254.85C167.29 254.784 167.05 254.773 166.818 254.819Z" fill="#263238"/>
<path d="M168.573 269.821C168.735 269.716 168.905 269.623 169.081 269.543L170.539 268.704L172.832 267.394C173.319 267.153 173.774 266.85 174.184 266.493C174.627 266.087 174.982 265.592 175.224 265.041C175.509 264.431 175.657 263.765 175.656 263.09C175.666 262.385 175.68 261.64 175.685 260.871C175.635 259.347 176.038 257.619 175.135 256.185C174.701 255.448 174.072 254.847 173.316 254.447L170.947 253.023L169.751 252.278C169.363 252.022 168.941 251.822 168.498 251.682C167.599 251.411 166.637 251.439 165.755 251.762C165.307 251.945 164.874 252.162 164.459 252.412L163.172 253.113L160.676 254.498C159.928 254.971 159.342 255.663 158.998 256.479C158.832 256.871 158.722 257.284 158.671 257.707C158.628 258.12 158.639 258.578 158.626 258.999L158.562 261.526C158.502 262.303 158.516 263.084 158.602 263.859C158.741 264.536 159.031 265.173 159.451 265.722C159.871 266.271 160.41 266.717 161.028 267.028L164.027 268.887C164.474 269.149 164.864 269.432 165.261 269.609C165.622 269.773 166.003 269.889 166.394 269.953C167.139 270.055 167.897 270.004 168.622 269.803C168.622 269.803 168.573 269.821 168.475 269.857C168.377 269.893 168.247 269.94 168.068 270.006C167.515 270.153 166.939 270.191 166.372 270.118C165.961 270.061 165.558 269.954 165.174 269.799C164.734 269.587 164.305 269.352 163.89 269.095L160.857 267.294C160.194 266.967 159.614 266.495 159.161 265.912C158.707 265.328 158.392 264.65 158.239 263.927C158.131 263.125 158.104 262.315 158.158 261.508L158.206 258.986C158.221 258.547 158.206 258.127 158.247 257.659C158.298 257.193 158.414 256.737 158.592 256.304C158.961 255.426 159.58 254.676 160.372 254.147C161.212 253.664 162.039 253.223 162.89 252.745L164.176 252.044C164.609 251.779 165.064 251.551 165.535 251.362C166.503 250.998 167.563 250.96 168.554 251.255C169.033 251.404 169.489 251.62 169.907 251.897L171.104 252.642C171.908 253.124 172.696 253.612 173.476 254.075C174.294 254.511 174.974 255.169 175.436 255.973C175.882 256.743 176.101 257.624 176.07 258.513C176.052 259.323 176.028 260.118 176.015 260.889C176.001 261.661 175.973 262.392 175.958 263.109C175.954 263.806 175.799 264.493 175.503 265.124C174.967 266.221 174.055 267.089 172.933 267.57L170.613 268.807C169.97 269.144 169.467 269.411 169.117 269.566C168.947 269.673 168.764 269.758 168.573 269.821Z" fill="#263238"/>
<path d="M244.075 230.143C243.862 231.339 243.485 232.5 242.953 233.593C242.558 234.75 241.969 235.83 241.212 236.79C241.569 235.637 242.014 234.514 242.542 233.43C242.927 232.28 243.442 231.177 244.075 230.143Z" fill="#263238"/>
<path d="M227.08 231.047C227.963 231.81 228.711 232.718 229.291 233.731C230.007 234.664 230.557 235.713 230.916 236.833C230.177 235.944 229.519 234.991 228.95 233.985C228.238 233.065 227.612 232.081 227.08 231.047Z" fill="#263238"/>
<path d="M225.613 245.878C224.47 246.058 223.313 246.141 222.156 246.126C221.003 246.254 219.842 246.289 218.683 246.232C220.939 245.608 223.305 245.487 225.613 245.878Z" fill="#263238"/>
<path d="M229.049 260.652C229.165 259.644 229.426 258.658 229.827 257.725C230.104 256.744 230.52 255.807 231.064 254.944C230.956 255.954 230.693 256.941 230.287 257.871C230.01 258.853 229.593 259.79 229.049 260.652Z" fill="#263238"/>
<path d="M244.404 260.09C243.769 259.371 243.252 258.556 242.873 257.674C242.355 256.864 241.97 255.975 241.735 255.042C242.368 255.765 242.885 256.583 243.268 257.465C243.782 258.276 244.165 259.161 244.404 260.09Z" fill="#263238"/>
<path d="M252.182 245.408C251.311 245.616 250.412 245.676 249.521 245.587C248.627 245.651 247.728 245.561 246.864 245.32C248.629 245.053 250.427 245.082 252.182 245.408Z" fill="#263238"/>
</g>
<defs>
<clipPath id="clip0_380_50137">
<rect width="270" height="270" fill="white"/>
</clipPath>
</defs>
</svg>
