<svg width="345" height="108" viewBox="0 0 345 108" fill="none" xmlns="http://www.w3.org/2000/svg">
<path d="M106.606 23.4002C103.902 23.4002 101.838 22.6482 100.414 21.1442C99.0056 19.6402 98.3016 17.5042 98.3016 14.7362C98.3016 13.3602 98.5176 12.1362 98.9496 11.0642C99.3816 9.97624 99.9736 9.06424 100.726 8.32824C101.478 7.57624 102.374 7.00824 103.414 6.62424C104.454 6.24024 105.582 6.04824 106.798 6.04824C107.502 6.04824 108.142 6.10424 108.718 6.21624C109.294 6.31224 109.798 6.43224 110.23 6.57624C110.662 6.70424 111.022 6.84024 111.31 6.98424C111.598 7.12824 111.806 7.24024 111.934 7.32024L110.854 10.3442C110.342 10.0722 109.742 9.84024 109.054 9.64824C108.382 9.45624 107.614 9.36024 106.75 9.36024C106.174 9.36024 105.606 9.45624 105.046 9.64824C104.502 9.84024 104.014 10.1522 103.582 10.5842C103.166 11.0002 102.83 11.5442 102.574 12.2162C102.318 12.8882 102.19 13.7042 102.19 14.6642C102.19 15.4322 102.27 16.1522 102.43 16.8242C102.606 17.4802 102.878 18.0482 103.246 18.5282C103.63 19.0082 104.126 19.3922 104.734 19.6802C105.342 19.9522 106.078 20.0882 106.942 20.0882C107.486 20.0882 107.974 20.0562 108.406 19.9922C108.838 19.9282 109.222 19.8562 109.558 19.7762C109.894 19.6802 110.19 19.5762 110.446 19.4642C110.702 19.3522 110.934 19.2482 111.142 19.1522L112.174 22.1522C111.646 22.4722 110.902 22.7602 109.942 23.0162C108.982 23.2722 107.87 23.4002 106.606 23.4002ZM119.402 20.5682C119.754 20.5682 120.09 20.5602 120.41 20.5442C120.73 20.5282 120.986 20.5042 121.178 20.4722V17.7602C121.034 17.7282 120.818 17.6962 120.53 17.6642C120.242 17.6322 119.978 17.6162 119.738 17.6162C119.402 17.6162 119.082 17.6402 118.778 17.6882C118.49 17.7202 118.234 17.7922 118.01 17.9042C117.786 18.0162 117.61 18.1682 117.482 18.3602C117.354 18.5522 117.29 18.7922 117.29 19.0802C117.29 19.6402 117.474 20.0322 117.842 20.2562C118.226 20.4642 118.746 20.5682 119.402 20.5682ZM119.114 10.1042C120.17 10.1042 121.05 10.2242 121.754 10.4642C122.458 10.7042 123.018 11.0482 123.434 11.4962C123.866 11.9442 124.17 12.4882 124.346 13.1282C124.522 13.7682 124.61 14.4802 124.61 15.2642V22.7042C124.098 22.8162 123.386 22.9442 122.474 23.0882C121.562 23.2482 120.458 23.3282 119.162 23.3282C118.346 23.3282 117.602 23.2562 116.93 23.1122C116.274 22.9682 115.706 22.7362 115.226 22.4162C114.746 22.0802 114.378 21.6482 114.122 21.1202C113.866 20.5922 113.738 19.9442 113.738 19.1762C113.738 18.4402 113.882 17.8162 114.17 17.3042C114.474 16.7922 114.874 16.3842 115.37 16.0802C115.866 15.7762 116.434 15.5602 117.074 15.4322C117.714 15.2882 118.378 15.2162 119.066 15.2162C119.53 15.2162 119.938 15.2402 120.29 15.2882C120.658 15.3202 120.954 15.3682 121.178 15.4322V15.0962C121.178 14.4882 120.994 14.0002 120.626 13.6322C120.258 13.2642 119.618 13.0802 118.706 13.0802C118.098 13.0802 117.498 13.1282 116.906 13.2242C116.314 13.3042 115.802 13.4242 115.37 13.5842L114.914 10.7042C115.122 10.6402 115.378 10.5762 115.682 10.5122C116.002 10.4322 116.346 10.3682 116.714 10.3202C117.082 10.2562 117.466 10.2082 117.866 10.1762C118.282 10.1282 118.698 10.1042 119.114 10.1042ZM135.452 13.6082C135.132 13.5282 134.756 13.4482 134.324 13.3682C133.892 13.2722 133.428 13.2242 132.932 13.2242C132.708 13.2242 132.436 13.2482 132.116 13.2962C131.812 13.3282 131.58 13.3682 131.42 13.4162V23.0642H127.844V11.1122C128.484 10.8882 129.236 10.6802 130.1 10.4882C130.98 10.2802 131.956 10.1762 133.028 10.1762C133.22 10.1762 133.452 10.1922 133.724 10.2242C133.996 10.2402 134.268 10.2722 134.54 10.3202C134.812 10.3522 135.084 10.4002 135.356 10.4642C135.628 10.5122 135.86 10.5762 136.052 10.6562L135.452 13.6082ZM145.577 13.6082C145.257 13.5282 144.881 13.4482 144.449 13.3682C144.017 13.2722 143.553 13.2242 143.057 13.2242C142.833 13.2242 142.561 13.2482 142.241 13.2962C141.937 13.3282 141.705 13.3682 141.545 13.4162V23.0642H137.969V11.1122C138.609 10.8882 139.361 10.6802 140.225 10.4882C141.105 10.2802 142.081 10.1762 143.153 10.1762C143.345 10.1762 143.577 10.1922 143.849 10.2242C144.121 10.2402 144.393 10.2722 144.665 10.3202C144.937 10.3522 145.209 10.4002 145.481 10.4642C145.753 10.5122 145.985 10.5762 146.177 10.6562L145.577 13.6082ZM147.26 16.8482C147.26 15.7282 147.428 14.7522 147.764 13.9202C148.116 13.0722 148.572 12.3682 149.132 11.8082C149.692 11.2482 150.332 10.8242 151.052 10.5362C151.788 10.2482 152.54 10.1042 153.308 10.1042C155.1 10.1042 156.516 10.6562 157.556 11.7602C158.596 12.8482 159.116 14.4562 159.116 16.5842C159.116 16.7922 159.108 17.0242 159.092 17.2802C159.076 17.5202 159.06 17.7362 159.044 17.9282H150.932C151.012 18.6642 151.356 19.2482 151.964 19.6802C152.572 20.1122 153.388 20.3282 154.412 20.3282C155.068 20.3282 155.708 20.2722 156.332 20.1602C156.972 20.0322 157.492 19.8802 157.892 19.7042L158.372 22.6082C158.18 22.7042 157.924 22.8002 157.604 22.8962C157.284 22.9922 156.924 23.0722 156.524 23.1362C156.14 23.2162 155.724 23.2802 155.276 23.3282C154.828 23.3762 154.38 23.4002 153.932 23.4002C152.796 23.4002 151.804 23.2322 150.956 22.8962C150.124 22.5602 149.428 22.1042 148.868 21.5282C148.324 20.9362 147.916 20.2402 147.644 19.4402C147.388 18.6402 147.26 17.7762 147.26 16.8482ZM155.66 15.4802C155.644 15.1762 155.588 14.8802 155.492 14.5922C155.412 14.3042 155.276 14.0482 155.084 13.8242C154.908 13.6002 154.676 13.4162 154.388 13.2722C154.116 13.1282 153.772 13.0562 153.356 13.0562C152.956 13.0562 152.612 13.1282 152.324 13.2722C152.036 13.4002 151.796 13.5762 151.604 13.8002C151.412 14.0242 151.26 14.2882 151.148 14.5922C151.052 14.8802 150.98 15.1762 150.932 15.4802H155.66ZM164.923 16.3442C164.923 18.3442 165.731 19.3442 167.347 19.3442C167.715 19.3442 168.059 19.2962 168.379 19.2002C168.699 19.1042 168.971 18.9922 169.195 18.8642V13.1522C169.019 13.1202 168.811 13.0962 168.571 13.0802C168.331 13.0482 168.051 13.0322 167.731 13.0322C166.787 13.0322 166.083 13.3442 165.619 13.9682C165.155 14.5922 164.923 15.3842 164.923 16.3442ZM172.771 21.4802C172.771 23.5442 172.243 25.0722 171.187 26.0642C170.147 27.0722 168.531 27.5762 166.339 27.5762C165.571 27.5762 164.803 27.5042 164.035 27.3602C163.267 27.2322 162.555 27.0562 161.899 26.8322L162.523 23.8322C163.083 24.0562 163.667 24.2322 164.275 24.3602C164.899 24.4882 165.603 24.5522 166.387 24.5522C167.411 24.5522 168.131 24.3282 168.547 23.8802C168.979 23.4322 169.195 22.8562 169.195 22.1522V21.6962C168.811 21.8722 168.411 22.0082 167.995 22.1042C167.595 22.1842 167.155 22.2242 166.675 22.2242C164.931 22.2242 163.595 21.7122 162.667 20.6882C161.739 19.6482 161.275 18.2002 161.275 16.3442C161.275 15.4162 161.419 14.5762 161.707 13.8242C161.995 13.0562 162.411 12.4002 162.955 11.8562C163.515 11.3122 164.195 10.8962 164.995 10.6082C165.795 10.3042 166.699 10.1522 167.707 10.1522C168.139 10.1522 168.579 10.1762 169.027 10.2242C169.491 10.2562 169.947 10.3042 170.395 10.3682C170.843 10.4322 171.267 10.5122 171.667 10.6082C172.083 10.6882 172.451 10.7762 172.771 10.8722V21.4802ZM180.949 20.5682C181.301 20.5682 181.637 20.5602 181.957 20.5442C182.277 20.5282 182.533 20.5042 182.725 20.4722V17.7602C182.581 17.7282 182.365 17.6962 182.077 17.6642C181.789 17.6322 181.525 17.6162 181.285 17.6162C180.949 17.6162 180.629 17.6402 180.325 17.6882C180.037 17.7202 179.781 17.7922 179.557 17.9042C179.333 18.0162 179.157 18.1682 179.029 18.3602C178.901 18.5522 178.837 18.7922 178.837 19.0802C178.837 19.6402 179.021 20.0322 179.389 20.2562C179.773 20.4642 180.293 20.5682 180.949 20.5682ZM180.661 10.1042C181.717 10.1042 182.597 10.2242 183.301 10.4642C184.005 10.7042 184.565 11.0482 184.981 11.4962C185.413 11.9442 185.717 12.4882 185.893 13.1282C186.069 13.7682 186.157 14.4802 186.157 15.2642V22.7042C185.645 22.8162 184.933 22.9442 184.021 23.0882C183.109 23.2482 182.005 23.3282 180.709 23.3282C179.893 23.3282 179.149 23.2562 178.477 23.1122C177.821 22.9682 177.253 22.7362 176.773 22.4162C176.293 22.0802 175.925 21.6482 175.669 21.1202C175.413 20.5922 175.285 19.9442 175.285 19.1762C175.285 18.4402 175.429 17.8162 175.717 17.3042C176.021 16.7922 176.421 16.3842 176.917 16.0802C177.413 15.7762 177.981 15.5602 178.621 15.4322C179.261 15.2882 179.925 15.2162 180.613 15.2162C181.077 15.2162 181.485 15.2402 181.837 15.2882C182.205 15.3202 182.501 15.3682 182.725 15.4322V15.0962C182.725 14.4882 182.541 14.0002 182.173 13.6322C181.805 13.2642 181.165 13.0802 180.253 13.0802C179.645 13.0802 179.045 13.1282 178.453 13.2242C177.861 13.3042 177.349 13.4242 176.917 13.5842L176.461 10.7042C176.669 10.6402 176.925 10.5762 177.229 10.5122C177.549 10.4322 177.893 10.3682 178.261 10.3202C178.629 10.2562 179.013 10.2082 179.413 10.1762C179.829 10.1282 180.245 10.1042 180.661 10.1042ZM189.391 10.8722C189.999 10.6962 190.783 10.5362 191.743 10.3922C192.703 10.2322 193.711 10.1522 194.767 10.1522C195.839 10.1522 196.727 10.2962 197.431 10.5842C198.151 10.8562 198.719 11.2482 199.135 11.7602C199.551 12.2722 199.847 12.8802 200.023 13.5842C200.199 14.2882 200.287 15.0722 200.287 15.9362V23.0642H196.711V16.3682C196.711 15.2162 196.559 14.4002 196.255 13.9202C195.951 13.4402 195.383 13.2002 194.551 13.2002C194.295 13.2002 194.023 13.2162 193.735 13.2482C193.447 13.2642 193.191 13.2882 192.967 13.3202V23.0642H189.391V10.8722ZM206.572 16.6562C206.572 17.7602 206.82 18.6482 207.316 19.3202C207.812 19.9922 208.548 20.3282 209.524 20.3282C209.844 20.3282 210.14 20.3202 210.412 20.3042C210.684 20.2722 210.908 20.2402 211.084 20.2082V13.7042C210.86 13.5602 210.564 13.4402 210.196 13.3442C209.844 13.2482 209.484 13.2002 209.116 13.2002C207.42 13.2002 206.572 14.3522 206.572 16.6562ZM214.66 22.6562C214.34 22.7522 213.972 22.8482 213.556 22.9442C213.14 23.0242 212.7 23.0962 212.236 23.1602C211.788 23.2242 211.324 23.2722 210.844 23.3042C210.38 23.3522 209.932 23.3762 209.5 23.3762C208.46 23.3762 207.532 23.2242 206.716 22.9202C205.9 22.6162 205.212 22.1842 204.652 21.6242C204.092 21.0482 203.66 20.3602 203.356 19.5602C203.068 18.7442 202.924 17.8322 202.924 16.8242C202.924 15.8002 203.052 14.8802 203.308 14.0642C203.564 13.2322 203.932 12.5282 204.412 11.9522C204.892 11.3762 205.476 10.9362 206.164 10.6322C206.868 10.3282 207.668 10.1762 208.564 10.1762C209.06 10.1762 209.5 10.2242 209.884 10.3202C210.284 10.4162 210.684 10.5522 211.084 10.7282V5.01624L214.66 4.44024V22.6562ZM229.816 16.7282C229.816 17.7202 229.672 18.6322 229.384 19.4642C229.096 20.2802 228.68 20.9842 228.136 21.5762C227.592 22.1522 226.936 22.6002 226.168 22.9202C225.416 23.2402 224.568 23.4002 223.624 23.4002C222.696 23.4002 221.848 23.2402 221.08 22.9202C220.328 22.6002 219.68 22.1522 219.136 21.5762C218.592 20.9842 218.168 20.2802 217.864 19.4642C217.56 18.6322 217.408 17.7202 217.408 16.7282C217.408 15.7362 217.56 14.8322 217.864 14.0162C218.184 13.2002 218.616 12.5042 219.16 11.9282C219.72 11.3522 220.376 10.9042 221.128 10.5842C221.896 10.2642 222.728 10.1042 223.624 10.1042C224.536 10.1042 225.368 10.2642 226.12 10.5842C226.888 10.9042 227.544 11.3522 228.088 11.9282C228.632 12.5042 229.056 13.2002 229.36 14.0162C229.664 14.8322 229.816 15.7362 229.816 16.7282ZM226.168 16.7282C226.168 15.6242 225.944 14.7602 225.496 14.1362C225.064 13.4962 224.44 13.1762 223.624 13.1762C222.808 13.1762 222.176 13.4962 221.728 14.1362C221.28 14.7602 221.056 15.6242 221.056 16.7282C221.056 17.8322 221.28 18.7122 221.728 19.3682C222.176 20.0082 222.808 20.3282 223.624 20.3282C224.44 20.3282 225.064 20.0082 225.496 19.3682C225.944 18.7122 226.168 17.8322 226.168 16.7282ZM235.364 21.1682C235.364 21.8882 235.132 22.4402 234.668 22.8242C234.22 23.1922 233.708 23.3762 233.132 23.3762C232.556 23.3762 232.036 23.1922 231.572 22.8242C231.124 22.4402 230.9 21.8882 230.9 21.1682C230.9 20.4482 231.124 19.9042 231.572 19.5362C232.036 19.1522 232.556 18.9602 233.132 18.9602C233.708 18.9602 234.22 19.1522 234.668 19.5362C235.132 19.9042 235.364 20.4482 235.364 21.1682ZM241.27 21.1682C241.27 21.8882 241.038 22.4402 240.574 22.8242C240.126 23.1922 239.614 23.3762 239.038 23.3762C238.462 23.3762 237.942 23.1922 237.478 22.8242C237.03 22.4402 236.806 21.8882 236.806 21.1682C236.806 20.4482 237.03 19.9042 237.478 19.5362C237.942 19.1522 238.462 18.9602 239.038 18.9602C239.614 18.9602 240.126 19.1522 240.574 19.5362C241.038 19.9042 241.27 20.4482 241.27 21.1682ZM247.176 21.1682C247.176 21.8882 246.944 22.4402 246.48 22.8242C246.032 23.1922 245.52 23.3762 244.944 23.3762C244.368 23.3762 243.848 23.1922 243.384 22.8242C242.936 22.4402 242.712 21.8882 242.712 21.1682C242.712 20.4482 242.936 19.9042 243.384 19.5362C243.848 19.1522 244.368 18.9602 244.944 18.9602C245.52 18.9602 246.032 19.1522 246.48 19.5362C246.944 19.9042 247.176 20.4482 247.176 21.1682Z" fill="#4D0099"/>
<path d="M307.205 67.9352H37.795C34.631 67.9352 31.5965 66.6783 29.3592 64.441C27.1219 62.2037 25.865 59.1693 25.865 56.0052C25.865 52.8403 27.1216 49.8048 29.3586 47.5659C31.5956 45.327 34.63 44.0679 37.795 44.0652H307.205C310.37 44.0679 313.404 45.327 315.641 47.5659C317.878 49.8048 319.135 52.8403 319.135 56.0052C319.135 59.1693 317.878 62.2037 315.641 64.441C313.403 66.6783 310.369 67.9352 307.205 67.9352Z" fill="#EBEBEB"/>
<path d="M176.995 67.9354H162.605C161.016 67.9486 159.441 67.6463 157.97 67.0461C156.5 66.4458 155.163 65.5595 154.037 64.4386C152.912 63.3177 152.02 61.9844 151.413 60.5162C150.807 59.0479 150.498 57.4739 150.505 55.8854C150.482 54.3277 150.772 52.7812 151.357 51.3374C151.942 49.8937 152.811 48.582 153.912 47.4799C155.014 46.3779 156.324 45.5079 157.768 44.9214C159.211 44.3349 160.757 44.0438 162.315 44.0654L176.995 44.1254C180.216 44.1779 183.287 45.4972 185.542 47.7975C187.797 50.0978 189.056 53.1939 189.045 56.4154C189.045 63.0654 183.605 67.9354 176.995 67.9354Z" fill="#E0E0E0"/>
<mask id="mask0_364_15846" style="mask-type:luminance" maskUnits="userSpaceOnUse" x="25" y="44" width="157" height="24">
<path d="M172.915 67.9352H37.795C34.631 67.9352 31.5965 66.6783 29.3592 64.441C27.1219 62.2037 25.865 59.1693 25.865 56.0052C25.865 52.8403 27.1216 49.8048 29.3586 47.5659C31.5956 45.327 34.63 44.0679 37.795 44.0652H172.915C175.183 44.0652 177.357 44.966 178.961 46.5695C180.564 48.1729 181.465 50.3476 181.465 52.6152V59.3852C181.465 61.6528 180.564 63.8275 178.961 65.431C177.357 67.0344 175.183 67.9352 172.915 67.9352Z" fill="white"/>
</mask>
<g mask="url(#mask0_364_15846)">
<path d="M169.525 67.9352H37.795C34.631 67.9352 31.5965 66.6783 29.3592 64.441C27.1219 62.2037 25.865 59.1693 25.865 56.0052C25.865 52.8403 27.1216 49.8048 29.3586 47.5659C31.5956 45.327 34.63 44.0679 37.795 44.0652H169.525C172.692 44.0652 175.729 45.3232 177.968 47.5623C180.207 49.8015 181.465 52.8385 181.465 56.0052C181.465 57.5727 181.156 59.1249 180.556 60.5729C179.956 62.021 179.076 63.3366 177.967 64.4445C176.858 65.5525 175.542 66.431 174.093 67.03C172.645 67.6289 171.093 67.9365 169.525 67.9352Z" fill="#8000FF"/>
<g opacity="0.2">
<path d="M42.355 44.0652L56.935 67.9352H67.245L52.085 44.0652H42.355Z" fill="white"/>
</g>
<g opacity="0.2">
<path d="M20.2949 44.0652L34.8749 67.9352H45.1849L30.0249 44.0652H20.2949Z" fill="white"/>
</g>
<g opacity="0.2">
<path d="M63.6948 44.0652L78.2648 67.9352H88.5848L73.4248 44.0652H63.6948Z" fill="white"/>
</g>
<g opacity="0.2">
<path d="M85.0349 44.0652L99.6049 67.9352H109.925L94.7649 44.0652H85.0349Z" fill="white"/>
</g>
<g opacity="0.2">
<path d="M106.365 44.0652L120.945 67.9352H131.255L116.095 44.0652H106.365Z" fill="white"/>
</g>
<g opacity="0.2">
<path d="M127.705 44.0652L142.275 67.9352H152.595L137.435 44.0652H127.705Z" fill="white"/>
</g>
<g opacity="0.2">
<path d="M149.045 44.0652L163.615 67.9352H173.935L158.775 44.0652H149.045Z" fill="white"/>
</g>
<g opacity="0.2">
<path d="M170.375 44.0652L184.955 67.9352H195.265L180.105 44.0652H170.375Z" fill="white"/>
</g>
</g>
<path d="M110.383 90.7358C111.94 90.7358 113.135 91.0344 113.967 91.6318C114.809 92.2184 115.231 93.0984 115.231 94.2718C115.231 94.9118 115.113 95.4611 114.878 95.9198C114.655 96.3678 114.324 96.7358 113.887 97.0238C113.46 97.3011 112.937 97.5038 112.319 97.6318C111.7 97.7598 111.001 97.8238 110.223 97.8238H108.991V101.936H107.439V91.0078C107.876 90.9011 108.361 90.8318 108.895 90.7998C109.439 90.7571 109.935 90.7358 110.383 90.7358ZM110.511 92.0958C109.849 92.0958 109.343 92.1118 108.991 92.1438V96.4958H110.159C110.692 96.4958 111.172 96.4638 111.599 96.3998C112.025 96.3251 112.383 96.2078 112.671 96.0478C112.969 95.8771 113.199 95.6478 113.359 95.3598C113.519 95.0718 113.599 94.7038 113.599 94.2558C113.599 93.8291 113.513 93.4771 113.343 93.1998C113.183 92.9224 112.959 92.7038 112.671 92.5438C112.393 92.3731 112.068 92.2558 111.695 92.1918C111.321 92.1278 110.927 92.0958 110.511 92.0958ZM124.077 97.7758C124.077 98.4371 123.981 99.0344 123.789 99.5678C123.597 100.101 123.325 100.56 122.973 100.944C122.632 101.328 122.221 101.626 121.741 101.84C121.261 102.042 120.738 102.144 120.173 102.144C119.608 102.144 119.085 102.042 118.605 101.84C118.125 101.626 117.709 101.328 117.357 100.944C117.016 100.56 116.749 100.101 116.557 99.5678C116.365 99.0344 116.269 98.4371 116.269 97.7758C116.269 97.1251 116.365 96.5331 116.557 95.9998C116.749 95.4558 117.016 94.9918 117.357 94.6078C117.709 94.2238 118.125 93.9304 118.605 93.7278C119.085 93.5144 119.608 93.4078 120.173 93.4078C120.738 93.4078 121.261 93.5144 121.741 93.7278C122.221 93.9304 122.632 94.2238 122.973 94.6078C123.325 94.9918 123.597 95.4558 123.789 95.9998C123.981 96.5331 124.077 97.1251 124.077 97.7758ZM122.525 97.7758C122.525 96.8371 122.312 96.0958 121.885 95.5518C121.469 94.9971 120.898 94.7198 120.173 94.7198C119.448 94.7198 118.872 94.9971 118.445 95.5518C118.029 96.0958 117.821 96.8371 117.821 97.7758C117.821 98.7144 118.029 99.4611 118.445 100.016C118.872 100.56 119.448 100.832 120.173 100.832C120.898 100.832 121.469 100.56 121.885 100.016C122.312 99.4611 122.525 98.7144 122.525 97.7758ZM129.243 93.4398C129.371 93.4398 129.515 93.4504 129.675 93.4718C129.845 93.4824 130.011 93.5038 130.171 93.5358C130.331 93.5571 130.475 93.5838 130.603 93.6158C130.741 93.6371 130.843 93.6584 130.907 93.6798L130.651 94.9758C130.533 94.9331 130.336 94.8851 130.059 94.8318C129.792 94.7678 129.445 94.7358 129.019 94.7358C128.741 94.7358 128.464 94.7678 128.187 94.8318C127.92 94.8851 127.744 94.9224 127.659 94.9438V101.936H126.171V93.9678C126.523 93.8398 126.96 93.7224 127.483 93.6158C128.005 93.4984 128.592 93.4398 129.243 93.4398ZM139.294 89.5198C139.731 89.5198 140.104 89.5518 140.414 89.6158C140.734 89.6798 140.958 89.7384 141.086 89.7918L140.814 91.0718C140.686 91.0078 140.504 90.9491 140.27 90.8958C140.035 90.8318 139.747 90.7998 139.406 90.7998C138.712 90.7998 138.227 90.9918 137.95 91.3758C137.672 91.7491 137.534 92.2558 137.534 92.8958V93.6158H140.734V94.8638H137.534V101.936H136.046V92.8638C136.046 91.7971 136.307 90.9758 136.83 90.3998C137.352 89.8131 138.174 89.5198 139.294 89.5198ZM145.034 100.864C145.386 100.864 145.695 100.858 145.962 100.848C146.239 100.826 146.468 100.794 146.65 100.752V98.2718C146.543 98.2184 146.367 98.1758 146.122 98.1438C145.887 98.1011 145.599 98.0798 145.258 98.0798C145.034 98.0798 144.794 98.0958 144.538 98.1278C144.292 98.1598 144.063 98.2291 143.85 98.3358C143.647 98.4318 143.476 98.5704 143.338 98.7518C143.199 98.9224 143.13 99.1518 143.13 99.4398C143.13 99.9731 143.3 100.346 143.642 100.56C143.983 100.762 144.447 100.864 145.034 100.864ZM144.906 93.4078C145.503 93.4078 146.004 93.4878 146.41 93.6478C146.826 93.7971 147.156 94.0158 147.402 94.3038C147.658 94.5811 147.839 94.9171 147.946 95.3118C148.052 95.6958 148.106 96.1224 148.106 96.5918V101.792C147.978 101.813 147.796 101.845 147.562 101.888C147.338 101.92 147.082 101.952 146.794 101.984C146.506 102.016 146.191 102.042 145.85 102.064C145.519 102.096 145.188 102.112 144.858 102.112C144.388 102.112 143.956 102.064 143.562 101.968C143.167 101.872 142.826 101.722 142.538 101.52C142.25 101.306 142.026 101.029 141.866 100.688C141.706 100.346 141.626 99.9358 141.626 99.4558C141.626 98.9971 141.716 98.6024 141.898 98.2718C142.09 97.9411 142.346 97.6744 142.666 97.4718C142.986 97.2691 143.359 97.1198 143.786 97.0238C144.212 96.9278 144.66 96.8798 145.13 96.8798C145.279 96.8798 145.434 96.8904 145.594 96.9118C145.754 96.9224 145.903 96.9438 146.042 96.9758C146.191 96.9971 146.319 97.0184 146.426 97.0398C146.532 97.0611 146.607 97.0771 146.65 97.0878V96.6718C146.65 96.4264 146.623 96.1864 146.57 95.9518C146.516 95.7064 146.42 95.4931 146.282 95.3118C146.143 95.1198 145.951 94.9704 145.706 94.8638C145.471 94.7464 145.162 94.6878 144.778 94.6878C144.287 94.6878 143.855 94.7251 143.482 94.7998C143.119 94.8638 142.847 94.9331 142.666 95.0078L142.49 93.7758C142.682 93.6904 143.002 93.6104 143.45 93.5358C143.898 93.4504 144.383 93.4078 144.906 93.4078ZM156.839 93.6158C156.423 95.1731 155.932 96.6664 155.367 98.0958C154.812 99.5251 154.273 100.805 153.751 101.936H152.407C151.884 100.805 151.34 99.5251 150.775 98.0958C150.22 96.6664 149.735 95.1731 149.319 93.6158H150.919C151.047 94.1384 151.196 94.6984 151.367 95.2958C151.548 95.8824 151.735 96.4691 151.927 97.0558C152.129 97.6318 152.332 98.1918 152.535 98.7358C152.737 99.2798 152.929 99.7651 153.111 100.192C153.292 99.7651 153.484 99.2798 153.687 98.7358C153.889 98.1918 154.087 97.6318 154.279 97.0558C154.481 96.4691 154.668 95.8824 154.839 95.2958C155.02 94.6984 155.175 94.1384 155.303 93.6158H156.839ZM165.499 97.7758C165.499 98.4371 165.403 99.0344 165.211 99.5678C165.019 100.101 164.747 100.56 164.395 100.944C164.054 101.328 163.643 101.626 163.163 101.84C162.683 102.042 162.16 102.144 161.595 102.144C161.03 102.144 160.507 102.042 160.027 101.84C159.547 101.626 159.131 101.328 158.779 100.944C158.438 100.56 158.171 100.101 157.979 99.5678C157.787 99.0344 157.691 98.4371 157.691 97.7758C157.691 97.1251 157.787 96.5331 157.979 95.9998C158.171 95.4558 158.438 94.9918 158.779 94.6078C159.131 94.2238 159.547 93.9304 160.027 93.7278C160.507 93.5144 161.03 93.4078 161.595 93.4078C162.16 93.4078 162.683 93.5144 163.163 93.7278C163.643 93.9304 164.054 94.2238 164.395 94.6078C164.747 94.9918 165.019 95.4558 165.211 95.9998C165.403 96.5331 165.499 97.1251 165.499 97.7758ZM163.947 97.7758C163.947 96.8371 163.734 96.0958 163.307 95.5518C162.891 94.9971 162.32 94.7198 161.595 94.7198C160.87 94.7198 160.294 94.9971 159.867 95.5518C159.451 96.0958 159.243 96.8371 159.243 97.7758C159.243 98.7144 159.451 99.4611 159.867 100.016C160.294 100.56 160.87 100.832 161.595 100.832C162.32 100.832 162.891 100.56 163.307 100.016C163.734 99.4611 163.947 98.7144 163.947 97.7758ZM170.665 93.4398C170.793 93.4398 170.937 93.4504 171.097 93.4718C171.267 93.4824 171.433 93.5038 171.593 93.5358C171.753 93.5571 171.897 93.5838 172.025 93.6158C172.163 93.6371 172.265 93.6584 172.329 93.6798L172.073 94.9758C171.955 94.9331 171.758 94.8851 171.481 94.8318C171.214 94.7678 170.867 94.7358 170.441 94.7358C170.163 94.7358 169.886 94.7678 169.609 94.8318C169.342 94.8851 169.166 94.9224 169.081 94.9438V101.936H167.593V93.9678C167.945 93.8398 168.382 93.7224 168.905 93.6158C169.427 93.4984 170.014 93.4398 170.665 93.4398ZM174.457 100.112C174.468 100.197 174.473 100.282 174.473 100.368C174.473 100.442 174.473 100.522 174.473 100.608C174.473 101.28 174.372 101.941 174.169 102.592C173.977 103.253 173.711 103.882 173.369 104.48L172.217 104.112C172.484 103.568 172.66 103.013 172.745 102.448C172.831 101.893 172.873 101.37 172.873 100.88C172.873 100.741 172.868 100.608 172.857 100.48C172.857 100.352 172.852 100.229 172.841 100.112H174.457ZM183.346 100.864C183.698 100.864 184.007 100.858 184.274 100.848C184.551 100.826 184.781 100.794 184.962 100.752V98.2718C184.855 98.2184 184.679 98.1758 184.434 98.1438C184.199 98.1011 183.911 98.0798 183.57 98.0798C183.346 98.0798 183.106 98.0958 182.85 98.1278C182.605 98.1598 182.375 98.2291 182.162 98.3358C181.959 98.4318 181.789 98.5704 181.65 98.7518C181.511 98.9224 181.442 99.1518 181.442 99.4398C181.442 99.9731 181.613 100.346 181.954 100.56C182.295 100.762 182.759 100.864 183.346 100.864ZM183.218 93.4078C183.815 93.4078 184.317 93.4878 184.722 93.6478C185.138 93.7971 185.469 94.0158 185.714 94.3038C185.97 94.5811 186.151 94.9171 186.258 95.3118C186.365 95.6958 186.418 96.1224 186.418 96.5918V101.792C186.29 101.813 186.109 101.845 185.874 101.888C185.65 101.92 185.394 101.952 185.106 101.984C184.818 102.016 184.503 102.042 184.162 102.064C183.831 102.096 183.501 102.112 183.17 102.112C182.701 102.112 182.269 102.064 181.874 101.968C181.479 101.872 181.138 101.722 180.85 101.52C180.562 101.306 180.338 101.029 180.178 100.688C180.018 100.346 179.938 99.9358 179.938 99.4558C179.938 98.9971 180.029 98.6024 180.21 98.2718C180.402 97.9411 180.658 97.6744 180.978 97.4718C181.298 97.2691 181.671 97.1198 182.098 97.0238C182.525 96.9278 182.973 96.8798 183.442 96.8798C183.591 96.8798 183.746 96.8904 183.906 96.9118C184.066 96.9224 184.215 96.9438 184.354 96.9758C184.503 96.9971 184.631 97.0184 184.738 97.0398C184.845 97.0611 184.919 97.0771 184.962 97.0878V96.6718C184.962 96.4264 184.935 96.1864 184.882 95.9518C184.829 95.7064 184.733 95.4931 184.594 95.3118C184.455 95.1198 184.263 94.9704 184.018 94.8638C183.783 94.7464 183.474 94.6878 183.09 94.6878C182.599 94.6878 182.167 94.7251 181.794 94.7998C181.431 94.8638 181.159 94.9331 180.978 95.0078L180.802 93.7758C180.994 93.6904 181.314 93.6104 181.762 93.5358C182.21 93.4504 182.695 93.4078 183.218 93.4078ZM194.105 101.104C193.977 101.189 193.727 101.301 193.353 101.44C192.991 101.568 192.564 101.632 192.073 101.632C191.572 101.632 191.097 101.552 190.649 101.392C190.212 101.232 189.828 100.986 189.497 100.656C189.167 100.314 188.905 99.8931 188.713 99.3918C188.521 98.8904 188.425 98.2931 188.425 97.5998C188.425 96.9918 188.516 96.4371 188.697 95.9358C188.879 95.4238 189.14 94.9864 189.481 94.6238C189.833 94.2504 190.26 93.9624 190.761 93.7598C191.263 93.5464 191.828 93.4398 192.457 93.4398C193.151 93.4398 193.753 93.4931 194.265 93.5998C194.788 93.6958 195.225 93.7864 195.577 93.8718V101.296C195.577 102.576 195.247 103.504 194.585 104.08C193.924 104.656 192.921 104.944 191.577 104.944C191.055 104.944 190.559 104.901 190.089 104.816C189.631 104.73 189.231 104.629 188.889 104.512L189.161 103.216C189.46 103.333 189.823 103.434 190.249 103.52C190.687 103.616 191.14 103.664 191.609 103.664C192.495 103.664 193.129 103.488 193.513 103.136C193.908 102.784 194.105 102.224 194.105 101.456V101.104ZM194.089 94.9278C193.94 94.8851 193.737 94.8478 193.481 94.8158C193.236 94.7731 192.9 94.7518 192.473 94.7518C191.673 94.7518 191.055 95.0131 190.617 95.5358C190.191 96.0584 189.977 96.7518 189.977 97.6158C189.977 98.0958 190.036 98.5064 190.153 98.8478C190.281 99.1891 190.447 99.4718 190.649 99.6958C190.863 99.9198 191.103 100.085 191.369 100.192C191.647 100.298 191.929 100.352 192.217 100.352C192.612 100.352 192.975 100.298 193.305 100.192C193.636 100.074 193.897 99.9411 194.089 99.7918V94.9278ZM204.763 101.696C204.422 101.781 203.969 101.872 203.403 101.968C202.849 102.064 202.203 102.112 201.467 102.112C200.827 102.112 200.289 102.021 199.851 101.84C199.414 101.648 199.062 101.381 198.795 101.04C198.529 100.698 198.337 100.298 198.219 99.8398C198.102 99.3704 198.043 98.8531 198.043 98.2878V93.6158H199.531V97.9678C199.531 98.9811 199.691 99.7064 200.011 100.144C200.331 100.581 200.87 100.8 201.627 100.8C201.787 100.8 201.953 100.794 202.123 100.784C202.294 100.773 202.454 100.762 202.603 100.752C202.753 100.73 202.886 100.714 203.003 100.704C203.131 100.682 203.222 100.661 203.275 100.64V93.6158H204.763V101.696ZM210.143 100.864C210.495 100.864 210.804 100.858 211.071 100.848C211.348 100.826 211.578 100.794 211.759 100.752V98.2718C211.652 98.2184 211.476 98.1758 211.231 98.1438C210.996 98.1011 210.708 98.0798 210.367 98.0798C210.143 98.0798 209.903 98.0958 209.647 98.1278C209.402 98.1598 209.172 98.2291 208.959 98.3358C208.756 98.4318 208.586 98.5704 208.447 98.7518C208.308 98.9224 208.239 99.1518 208.239 99.4398C208.239 99.9731 208.41 100.346 208.751 100.56C209.092 100.762 209.556 100.864 210.143 100.864ZM210.015 93.4078C210.612 93.4078 211.114 93.4878 211.519 93.6478C211.935 93.7971 212.266 94.0158 212.511 94.3038C212.767 94.5811 212.948 94.9171 213.055 95.3118C213.162 95.6958 213.215 96.1224 213.215 96.5918V101.792C213.087 101.813 212.906 101.845 212.671 101.888C212.447 101.92 212.191 101.952 211.903 101.984C211.615 102.016 211.3 102.042 210.959 102.064C210.628 102.096 210.298 102.112 209.967 102.112C209.498 102.112 209.066 102.064 208.671 101.968C208.276 101.872 207.935 101.722 207.647 101.52C207.359 101.306 207.135 101.029 206.975 100.688C206.815 100.346 206.735 99.9358 206.735 99.4558C206.735 98.9971 206.826 98.6024 207.007 98.2718C207.199 97.9411 207.455 97.6744 207.775 97.4718C208.095 97.2691 208.468 97.1198 208.895 97.0238C209.322 96.9278 209.77 96.8798 210.239 96.8798C210.388 96.8798 210.543 96.8904 210.703 96.9118C210.863 96.9224 211.012 96.9438 211.151 96.9758C211.3 96.9971 211.428 97.0184 211.535 97.0398C211.642 97.0611 211.716 97.0771 211.759 97.0878V96.6718C211.759 96.4264 211.732 96.1864 211.679 95.9518C211.626 95.7064 211.53 95.4931 211.391 95.3118C211.252 95.1198 211.06 94.9704 210.815 94.8638C210.58 94.7464 210.271 94.6878 209.887 94.6878C209.396 94.6878 208.964 94.7251 208.591 94.7998C208.228 94.8638 207.956 94.9331 207.775 95.0078L207.599 93.7758C207.791 93.6904 208.111 93.6104 208.559 93.5358C209.007 93.4504 209.492 93.4078 210.015 93.4078ZM218.758 93.4398C218.886 93.4398 219.03 93.4504 219.19 93.4718C219.361 93.4824 219.526 93.5038 219.686 93.5358C219.846 93.5571 219.99 93.5838 220.118 93.6158C220.257 93.6371 220.358 93.6584 220.422 93.6798L220.166 94.9758C220.049 94.9331 219.852 94.8851 219.574 94.8318C219.308 94.7678 218.961 94.7358 218.534 94.7358C218.257 94.7358 217.98 94.7678 217.702 94.8318C217.436 94.8851 217.26 94.9224 217.174 94.9438V101.936H215.686V93.9678C216.038 93.8398 216.476 93.7224 216.998 93.6158C217.521 93.4984 218.108 93.4398 218.758 93.4398ZM227.234 95.3758C227.053 95.2264 226.791 95.0824 226.45 94.9438C226.109 94.8051 225.735 94.7358 225.33 94.7358C224.903 94.7358 224.535 94.8158 224.226 94.9758C223.927 95.1251 223.682 95.3384 223.49 95.6158C223.298 95.8824 223.159 96.2024 223.074 96.5758C222.989 96.9491 222.946 97.3491 222.946 97.7758C222.946 98.7464 223.186 99.4984 223.666 100.032C224.146 100.554 224.786 100.816 225.586 100.816C225.991 100.816 226.327 100.8 226.594 100.768C226.871 100.725 227.085 100.682 227.234 100.64V95.3758ZM227.234 89.7758L228.722 89.5198V101.696C228.381 101.792 227.943 101.888 227.41 101.984C226.877 102.08 226.263 102.128 225.57 102.128C224.93 102.128 224.354 102.026 223.842 101.824C223.33 101.621 222.893 101.333 222.53 100.96C222.167 100.586 221.885 100.133 221.682 99.5998C221.49 99.0558 221.394 98.4478 221.394 97.7758C221.394 97.1358 221.474 96.5491 221.634 96.0158C221.805 95.4824 222.05 95.0238 222.37 94.6398C222.69 94.2558 223.079 93.9571 223.538 93.7438C224.007 93.5304 224.541 93.4238 225.138 93.4238C225.618 93.4238 226.039 93.4878 226.402 93.6158C226.775 93.7438 227.053 93.8664 227.234 93.9838V89.7758ZM230.816 97.7918C230.816 97.0558 230.923 96.4158 231.136 95.8718C231.349 95.3171 231.632 94.8584 231.984 94.4958C232.336 94.1331 232.741 93.8611 233.2 93.6798C233.659 93.4984 234.128 93.4078 234.608 93.4078C235.728 93.4078 236.587 93.7598 237.184 94.4638C237.781 95.1571 238.08 96.2184 238.08 97.6478C238.08 97.7118 238.08 97.7971 238.08 97.9038C238.08 97.9998 238.075 98.0904 238.064 98.1758H232.368C232.432 99.0398 232.683 99.6958 233.12 100.144C233.557 100.592 234.24 100.816 235.168 100.816C235.691 100.816 236.128 100.773 236.48 100.688C236.843 100.592 237.115 100.501 237.296 100.416L237.504 101.664C237.323 101.76 237.003 101.861 236.544 101.968C236.096 102.074 235.584 102.128 235.008 102.128C234.283 102.128 233.653 102.021 233.12 101.808C232.597 101.584 232.165 101.28 231.824 100.896C231.483 100.512 231.227 100.058 231.056 99.5358C230.896 99.0024 230.816 98.4211 230.816 97.7918ZM236.528 96.9758C236.539 96.3038 236.368 95.7544 236.016 95.3278C235.675 94.8904 235.2 94.6718 234.592 94.6718C234.251 94.6718 233.947 94.7411 233.68 94.8798C233.424 95.0078 233.205 95.1784 233.024 95.3918C232.843 95.6051 232.699 95.8504 232.592 96.1278C232.496 96.4051 232.432 96.6878 232.4 96.9758H236.528Z" fill="#94949E"/>
</svg>
