<svg width="270" height="270" viewBox="0 0 270 270" fill="none" xmlns="http://www.w3.org/2000/svg">
<g clip-path="url(#clip0_380_50654)">
<path d="M54.1458 100.977L3.23914 135.03L53.3819 209.989L104.289 175.936L54.1458 100.977Z" fill="#F5F5F5"/>
<path d="M77.9823 172.391L77.4061 175.966L52.0981 172.318L52.6744 168.743L77.9823 172.391Z" fill="#E0E0E0"/>
<path d="M65.2376 159.637L68.8672 160.159L64.8428 185.076L61.2086 184.55L65.2376 159.637Z" fill="#E0E0E0"/>
<path d="M41.9486 127.968C41.9849 128.018 36.8852 131.498 30.5559 135.726C24.2267 139.955 19.068 143.349 19.0317 143.294C18.9954 143.24 24.0951 139.764 30.4243 135.531C36.7536 131.298 41.8896 127.913 41.9486 127.968Z" fill="#E0E0E0"/>
<path d="M60.6505 123.267C60.6868 123.322 52.2025 129.057 41.7036 136.08C31.2048 143.104 22.6478 148.752 22.6205 148.702C22.5933 148.653 31.0596 142.909 41.572 135.885C52.0845 128.862 60.6142 123.213 60.6505 123.267Z" fill="#E0E0E0"/>
<path d="M64.4027 128.875C64.439 128.93 55.9546 134.669 45.4558 141.693C34.9569 148.716 26.4 154.365 26.3727 154.31C26.3455 154.256 34.8208 148.521 45.3242 141.493C55.8276 134.465 64.3664 128.821 64.4027 128.875Z" fill="#E0E0E0"/>
<path d="M68.155 134.488C68.1913 134.542 59.7069 140.282 49.208 147.3C38.7092 154.319 30.1522 159.977 30.1522 159.923C30.1522 159.868 38.5958 154.129 49.0992 147.105C59.6025 140.082 68.1187 134.433 68.155 134.488Z" fill="#E0E0E0"/>
<path d="M71.8935 140.1C71.9298 140.154 63.4455 145.889 52.9466 152.913C42.4477 159.936 33.8908 165.585 33.8681 165.53C33.8454 165.476 42.3252 159.741 52.8377 152.718C63.3502 145.694 71.8935 140.046 71.8935 140.1Z" fill="#E0E0E0"/>
<path d="M224.372 151.205L181.618 179.804L223.729 242.756L266.482 214.156L224.372 151.205Z" fill="#F5F5F5"/>
<path d="M244.394 211.192L243.909 214.195L222.652 211.133L223.142 208.129L244.394 211.192Z" fill="#E0E0E0"/>
<path d="M233.691 200.48L236.74 200.92L233.36 221.845L230.306 221.405L233.691 200.48Z" fill="#E0E0E0"/>
<path d="M214.114 173.906C214.15 173.96 209.871 176.887 204.554 180.439C199.236 183.992 194.899 186.832 194.863 186.791C194.826 186.75 199.109 183.815 204.422 180.258C209.735 176.701 214.077 173.829 214.114 173.906Z" fill="#E0E0E0"/>
<path d="M229.835 169.936C229.871 169.991 222.752 174.818 213.955 180.712C205.157 186.605 197.957 191.351 197.921 191.297C197.884 191.242 205.003 186.415 213.8 180.517C222.598 174.618 229.785 169.882 229.835 169.936Z" fill="#E0E0E0"/>
<path d="M232.988 174.646C233.024 174.7 225.905 179.528 217.108 185.426C208.311 191.324 201.11 196.061 201.074 196.006C201.038 195.952 208.134 191.147 216.954 185.249C225.774 179.351 232.961 174.596 232.988 174.646Z" fill="#E0E0E0"/>
<path d="M236.137 179.35C236.173 179.405 229.05 184.232 220.257 190.131C211.464 196.029 204.259 200.766 204.223 200.711C204.186 200.657 211.305 195.834 220.102 189.931C228.9 184.028 236.105 179.305 236.137 179.35Z" fill="#E0E0E0"/>
<path d="M239.313 184.074C239.349 184.128 232.23 188.951 223.433 194.849C214.635 200.748 207.435 205.484 207.399 205.434C207.362 205.384 214.481 200.552 223.278 194.654C232.076 188.756 239.254 184.019 239.313 184.074Z" fill="#E0E0E0"/>
<path d="M156.734 103.735L110.084 78.7846L73.3455 147.474L119.995 172.425L156.734 103.735Z" fill="#F5F5F5"/>
<path d="M112.011 150.935L109.052 151.946L101.539 131.18L104.502 130.164L112.011 150.935Z" fill="#E0E0E0"/>
<path d="M116.548 136.035L117.627 139.016L97.0017 146.08L95.9219 143.099L116.548 136.035Z" fill="#E0E0E0"/>
<path d="M131.203 105.396C131.166 105.464 126.439 103.005 120.636 99.906C114.833 96.8071 110.164 94.2346 110.2 94.1666C110.237 94.0985 114.969 96.5576 120.772 99.6564C126.575 102.755 131.239 105.323 131.203 105.396Z" fill="#E0E0E0"/>
<path d="M142.4 117.75C142.364 117.818 134.533 113.699 124.91 108.554C115.286 103.409 107.519 99.18 107.555 99.112C107.591 99.0439 115.418 103.159 125.041 108.309C134.664 113.458 142.436 117.682 142.4 117.75Z" fill="#E0E0E0"/>
<path d="M139.651 122.891C139.614 122.959 131.783 118.844 122.16 113.694C112.537 108.545 104.769 104.321 104.806 104.252C104.842 104.184 112.668 108.304 122.292 113.449C131.915 118.594 139.687 122.823 139.651 122.891Z" fill="#E0E0E0"/>
<path d="M136.901 128.031C136.865 128.099 129.034 123.984 119.411 118.839C109.787 113.694 102.02 109.479 102.056 109.397C102.092 109.316 109.919 113.445 119.542 118.59C129.165 123.735 136.937 127.963 136.901 128.031Z" fill="#E0E0E0"/>
<path d="M134.152 133.172C134.115 133.24 126.284 129.125 116.661 123.98C107.038 118.835 99.2658 114.606 99.3067 114.538C99.3475 114.47 107.169 118.585 116.793 123.73C126.416 128.875 134.188 133.104 134.152 133.172Z" fill="#E0E0E0"/>
<path opacity="0.2" d="M134.392 45.5061H133.222V65.4602H134.392V45.5061Z" fill="black"/>
<path d="M117.736 72.9039H178.349C178.349 72.9039 172.754 46.1398 147.585 46.1398C125.198 46.1398 117.736 72.9039 117.736 72.9039Z" fill="#E0E0E0"/>
<path d="M148.692 24H147.393V46.1298H148.692V24Z" fill="#E0E0E0"/>
<path d="M283 245.313C283 245.383 217.964 245.444 137.753 245.444C57.541 245.444 -7.50488 245.398 -7.50488 245.313C-7.50488 245.227 57.5208 245.182 137.753 245.182C217.984 245.182 283 245.237 283 245.313Z" fill="#263238"/>
<path d="M8.5767 213.799C9.42742 213.86 10.2571 214.092 11.0161 214.481C11.7751 214.87 12.448 215.408 12.9946 216.063C14.0814 217.38 14.8509 218.93 15.2438 220.592C16.0942 223.772 15.5709 227.531 14.6652 230.696C11.2234 229.463 9.09498 225.79 8.12384 223.857C6.61431 220.808 5.71362 214.367 8.56161 213.794" fill="#B366FF"/>
<path d="M19.6215 234.555C19.1047 233.753 18.8091 232.829 18.765 231.877C18.7208 230.924 18.9295 229.977 19.3699 229.131C19.8241 228.293 20.4407 227.554 21.1837 226.957C21.9267 226.36 22.7812 225.917 23.6972 225.654C24.5376 225.392 25.5137 225.286 26.2433 225.774C26.5722 226.023 26.8284 226.356 26.985 226.737C27.1417 227.119 27.1931 227.535 27.134 227.943C27.0019 228.761 26.6545 229.528 26.1276 230.167C24.452 232.437 22.4192 234.323 19.5863 234.555" fill="#B366FF"/>
<path d="M20.0039 245.187C19.9292 244.973 19.877 244.752 19.8479 244.528C19.7573 244.055 19.6366 243.446 19.4907 242.717C19.039 240.719 18.9133 238.661 19.1183 236.623C19.3556 234.575 20.1355 232.628 21.3776 230.982C21.7571 230.49 22.1946 230.046 22.6808 229.659C22.8129 229.554 22.9506 229.457 23.0934 229.367C23.1388 229.329 23.1897 229.299 23.2444 229.277C22.6079 229.82 22.0264 230.425 21.5084 231.083C20.3318 232.73 19.591 234.648 19.3548 236.658C19.0328 239.003 19.4303 241.152 19.6617 242.696C19.7825 243.466 19.8831 244.09 19.9385 244.523C19.9781 244.742 20 244.964 20.0039 245.187Z" fill="#263238"/>
<path d="M9.68372 218.644C9.74117 218.724 9.7885 218.81 9.82461 218.901C9.91518 219.102 10.0359 219.354 10.1768 219.671C10.4838 220.34 10.9115 221.311 11.4297 222.514C12.4663 224.924 13.8551 228.275 15.3042 232.009C16.7534 235.742 17.9862 239.149 18.8265 241.63C19.2592 242.867 19.5963 243.874 19.8328 244.573C19.9385 244.905 20.019 245.172 20.0844 245.378C20.1203 245.471 20.1456 245.567 20.1599 245.665C20.1089 245.58 20.0683 245.488 20.0391 245.393C19.9637 245.192 19.868 244.93 19.7422 244.603L18.6805 241.685C17.7799 239.224 16.5219 235.823 15.0778 232.094C13.6337 228.366 12.265 225.005 11.2687 222.579C10.7655 221.387 10.3781 220.416 10.0913 219.706C9.96047 219.384 9.8548 219.127 9.77429 218.921C9.73649 218.832 9.70619 218.739 9.68372 218.644Z" fill="#263238"/>
<path d="M15.9131 238.153C14.8777 236.429 13.4469 234.976 11.739 233.915C10.0311 232.854 8.09509 232.214 6.09104 232.049C5.08468 231.979 3.84687 232.15 3.39401 233.055C2.94115 233.961 3.54496 235.068 4.23935 235.803C5.71469 237.346 7.61393 238.418 9.69766 238.884C11.7814 239.35 13.9563 239.188 15.9483 238.419" fill="#B366FF"/>
<path d="M7.64089 234.776C7.85423 234.766 8.06808 234.774 8.27992 234.801C8.528 234.815 8.77502 234.843 9.0196 234.887C9.30641 234.942 9.64354 234.972 9.99576 235.073C10.3895 235.156 10.7777 235.264 11.1581 235.395C11.5989 235.537 12.0307 235.705 12.4513 235.898C13.4186 236.332 14.3336 236.874 15.1785 237.513C16.0137 238.169 16.7701 238.918 17.4327 239.748C17.7189 240.109 17.9827 240.487 18.2227 240.88C18.4397 241.219 18.6379 241.57 18.8165 241.931C18.9677 242.225 19.1021 242.528 19.219 242.837C19.3199 243.066 19.4056 243.301 19.4756 243.542C19.5502 243.742 19.6058 243.949 19.6417 244.16C19.5863 244.16 19.3448 243.295 18.6655 242.007C18.4806 241.661 18.2773 241.325 18.0567 241.001C17.8115 240.619 17.5461 240.251 17.2617 239.899C15.9456 238.272 14.2672 236.976 12.3607 236.115C11.9229 235.923 11.5053 235.742 11.0977 235.611C10.7235 235.475 10.3422 235.359 9.95551 235.264C8.54661 234.877 7.63586 234.832 7.64089 234.776Z" fill="#263238"/>
<path d="M236.049 77.0752C234.569 77.4124 233.85 79.1181 233.709 80.6277C233.568 82.1372 233.759 83.7373 233.125 85.116C232.411 86.6658 230.705 87.813 230.649 89.5188C230.614 90.5604 231.233 91.5315 231.203 92.5832C231.153 94.294 229.412 95.6022 229.316 97.2929C229.251 98.5257 230.071 99.7031 229.875 100.921C229.724 101.867 228.984 102.612 228.672 103.517C228.053 105.329 229.296 107.316 230.911 108.333C231.816 108.902 232.834 109.266 233.895 109.401C234.955 109.535 236.032 109.437 237.05 109.112C238.068 108.787 239.003 108.243 239.79 107.52C240.576 106.796 241.195 105.909 241.604 104.921C242.499 102.747 242.303 100.297 242.107 97.9571C241.503 90.6577 241.053 83.3482 240.758 76.0286" fill="#263238"/>
<path d="M231.751 102.828C232.056 102.639 232.293 102.359 232.431 102.028C232.576 101.634 232.634 101.214 232.602 100.795C232.547 100.24 232.423 99.6944 232.234 99.1698C231.994 98.5104 231.904 97.8054 231.973 97.1068C232.099 96.3218 232.662 95.6777 233.17 95.0437C233.444 94.7334 233.673 94.3862 233.85 94.0122C234.027 93.634 234.056 93.203 233.93 92.8046C233.668 91.9844 232.863 91.3806 232.496 90.4296C232.323 89.9588 232.295 89.4472 232.416 88.9603C232.53 88.5039 232.699 88.0629 232.919 87.647C233.344 86.898 233.681 86.1029 233.925 85.277C234.277 83.682 234.111 82.1573 234.353 80.9044C234.487 79.901 234.932 78.9647 235.626 78.2275C235.822 78.0289 236.046 77.8595 236.29 77.7243C236.374 77.6805 236.464 77.6483 236.557 77.6287C236.241 77.8024 235.952 78.0191 235.696 78.2728C235.053 79.0174 234.649 79.9376 234.534 80.9145C234.446 81.5819 234.399 82.254 234.393 82.9272C234.391 83.7194 234.314 84.5097 234.162 85.2871C233.921 86.1319 233.584 86.9458 233.155 87.7124C232.778 88.5024 232.431 89.4283 232.763 90.2937C233.095 91.1592 233.895 91.758 234.202 92.6838C234.34 93.1412 234.306 93.6336 234.106 94.0676C233.91 94.4791 233.656 94.8604 233.351 95.1997C232.848 95.8337 232.3 96.4375 232.179 97.142C232.109 97.8102 232.188 98.4856 232.411 99.1195C232.59 99.6603 232.702 100.222 232.743 100.79C232.767 101.228 232.69 101.665 232.516 102.068C232.408 102.321 232.234 102.539 232.013 102.702C231.934 102.76 231.846 102.802 231.751 102.828Z" fill="#455A64"/>
<path d="M227.817 114.758L223.288 127.841L204.348 128.847L201.188 135.892L220.963 137.904C221.898 138.288 222.9 138.478 223.91 138.463C224.92 138.449 225.916 138.23 226.839 137.819C227.761 137.408 228.591 136.815 229.278 136.075C229.965 135.334 230.495 134.462 230.836 133.512L236.114 118.779L227.817 114.758Z" fill="#B78876"/>
<path d="M266.969 238.203C266.969 238.203 253.091 194.114 252.794 192.685C252.528 191.387 257.826 159.662 258.5 151.425L239.747 152.124V152.31L231.776 152.753L238.912 242.883H247.541L246.686 212.969C252.009 227.254 259.637 241.816 259.637 241.816L266.969 238.203Z" fill="#B78876"/>
<path d="M247.038 223.701C247.038 223.43 246.932 213.678 246.932 213.678C246.826 214.262 243.626 205.215 243.702 204.666C243.742 204.379 247.038 223.701 247.038 223.701Z" fill="#A36957"/>
<path d="M243.34 200.379C243.295 200.558 243.277 200.743 243.284 200.927C243.256 201.43 243.256 201.934 243.284 202.437C243.284 202.754 243.329 203.096 243.37 203.469C243.41 203.841 243.465 204.233 243.551 204.641C243.73 205.531 243.967 206.408 244.26 207.268C244.884 209.094 245.579 210.689 246.067 211.846C246.298 212.35 246.499 212.828 246.671 213.21C246.732 213.388 246.817 213.557 246.922 213.713C246.895 213.539 246.844 213.37 246.771 213.21C246.655 212.878 246.479 212.4 246.268 211.811C245.825 210.634 245.161 209.024 244.542 207.217C244.249 206.371 244.009 205.507 243.823 204.631C243.732 204.228 243.672 203.841 243.616 203.479C243.561 203.116 243.521 202.774 243.495 202.472C243.435 201.848 243.41 201.345 243.395 200.993C243.404 200.787 243.386 200.58 243.34 200.379Z" fill="#A36957"/>
<path d="M238.751 243.34V242.53L247.591 242.143L247.617 245.489L247.073 245.524C244.643 245.665 234.72 246.078 233.1 245.59C231.283 245.046 238.751 243.34 238.751 243.34Z" fill="#455A64"/>
<path d="M247.732 245.288C247.682 245.291 247.632 245.291 247.581 245.288L247.149 245.318L245.548 245.388C244.2 245.444 242.333 245.494 240.275 245.504C238.217 245.514 236.345 245.479 234.992 245.439L233.397 245.373H232.959H232.808C232.858 245.369 232.909 245.369 232.959 245.373H233.397L234.997 245.403C236.345 245.403 238.212 245.444 240.27 245.434C242.328 245.424 244.2 245.388 245.548 245.353L247.149 245.313H247.732V245.288Z" fill="#263238"/>
<path d="M235.867 245.57C235.794 245.306 235.693 245.052 235.565 244.81C235.406 244.587 235.222 244.382 235.017 244.201C235.292 244.299 235.52 244.497 235.656 244.754C235.822 244.992 235.897 245.281 235.867 245.57Z" fill="#263238"/>
<path d="M238.474 244.246C238.474 244.246 238.328 244.11 238.197 243.909C238.066 243.708 237.986 243.532 238.011 243.516C238.036 243.501 238.157 243.647 238.288 243.849C238.418 244.05 238.499 244.231 238.474 244.246Z" fill="#263238"/>
<path d="M239.188 243.889C239.188 243.914 239.027 243.818 238.876 243.682C238.725 243.547 238.615 243.421 238.635 243.401C238.655 243.381 238.796 243.471 238.947 243.607C239.098 243.743 239.208 243.844 239.188 243.889Z" fill="#263238"/>
<path d="M239.636 243.033C239.488 243.088 239.33 243.108 239.173 243.094C239.019 243.114 238.862 243.099 238.715 243.049C238.862 242.995 239.018 242.974 239.173 242.988C239.329 242.967 239.488 242.982 239.636 243.033Z" fill="#263238"/>
<path d="M239.787 242.45C239.637 242.547 239.463 242.599 239.284 242.601C239.113 242.623 238.939 242.599 238.781 242.53C238.947 242.502 239.115 242.489 239.284 242.49C239.45 242.46 239.618 242.447 239.787 242.45Z" fill="#263238"/>
<path d="M238.177 243.476C237.989 243.511 237.796 243.511 237.608 243.476C237.405 243.452 237.205 243.408 237.01 243.345C236.889 243.312 236.772 243.265 236.662 243.205C236.595 243.165 236.545 243.102 236.521 243.028C236.512 242.986 236.515 242.943 236.531 242.903C236.546 242.862 236.572 242.827 236.607 242.802C236.746 242.735 236.899 242.699 237.054 242.697C237.209 242.696 237.362 242.729 237.502 242.794C237.643 242.859 237.767 242.954 237.867 243.073C237.966 243.192 238.037 243.331 238.076 243.481C238.086 243.531 238.086 243.582 238.076 243.632C238.019 243.45 237.931 243.28 237.815 243.129C237.681 242.978 237.506 242.87 237.311 242.817C237.089 242.745 236.847 242.763 236.637 242.867C236.552 242.933 236.587 243.039 236.682 243.099C236.785 243.154 236.893 243.2 237.004 243.235C237.194 243.297 237.387 243.346 237.583 243.381C237.961 243.461 238.177 243.461 238.177 243.476Z" fill="#263238"/>
<path d="M238.031 243.507C237.958 243.39 237.932 243.249 237.961 243.114C237.979 242.966 238.032 242.825 238.117 242.701C238.164 242.617 238.231 242.547 238.313 242.496C238.395 242.445 238.488 242.415 238.585 242.41C238.642 242.423 238.691 242.457 238.724 242.506C238.757 242.554 238.77 242.613 238.761 242.671C238.748 242.761 238.716 242.847 238.665 242.923C238.589 243.048 238.499 243.164 238.398 243.27C238.311 243.37 238.2 243.448 238.076 243.496C238.076 243.496 238.187 243.396 238.343 243.215C238.433 243.111 238.513 242.998 238.579 242.878C238.655 242.757 238.71 242.54 238.579 242.515C238.449 242.49 238.298 242.646 238.212 242.757C238.132 242.866 238.077 242.991 238.051 243.124C238.031 243.25 238.024 243.379 238.031 243.507Z" fill="#263238"/>
<path d="M247.546 242.883C247.546 242.883 247.294 242.883 246.897 242.908C246.379 242.97 245.889 243.176 245.483 243.502C245.077 243.828 244.77 244.262 244.597 244.754C244.467 245.132 244.457 245.388 244.436 245.383C244.416 245.378 244.436 245.318 244.436 245.207C244.449 245.045 244.48 244.885 244.527 244.729C244.687 244.214 244.995 243.757 245.413 243.416C245.835 243.081 246.349 242.879 246.887 242.837C247.054 242.817 247.223 242.817 247.39 242.837C247.444 242.846 247.496 242.861 247.546 242.883Z" fill="#263238"/>
<path d="M243.314 244.583C242.892 244.682 242.459 244.724 242.026 244.709C241.596 244.731 241.164 244.694 240.743 244.598C240.743 244.568 241.317 244.598 242.026 244.598C242.736 244.598 243.309 244.553 243.314 244.583Z" fill="#263238"/>
<path d="M245.035 244.568C245.035 244.568 244.99 244.689 244.93 244.82C244.869 244.951 244.839 245.071 244.809 245.066C244.779 245.061 244.764 244.93 244.834 244.774C244.904 244.618 245.015 244.543 245.035 244.568Z" fill="#263238"/>
<path d="M245.684 243.758C245.684 243.758 245.649 243.869 245.558 243.959C245.468 244.05 245.377 244.11 245.352 244.09C245.327 244.07 245.387 243.979 245.478 243.884C245.569 243.788 245.659 243.733 245.684 243.758Z" fill="#263238"/>
<path d="M246.61 243.386C246.61 243.416 246.489 243.416 246.359 243.461C246.228 243.506 246.137 243.577 246.112 243.557C246.087 243.537 246.162 243.416 246.323 243.361C246.484 243.305 246.62 243.355 246.61 243.386Z" fill="#263238"/>
<path d="M247.269 243.205C247.269 243.235 247.234 243.28 247.159 243.305C247.083 243.33 247.018 243.335 247.008 243.305C246.998 243.275 247.048 243.23 247.118 243.205C247.189 243.179 247.259 243.179 247.269 243.205Z" fill="#263238"/>
<path d="M259.461 242.56L259.129 241.821L267.034 237.851L268.428 240.87L267.925 241.126C265.766 242.249 256.885 246.687 255.204 246.908C253.348 247.175 259.461 242.56 259.461 242.56Z" fill="#455A64"/>
<path d="M268.458 240.653L268.327 240.734L267.94 240.935L266.511 241.66C265.303 242.259 263.623 243.069 261.746 243.924C259.869 244.779 258.148 245.509 256.9 246.027L255.416 246.626L255.013 246.782C254.967 246.804 254.918 246.819 254.867 246.827L255.003 246.762L255.401 246.586L256.87 245.957C258.113 245.424 259.824 244.679 261.7 243.823C263.577 242.968 265.263 242.173 266.481 241.589L267.92 240.9L268.317 240.714L268.458 240.653Z" fill="#263238"/>
<path d="M257.766 245.771C257.591 245.558 257.394 245.366 257.177 245.197C256.941 245.057 256.689 244.946 256.427 244.865C256.716 244.861 256.999 244.946 257.239 245.108C257.478 245.27 257.662 245.501 257.766 245.771Z" fill="#263238"/>
<path d="M259.582 243.496C259.582 243.496 259.391 243.436 259.19 243.305C258.988 243.174 258.842 243.049 258.858 243.023C258.873 242.998 259.049 243.084 259.25 243.215C259.451 243.345 259.597 243.471 259.582 243.496Z" fill="#263238"/>
<path d="M260.075 242.883C260.075 242.908 259.904 242.883 259.708 242.822C259.512 242.762 259.366 242.686 259.371 242.656C259.498 242.644 259.626 242.665 259.743 242.717C259.934 242.762 260.085 242.832 260.075 242.883Z" fill="#263238"/>
<path d="M260.146 241.916C260.146 241.947 259.98 242.052 259.748 242.163C259.615 242.243 259.465 242.293 259.31 242.309C259.31 242.279 259.476 242.173 259.703 242.062C259.838 241.983 259.989 241.933 260.146 241.916Z" fill="#263238"/>
<path d="M260.045 241.323C260.045 241.323 259.899 241.524 259.637 241.67C259.489 241.771 259.314 241.823 259.134 241.821C259.278 241.724 259.432 241.641 259.592 241.574C259.839 241.438 260.02 241.298 260.045 241.323Z" fill="#263238"/>
<path d="M259.014 242.923C258.86 243.028 258.69 243.106 258.51 243.154C258.313 243.212 258.111 243.254 257.907 243.28C257.783 243.295 257.658 243.295 257.534 243.28C257.457 243.274 257.384 243.238 257.333 243.179C257.31 243.144 257.297 243.102 257.297 243.059C257.297 243.016 257.31 242.974 257.333 242.938C257.486 242.753 257.699 242.626 257.934 242.58C258.17 242.534 258.415 242.572 258.626 242.686C258.751 242.752 258.861 242.843 258.948 242.953C259.009 243.034 259.034 243.084 259.029 243.089C258.905 242.951 258.756 242.836 258.591 242.752C258.414 242.669 258.216 242.639 258.022 242.666C257.907 242.678 257.795 242.713 257.693 242.768C257.591 242.823 257.501 242.898 257.429 242.988C257.373 243.084 257.429 243.164 257.564 243.179C257.68 243.189 257.796 243.189 257.912 243.179C258.112 243.159 258.31 243.124 258.505 243.074C258.792 242.993 259.014 242.908 259.014 242.923Z" fill="#263238"/>
<path d="M258.873 243.008C258.76 242.929 258.682 242.81 258.651 242.676C258.607 242.535 258.597 242.385 258.621 242.238C258.63 242.142 258.663 242.049 258.717 241.969C258.772 241.889 258.846 241.824 258.933 241.781C259.059 241.74 259.351 241.997 259.371 242.093C259.391 242.188 259.225 242.138 259.215 242.218C259.199 242.361 259.165 242.501 259.114 242.636C259.077 242.765 259.008 242.883 258.913 242.978C258.913 242.978 258.973 242.842 259.044 242.616C259.08 242.482 259.105 242.346 259.119 242.208C259.119 242.067 259.119 241.851 258.958 241.886C258.797 241.921 258.752 242.118 258.717 242.259C258.686 242.389 258.686 242.525 258.717 242.656C258.758 242.778 258.81 242.896 258.873 243.008Z" fill="#263238"/>
<path d="M267.301 238.535C267.301 238.535 267.059 238.621 266.717 238.827C266.27 239.094 265.906 239.481 265.666 239.944C265.433 240.411 265.333 240.933 265.379 241.453C265.409 241.856 265.505 242.087 265.484 242.098C265.452 242.048 265.426 241.993 265.409 241.937C265.359 241.782 265.324 241.624 265.303 241.464C265.231 240.928 265.324 240.383 265.569 239.901C265.815 239.419 266.201 239.023 266.677 238.767C266.819 238.688 266.969 238.624 267.125 238.575C267.181 238.553 267.241 238.54 267.301 238.535Z" fill="#263238"/>
<path d="M264.136 241.826C263.426 242.319 262.634 242.68 261.796 242.892C261.796 242.862 262.324 242.661 262.969 242.389C263.613 242.118 264.121 241.801 264.136 241.826Z" fill="#263238"/>
<path d="M265.701 241.106C265.726 241.106 265.701 241.232 265.701 241.378C265.701 241.524 265.701 241.645 265.701 241.655C265.701 241.665 265.6 241.544 265.6 241.378C265.6 241.212 265.676 241.091 265.701 241.106Z" fill="#263238"/>
<path d="M265.957 240.1C265.982 240.1 265.957 240.216 265.927 240.337C265.897 240.457 265.821 240.548 265.796 240.538C265.771 240.528 265.796 240.422 265.826 240.301C265.857 240.181 265.927 240.09 265.957 240.1Z" fill="#263238"/>
<path d="M266.652 239.36C266.652 239.39 266.551 239.436 266.45 239.531C266.35 239.627 266.294 239.728 266.269 239.718C266.244 239.707 266.269 239.567 266.38 239.451C266.491 239.335 266.647 239.36 266.652 239.36Z" fill="#263238"/>
<path d="M267.18 238.948C267.18 238.948 267.18 239.028 267.12 239.084C267.059 239.139 267.004 239.169 266.984 239.149C266.964 239.129 266.984 239.068 267.044 239.013C267.105 238.958 267.16 238.928 267.18 238.948Z" fill="#263238"/>
<path d="M257.283 136.531L255.813 118.567L263.361 118.703C263.361 118.703 263.708 116.051 262.596 110.245C261.912 106.682 259.542 104.498 256.88 103.2V103.15L256.649 103.089C254.457 102.106 252.117 101.495 249.725 101.283L240.441 101.389C240.441 101.389 233.351 100.483 229.442 105.56C227.932 107.507 223.248 120.837 223.248 120.837L234.393 126.2L233.351 118.809C233.351 118.809 233.563 124.168 234.247 125.853C234.624 126.799 235.757 129.738 235.757 129.738L235.611 138.604L257.283 136.531Z" fill="#B366FF"/>
<path d="M252.165 115.961L250.787 121.828H263.784L262.928 111.986L252.165 115.961Z" fill="#B366FF"/>
<path d="M263.784 121.828C263.216 121.723 262.64 121.666 262.063 121.657C260.996 121.597 259.547 121.541 257.897 121.551C256.246 121.561 254.792 121.632 253.725 121.712C253.148 121.732 252.574 121.803 252.009 121.924C252.585 121.969 253.164 121.969 253.74 121.924C254.802 121.888 256.256 121.848 257.897 121.843C259.537 121.838 260.991 121.843 262.058 121.868C262.633 121.901 263.21 121.887 263.784 121.828Z" fill="#263238"/>
<path d="M251.602 111.94C251.54 112.441 251.526 112.947 251.561 113.45C251.561 114.371 251.602 115.639 251.657 117.043C251.712 118.446 251.778 119.72 251.838 120.635C251.841 121.143 251.895 121.648 251.999 122.145C252.061 121.644 252.074 121.139 252.039 120.635C252.039 119.715 251.999 118.441 251.944 117.038C251.889 115.634 251.823 114.366 251.763 113.445C251.761 112.939 251.707 112.435 251.602 111.94Z" fill="#263238"/>
<g opacity="0.3">
<path d="M239.777 117.022C239.777 117.022 242.665 138.443 250.787 137.874C250.787 137.874 254.445 137.834 255.617 135.404V134.448L239.777 117.022Z" fill="black"/>
</g>
<g opacity="0.3">
<path d="M251.602 113.203L250.047 123.705L251.053 125.546L252.714 121.944L252.009 121.923L251.602 113.203Z" fill="black"/>
</g>
<path d="M235.711 129.748C235.615 129.591 235.54 129.422 235.49 129.245C235.364 128.918 235.198 128.44 234.987 127.841C234.483 126.281 234.068 124.693 233.744 123.086C233.421 121.478 233.216 119.848 233.13 118.21C233.1 117.581 233.09 117.073 233.1 116.701C233.087 116.519 233.099 116.336 233.135 116.157C233.175 116.157 233.205 116.932 233.311 118.17C233.453 119.793 233.683 121.407 234 123.005C234.373 124.877 234.821 126.553 235.163 127.755C235.324 128.314 235.46 128.792 235.57 129.184C235.639 129.366 235.687 129.555 235.711 129.748Z" fill="#263238"/>
<path d="M238.992 135.902C238.922 135.902 238.72 135.464 238.544 134.895C238.393 134.547 238.325 134.168 238.348 133.788C238.57 134.096 238.723 134.448 238.796 134.82C238.94 135.162 239.007 135.531 238.992 135.902Z" fill="#263238"/>
<path d="M240.114 135.821C239.734 134.812 239.718 133.701 240.069 132.681C240.108 133.204 240.108 133.729 240.069 134.251C240.124 134.773 240.139 135.298 240.114 135.821Z" fill="#263238"/>
<path d="M234.619 126.447C234.584 126.508 231.993 125.28 228.828 123.7C225.663 122.12 223.122 120.781 223.152 120.716C223.182 120.651 225.779 121.883 228.944 123.463C232.109 125.043 234.65 126.382 234.619 126.447Z" fill="#263238"/>
<path d="M239.188 103.125C239.244 100.579 239.259 97.9018 239.259 97.9018C239.259 97.9018 235.993 97.2728 235.425 92.9757C234.881 88.8798 236.401 79.2641 236.401 79.2641C241.171 77.4627 246.127 79.098 249.393 82.9624L248.583 103.628C248.487 106.028 246.349 107.86 243.782 107.739C241.186 107.613 239.133 105.55 239.188 103.125Z" fill="#B78876"/>
<path d="M236.149 86.9476C236.145 87.0887 236.194 87.2261 236.288 87.3318C236.381 87.4375 236.512 87.5034 236.652 87.5162C236.724 87.5231 236.796 87.5154 236.864 87.4935C236.932 87.4716 236.996 87.4361 237.05 87.389C237.104 87.3419 237.148 87.2843 237.179 87.2196C237.21 87.155 237.228 87.0847 237.231 87.013C237.235 86.8725 237.185 86.7357 237.092 86.6308C236.998 86.5259 236.868 86.461 236.728 86.4494C236.656 86.4386 236.583 86.4433 236.513 86.4634C236.443 86.4834 236.379 86.5183 236.324 86.5656C236.269 86.6129 236.225 86.6715 236.195 86.7375C236.165 86.8034 236.149 86.8751 236.149 86.9476Z" fill="#263238"/>
<path d="M235.948 86.228C236.013 86.2984 236.451 86.0015 237.03 86.0217C237.608 86.0418 238.036 86.3437 238.107 86.2732C238.177 86.2028 238.076 86.1122 237.89 85.9663C237.638 85.7838 237.336 85.6836 237.025 85.6795C236.718 85.6678 236.416 85.7561 236.164 85.9311C235.978 86.0669 235.913 86.1927 235.948 86.228Z" fill="#263238"/>
<path d="M242.142 87.32C242.136 87.4614 242.185 87.5995 242.279 87.7054C242.373 87.8114 242.504 87.877 242.645 87.8886C242.717 87.8995 242.791 87.8947 242.861 87.8743C242.931 87.854 242.996 87.8187 243.051 87.7708C243.106 87.7229 243.15 87.6637 243.18 87.5971C243.21 87.5306 243.225 87.4583 243.224 87.3854C243.229 87.2445 243.18 87.107 243.086 87.0019C242.992 86.8967 242.861 86.8322 242.721 86.8218C242.649 86.811 242.576 86.8157 242.506 86.8358C242.436 86.8558 242.372 86.8907 242.317 86.938C242.262 86.9853 242.218 87.0439 242.188 87.1099C242.157 87.1758 242.142 87.2475 242.142 87.32Z" fill="#263238"/>
<path d="M242.102 86.6004C242.167 86.6759 242.605 86.379 243.184 86.3941C243.762 86.4092 244.19 86.7161 244.265 86.6457C244.341 86.5752 244.23 86.4846 244.044 86.3438C243.796 86.1564 243.494 86.0541 243.184 86.0519C242.876 86.0427 242.573 86.1307 242.318 86.3035C242.137 86.4394 242.072 86.5652 242.102 86.6004Z" fill="#263238"/>
<path d="M239.847 90.9227C239.539 90.8165 239.217 90.7506 238.891 90.7265C238.74 90.7265 238.6 90.6712 238.579 90.5705C238.567 90.4132 238.606 90.2562 238.69 90.1227L239.163 88.9905C239.603 88.0283 239.965 87.0321 240.245 86.0117C239.73 86.9363 239.289 87.9004 238.927 88.8949C238.771 89.2924 238.615 89.6749 238.469 90.0371C238.371 90.2169 238.339 90.4251 238.378 90.6259C238.398 90.6804 238.43 90.7297 238.472 90.7698C238.514 90.81 238.564 90.8399 238.62 90.8573C238.703 90.8815 238.789 90.895 238.876 90.8976C239.198 90.9471 239.524 90.9555 239.847 90.9227Z" fill="#263238"/>
<path d="M239.259 97.9018C241.272 97.9824 243.268 97.5034 245.025 96.518C245.025 96.518 243.561 99.4214 239.289 98.9132L239.259 97.9018Z" fill="#A36957"/>
<path d="M243.994 84.8846C243.873 85.0708 243.42 84.9903 242.917 84.8846C242.414 84.779 241.971 84.6934 241.911 84.4771C241.85 84.2607 242.379 83.9739 243.053 84.1097C243.727 84.2456 244.115 84.7236 243.994 84.8846Z" fill="#263238"/>
<path d="M238.122 84.0291C238.076 84.2455 237.593 84.326 237.04 84.3512C236.486 84.3763 235.998 84.3512 235.933 84.1298C235.867 83.9084 236.335 83.5964 237.005 83.5662C237.674 83.536 238.167 83.8228 238.122 84.0291Z" fill="#263238"/>
<path d="M239.857 92.3366C239.794 92.3216 239.727 92.3283 239.668 92.3556C239.609 92.383 239.56 92.4295 239.53 92.4876C239.502 92.5389 239.487 92.5968 239.488 92.6556C239.488 92.7143 239.504 92.7719 239.534 92.8226C239.564 92.8733 239.606 92.9153 239.657 92.9445C239.708 92.9737 239.766 92.9891 239.825 92.9891C239.884 92.9891 239.941 92.9737 239.992 92.9445C240.043 92.9153 240.086 92.8733 240.116 92.8226C240.145 92.7719 240.161 92.7143 240.162 92.6556C240.163 92.5968 240.148 92.5389 240.119 92.4876C240.083 92.42 240.025 92.3667 239.955 92.3366C239.884 92.3064 239.806 92.3011 239.732 92.3216" fill="#A36957"/>
<path d="M239.993 92.3971C239.993 92.372 239.898 92.226 239.641 92.2814C239.564 92.3014 239.494 92.3412 239.438 92.3969C239.381 92.4525 239.34 92.522 239.319 92.5984C239.292 92.6947 239.294 92.7969 239.326 92.8919C239.357 92.9869 239.416 93.0704 239.495 93.1318C239.579 93.1891 239.678 93.2198 239.78 93.2198C239.881 93.2198 239.98 93.1891 240.064 93.1318C240.131 93.0867 240.183 93.0234 240.215 92.9494C240.247 92.8754 240.258 92.7938 240.245 92.7141C240.195 92.4474 239.998 92.4072 239.988 92.4424C239.978 92.4776 240.059 92.5682 240.044 92.7242C240.04 92.7627 240.028 92.7999 240.006 92.8323C239.985 92.8648 239.957 92.8916 239.923 92.9104C239.884 92.9329 239.84 92.9447 239.795 92.9447C239.75 92.9447 239.705 92.9329 239.666 92.9104C239.631 92.8806 239.604 92.8422 239.589 92.799C239.573 92.7558 239.568 92.7092 239.576 92.6638C239.581 92.6241 239.597 92.5863 239.621 92.5539C239.644 92.5214 239.675 92.4952 239.712 92.4776C239.852 92.3921 239.978 92.4323 239.993 92.3971Z" fill="#263238"/>
<path d="M247.44 88.0092C246.937 89.1867 245.689 90.0974 245.86 91.3705C245.971 92.1907 246.499 92.9555 246.399 93.7807C246.268 94.787 245.196 95.5318 245.04 96.5633C244.854 97.8263 246.087 98.8074 246.575 99.9849C247.295 101.706 246.379 103.638 246.354 105.52C246.383 106.949 246.93 108.318 247.892 109.375C248.854 110.431 250.167 111.103 251.587 111.266C252.734 111.362 254.027 111.015 254.606 110.028C255.109 109.213 254.998 108.177 255.29 107.276C255.733 105.927 257.016 104.941 257.303 103.552C257.806 101.037 254.737 98.9232 254.938 96.3469C255.023 95.2449 255.703 94.2889 255.989 93.2222C256.172 92.5211 256.186 91.7868 256.03 91.0793C255.875 90.3717 255.554 89.7111 255.094 89.1515C254.334 88.2508 253.237 87.6419 252.578 86.6758C251.848 85.5638 251.823 84.1599 251.572 82.8466C251.234 81.2504 250.497 79.7658 249.429 78.5317C248.362 77.2976 246.999 76.3542 245.468 75.7898C243.937 75.2254 242.288 75.0583 240.675 75.3042C239.062 75.5502 237.538 76.201 236.245 77.1959C236.245 77.1959 235.515 80.5119 238.922 81.0704C242.328 81.6289 243.903 80.9849 244.285 82.3485C244.195 82.9102 244.24 83.4853 244.415 84.0267C244.589 84.5681 244.89 85.0603 245.292 85.4632C246.681 86.9626 248.004 86.6406 247.44 88.0092Z" fill="#263238"/>
<path d="M252.85 111.01C252.745 111.013 252.64 111.003 252.538 110.979C252.243 110.927 251.953 110.848 251.672 110.743C250.633 110.345 249.722 109.672 249.036 108.796C248.554 108.191 248.177 107.511 247.918 106.783C247.625 105.954 247.47 105.081 247.461 104.202C247.45 103.232 247.572 102.265 247.823 101.329C247.96 100.834 248.128 100.348 248.326 99.8743C248.534 99.4028 248.717 98.9208 248.875 98.4302C249.013 97.9468 249.013 97.4343 248.875 96.9509C248.727 96.475 248.537 96.0135 248.306 95.5722C248.073 95.1345 247.876 94.6784 247.717 94.2086C247.562 93.7435 247.526 93.2471 247.612 92.7644C247.813 91.8185 248.386 91.114 248.729 90.3945C249.054 89.7284 249.21 88.9919 249.181 88.2509C249.136 87.1666 248.742 86.1257 248.059 85.2822C247.795 84.9867 247.511 84.7093 247.209 84.4519C247.562 84.6502 247.877 84.9091 248.14 85.2168C248.873 86.059 249.305 87.1211 249.368 88.2358C249.409 89.0091 249.257 89.7805 248.925 90.48C248.578 91.2247 248.019 91.9342 247.848 92.7997C247.677 93.6651 248.085 94.5759 248.532 95.4514C248.777 95.9054 248.975 96.3824 249.126 96.8754C249.275 97.4018 249.275 97.9591 249.126 98.4856C248.959 98.9932 248.766 99.492 248.547 99.98C248.35 100.443 248.182 100.919 248.044 101.404C247.794 102.317 247.671 103.26 247.677 104.207C247.661 105.819 248.182 107.391 249.156 108.675C249.808 109.54 250.676 110.218 251.672 110.642C252.422 110.934 252.855 110.979 252.85 111.01Z" fill="#455A64"/>
<path d="M252.346 85.6192C252.101 85.6827 251.85 85.7198 251.597 85.7299C250.906 85.8038 250.209 85.7852 249.524 85.6746C249.004 85.5977 248.505 85.4178 248.056 85.1457C247.606 84.8735 247.216 84.5145 246.907 84.0896C246.619 83.552 246.39 82.9852 246.223 82.3989C246.008 81.8132 245.604 81.3158 245.075 80.985C243.974 80.2856 242.68 80.2 241.553 80.0642C240.514 80.0123 239.504 79.6972 238.62 79.1484C238.027 78.7559 237.599 78.1597 237.417 77.4728C237.373 77.2866 237.361 77.0944 237.382 76.9042C237.382 76.7734 237.412 76.708 237.422 76.708C237.428 76.9572 237.46 77.2051 237.518 77.4476C237.726 78.0899 238.153 78.6385 238.725 78.9974C239.594 79.504 240.574 79.7875 241.578 79.8226C242.705 79.9535 244.044 80.0189 245.221 80.7636C245.798 81.1254 246.237 81.669 246.469 82.3083C246.627 82.8798 246.844 83.433 247.118 83.9588C247.704 84.7627 248.582 85.3047 249.564 85.4683C250.227 85.5916 250.903 85.6372 251.577 85.6042C251.833 85.5897 252.091 85.5948 252.346 85.6192Z" fill="#455A64"/>
<path d="M251.099 81.5233C250.909 81.5867 250.71 81.6157 250.51 81.6089C249.572 81.6152 248.669 81.2539 247.994 80.6025C247.686 80.2939 247.423 79.9432 247.214 79.5609C246.761 78.7961 246.323 77.8552 245.382 77.4627C244.476 77.1585 243.51 77.074 242.565 77.2161C241.767 77.3282 240.957 77.3282 240.159 77.2161C239.604 77.1391 239.082 76.9091 238.65 76.5519C238.538 76.4546 238.44 76.343 238.358 76.2198C238.298 76.1326 238.272 76.0873 238.283 76.084C238.283 76.084 238.423 76.245 238.715 76.4714C239.146 76.7774 239.645 76.9712 240.169 77.035C240.953 77.1233 241.744 77.1098 242.524 76.9947C243.511 76.8335 244.523 76.92 245.468 77.2463C245.954 77.4647 246.37 77.8129 246.671 78.2527C246.936 78.6449 247.179 79.0514 247.4 79.4704C247.599 79.8361 247.844 80.1744 248.13 80.4767C248.382 80.7324 248.672 80.9479 248.99 81.1158C249.458 81.3601 249.973 81.5025 250.5 81.5334C250.887 81.5284 251.093 81.4982 251.099 81.5233Z" fill="#455A64"/>
<path d="M254.349 109.923C254.324 109.923 254.485 109.591 254.671 108.967C254.923 108.091 255.035 107.181 255.003 106.27C254.967 104.921 254.599 103.603 253.931 102.43C253.564 101.771 253.006 101.183 252.548 100.458C252.305 100.089 252.135 99.6775 252.045 99.2453C251.965 98.7904 252.003 98.3228 252.155 97.8867C252.437 97.0162 252.94 96.2866 253.051 95.4866C253.162 94.6865 252.779 93.977 252.397 93.3078C252.2 92.9822 252.02 92.6462 251.858 92.3015C251.711 91.9671 251.614 91.6126 251.572 91.2498C251.524 90.6104 251.544 89.9678 251.632 89.3327C251.793 88.4349 251.709 87.5103 251.39 86.6558C251.248 86.3565 251.046 86.0894 250.797 85.8708C250.797 85.8708 250.822 85.8708 250.857 85.901C250.917 85.9306 250.971 85.9697 251.018 86.0168C251.215 86.1807 251.374 86.3849 251.486 86.6155C251.85 87.4774 251.963 88.4244 251.813 89.3478C251.744 89.9711 251.735 90.5997 251.788 91.2247C251.912 91.9277 252.19 92.5944 252.603 93.177C252.818 93.517 253.001 93.8757 253.152 94.2488C253.31 94.6514 253.362 95.0881 253.302 95.5168C253.182 96.3973 252.663 97.142 252.402 97.9622C252.264 98.3579 252.228 98.7817 252.296 99.195C252.384 99.5948 252.544 99.9751 252.769 100.317C253.197 101.016 253.775 101.615 254.143 102.305C254.817 103.517 255.177 104.878 255.189 106.265C255.205 107.193 255.062 108.117 254.767 108.997C254.686 109.235 254.589 109.467 254.475 109.691C254.444 109.774 254.402 109.852 254.349 109.923Z" fill="#455A64"/>
<path d="M233.855 203.68C233.855 203.68 230.463 171.557 230.267 159.687C230.071 147.817 235.606 136.103 235.606 136.103L257.283 135.202C257.283 135.202 261.57 147.243 261.645 152.31C261.796 162.142 259.034 171.849 259.351 179.648L260.075 203.7" fill="#263238"/>
<path d="M260.805 164.185C260.692 164.284 260.572 164.374 260.448 164.457L260.251 164.593L260.04 164.799C259.854 164.96 259.685 165.141 259.537 165.338C258.837 166.193 258.329 167.728 257.841 169.635C257.592 170.693 257.224 171.719 256.744 172.694C256.598 172.961 256.43 173.215 256.241 173.454C256.15 173.575 256.065 173.705 255.959 173.821L255.627 174.153C255.151 174.598 254.599 174.952 253.997 175.2C252.784 175.733 251.411 175.985 250.163 176.614C248.884 177.302 247.896 178.427 247.38 179.784C246.766 181.147 246.374 182.576 245.871 183.915C245.367 185.253 244.688 186.531 243.606 187.347C242.572 188.065 241.344 188.453 240.084 188.459C238.917 188.529 237.835 188.494 236.864 188.64C235.99 188.73 235.154 189.046 234.438 189.556C233.916 189.964 233.524 190.517 233.311 191.146C233.176 191.542 233.147 191.967 233.226 192.378C233.286 192.66 233.362 192.796 233.346 192.801C233.265 192.675 233.208 192.535 233.175 192.388C233.069 191.969 233.083 191.528 233.216 191.115C233.416 190.456 233.81 189.872 234.348 189.44C235.082 188.886 235.95 188.539 236.864 188.433C237.87 188.272 238.942 188.293 240.094 188.217C241.317 188.209 242.508 187.83 243.511 187.13C244.527 186.242 245.278 185.089 245.679 183.799C246.183 182.476 246.55 181.042 247.189 179.653C247.73 178.24 248.763 177.07 250.097 176.357C251.395 175.713 252.769 175.467 253.952 174.953C254.53 174.714 255.062 174.373 255.522 173.947L255.839 173.63C255.939 173.519 256.025 173.393 256.115 173.278C256.293 173.049 256.449 172.805 256.583 172.548C257.065 171.586 257.438 170.574 257.695 169.529C258.198 167.627 258.747 166.072 259.487 165.212C259.634 165.016 259.803 164.837 259.99 164.678C260.07 164.608 260.141 164.538 260.211 164.482L260.417 164.351C260.543 164.288 260.673 164.233 260.805 164.185Z" fill="#FAFAFA"/>
<path d="M260.936 149.322C260.959 149.463 260.969 149.606 260.966 149.749C260.964 150.165 260.914 150.579 260.815 150.982C260.382 152.454 259.53 153.769 258.364 154.766C257.595 155.473 256.751 156.096 255.849 156.623C254.877 157.196 253.806 157.745 252.704 158.369C251.546 158.989 250.468 159.748 249.493 160.628C248.493 161.62 247.67 162.776 247.058 164.045C246.441 165.331 245.737 166.573 244.95 167.763C244.55 168.318 244.087 168.824 243.571 169.273C243.062 169.706 242.503 170.075 241.905 170.375C240.824 170.906 239.698 171.339 238.539 171.668C237.462 172 236.456 172.297 235.581 172.674C234.786 172.99 234.03 173.395 233.326 173.882C232.797 174.249 232.321 174.687 231.912 175.185C231.57 175.617 231.284 176.09 231.062 176.594C231.098 176.454 231.145 176.318 231.203 176.186C231.368 175.806 231.579 175.448 231.832 175.12C232.233 174.601 232.708 174.143 233.241 173.761C233.947 173.257 234.709 172.835 235.51 172.503C236.479 172.108 237.469 171.764 238.474 171.472C239.616 171.135 240.727 170.7 241.795 170.173C242.361 169.878 242.893 169.52 243.38 169.107C243.876 168.665 244.322 168.168 244.708 167.627C245.484 166.443 246.182 165.209 246.796 163.934C247.428 162.637 248.279 161.459 249.312 160.452C250.304 159.559 251.403 158.792 252.583 158.168C253.69 157.549 254.762 157.01 255.733 156.442C256.633 155.932 257.477 155.329 258.249 154.64C259.405 153.673 260.263 152.397 260.724 150.962C260.854 150.424 260.924 149.874 260.936 149.322Z" fill="#FAFAFA"/>
<path d="M230.378 161.368C230.358 161.336 230.342 161.303 230.332 161.267C230.295 161.17 230.263 161.071 230.237 160.97C230.15 160.57 230.168 160.154 230.287 159.762C230.569 158.756 231.681 157.463 233.472 156.824C234.368 156.517 235.379 156.321 236.436 156.059C237.313 155.914 238.143 155.561 238.857 155.029C239.57 154.498 240.146 153.804 240.537 153.005C240.823 152.418 241.073 151.815 241.287 151.198C241.68 149.859 242.215 148.565 242.882 147.339C243.646 146.134 244.806 145.232 246.162 144.788C247.396 144.387 248.655 144.068 249.931 143.832C251.07 143.613 252.172 143.237 253.207 142.715C254.083 142.214 254.839 141.527 255.421 140.702C256.28 139.511 256.77 138.094 256.83 136.626C256.832 136.088 256.797 135.55 256.724 135.016C256.876 135.539 256.946 136.082 256.93 136.626C256.911 138.125 256.437 139.583 255.572 140.808C254.983 141.66 254.211 142.37 253.313 142.886C252.264 143.428 251.144 143.819 249.987 144.048C248.723 144.288 247.476 144.609 246.253 145.009C244.95 145.436 243.837 146.302 243.103 147.46C242.447 148.669 241.919 149.944 241.528 151.264C241.311 151.892 241.053 152.505 240.758 153.1C240.46 153.672 240.08 154.198 239.631 154.66C238.747 155.466 237.66 156.014 236.486 156.245C235.419 156.517 234.413 156.688 233.533 156.98C231.787 157.574 230.68 158.796 230.383 159.773C230.261 160.149 230.228 160.549 230.287 160.94C230.33 161.08 230.36 161.223 230.378 161.368Z" fill="#FAFAFA"/>
<path d="M259.074 188.539C259.094 188.644 259.106 188.75 259.109 188.856C259.119 189.161 259.087 189.466 259.013 189.762C258.697 190.853 258.028 191.809 257.111 192.479C256.499 192.967 255.822 193.367 255.099 193.667C254.329 193.994 253.479 194.255 252.583 194.532C251.653 194.804 250.744 195.14 249.861 195.538C248.944 195.977 248.121 196.59 247.44 197.345C246.706 198.11 246.072 198.95 245.367 199.695C244.693 200.416 243.911 201.027 243.048 201.506C241.579 202.308 239.936 202.736 238.262 202.754C237.142 202.766 236.028 202.58 234.972 202.206C234.685 202.107 234.406 201.987 234.136 201.848C234.038 201.808 233.945 201.755 233.86 201.692C233.961 201.72 234.06 201.755 234.156 201.798C234.433 201.916 234.715 202.02 235.002 202.11C236.056 202.441 237.158 202.595 238.262 202.568C239.899 202.525 241.501 202.089 242.932 201.295C243.768 200.821 244.527 200.222 245.181 199.519C245.87 198.784 246.499 197.949 247.249 197.164C247.97 196.381 248.839 195.748 249.805 195.302C250.701 194.902 251.624 194.566 252.568 194.296C253.453 194.024 254.299 193.792 255.084 193.46C255.786 193.173 256.446 192.792 257.046 192.328C257.948 191.691 258.62 190.781 258.963 189.732C259.037 189.339 259.074 188.939 259.074 188.539Z" fill="#FAFAFA"/>
<path d="M256.603 121.848L252.407 121.949C252.245 122.795 251.924 123.603 251.461 124.329C247.939 118.24 245.237 110.089 244.562 106.813C244.663 106.486 244.779 106.124 244.925 105.721C245.029 105.11 245.01 104.484 244.869 103.879C244.748 103.15 244.547 102.169 244.487 101.716C244.301 100.327 244.074 100.111 243.591 100.267C242.937 100.483 243.863 104.156 243.324 104.237C243.033 104.277 242.68 103.019 242.58 101.988C242.479 100.956 242.006 97.7759 241.669 97.5646C241.166 97.2526 240.728 97.7458 240.859 98.7722C240.99 99.7987 241.146 102.918 240.602 102.964C240.059 103.009 239.596 97.7357 239.596 97.7357C239.596 97.7357 239.681 96.5884 239.047 96.6136C237.91 96.6639 238.801 102.219 238.896 102.747C238.967 103.11 238.393 103.18 238.323 102.783C238.252 102.385 237.991 97.5143 236.813 97.5545C235.918 97.5545 237.503 102.128 236.999 103.185C236.496 104.242 236.154 99.6025 235.304 99.6629C234.987 99.688 234.75 99.7484 235.334 102.37C235.893 104.453 236.565 106.504 237.347 108.514C238.695 115.785 244.613 139.047 253.886 134.79C259.079 132.405 261.182 121.848 261.182 121.848H256.603Z" fill="#B78876"/>
<path d="M238.715 103.1C238.755 103.11 238.796 103.11 238.836 103.1C238.897 103.081 238.949 103.042 238.983 102.988C239.017 102.935 239.031 102.871 239.022 102.808C239.022 102.496 238.962 102.043 238.891 101.454C238.773 100.745 238.696 100.029 238.66 99.3107C238.66 98.888 238.66 98.4352 238.685 97.9571C238.692 97.7141 238.718 97.4719 238.761 97.2326C238.801 97.0061 238.952 96.7294 239.128 96.7747H239.158C239.334 96.7747 239.475 96.9055 239.53 97.1168C239.593 97.3358 239.616 97.564 239.601 97.7911C239.705 99.2003 239.884 100.603 240.139 101.993C240.179 102.179 240.22 102.37 240.28 102.561C240.307 102.659 240.341 102.755 240.381 102.848C240.407 102.9 240.435 102.95 240.466 102.999C240.489 103.036 240.52 103.067 240.556 103.089C240.593 103.112 240.635 103.126 240.678 103.13C240.751 103.122 240.82 103.092 240.877 103.045C240.933 102.997 240.974 102.934 240.995 102.863C241.038 102.765 241.07 102.662 241.09 102.556C241.129 102.353 241.156 102.148 241.171 101.942C241.217 101.104 241.205 100.263 241.136 99.4264C241.072 99.0086 241.055 98.585 241.085 98.1635C241.104 97.9814 241.192 97.8135 241.332 97.6955C241.364 97.6763 241.4 97.6642 241.437 97.6598C241.475 97.6555 241.512 97.6591 241.548 97.6703C241.591 97.6806 241.632 97.6976 241.669 97.7207C241.694 97.7398 241.714 97.766 241.724 97.7961C241.883 98.2042 241.999 98.6274 242.071 99.0591C242.162 99.5019 242.237 99.9598 242.308 100.418C242.378 100.876 242.444 101.339 242.499 101.806C242.542 102.289 242.62 102.769 242.731 103.241C242.79 103.482 242.866 103.719 242.957 103.95C243.008 104.079 243.08 104.2 243.168 104.307C243.202 104.352 243.248 104.386 243.301 104.406C243.353 104.425 243.41 104.429 243.465 104.418C243.516 104.401 243.562 104.371 243.598 104.332C243.634 104.292 243.66 104.244 243.672 104.192C243.731 103.934 243.75 103.67 243.727 103.407C243.727 103.155 243.697 102.903 243.672 102.662C243.636 102.239 243.596 101.822 243.581 101.409C243.568 101.206 243.568 101.003 243.581 100.8C243.591 100.71 243.613 100.622 243.646 100.538C243.657 100.511 243.672 100.485 243.692 100.463H243.757C244.089 100.327 244.2 100.79 244.29 101.162C244.381 101.535 244.416 101.957 244.497 102.355C244.628 103.145 244.799 103.935 244.884 104.69C244.942 105.051 244.929 105.42 244.844 105.777C244.723 106.139 244.602 106.496 244.487 106.853V106.889V106.919C245.076 109.391 245.827 111.821 246.736 114.195C247.531 116.343 248.331 118.22 249.03 119.73C249.73 121.239 250.364 122.422 250.797 123.217L251.3 124.117C251.354 124.225 251.42 124.326 251.496 124.419C251.454 124.308 251.401 124.2 251.34 124.097L250.837 123.176C250.424 122.366 249.83 121.164 249.146 119.654C248.462 118.145 247.687 116.268 246.912 114.119C246.025 111.749 245.289 109.326 244.708 106.863V106.934C244.824 106.582 244.94 106.224 245.06 105.867C245.165 105.475 245.186 105.065 245.121 104.665C245.03 103.875 244.864 103.11 244.733 102.315C244.658 101.922 244.607 101.52 244.527 101.107C244.522 100.895 244.486 100.685 244.421 100.483C244.364 100.36 244.266 100.261 244.145 100.201C244.015 100.159 243.876 100.159 243.747 100.201H243.667C243.624 100.215 243.584 100.237 243.551 100.267C243.495 100.314 243.452 100.375 243.425 100.443C243.379 100.552 243.35 100.667 243.339 100.785C243.324 101.003 243.324 101.221 243.339 101.439C243.339 101.862 243.4 102.284 243.435 102.707C243.435 102.954 243.475 103.21 243.485 103.437C243.505 103.664 243.493 103.892 243.45 104.116C243.45 104.166 243.41 104.156 243.45 104.181L243.42 104.151C243.356 104.069 243.305 103.977 243.269 103.88C243.181 103.662 243.109 103.438 243.053 103.21C242.942 102.752 242.866 102.286 242.826 101.817C242.773 101.344 242.707 100.876 242.63 100.413C242.56 99.9497 242.479 99.4969 242.388 99.044C242.313 98.5831 242.184 98.1323 242.006 97.7005C241.972 97.6284 241.917 97.5674 241.85 97.5244C241.791 97.4904 241.729 97.4634 241.664 97.4439C241.592 97.4251 241.517 97.4207 241.444 97.4311C241.371 97.4414 241.3 97.4663 241.236 97.5043C241.132 97.5818 241.046 97.6799 240.982 97.7925C240.918 97.9051 240.878 98.0296 240.864 98.1584C240.831 98.3871 240.831 98.6191 240.864 98.8478C240.864 99.0641 240.914 99.2755 240.929 99.4868C240.999 100.31 241.014 101.137 240.975 101.962C240.963 102.159 240.938 102.354 240.899 102.546C240.885 102.636 240.859 102.724 240.824 102.808C240.811 102.841 240.792 102.872 240.768 102.898C240.768 102.944 240.733 102.898 240.738 102.959C240.738 102.908 240.738 102.959 240.738 102.893C240.716 102.859 240.696 102.824 240.678 102.788C240.642 102.707 240.612 102.617 240.582 102.531C240.527 102.35 240.486 102.164 240.446 101.983C240.184 100.605 239.994 99.214 239.878 97.8163C239.893 97.5633 239.864 97.3096 239.792 97.0665C239.759 96.9397 239.691 96.8247 239.596 96.7344C239.547 96.6869 239.488 96.6498 239.424 96.6256C239.36 96.6014 239.292 96.5905 239.223 96.5935H239.254C239.168 96.5811 239.082 96.594 239.004 96.6307C238.926 96.6674 238.86 96.7262 238.816 96.7998C238.741 96.9199 238.69 97.0531 238.665 97.1923C238.623 97.4418 238.599 97.6941 238.594 97.9471C238.594 98.4503 238.594 98.888 238.594 99.3157C238.642 100.039 238.735 100.758 238.871 101.469C238.957 102.053 239.022 102.506 239.052 102.813C239.062 102.867 239.053 102.922 239.026 102.97C239 103.017 238.957 103.054 238.906 103.074C238.755 103.09 238.71 103.095 238.715 103.1Z" fill="#A36957"/>
<path d="M205.943 128.777C204.961 128.756 203.981 128.869 203.03 129.114C200.429 129.798 195.945 132.515 195.759 135.872H199.02C199.02 135.872 197.193 139.756 197.726 139.394C199.12 138.458 201.888 135.645 201.888 135.645L205.943 128.777Z" fill="#B78876"/>
<path d="M250.389 70.2924C250.314 70.2924 250.022 67.6054 249.73 64.2543C249.438 60.9031 249.257 58.2161 249.327 58.2161C249.398 58.2161 249.695 60.9031 249.987 64.2543C250.278 67.6054 250.459 70.2924 250.389 70.2924Z" fill="#263238"/>
<path d="M264.684 58.4224C264.74 58.4627 262.541 61.6579 259.768 65.5575C256.996 69.4571 254.696 72.602 254.636 72.5416C254.575 72.4812 256.779 69.3062 259.552 65.4065C262.324 61.5069 264.624 58.3822 264.684 58.4224Z" fill="#263238"/>
<path d="M270.622 72.9038C270.622 72.9742 268.066 73.5629 264.886 74.2171C261.706 74.8712 259.109 75.3442 259.094 75.2738C259.079 75.2033 261.645 74.6146 264.83 73.9605C268.015 73.3063 270.587 72.8333 270.622 72.9038Z" fill="#263238"/>
<path d="M99.5059 142.015L81.6934 233.493L79.3788 245.469L198.129 244.895C203.463 244.87 208.192 240.135 209.898 233.101L230.961 146.74C232.264 141.402 229.406 135.846 225.361 135.852L105.142 135.977C102.525 135.972 100.18 138.448 99.5059 142.015Z" fill="#B366FF"/>
<g opacity="0.5">
<path d="M99.5059 142.015L81.6934 233.493L79.3788 245.469L198.129 244.895C203.463 244.87 208.192 240.135 209.898 233.101L230.961 146.74C232.264 141.402 229.406 135.846 225.361 135.852L105.142 135.977C102.525 135.972 100.18 138.448 99.5059 142.015Z" fill="black"/>
</g>
<path d="M186.752 227.284L174.173 125.939C173.669 121.788 170.353 118.688 166.444 118.703L138.87 118.789C137.845 118.8 136.833 119.02 135.896 119.436C134.959 119.851 134.117 120.453 133.42 121.204L120.338 135.127L43.6532 135.54C38.9686 135.565 35.3658 140.003 35.9847 144.984L47.6635 238.651C48.1667 242.797 51.4826 245.892 55.3823 245.887L189.052 245.62C203.936 245.927 205.36 241.534 205.36 241.534C188.272 245.313 186.752 227.309 186.752 227.284Z" fill="#B366FF"/>
<g opacity="0.5">
<path d="M129.113 207.016L124.605 211.857L89.8853 180.619L94.3937 175.779L129.113 207.016Z" fill="white"/>
<path d="M122.718 174.707L127.699 179.19L96.2857 212.928L91.2992 208.445L122.718 174.707Z" fill="white"/>
</g>
<path d="M205.838 76.2198C205.675 76.1512 205.535 76.0376 205.434 75.8923C205.334 75.7471 205.276 75.5762 205.269 75.3996L205.068 70.7301C205.061 70.585 205.088 70.4403 205.146 70.3073C205.205 70.1744 205.293 70.0569 205.405 69.9641C205.517 69.8713 205.649 69.8059 205.79 69.7729C205.932 69.7399 206.079 69.7403 206.22 69.7741C206.61 69.8581 207.012 69.8618 207.404 69.7848C207.795 69.7078 208.166 69.5518 208.494 69.3263C208.797 69.1347 209.057 68.8832 209.259 68.5872C209.461 68.2912 209.599 67.9571 209.667 67.6054C209.712 67.2493 209.686 66.8876 209.589 66.5419C209.492 66.1961 209.327 65.8734 209.103 65.5927C208.868 65.2733 208.571 65.0036 208.231 64.799C207.891 64.5943 207.513 64.4588 207.121 64.4001C206.329 64.3561 205.546 64.5806 204.897 65.0372C204.249 65.4937 203.774 66.1557 203.548 66.916C203.473 67.1464 203.312 67.3389 203.098 67.4534C202.885 67.5679 202.635 67.5956 202.402 67.5308C202.168 67.4659 201.969 67.3135 201.845 67.1053C201.721 66.897 201.682 66.649 201.737 66.4129C202.079 65.217 202.823 64.1755 203.843 63.4635C204.863 62.7515 206.097 62.4124 207.337 62.5032C207.983 62.5892 208.605 62.8041 209.166 63.1352C209.727 63.4662 210.215 63.9067 210.603 64.4303C210.98 64.9157 211.255 65.4717 211.414 66.0654C211.572 66.6592 211.609 67.2787 211.524 67.8872C211.409 68.4948 211.172 69.0725 210.826 69.5849C210.479 70.0972 210.032 70.5332 209.511 70.866C208.756 71.3742 207.874 71.6617 206.965 71.6962L207.121 75.299C207.127 75.4573 207.092 75.6145 207.021 75.756C206.95 75.8976 206.845 76.0189 206.714 76.1087C206.584 76.1985 206.433 76.2539 206.275 76.2698C206.117 76.2858 205.958 76.2616 205.813 76.1997L205.838 76.2198Z" fill="#B366FF"/>
<path d="M207.216 78.1319C207.227 78.2838 207.192 78.4355 207.117 78.5677C207.041 78.7 206.928 78.8068 206.791 78.8746C206.655 78.9425 206.502 78.9684 206.351 78.9491C206.199 78.9297 206.057 78.866 205.943 78.7659C205.828 78.6659 205.745 78.534 205.705 78.387C205.665 78.24 205.67 78.0844 205.719 77.9401C205.767 77.7957 205.857 77.669 205.978 77.5759C206.099 77.4829 206.244 77.4277 206.396 77.4174C206.497 77.4098 206.598 77.4224 206.694 77.4543C206.79 77.4863 206.879 77.5369 206.955 77.6034C207.032 77.6698 207.094 77.7508 207.139 77.8415C207.184 77.9322 207.21 78.0309 207.216 78.1319Z" fill="#B366FF"/>
<path d="M189.671 69.6333C189.692 69.5338 189.707 69.4329 189.716 69.3314C189.716 69.11 189.771 68.8282 189.811 68.4307C189.861 67.9427 189.943 67.4585 190.058 66.9816C190.123 66.6998 190.159 66.3878 190.259 66.0708C190.36 65.7538 190.461 65.4116 190.571 65.0644C191.154 63.3442 192.003 61.7261 193.087 60.2692C194.508 58.3826 196.31 56.8157 198.376 55.6701C199.551 55.0072 200.803 54.4902 202.104 54.1304C203.508 53.7583 204.954 53.5688 206.406 53.5668C207.171 53.5545 207.936 53.5949 208.696 53.6876C209.083 53.7278 209.466 53.8285 209.853 53.8939C210.245 53.961 210.632 54.0552 211.01 54.1757C212.596 54.6189 214.105 55.3028 215.484 56.2035C218.549 58.1917 220.884 61.1236 222.136 64.5562C222.81 66.395 223.15 68.3391 223.142 70.2975C223.163 72.3149 222.806 74.3185 222.09 76.2048L221.864 76.7784L221.834 76.8539L221.864 76.9294C223.127 79.8327 224.38 82.6857 225.562 85.4482L225.774 85.2067L218.226 82.3134L218.135 82.2782L218.06 82.3486C216.063 84.2832 213.619 85.6938 210.945 86.4545C208.66 87.0836 206.268 87.2209 203.926 86.8575C201.584 86.4941 199.346 85.6382 197.359 84.3462C195.732 83.2791 194.298 81.9435 193.117 80.3963C191.407 78.1379 190.299 75.4818 189.897 72.6775C189.837 72.1743 189.786 71.7517 189.741 71.3693C189.696 70.9868 189.741 70.6749 189.716 70.4082C189.691 70.1415 189.716 69.9654 189.716 69.8195C189.741 69.8157 189.764 69.8025 189.779 69.7827C189.795 69.7628 189.803 69.7377 189.801 69.7124C189.799 69.6871 189.788 69.6635 189.769 69.6462C189.751 69.6289 189.726 69.6193 189.701 69.6193C189.675 69.6193 189.651 69.6289 189.632 69.6462C189.614 69.6635 189.602 69.6871 189.6 69.7124C189.598 69.7377 189.606 69.7628 189.622 69.7827C189.638 69.8025 189.661 69.8157 189.686 69.8195C189.686 69.9654 189.686 70.1616 189.686 70.4082C189.686 70.6548 189.686 70.9969 189.686 71.3793C189.686 71.7617 189.771 72.1995 189.821 72.6977C189.987 73.9079 190.275 75.0982 190.682 76.2501C191.258 77.7713 192.033 79.2094 192.986 80.5271C194.171 82.1019 195.616 83.4632 197.258 84.5525C199.27 85.8767 201.54 86.7581 203.917 87.138C206.295 87.518 208.727 87.3879 211.051 86.7565C213.757 85.9878 216.232 84.5637 218.256 82.6103L218.09 82.6455L225.638 85.5539L226.015 85.6998L225.849 85.3123C224.652 82.5499 223.414 79.7019 222.156 76.7935V76.9394L222.387 76.3507C223.121 74.4233 223.487 72.375 223.464 70.3126C223.48 68.3126 223.139 66.3259 222.458 64.4455C221.179 60.9445 218.792 57.9568 215.66 55.9368C214.246 55.0151 212.698 54.3191 211.071 53.8738C210.686 53.7519 210.292 53.6594 209.893 53.597C209.501 53.5266 209.113 53.4259 208.721 53.3907C207.951 53.2952 207.176 53.2515 206.401 53.2599C204.926 53.2661 203.457 53.4657 202.034 53.8536C200.716 54.2279 199.447 54.7584 198.255 55.4336C196.169 56.6073 194.356 58.211 192.936 60.1383C191.855 61.6194 191.018 63.2637 190.456 65.0091C190.35 65.3714 190.249 65.7186 190.159 66.0154C190.079 66.3188 190.015 66.6262 189.967 66.9363C189.86 67.4165 189.789 67.9044 189.756 68.3955C189.726 68.7829 189.706 69.0798 189.691 69.3012C189.67 69.4106 189.663 69.5222 189.671 69.6333Z" fill="#263238"/>
</g>
<defs>
<clipPath id="clip0_380_50654">
<rect width="270" height="270" fill="white"/>
</clipPath>
</defs>
</svg>
