<svg width="270" height="270" viewBox="0 0 270 270" fill="none" xmlns="http://www.w3.org/2000/svg">
<path d="M40.662 224.829L45.2304 254.853H71.7714L77.9328 225.266L40.662 224.829Z" fill="#EBEBEB"/>
<path d="M74.223 244.08C74.223 244.166 67.419 244.237 59.0328 244.237C50.6466 244.237 43.8426 244.166 43.8426 244.08C43.8426 243.994 50.6412 243.923 59.0328 243.923C67.4244 243.923 74.223 243.983 74.223 244.08Z" fill="#FAFAFA"/>
<path d="M74.3256 242.595C74.3256 242.681 67.4784 242.752 59.0328 242.752C50.5872 242.752 43.74 242.681 43.74 242.595C43.74 242.509 50.5872 242.438 59.0328 242.438C67.4784 242.438 74.3256 242.509 74.3256 242.595Z" fill="#FAFAFA"/>
<path d="M74.2716 240.926C74.2716 241.013 67.4244 241.083 58.9788 241.083C50.5332 241.083 43.686 241.013 43.686 240.926C43.686 240.84 50.5332 240.77 58.9788 240.77C67.4244 240.77 74.2716 240.84 74.2716 240.926Z" fill="#FAFAFA"/>
<path d="M48.2814 253.136C47.905 251.901 47.6322 250.636 47.466 249.356C47.1925 248.096 47.0227 246.815 46.9584 245.527C47.3318 246.763 47.6045 248.027 47.7738 249.307C48.041 250.568 48.2107 251.848 48.2814 253.136Z" fill="#FAFAFA"/>
<path d="M50.085 252.817C49.8133 250.363 49.6457 247.898 49.5828 245.43C49.8695 246.638 50.0323 247.872 50.0688 249.113C50.2055 250.344 50.211 251.585 50.085 252.817Z" fill="#FAFAFA"/>
<path d="M53.3736 252.817C52.7501 250.326 52.4506 247.765 52.4826 245.198C52.734 246.447 52.9143 247.709 53.0226 248.978C53.2386 251.1 53.46 252.801 53.3736 252.817Z" fill="#FAFAFA"/>
<path d="M55.6848 252.979C55.4343 251.713 55.3113 250.425 55.3176 249.134C55.2233 247.847 55.2632 246.553 55.4364 245.273C55.575 246.552 55.6399 247.838 55.6308 249.124C55.722 250.407 55.74 251.694 55.6848 252.979Z" fill="#FAFAFA"/>
<path d="M59.7726 252.817C59.5795 251.612 59.4873 250.393 59.4972 249.172C59.4029 247.955 59.4137 246.732 59.5296 245.516C59.8157 247.939 59.8969 250.381 59.7726 252.817Z" fill="#FAFAFA"/>
<path d="M62.7642 252.979C62.6159 251.725 62.5725 250.461 62.6346 249.199C62.5951 247.936 62.6584 246.672 62.8236 245.419C62.9683 246.674 63.0099 247.938 62.9478 249.199C62.987 250.462 62.9257 251.726 62.7642 252.979Z" fill="#FAFAFA"/>
<path d="M65.5614 252.574C65.5332 251.256 65.6091 249.938 65.7882 248.632C65.8686 247.317 66.0491 246.01 66.3282 244.723C66.2801 247.356 66.0256 249.981 65.5668 252.574H65.5614Z" fill="#FAFAFA"/>
<path d="M69.174 252.18C69.2911 249.921 69.7744 247.696 70.605 245.592C70.4425 246.704 70.2153 247.806 69.9246 248.891C69.7337 250 69.4831 251.098 69.174 252.18Z" fill="#FAFAFA"/>
<path d="M66.6198 165.591L66.5874 165.742C66.5496 165.856 66.5118 165.991 66.4632 166.163L65.9556 167.783C65.7288 168.485 65.4588 169.344 65.178 170.354C64.8972 171.364 64.5354 172.514 64.2222 173.777C63.909 175.041 63.5202 176.445 63.1854 177.957C62.8506 179.469 62.5104 181.084 62.1648 182.79C61.5276 186.214 60.9444 189.999 60.5448 193.995C60.1452 197.991 60.0048 201.82 59.9292 205.297C59.9292 207.041 59.9292 208.694 59.9724 210.244C60.0156 211.793 60.0858 213.23 60.1614 214.564C60.237 215.897 60.345 217.069 60.426 218.111C60.507 219.154 60.5934 220.05 60.6798 220.784C60.7662 221.519 60.8148 222.059 60.8526 222.469C60.8526 222.647 60.885 222.793 60.8904 222.912C60.8987 222.962 60.8987 223.013 60.8904 223.063C60.8724 223.015 60.8615 222.964 60.858 222.912C60.858 222.799 60.8148 222.653 60.7878 222.48C60.7284 222.07 60.6528 221.508 60.5556 220.795C60.4584 220.082 60.3396 219.175 60.2478 218.128C60.156 217.08 60.0102 215.897 59.9346 214.58C59.859 213.262 59.751 211.82 59.7132 210.26C59.6754 208.699 59.643 207.052 59.6322 205.308C59.67 201.82 59.8428 197.986 60.2316 193.968C60.6204 189.95 61.2306 186.17 61.884 182.741C62.2404 181.035 62.559 179.404 62.964 177.881C63.369 176.359 63.6822 174.971 64.044 173.702C64.4058 172.433 64.746 171.288 65.0484 170.284C65.3508 169.279 65.6316 168.426 65.88 167.729C66.1284 167.033 66.3012 166.52 66.42 166.109C66.4794 165.942 66.528 165.807 66.5712 165.699C66.5834 165.661 66.5997 165.625 66.6198 165.591Z" fill="#EBEBEB"/>
<path d="M61.8246 184.183C62.5556 182.018 64.0158 180.174 65.9556 178.967C66.609 178.562 67.4406 178.232 68.1156 178.567C69.039 179.015 69.1146 180.317 68.8392 181.31C68.3616 182.991 67.296 184.443 65.8368 185.404C64.5421 186.361 62.9215 186.769 61.3278 186.538" fill="#EBEBEB"/>
<path d="M60.2154 196.733C60.9012 194.141 62.9694 190.458 65.1132 188.854C65.4415 188.585 65.8195 188.383 66.2256 188.26C66.4306 188.203 66.6465 188.197 66.8544 188.242C67.0624 188.287 67.2562 188.382 67.419 188.519C67.8564 188.941 67.8132 189.648 67.6836 190.237C67.2439 192.127 66.2867 193.858 64.919 195.235C63.5514 196.612 61.8273 197.581 59.94 198.034" fill="#EBEBEB"/>
<path d="M59.7726 207.781C60.8365 205.306 62.5423 203.16 64.7136 201.566C64.9456 201.354 65.2174 201.191 65.5131 201.085C65.8088 200.979 66.1226 200.934 66.4362 200.95C67.3758 201.123 67.8024 202.268 67.716 203.218C67.5486 205.173 66.0528 206.739 64.5138 207.954C62.856 209.261 59.94 210.303 59.94 210.303" fill="#EBEBEB"/>
<path d="M60.021 215.725C61.0546 213.839 62.4908 212.203 64.2276 210.935C64.5999 210.66 65.0305 210.476 65.4858 210.395C65.7152 210.353 65.9516 210.375 66.1695 210.458C66.3874 210.54 66.5786 210.681 66.7224 210.865C67.1436 211.486 66.7224 212.323 66.2904 212.917C64.8104 214.985 62.7085 216.527 60.291 217.318" fill="#EBEBEB"/>
<path d="M59.8104 212.501C58.0008 210.276 55.9888 208.225 53.8002 206.372C53.4546 206.086 53.028 205.783 52.6014 205.918C52.4429 205.987 52.3077 206.1 52.2119 206.244C52.1161 206.387 52.0638 206.556 52.0614 206.728C52.0549 207.076 52.1327 207.421 52.2882 207.733C53.0065 209.33 54.0757 210.746 55.4163 211.873C56.757 213.001 58.3346 213.811 60.0318 214.245" fill="#EBEBEB"/>
<path d="M60.0048 202.16L55.2798 196.403C54.8663 195.823 54.3458 195.326 53.7462 194.94C53.4425 194.756 53.0942 194.659 52.7391 194.659C52.384 194.659 52.0357 194.756 51.732 194.94C51.4588 195.166 51.2536 195.463 51.1392 195.799C51.0248 196.134 51.0057 196.495 51.084 196.841C51.2568 197.525 51.5714 198.165 52.0074 198.72C52.9267 200.134 54.0916 201.372 55.4472 202.376C56.835 203.332 58.0986 203.953 59.7672 203.704" fill="#EBEBEB"/>
<path d="M60.6582 190.523C59.7327 187.767 58.093 185.305 55.9062 183.389C55.5651 183.043 55.1384 182.794 54.6696 182.666C53.7192 182.482 52.8066 183.276 52.5096 184.189C52.361 184.711 52.3227 185.259 52.3971 185.797C52.4714 186.336 52.6569 186.852 52.9416 187.315C53.5204 188.238 54.2766 189.036 55.1664 189.664C56.7566 190.882 58.5301 191.839 60.4206 192.499" fill="#EBEBEB"/>
<path d="M62.5482 180.149C62.0892 176.812 60.3504 174.031 58.3362 171.331C57.915 170.759 57.321 170.159 56.619 170.251C56.3974 170.299 56.1912 170.402 56.0195 170.55C55.8478 170.698 55.716 170.887 55.6362 171.099C55.4787 171.525 55.4143 171.98 55.4472 172.433C55.5344 174.456 56.2155 176.408 57.4053 178.046C58.5952 179.685 60.2411 180.936 62.1378 181.645" fill="#EBEBEB"/>
<path d="M63.8712 174.852C63.652 173.14 63.5941 171.412 63.6984 169.69C63.8042 167.957 64.3976 166.289 65.4102 164.878C65.8441 164.272 66.4389 163.798 67.1274 163.512C67.4729 163.373 67.8483 163.326 68.2173 163.376C68.5863 163.425 68.9363 163.569 69.2334 163.793C69.4842 164.028 69.679 164.317 69.8033 164.637C69.9276 164.958 69.9783 165.302 69.9516 165.645C69.8906 166.331 69.7078 167 69.4116 167.621C68.1534 170.651 66.0582 174.004 63.8658 174.852" fill="#EBEBEB"/>
<path d="M43.2918 178.832C43.3046 178.972 43.3046 179.113 43.2918 179.253C43.2918 179.561 43.2918 179.966 43.2918 180.463C43.2918 180.959 43.2918 181.634 43.3242 182.38C43.3566 183.125 43.3242 184 43.4106 184.918C43.497 186.791 43.6752 189.027 43.9506 191.495C44.226 193.963 44.6796 196.657 45.2574 199.465C45.8352 202.273 46.5534 204.914 47.2662 207.295C47.979 209.677 48.7242 211.788 49.4262 213.538C49.7502 214.423 50.085 215.206 50.3604 215.897C50.6358 216.589 50.9004 217.183 51.1056 217.663C51.3108 218.144 51.4566 218.495 51.5808 218.781C51.6417 218.908 51.6905 219.039 51.7266 219.175C51.6451 219.059 51.5763 218.934 51.5214 218.803L50.9814 217.723C50.7546 217.247 50.4792 216.643 50.193 215.978C49.9068 215.314 49.545 214.51 49.2102 213.629C48.5028 211.885 47.7522 209.768 47.0016 207.387C46.251 205.006 45.5652 202.354 44.9658 199.541C44.3664 196.727 44.0046 194 43.74 191.527C43.4754 189.054 43.3134 186.808 43.2594 184.923C43.2108 183.983 43.2216 183.13 43.2108 182.385C43.2 181.64 43.2108 180.992 43.2108 180.463C43.2108 179.933 43.2432 179.561 43.254 179.253C43.25 179.112 43.2627 178.97 43.2918 178.832Z" fill="#E0E0E0"/>
<path d="M44.0316 192.515C44.0619 190.887 44.6575 189.32 45.7164 188.082C45.8702 187.852 46.0783 187.664 46.3223 187.534C46.5663 187.404 46.8386 187.336 47.115 187.337C47.844 187.445 48.195 188.314 48.195 189.049C48.233 190.296 47.8209 191.515 47.034 192.483C46.3552 193.409 45.3422 194.035 44.2098 194.227" fill="#E0E0E0"/>
<path d="M45.6354 201.42C45.5436 199.508 46.1754 196.56 47.2554 195.005C47.4201 194.748 47.635 194.528 47.8872 194.357C48.0147 194.274 48.1605 194.223 48.3119 194.209C48.4633 194.195 48.6159 194.218 48.7566 194.276C48.9312 194.404 49.0717 194.573 49.1658 194.767C49.26 194.962 49.3049 195.177 49.2966 195.394C49.4033 196.775 49.1234 198.159 48.4882 199.39C47.8531 200.621 46.8877 201.651 45.7002 202.365" fill="#E0E0E0"/>
<path d="M47.709 209.029C47.9017 207.113 48.6026 205.285 49.7394 203.731C49.8494 203.539 49.9962 203.371 50.1713 203.235C50.3464 203.1 50.5465 203.001 50.76 202.943C51.435 202.856 51.9696 203.548 52.1154 204.212C52.4232 205.578 51.7428 206.966 50.9544 208.121C50.2005 209.093 49.3238 209.962 48.3462 210.708" fill="#E0E0E0"/>
<path d="M49.5882 214.38C49.8844 212.873 50.5115 211.451 51.4242 210.217C51.6155 209.945 51.8668 209.722 52.1586 209.563C52.306 209.485 52.472 209.449 52.6386 209.458C52.8053 209.468 52.9661 209.523 53.1036 209.617C53.5248 209.947 53.433 210.6 53.2494 211.108C52.6859 212.834 51.5869 214.336 50.112 215.395" fill="#E0E0E0"/>
<path d="M48.7512 212.22C47.0434 211.097 45.2358 210.133 43.3512 209.342C43.2149 209.259 43.0603 209.211 42.901 209.203C42.7418 209.194 42.5829 209.225 42.4386 209.293C42.3443 209.374 42.2752 209.48 42.2397 209.598C42.2043 209.717 42.204 209.844 42.2388 209.963C42.3115 210.199 42.4371 210.415 42.606 210.595C43.4392 211.528 44.4718 212.261 45.6273 212.741C46.7827 213.221 48.0313 213.434 49.2804 213.365" fill="#E0E0E0"/>
<path d="M46.6614 205.151L42.201 202.246C41.7944 201.944 41.3346 201.72 40.8456 201.587C40.6 201.524 40.3418 201.53 40.099 201.603C39.8563 201.676 39.6382 201.815 39.4686 202.003C39.3309 202.216 39.255 202.463 39.2493 202.717C39.2436 202.97 39.3083 203.221 39.4362 203.44C39.7043 203.867 40.0572 204.234 40.473 204.52C41.402 205.287 42.4634 205.878 43.605 206.264C44.7552 206.62 45.765 206.766 46.845 206.264" fill="#E0E0E0"/>
<path d="M44.604 197.1C43.379 195.422 41.7322 194.097 39.8304 193.261C39.5224 193.101 39.178 193.025 38.8314 193.039C38.4946 193.116 38.1952 193.308 37.9852 193.582C37.7751 193.856 37.6676 194.195 37.6812 194.54C37.6955 194.925 37.7887 195.303 37.955 195.65C38.1212 195.998 38.357 196.307 38.6478 196.56C39.2399 197.063 39.9265 197.443 40.6674 197.678C42.0117 198.163 43.4239 198.435 44.8524 198.482" fill="#E0E0E0"/>
<path d="M43.6536 189.616C42.6222 187.456 40.8402 185.922 38.8908 184.518C38.7084 184.341 38.4828 184.215 38.2364 184.152C37.99 184.09 37.7316 184.093 37.4868 184.162C37.3476 184.243 37.2305 184.358 37.1457 184.495C37.061 184.633 37.0112 184.789 37.0008 184.95C36.9854 185.274 37.0387 185.598 37.1574 185.9C37.6548 187.259 38.5403 188.441 39.7039 189.3C40.8674 190.159 42.2578 190.658 43.7022 190.733" fill="#E0E0E0"/>
<path d="M43.4106 185.722C42.8927 184.604 42.4823 183.44 42.1848 182.245C41.884 181.043 41.9289 179.782 42.3144 178.605C42.4814 178.097 42.7883 177.645 43.2 177.304C43.4059 177.135 43.6515 177.023 43.9134 176.976C44.1753 176.93 44.4447 176.952 44.6958 177.039C44.9131 177.144 45.1049 177.295 45.2579 177.481C45.4108 177.668 45.5213 177.885 45.5814 178.119C45.6894 178.599 45.7114 179.095 45.6462 179.582C45.441 181.915 44.7336 184.648 43.4214 185.695" fill="#E0E0E0"/>
<path d="M76.8474 178.54C76.873 178.679 76.8857 178.82 76.8852 178.961C76.8852 179.269 76.8852 179.669 76.9284 180.171C76.9716 180.673 76.9608 181.343 76.9284 182.093C76.896 182.844 76.9284 183.713 76.8852 184.631C76.8312 186.516 76.6692 188.757 76.3992 191.236C76.1292 193.714 75.6972 196.42 75.114 199.238C74.5308 202.057 73.8018 204.703 73.0728 207.09C72.3438 209.477 71.5716 211.583 70.8642 213.327C70.5294 214.207 70.1784 214.985 69.8868 215.676C69.5952 216.367 69.3468 216.95 69.093 217.42C68.8392 217.89 68.6988 218.236 68.553 218.5C68.4948 218.627 68.4281 218.75 68.3532 218.867C68.3861 218.731 68.435 218.598 68.499 218.473C68.6178 218.187 68.7744 217.82 68.9742 217.355C69.174 216.891 69.4386 216.275 69.714 215.59C69.9894 214.904 70.3296 214.115 70.6482 213.23C71.3286 211.48 72.0576 209.363 72.8082 206.987C73.5588 204.611 74.2176 201.965 74.8116 199.157C75.4056 196.349 75.816 193.649 76.1184 191.187C76.4208 188.725 76.5882 186.489 76.6584 184.61C76.7178 183.67 76.7232 182.822 76.7502 182.072C76.7772 181.321 76.7826 180.684 76.7502 180.155C76.7178 179.626 76.7502 179.253 76.7502 178.945C76.7683 178.807 76.8008 178.671 76.8474 178.54Z" fill="#EBEBEB"/>
<path d="M76.1076 192.24C76.0758 190.611 75.4783 189.043 74.4174 187.807C74.263 187.578 74.0547 187.39 73.8109 187.26C73.567 187.13 73.2951 187.062 73.0188 187.061C72.2898 187.169 71.9388 188.039 71.9388 188.773C71.9043 190.021 72.3181 191.239 73.1052 192.208C73.7805 193.138 74.7952 193.765 75.9294 193.952" fill="#EBEBEB"/>
<path d="M74.52 201.118C74.6064 199.206 73.98 196.258 72.9 194.702C72.7353 194.446 72.5204 194.226 72.2682 194.054C72.1417 193.972 71.9968 193.921 71.8463 193.907C71.6957 193.893 71.5439 193.916 71.4042 193.973C71.2289 194.101 71.0879 194.269 70.9937 194.464C70.8994 194.659 70.855 194.875 70.8642 195.091C70.7551 196.472 71.0333 197.856 71.6677 199.088C72.3021 200.319 73.2674 201.35 74.4552 202.063" fill="#EBEBEB"/>
<path d="M72.4248 208.737C72.231 206.823 71.5321 204.995 70.3998 203.44C70.2869 203.246 70.1366 203.076 69.9577 202.941C69.7788 202.806 69.5749 202.707 69.3576 202.651C68.6826 202.565 68.148 203.256 67.9968 203.92C67.6944 205.286 68.3748 206.674 69.1578 207.83C69.9117 208.801 70.7884 209.671 71.766 210.416" fill="#EBEBEB"/>
<path d="M70.5456 214.094C70.2501 212.586 69.625 211.163 68.715 209.925C68.5221 209.653 68.2689 209.429 67.9752 209.272C67.8278 209.193 67.6618 209.157 67.4951 209.167C67.3285 209.176 67.1677 209.231 67.0302 209.326C66.6144 209.655 66.7062 210.308 66.8844 210.816C67.4479 212.542 68.5469 214.044 70.0218 215.104" fill="#EBEBEB"/>
<path d="M71.3826 211.939C73.0917 210.818 74.8991 209.855 76.7826 209.061C76.9194 208.98 77.0739 208.933 77.2329 208.924C77.3919 208.916 77.5505 208.946 77.6952 209.012C77.7916 209.091 77.8625 209.197 77.8991 209.316C77.9356 209.435 77.936 209.563 77.9004 209.682C77.8244 209.918 77.6972 210.133 77.5278 210.314C76.6951 211.248 75.6626 211.982 74.507 212.461C73.3514 212.941 72.1026 213.154 70.8534 213.084" fill="#EBEBEB"/>
<path d="M73.4778 204.86L77.9328 201.955C78.3401 201.653 78.7996 201.43 79.2882 201.296C79.5338 201.233 79.792 201.238 80.0348 201.311C80.2775 201.385 80.4956 201.523 80.6652 201.712C80.8041 201.924 80.8807 202.171 80.8864 202.425C80.8921 202.679 80.8267 202.929 80.6976 203.148C80.4324 203.577 80.079 203.945 79.6608 204.228C78.7319 204.994 77.6728 205.587 76.5342 205.978C75.384 206.329 74.3742 206.48 73.2942 205.978" fill="#EBEBEB"/>
<path d="M75.5352 196.798C76.7607 195.12 78.4074 193.795 80.3088 192.958C80.6164 192.797 80.9611 192.721 81.3078 192.737C81.6436 192.815 81.9418 193.007 82.1508 193.281C82.3598 193.555 82.4665 193.894 82.4526 194.238C82.4432 194.626 82.3522 195.008 82.1857 195.359C82.0192 195.709 81.7808 196.021 81.486 196.274C80.8945 196.776 80.2102 197.158 79.4718 197.397C78.1252 197.88 76.7114 198.15 75.2814 198.196" fill="#EBEBEB"/>
<path d="M76.4802 189.324C77.5116 187.164 79.2936 185.636 81.2484 184.226C81.6588 183.929 82.1934 183.649 82.647 183.87C82.7946 183.95 82.9192 184.066 83.009 184.208C83.0988 184.35 83.1508 184.512 83.16 184.68C83.1709 185.005 83.1158 185.328 82.998 185.63C82.5028 186.989 81.6186 188.172 80.4557 189.031C79.2928 189.891 77.9027 190.389 76.4586 190.463" fill="#EBEBEB"/>
<path d="M76.7232 185.436C77.2389 184.317 77.651 183.153 77.9544 181.958C78.251 180.755 78.2043 179.492 77.8194 178.313C77.6554 177.806 77.3523 177.355 76.9446 177.012C76.74 176.843 76.4951 176.73 76.2337 176.685C75.9724 176.64 75.7038 176.663 75.4542 176.753C75.2344 176.855 75.0402 177.005 74.886 177.192C74.7318 177.378 74.6215 177.598 74.5632 177.833C74.4585 178.313 74.4366 178.808 74.4984 179.296C74.7036 181.629 75.411 184.361 76.7232 185.414" fill="#EBEBEB"/>
<path d="M37.6164 218.884V224.505C37.6164 224.796 37.6737 225.083 37.7851 225.351C37.8964 225.62 38.0596 225.863 38.2652 226.069C38.4709 226.274 38.715 226.436 38.9836 226.547C39.2522 226.658 39.5399 226.714 39.8304 226.714H78.2622C78.848 226.714 79.4097 226.481 79.8239 226.067C80.2381 225.653 80.4708 225.091 80.4708 224.505V218.884H37.6164Z" fill="#EBEBEB"/>
<path d="M40.9482 226.714L41.2668 228.501L76.7286 231.028L77.6304 226.714H40.9482Z" fill="#E0E0E0"/>
<path d="M37.3256 150.223L29.2256 146.897C29.2256 146.897 26.4284 153.695 19.3166 150.909C17.9352 150.4 16.7472 149.472 15.9186 148.255C15.0899 147.038 14.6619 145.593 14.6942 144.121C14.7019 142.884 15.0025 141.667 15.5713 140.569C16.1401 139.471 16.961 138.523 17.9666 137.803C20.267 136.102 24.2144 135.055 29.2742 138.262L36.6884 120.237L28.6802 116.943L24.2846 127.635C24.2846 127.635 11.8646 125.923 6.78321 138.295C1.9232 150.131 11.816 157.416 17.3402 159.689C20.8232 161.115 31.607 164.571 37.3256 150.223Z" fill="#F5F5F5"/>
<path d="M33.2556 105.561L30.1364 113.147L38.2622 116.488L41.3814 108.902L33.2556 105.561Z" fill="#F5F5F5"/>
<path d="M34.5824 149.1L26.4824 145.774C26.4824 145.774 23.6852 152.567 16.5734 149.786C15.1925 149.276 14.005 148.348 13.1764 147.131C12.3478 145.915 11.9195 144.47 11.951 142.998C11.9589 141.761 12.2601 140.543 12.8299 139.445C13.3997 138.346 14.2218 137.399 15.2288 136.68C17.5292 134.979 21.3848 134.158 26.4446 137.366L33.9506 119.114L25.9478 115.82L21.5522 126.512C21.5522 126.512 9.13221 124.8 4.04001 137.155C-0.81999 148.992 8.66241 156.12 13.22 157.972C16.6814 159.403 28.88 163.426 34.5824 149.1Z" fill="#E0E0E0"/>
<path d="M30.5161 104.419L27.3969 112.006L35.5227 115.346L38.6419 107.76L30.5161 104.419Z" fill="#E0E0E0"/>
<path d="M238.88 228.76L233.863 229.176C233.863 229.176 234.214 233.388 229.84 233.831C228.998 233.93 228.146 233.765 227.402 233.359C226.658 232.952 226.059 232.325 225.688 231.563C225.366 230.929 225.198 230.227 225.198 229.516C225.198 228.805 225.366 228.104 225.688 227.47C226.422 225.995 228.172 224.424 231.601 224.737L230.677 213.559L225.709 213.975L226.249 220.601C226.249 220.601 219.44 222.982 220.077 230.65C220.687 237.989 227.669 239.128 231.093 238.842C233.28 238.68 239.711 237.6 238.88 228.76Z" fill="#F5F5F5"/>
<path d="M230.345 207.871L225.291 208.276L225.669 212.995L230.723 212.591L230.345 207.871Z" fill="#F5F5F5"/>
<path d="M237.179 228.89L232.157 229.311C232.157 229.311 232.508 233.523 228.134 233.96C227.293 234.062 226.441 233.899 225.698 233.493C224.954 233.088 224.356 232.46 223.987 231.698C223.665 231.064 223.497 230.362 223.497 229.651C223.497 228.94 223.665 228.239 223.987 227.605C224.721 226.13 226.481 224.699 229.927 225.013L228.987 213.673L224.024 214.088L224.564 220.714C224.564 220.714 217.755 223.09 218.392 230.764C219.002 238.102 225.725 239.263 228.539 239.026C230.71 238.869 238.01 237.74 237.179 228.89Z" fill="#E0E0E0"/>
<path d="M228.424 206.65L223.387 207.068L223.778 211.772L228.815 211.353L228.424 206.65Z" fill="#E0E0E0"/>
<path d="M189.725 76.7154L199.667 72.7896C199.667 72.7896 196.367 64.4412 204.986 60.8664C206.634 60.1472 208.466 59.9604 210.226 60.3321C211.986 60.7038 213.586 61.6155 214.803 62.94C215.841 64.0333 216.606 65.3564 217.036 66.8016C217.466 68.2467 217.548 69.773 217.276 71.256C216.687 74.7012 214.101 78.9672 206.935 80.436L215.678 102.576L225.511 98.6934L220.3 85.5552C220.3 85.5552 232.72 76.548 226.704 61.3524C220.959 46.8156 206.076 48.7866 199.289 51.4704C195.023 53.1552 182.608 59.2464 189.725 76.7154Z" fill="#F5F5F5"/>
<path d="M227.453 103.261L217.473 107.203L221.152 116.519L231.132 112.578L227.453 103.261Z" fill="#F5F5F5"/>
<path d="M185.74 78.2814L195.687 74.3556C195.687 74.3556 192.387 66.0072 201.006 62.4324C202.653 61.7112 204.484 61.5218 206.244 61.8906C208.003 62.2594 209.604 63.168 210.823 64.4898C211.863 65.5855 212.629 66.9115 213.058 68.3594C213.488 69.8074 213.57 71.3365 213.296 72.822C212.74 76.2672 210.04 80.2524 202.858 81.7212L211.714 104.137L221.542 100.254L216.358 87.1212C216.358 87.1212 228.74 78.114 222.735 62.94C216.995 48.36 202.626 50.1528 197.042 52.356C192.76 54.0408 178.644 60.8124 185.74 78.2814Z" fill="#E0E0E0"/>
<path d="M223.488 104.824L213.508 108.765L217.188 118.082L227.168 114.141L223.488 104.824Z" fill="#E0E0E0"/>
<path d="M111.996 15.2423C122.054 16.1346 129.484 24.9947 128.593 35.0299C127.703 45.0651 118.829 52.4787 108.771 51.5863C98.7134 50.694 91.2835 41.8339 92.1739 31.7987C93.0642 21.7636 101.938 14.3499 111.996 15.2423Z" fill="white" stroke="#E6E4E7"/>
<path d="M122.445 47.7954L122.677 47.601L123.336 46.98L123.822 46.5318C123.995 46.3644 124.168 46.1592 124.362 45.9432L124.983 45.252C125.21 44.9822 125.422 44.701 125.62 44.4096C126.704 42.9483 127.556 41.3292 128.147 39.609C128.955 37.3345 129.313 34.9245 129.2 32.5134C129.2 32.1786 129.163 31.8384 129.146 31.4982C129.13 31.158 129.044 30.8178 128.995 30.4668C128.947 30.1158 128.909 29.7702 128.817 29.4246C128.725 29.079 128.639 28.728 128.552 28.3446L128.245 27.3456V27.2862C128.12 26.9352 127.991 26.5788 127.867 26.2062C127.742 25.8336 127.543 25.515 127.381 25.164C127.223 24.8052 127.043 24.4571 126.841 24.1218C126.446 23.4237 126.006 22.7526 125.523 22.113C125.275 21.7944 125.042 21.4542 124.772 21.141L123.611 19.8828L123.487 19.764L123.012 19.3428C122.688 19.0674 122.375 18.7704 122.04 18.5004C121.352 17.969 120.63 17.482 119.88 17.0424C119.107 16.591 118.304 16.1923 117.477 15.849C117.05 15.6816 116.613 15.552 116.181 15.3954C115.965 15.3306 115.749 15.2388 115.528 15.1848L114.815 15.12C114.087 14.9344 113.347 14.8009 112.601 14.7204L111.472 14.58L110.257 14.5314H109.901L109.177 14.5692L108.454 14.6124L107.735 14.715L107.012 14.8284L106.65 14.8824L106.294 14.9688L103.642 15.7734L103.459 15.8382C101.584 16.5977 99.8346 17.6354 98.2692 18.9162C96.7321 20.2333 95.4031 21.7753 94.3272 23.49L94.2408 23.6412C93.8952 24.327 93.3282 25.4448 92.9772 26.1306L92.8314 26.4654L92.7126 26.811L92.475 27.54L92.2428 28.2312L92.0808 28.9386L91.9134 29.6406L91.8324 29.9916L91.6704 31.1958L91.5678 32.3244C91.5138 33.0722 91.5138 33.823 91.5678 34.5708L91.6056 35.262C91.6056 35.4942 91.6704 35.721 91.6974 35.9478C91.773 36.4014 91.827 36.855 91.9188 37.2978C92.1085 38.1747 92.3593 39.0372 92.6694 39.879C92.9785 40.7019 93.3392 41.5045 93.7494 42.282C93.9546 42.66 94.1922 43.0164 94.4082 43.362L94.7376 43.902L94.8348 44.0424L95.8662 45.4032C96.1308 45.7272 96.4062 46.0134 96.6978 46.3158C97.2412 46.8953 97.824 47.4366 98.442 47.9358C98.7336 48.2048 99.0401 48.4571 99.36 48.6918C99.6786 48.9078 99.981 49.1454 100.305 49.3452L101.288 49.9122L102.26 50.409L103.253 50.8518C103.58 50.9899 103.913 51.1106 104.252 51.2136C104.582 51.3216 104.911 51.4404 105.235 51.5376L106.229 51.7698C108.583 52.3011 111.019 52.3707 113.4 51.975C115.197 51.6925 116.94 51.1352 118.568 50.3226C118.89 50.1799 119.203 50.0194 119.507 49.842L120.296 49.356C120.539 49.2048 120.771 49.0698 120.971 48.9348L121.511 48.5298L122.213 47.9898C122.375 47.8656 122.45 47.7954 122.45 47.7954L122.202 47.9736L121.484 48.5136C121.322 48.627 121.149 48.762 120.944 48.9024C120.739 49.0428 120.512 49.167 120.269 49.3182L119.475 49.7934C119.168 49.9661 118.853 50.1229 118.53 50.2632C116.909 51.0441 115.18 51.5756 113.4 51.84C111.034 52.2183 108.618 52.1377 106.283 51.6024L105.3 51.3864C104.971 51.2892 104.652 51.1704 104.323 51.0624C103.993 50.9544 103.653 50.8572 103.334 50.7006L102.352 50.2578L101.423 49.7826H101.38L100.413 49.2426C100.089 49.0428 99.792 48.8052 99.4788 48.5892C99.1569 48.3743 98.8485 48.1399 98.5554 47.8872C97.9441 47.388 97.3685 46.8467 96.8328 46.2672C96.5628 45.9702 96.2928 45.684 96.012 45.3654L94.9914 44.01C94.9577 43.9671 94.9271 43.922 94.8996 43.875L94.5702 43.335C94.3596 42.9732 94.122 42.6222 93.9222 42.255C93.5253 41.4864 93.1789 40.6927 92.8854 39.879C92.573 39.025 92.3222 38.1498 92.1348 37.26C92.043 36.8226 91.9944 36.3744 91.9188 35.9262C91.8918 35.6994 91.8378 35.478 91.827 35.2512L91.8 34.56C91.7407 33.6339 91.7407 32.705 91.8 31.779C91.8648 31.3146 91.9296 30.8502 91.989 30.3804L92.0376 30.0294L92.1186 29.6838L92.2806 28.9926L92.448 28.2906L92.6748 27.6102L92.907 26.9244L93.0258 26.5842L93.1716 26.2494L94.4406 23.76L94.5216 23.625C96.6228 20.1891 99.7897 17.5343 103.54 16.065L103.712 16.0002L106.342 15.2064L106.693 15.1146L107.05 15.0606L107.768 14.9526L108.475 14.8446L109.193 14.8068L109.906 14.769H110.263H110.614L112.023 14.823C112.945 14.9181 113.86 15.0751 114.761 15.2928L115.43 15.4494C115.652 15.498 115.862 15.5898 116.078 15.6546C116.505 15.8058 116.942 15.9354 117.358 16.0974C118.178 16.4371 118.974 16.8322 119.74 17.28C120.491 17.7096 121.213 18.1895 121.9 18.7164C122.234 18.981 122.542 19.2564 122.861 19.548L123.336 19.9638L123.455 20.0772L124.605 21.3192C124.875 21.627 125.107 21.9672 125.356 22.2804C125.835 22.9245 126.271 23.5992 126.662 24.3C126.861 24.6339 127.041 24.9782 127.202 25.3314C127.359 25.677 127.543 26.0118 127.683 26.3628L128.061 27.4158C128.126 27.5886 128.191 27.7614 128.25 27.9558V28.0044C128.38 28.5174 128.509 29.025 128.639 29.5218C128.736 29.8674 128.758 30.2184 128.822 30.5586C128.887 30.8988 128.93 31.2444 128.974 31.5792C129.017 31.914 129.011 32.2542 129.028 32.5836C129.15 34.9758 128.807 37.369 128.018 39.6306C127.439 41.3437 126.604 42.9588 125.539 44.4204C125.312 44.7174 125.14 45.0252 124.913 45.2682L124.308 45.9C124.119 46.116 123.952 46.3212 123.768 46.494L123.293 46.9476L122.645 47.5578C122.515 47.7198 122.445 47.7954 122.445 47.7954Z" fill="#E0E0E0"/>
<path d="M121.665 57.4613L121.664 57.4604C121.448 57.0371 121.355 56.5613 121.396 56.0876C121.438 55.6157 121.611 55.1649 121.896 54.7865C122.309 54.2662 122.908 53.9272 123.567 53.8413C124.228 53.7551 124.896 53.9303 125.429 54.3294C125.963 54.7286 126.319 55.3203 126.423 55.9784C126.526 56.634 126.37 57.3041 125.989 57.8468C125.728 58.1909 125.384 58.4635 124.989 58.6392C124.592 58.8158 124.157 58.8886 123.724 58.8506C123.291 58.8127 122.875 58.6653 122.515 58.4222C122.154 58.1792 121.862 57.8485 121.665 57.4613Z" fill="white" stroke="#E6E4E7"/>
<mask id="path-60-inside-1_1027_433189" fill="white">
<path d="M125.906 58.6494C125.906 58.6494 125.966 58.617 126.063 58.536C126.208 58.4147 126.339 58.277 126.452 58.1256C126.809 57.6482 127.021 57.0779 127.062 56.4831C127.103 55.8883 126.972 55.2943 126.684 54.7722C126.41 54.28 126.009 53.8699 125.523 53.5842C124.986 53.265 124.364 53.118 123.741 53.163C123.069 53.1999 122.427 53.4535 121.911 53.8857C121.395 54.3178 121.033 54.9055 120.879 55.5606C120.73 56.1674 120.766 56.8049 120.982 57.3912C121.178 57.919 121.512 58.3849 121.948 58.7412C122.329 59.0487 122.776 59.2616 123.255 59.3622C123.944 59.5123 124.663 59.4187 125.291 59.0976C125.461 59.0148 125.619 58.9095 125.761 58.7844C125.863 58.7034 125.912 58.6548 125.906 58.6494C125.901 58.644 125.685 58.8168 125.253 59.0166C124.637 59.2965 123.945 59.3631 123.287 59.2056C122.907 59.115 122.548 58.95 122.231 58.7203C121.915 58.4905 121.647 58.2005 121.442 57.8668C121.238 57.5331 121.102 57.1624 121.041 56.7759C120.981 56.3894 120.997 55.9947 121.09 55.6146C121.238 55.0063 121.577 54.4613 122.057 54.0592C122.537 53.657 123.132 53.4187 123.757 53.379C124.338 53.3383 124.918 53.4738 125.42 53.7678C125.869 54.0263 126.242 54.3989 126.5 54.8478C126.782 55.3416 126.917 55.905 126.891 56.4727C126.866 57.0404 126.679 57.5891 126.355 58.0554C126.106 58.4658 125.885 58.6332 125.906 58.6494Z"/>
</mask>
<path d="M125.906 58.6494C125.906 58.6494 125.966 58.617 126.063 58.536C126.208 58.4147 126.339 58.277 126.452 58.1256C126.809 57.6482 127.021 57.0779 127.062 56.4831C127.103 55.8883 126.972 55.2943 126.684 54.7722C126.41 54.28 126.009 53.8699 125.523 53.5842C124.986 53.265 124.364 53.118 123.741 53.163C123.069 53.1999 122.427 53.4535 121.911 53.8857C121.395 54.3178 121.033 54.9055 120.879 55.5606C120.73 56.1674 120.766 56.8049 120.982 57.3912C121.178 57.919 121.512 58.3849 121.948 58.7412C122.329 59.0487 122.776 59.2616 123.255 59.3622C123.944 59.5123 124.663 59.4187 125.291 59.0976C125.461 59.0148 125.619 58.9095 125.761 58.7844C125.863 58.7034 125.912 58.6548 125.906 58.6494C125.901 58.644 125.685 58.8168 125.253 59.0166C124.637 59.2965 123.945 59.3631 123.287 59.2056C122.907 59.115 122.548 58.95 122.231 58.7203C121.915 58.4905 121.647 58.2005 121.442 57.8668C121.238 57.5331 121.102 57.1624 121.041 56.7759C120.981 56.3894 120.997 55.9947 121.09 55.6146C121.238 55.0063 121.577 54.4613 122.057 54.0592C122.537 53.657 123.132 53.4187 123.757 53.379C124.338 53.3383 124.918 53.4738 125.42 53.7678C125.869 54.0263 126.242 54.3989 126.5 54.8478C126.782 55.3416 126.917 55.905 126.891 56.4727C126.866 57.0404 126.679 57.5891 126.355 58.0554C126.106 58.4658 125.885 58.6332 125.906 58.6494Z" fill="#F7F7F8"/>
<path d="M126.063 58.536L126.703 59.3042L126.705 59.303L126.063 58.536ZM126.452 58.1256L127.252 58.7248L127.253 58.7246L126.452 58.1256ZM126.684 54.7722L127.56 54.2893L127.557 54.2851L126.684 54.7722ZM125.523 53.5842L125.012 54.4438L125.016 54.4461L125.523 53.5842ZM123.741 53.163L123.796 54.1615L123.804 54.161L123.813 54.1604L123.741 53.163ZM120.879 55.5606L121.85 55.7993L121.852 55.7896L120.879 55.5606ZM120.982 57.3912L120.043 57.7369L120.045 57.7405L120.982 57.3912ZM121.948 58.7412L121.316 59.5157L121.319 59.5188L121.948 58.7412ZM123.255 59.3622L123.468 58.3851L123.461 58.3836L123.255 59.3622ZM125.291 59.0976L124.853 58.1985L124.844 58.2029L124.835 58.2074L125.291 59.0976ZM125.761 58.7844L125.141 57.9995L125.12 58.0164L125.099 58.0344L125.761 58.7844ZM125.253 59.0166L125.667 59.927L125.673 59.9242L125.253 59.0166ZM123.287 59.2056L123.52 58.2331L123.519 58.2328L123.287 59.2056ZM121.09 55.6146L120.118 55.3776L120.118 55.3783L121.09 55.6146ZM123.757 53.379L123.821 54.377L123.827 54.3766L123.757 53.379ZM125.42 53.7678L124.916 54.631L124.921 54.6344L125.42 53.7678ZM126.5 54.8478L127.369 54.353L127.367 54.3488L126.5 54.8478ZM126.355 58.0554L125.534 57.4838L125.516 57.5101L125.499 57.5376L126.355 58.0554ZM125.906 58.6494C126.385 59.5273 126.385 59.5272 126.386 59.5271C126.386 59.5271 126.386 59.527 126.386 59.5269C126.386 59.5268 126.386 59.5267 126.387 59.5266C126.387 59.5264 126.387 59.5261 126.388 59.5259C126.389 59.5254 126.39 59.5249 126.39 59.5244C126.392 59.5235 126.394 59.5224 126.396 59.5214C126.4 59.5193 126.404 59.517 126.408 59.5145C126.417 59.5096 126.426 59.5041 126.436 59.4978C126.457 59.4854 126.481 59.4702 126.508 59.4519C126.562 59.4154 126.628 59.3669 126.703 59.3042L125.423 57.7678C125.401 57.7861 125.389 57.7943 125.389 57.7942C125.389 57.7942 125.392 57.7922 125.398 57.7883C125.401 57.7864 125.405 57.784 125.41 57.7812C125.413 57.7798 125.415 57.7783 125.418 57.7766C125.42 57.7758 125.421 57.775 125.423 57.7741C125.424 57.7737 125.424 57.7733 125.425 57.7728C125.425 57.7726 125.426 57.7724 125.426 57.7722C125.427 57.7721 125.427 57.772 125.427 57.7718C125.427 57.7718 125.427 57.7717 125.427 57.7717C125.427 57.7716 125.428 57.7715 125.906 58.6494ZM126.705 59.303C126.909 59.1321 127.093 58.9381 127.252 58.7248L125.651 57.5263C125.584 57.6158 125.507 57.6972 125.421 57.769L126.705 59.303ZM127.253 58.7246C127.725 58.0931 128.005 57.3389 128.06 56.5522L126.064 56.414C126.036 56.8169 125.893 57.2032 125.651 57.5266L127.253 58.7246ZM128.06 56.5522C128.114 55.7655 127.94 54.9798 127.56 54.2893L125.808 55.2551C126.003 55.6087 126.092 56.0111 126.064 56.414L128.06 56.5522ZM127.557 54.2851C127.196 53.6376 126.669 53.0982 126.03 52.7223L125.016 54.4461C125.348 54.6417 125.623 54.9224 125.811 55.2593L127.557 54.2851ZM126.034 52.7246C125.321 52.3009 124.496 52.1058 123.669 52.1656L123.813 54.1604C124.232 54.1301 124.651 54.229 125.012 54.4438L126.034 52.7246ZM123.686 52.1645C122.798 52.2133 121.95 52.5482 121.269 53.1191L122.553 54.6522C122.904 54.3587 123.34 54.1866 123.796 54.1615L123.686 52.1645ZM121.269 53.1191C120.587 53.69 120.109 54.4662 119.906 55.3316L121.852 55.7896C121.957 55.3447 122.203 54.9457 122.553 54.6522L121.269 53.1191ZM119.908 55.3219C119.711 56.1224 119.758 56.9634 120.043 57.7369L121.92 57.0454C121.773 56.6463 121.749 56.2124 121.85 55.7993L119.908 55.3219ZM120.045 57.7405C120.303 58.4345 120.742 59.0472 121.316 59.5157L122.581 57.9667C122.282 57.7226 122.053 57.4034 121.919 57.0419L120.045 57.7405ZM121.319 59.5188C121.823 59.9259 122.416 60.2076 123.049 60.3408L123.461 58.3836C123.137 58.3155 122.834 58.1716 122.577 57.9636L121.319 59.5188ZM123.042 60.3393C123.957 60.5386 124.913 60.4144 125.746 59.9878L124.835 58.2074C124.414 58.4231 123.931 58.4859 123.468 58.3851L123.042 60.3393ZM125.729 59.9966C125.98 59.8745 126.213 59.7189 126.422 59.5343L125.099 58.0344C125.025 58.1 124.942 58.1552 124.853 58.1985L125.729 59.9966ZM126.38 59.5693C126.444 59.5188 126.507 59.4663 126.561 59.4156C126.583 59.3943 126.628 59.3512 126.673 59.2957C126.69 59.2753 126.747 59.2054 126.798 59.1044C126.821 59.0588 126.878 58.9399 126.899 58.7754C126.92 58.6043 126.914 58.2423 126.614 57.9423L125.199 59.3565C124.9 59.0571 124.893 58.6962 124.915 58.5264C124.935 58.3632 124.991 58.2461 125.013 58.2024C125.062 58.1055 125.116 58.0408 125.127 58.027C125.147 58.0024 125.164 57.9852 125.171 57.9778C125.179 57.9692 125.185 57.9636 125.187 57.9615C125.192 57.9567 125.18 57.969 125.141 57.9995L126.38 59.5693ZM126.614 57.9423C126.338 57.6668 126.013 57.648 125.895 57.6493C125.761 57.6508 125.658 57.6795 125.617 57.6919C125.528 57.7187 125.463 57.7524 125.447 57.7607C125.402 57.7837 125.366 57.8062 125.36 57.8104C125.339 57.8236 125.314 57.8402 125.307 57.8451C125.282 57.8618 125.252 57.8818 125.212 57.9066C125.133 57.9559 125.007 58.0288 124.833 58.109L125.673 59.9242C125.931 59.8046 126.129 59.6912 126.267 59.6055C126.336 59.5628 126.388 59.5281 126.419 59.5077C126.439 59.494 126.436 59.4964 126.429 59.5005C126.426 59.5024 126.419 59.5068 126.41 59.5123C126.402 59.517 126.384 59.5277 126.359 59.5402C126.345 59.5475 126.281 59.5805 126.194 59.607C126.153 59.6192 126.051 59.6477 125.917 59.6492C125.799 59.6505 125.475 59.6318 125.199 59.3565L126.614 57.9423ZM124.839 58.1062C124.426 58.2941 123.962 58.3387 123.52 58.2331L123.055 60.1781C123.929 60.3874 124.848 60.299 125.667 59.927L124.839 58.1062ZM123.519 58.2328C123.267 58.1727 123.029 58.0633 122.819 57.9109L121.644 59.5297C122.067 59.8368 122.547 60.0572 123.056 60.1784L123.519 58.2328ZM122.819 57.9109C122.609 57.7585 122.431 57.5661 122.295 57.3448L120.589 58.3888C120.862 58.8349 121.221 59.2226 121.644 59.5297L122.819 57.9109ZM122.295 57.3448C122.16 57.1235 122.069 56.8775 122.029 56.6212L120.053 56.9306C120.134 57.4472 120.316 57.9428 120.589 58.3888L122.295 57.3448ZM122.029 56.6212C121.989 56.3648 122 56.103 122.061 55.8509L120.118 55.3783C119.994 55.8864 119.972 56.414 120.053 56.9306L122.029 56.6212ZM122.061 55.8515C122.159 55.4503 122.382 55.0909 122.699 54.8256L121.414 53.2927C120.771 53.8318 120.317 54.5623 120.118 55.3776L122.061 55.8515ZM122.699 54.8256C123.016 54.5604 123.408 54.4032 123.821 54.377L123.694 52.381C122.856 52.4342 122.058 52.7537 121.414 53.2927L122.699 54.8256ZM123.827 54.3766C124.207 54.3499 124.587 54.4386 124.916 54.631L125.925 52.9046C125.249 52.509 124.469 52.3267 123.687 52.3814L123.827 54.3766ZM124.921 54.6344C125.218 54.8049 125.463 55.0507 125.634 55.3468L127.367 54.3488C127.021 53.7471 126.521 53.2476 125.919 52.9012L124.921 54.6344ZM125.631 55.3426C125.819 55.6723 125.91 56.0483 125.892 56.4273L127.89 56.5181C127.925 55.7617 127.744 55.011 127.369 54.353L125.631 55.3426ZM125.892 56.4273C125.875 56.8062 125.751 57.1725 125.534 57.4838L127.175 58.627C127.608 58.0057 127.856 57.2745 127.89 56.5181L125.892 56.4273ZM125.499 57.5376C125.413 57.6798 125.334 57.7766 125.278 57.8398C125.264 57.8566 125.25 57.8719 125.235 57.8878C125.224 57.8998 125.202 57.9244 125.184 57.9444C125.176 57.953 125.12 58.0147 125.069 58.0938C125.051 58.1225 124.97 58.2464 124.929 58.4263C124.907 58.5252 124.885 58.6952 124.937 58.8966C124.994 59.1197 125.126 59.3138 125.306 59.4494L126.506 57.8494C126.686 57.984 126.817 58.1768 126.874 58.3982C126.925 58.5981 126.903 58.7662 126.881 58.8628C126.842 59.0383 126.764 59.1566 126.75 59.1783C126.723 59.2189 126.701 59.2468 126.694 59.2548C126.69 59.2606 126.686 59.2648 126.684 59.267C126.683 59.2682 126.682 59.2691 126.682 59.2697C126.681 59.2702 126.681 59.2705 126.681 59.2705C126.681 59.2706 126.681 59.2704 126.681 59.2699C126.682 59.2695 126.682 59.2689 126.683 59.2681C126.685 59.2664 126.687 59.2641 126.689 59.2611C126.696 59.2535 126.701 59.2488 126.711 59.2373C126.729 59.2176 126.753 59.1915 126.78 59.1606C126.892 59.0335 127.048 58.8413 127.21 58.5732L125.499 57.5376Z" fill="#E6E4E7" mask="url(#path-60-inside-1_1027_433189)"/>
<path d="M103.001 27.7278H106.463C106.461 27.3192 106.539 26.9143 106.692 26.5372C106.844 26.1601 107.069 25.8185 107.352 25.5328C107.635 25.247 107.97 25.0228 108.339 24.8736C108.707 24.7244 109.101 24.6532 109.496 24.6641C110.081 24.6423 110.657 24.8094 111.146 25.1421C111.634 25.4748 112.009 25.9565 112.219 26.5201C112.401 26.9898 112.473 27.4972 112.43 28.0011C112.386 28.505 112.228 28.9912 111.968 29.42C111.38 30.423 110.091 31.3374 107.752 30.9143V39H111.182V34.2237C112.591 33.7976 113.826 32.905 114.697 31.6832C115.567 30.4615 116.025 28.9782 115.999 27.4617C115.999 22.2146 111.446 21 109.496 21C108.01 21.0341 102.935 21.4026 103.001 27.7278Z" fill="#8000FF"/>
<path d="M111 41H108V44H111V41Z" fill="#8000FF"/>
<path d="M29.8133 44.47L32.2732 43.0498C32.1101 42.7705 32.0049 42.4613 31.9637 42.1405C31.9224 41.8197 31.9461 41.4939 32.0332 41.1824C32.1204 40.871 32.2692 40.5802 32.4709 40.3274C32.6726 40.0746 32.9231 39.8649 33.2074 39.7107C33.6114 39.4583 34.084 39.3379 34.5595 39.3662C35.035 39.3944 35.4899 39.5699 35.8612 39.8684C36.1782 40.1147 36.4322 40.4328 36.6021 40.7966C36.772 41.1603 36.853 41.5593 36.8384 41.9605C36.819 42.8882 36.2642 44.0441 34.4387 44.7053L37.6382 50.247L40.07 48.843L38.1962 45.5974C39.0252 44.7294 39.5461 43.613 39.6786 42.42C39.8112 41.227 39.548 40.0235 38.9297 38.9947C36.8534 35.3984 33.1479 36.4216 31.7683 37.2181C30.7114 37.8283 27.2637 40.1618 29.8133 44.47Z" fill="#E0E0E0"/>
<path d="M40.7595 49.9725L38.295 51.3954L39.6261 53.7009L42.0906 52.278L40.7595 49.9725Z" fill="#E0E0E0"/>
<path d="M254.432 253.508C254.432 253.584 200.972 253.649 135.005 253.649C69.039 253.649 15.5682 253.584 15.5682 253.508C15.5682 253.433 69.0282 253.368 135.005 253.368C200.983 253.368 254.432 253.427 254.432 253.508Z" fill="#263238"/>
<path d="M68.634 188.59C68.634 188.59 64.0224 184.27 62.2458 183.109C60.4692 181.948 56.4948 180.376 55.0098 180.23C53.5248 180.085 46.575 182.099 46.575 182.099C46.575 182.099 36.315 181.192 34.5924 182.39C32.8698 183.589 33.0102 184.831 33.7338 185.744C34.4574 186.656 37.2276 186.365 40.2948 186.413C43.362 186.462 44.1774 186.748 44.1774 186.748L39.7224 191.495L51.3 194.708L58.32 194.443L60.858 197.64L68.634 188.59Z" fill="#FFBF9D"/>
<path d="M33.48 177.871L33.7608 188.087L34.2522 189.356L39.2958 195.507L51.597 194.692L41.796 190.874L38.313 188.228L36.963 183.859C36.963 183.859 37.3734 177.12 33.48 177.871Z" fill="#FFBF9D"/>
<path d="M34.3332 189.594H31.32C31.32 189.594 27.4104 183.163 23.8356 185.35L24.6564 186.619C24.6564 186.619 23.0364 185.89 22.0212 187.245L31.8816 195.885H32.3352L42.8382 195.21L34.3332 189.594Z" fill="#FFBF9D"/>
<path d="M36.1206 191.549C35.8389 191.576 35.5558 191.587 35.2728 191.581C34.5599 191.588 33.8546 191.729 33.1938 191.997L33.0966 192.046L33.0318 191.954C32.724 191.522 32.3514 191.063 31.9518 190.582C31.158 189.594 30.4344 188.703 29.8296 187.958C29.5201 187.609 29.2402 187.235 28.9926 186.84C29.3615 187.133 29.6966 187.466 29.9916 187.834C30.5694 188.476 31.3524 189.378 32.184 190.409C32.5728 190.895 32.94 191.354 33.264 191.813L33.0966 191.77C33.7925 191.493 34.5419 191.377 35.289 191.43C35.5713 191.415 35.8539 191.455 36.1206 191.549Z" fill="#FF9A6C"/>
<path d="M57.429 185.603C56.2391 186.008 55.0804 186.499 53.9622 187.072C52.8962 187.739 51.8817 188.484 50.9274 189.302C51.1252 188.985 51.3712 188.701 51.6564 188.46C52.3055 187.831 53.0312 187.287 53.8164 186.84C54.6036 186.392 55.4435 186.044 56.3166 185.803C56.674 185.676 57.0498 185.609 57.429 185.603Z" fill="#FF9A6C"/>
<path d="M47.601 182.957C47.1757 183.567 46.7045 184.142 46.1916 184.68C45.7508 185.281 45.2633 185.846 44.7336 186.37C45.037 185.681 45.4572 185.048 45.9756 184.502C46.4249 183.898 46.9747 183.375 47.601 182.957Z" fill="#FF9A6C"/>
<path d="M37.3302 192.974C37.2459 192.904 37.1682 192.827 37.098 192.742L36.4608 192.035L35.4726 190.901L34.857 190.193C34.614 189.933 34.3902 189.655 34.1874 189.362C33.7316 188.667 33.486 187.855 33.48 187.024C33.48 186.154 33.4422 185.225 33.426 184.248C33.3936 182.288 33.3558 180.133 33.318 177.871V177.746H33.4314L33.7608 177.703C34.1237 177.66 34.4916 177.701 34.8361 177.823C35.1806 177.945 35.4926 178.144 35.748 178.405C36.2055 178.916 36.5382 179.526 36.72 180.187C37.0367 181.388 37.1607 182.631 37.0872 183.87V183.827C37.5894 185.479 38.0322 186.959 38.4102 188.201L38.3724 188.152L40.905 190.134L41.58 190.674C41.661 190.732 41.7352 190.799 41.8014 190.874C41.8014 190.874 41.7096 190.831 41.5476 190.717L40.8456 190.215L38.259 188.303V188.271C37.8702 187.034 37.4058 185.571 36.882 183.913V183.87C36.9422 182.66 36.8129 181.449 36.4986 180.279C36.3389 179.658 36.0356 179.082 35.613 178.6C35.3857 178.368 35.1082 178.192 34.802 178.086C34.4958 177.979 34.1691 177.944 33.8472 177.984L33.5502 178.022L33.6636 177.881C33.696 180.144 33.723 182.299 33.7446 184.259C33.7662 186.219 33.5232 188.039 34.4088 189.275C34.5854 189.556 34.7802 189.825 34.992 190.08L35.5914 190.804C35.9586 191.246 36.2772 191.635 36.5418 191.965L37.1358 192.704C37.2114 192.786 37.2767 192.877 37.3302 192.974Z" fill="#FF9A6C"/>
<path d="M32.3568 195.89C32.1651 195.908 31.9734 195.857 31.8168 195.745C31.3932 195.488 31.0048 195.178 30.6612 194.821C29.5375 193.656 28.5049 192.407 27.5724 191.084C26.46 189.54 25.5258 188.125 24.84 187.083C24.5106 186.543 24.2514 186.133 24.0786 185.83C23.9737 185.683 23.8917 185.521 23.8356 185.35C23.9639 185.476 24.0763 185.617 24.1704 185.771L25.0074 186.97C25.7148 187.99 26.6814 189.394 27.7938 190.917C28.7207 192.234 29.7232 193.496 30.7962 194.697C31.1199 195.058 31.4821 195.382 31.8762 195.664C32.0293 195.753 32.1902 195.829 32.3568 195.89Z" fill="#FF9A6C"/>
<path d="M50.301 189.297L44.874 188.93L43.254 184.486L42.957 181.494C42.8936 180.786 42.5675 180.127 42.0428 179.648C41.5181 179.168 40.8329 178.902 40.122 178.902H40.068L40.3704 186.23L41.4882 190.782L45.9 193.385H51.3L50.301 189.297Z" fill="#FFBF9D"/>
<path d="M50.301 189.297L44.874 188.93L43.254 184.486L42.957 181.494C42.8936 180.786 42.5675 180.127 42.0428 179.648C41.5181 179.168 40.8329 178.902 40.122 178.902H40.068L40.3704 186.23L41.4882 190.782L45.9 193.385" fill="#FFBF9D"/>
<path d="M45.9 193.385C45.7893 193.342 45.6827 193.29 45.5814 193.228L44.6958 192.737L41.4558 190.868H41.418V190.831C41.0886 189.524 40.7052 187.979 40.2786 186.284V186.257C40.1814 184.054 40.0734 181.564 39.96 178.929V178.789H40.1004C40.149 178.789 40.2084 178.789 40.2624 178.789C40.9151 178.812 41.5421 179.049 42.0467 179.464C42.5512 179.878 42.9053 180.448 43.0542 181.084C43.1179 181.377 43.1595 181.675 43.1784 181.975L43.2594 182.839C43.3188 183.379 43.3674 183.962 43.4214 184.496V184.464C44.0154 186.122 44.55 187.623 45.0414 188.924L44.9496 188.854L48.9186 189.167L49.9986 189.27C50.1243 189.276 50.2491 189.294 50.3712 189.324C50.2456 189.337 50.1189 189.337 49.9932 189.324L48.9132 189.275L44.9442 189.054H44.82V188.995C44.3394 187.699 43.7886 186.203 43.2 184.556V184.523C43.146 183.983 43.0866 183.443 43.0272 182.866C43.0002 182.579 42.9678 182.293 42.9408 182.002C42.9213 181.715 42.8816 181.43 42.822 181.148C42.6862 180.572 42.3648 180.056 41.9071 179.681C41.4495 179.305 40.8811 179.09 40.2894 179.069H40.068L40.203 178.924C40.3056 181.553 40.4082 184.048 40.4946 186.251C40.905 187.952 41.2722 189.491 41.5746 190.809L41.526 190.744L44.7336 192.688L45.5976 193.228C45.7048 193.267 45.8065 193.32 45.9 193.385Z" fill="#FF9A6C"/>
<path d="M166.547 102.827C161.897 85.0986 157.604 64.4868 131.679 66.3228C131.679 66.3228 115.706 69.3954 108.124 81.1836C103.658 88.1172 99.792 118.012 99.0252 141.62C98.9928 142.582 99.3924 149.283 99.3654 150.223L167.978 155.936H180.36C180.36 155.936 179.588 143.413 175.862 131.263C172.217 119.453 168.194 109.08 166.547 102.827Z" fill="#263238"/>
<path d="M128.234 73.0782L129.854 71.5284L147.377 78.5916C148.6 78.6599 149.753 79.184 150.609 80.0607C151.465 80.9374 151.961 82.1029 151.999 83.3274L151.843 140.427C151.843 144.299 151.092 147.652 148.754 150.736L146.291 153.976C140.681 161.384 129.136 160.774 124.691 152.615C124.424 152.15 124.217 151.653 124.076 151.135C123.964 150.716 123.876 150.29 123.811 149.861C123.271 145.265 123.271 141.28 123.271 141.28C122.958 136.237 122.855 134.168 122.855 134.217C122.855 134.266 112.12 132.98 109.22 119.205C107.779 112.352 108.049 102.924 108.454 93.6468C109.004 80.8218 117.914 73.062 128.234 73.0782Z" fill="#FFBF9D"/>
<path d="M132.743 102.821C132.762 103.285 132.963 103.724 133.3 104.042C133.638 104.361 134.087 104.535 134.552 104.528C134.779 104.535 135.006 104.497 135.218 104.415C135.43 104.333 135.624 104.209 135.788 104.051C135.951 103.893 136.082 103.704 136.171 103.494C136.26 103.285 136.306 103.06 136.307 102.832C136.287 102.369 136.088 101.931 135.751 101.611C135.415 101.292 134.967 101.116 134.503 101.12C134.275 101.113 134.048 101.152 133.835 101.234C133.622 101.316 133.428 101.44 133.263 101.599C133.099 101.757 132.969 101.947 132.879 102.157C132.79 102.367 132.743 102.593 132.743 102.821Z" fill="#263238"/>
<path d="M114.448 103.297C114.465 103.761 114.663 104.201 115 104.521C115.337 104.841 115.786 105.016 116.251 105.008C116.479 105.015 116.705 104.976 116.917 104.894C117.13 104.812 117.324 104.688 117.487 104.53C117.651 104.372 117.782 104.183 117.872 103.974C117.962 103.765 118.01 103.54 118.012 103.313C117.993 102.848 117.794 102.408 117.456 102.088C117.118 101.769 116.668 101.594 116.203 101.601C115.975 101.594 115.749 101.632 115.536 101.714C115.324 101.796 115.13 101.92 114.967 102.078C114.803 102.236 114.673 102.425 114.584 102.635C114.494 102.844 114.448 103.069 114.448 103.297Z" fill="#263238"/>
<path d="M110.279 97.3296C110.511 97.551 111.807 96.4818 113.724 96.3954C115.641 96.309 117.094 97.1892 117.293 96.9354C117.391 96.8274 117.142 96.3954 116.51 96.0012C115.65 95.4696 114.647 95.2151 113.638 95.2722C112.641 95.3166 111.685 95.6801 110.911 96.309C110.344 96.8004 110.16 97.2324 110.279 97.3296Z" fill="#263238"/>
<path d="M129.287 96.66C129.541 96.8544 130.729 95.661 132.624 95.3748C134.519 95.0886 136.058 95.823 136.226 95.5584C136.312 95.4396 136.026 95.0562 135.351 94.7106C134.443 94.2704 133.421 94.1196 132.424 94.2786C131.436 94.4279 130.521 94.8874 129.811 95.5908C129.303 96.12 129.168 96.5898 129.287 96.66Z" fill="#263238"/>
<path d="M123.034 111.478C123.034 111.37 121.835 111.224 119.891 111.073C119.399 111.046 118.93 110.975 118.811 110.646C118.742 110.142 118.831 109.629 119.065 109.177C119.464 107.968 119.885 106.704 120.323 105.397C122.067 99.9972 123.304 95.5584 123.088 95.4882C122.872 95.418 121.279 99.7488 119.534 105.154C119.113 106.488 118.714 107.757 118.336 108.972C118.179 109.539 117.893 110.187 118.179 110.905C118.258 111.074 118.374 111.223 118.519 111.34C118.664 111.457 118.834 111.539 119.016 111.58C119.291 111.64 119.572 111.665 119.853 111.656C121.824 111.64 123.028 111.591 123.034 111.478Z" fill="#263238"/>
<path d="M122.845 134.228C129.393 134.002 135.75 131.96 141.205 128.331C141.205 128.331 137.014 138.181 123.05 137.581L122.845 134.228Z" fill="#FF9A6C"/>
<path d="M129.022 115.376C128.742 115.054 128.399 114.793 128.015 114.607C127.631 114.421 127.213 114.316 126.787 114.296C125.582 114.226 124.735 114.377 124.087 115.328C123.96 115.563 123.883 115.821 123.86 116.086C123.837 116.352 123.868 116.619 123.952 116.872C124.092 117.094 123.989 117.099 124.205 117.256C124.989 117.804 125.874 118.192 126.808 118.395C127.737 118.606 128.806 118.395 129.287 117.634C129.477 117.275 129.553 116.867 129.506 116.464C129.458 116.061 129.29 115.682 129.022 115.376Z" fill="#FF9A6C"/>
<path d="M128.828 87.8742C129.076 88.3602 130.723 87.8742 132.754 87.8202C134.784 87.7662 136.474 88.1442 136.669 87.642C136.755 87.4044 136.399 86.9616 135.675 86.562C134.741 86.0759 133.698 85.8397 132.646 85.8762C131.606 85.8974 130.591 86.1937 129.703 86.7348C129.022 87.1776 128.72 87.6366 128.828 87.8742Z" fill="#263238"/>
<path d="M110.554 93.8628C110.911 94.2786 112.212 93.7602 113.794 93.663C115.376 93.5658 116.737 93.8034 117.034 93.3336C117.158 93.1068 116.926 92.6802 116.316 92.2968C115.506 91.8331 114.572 91.6313 113.643 91.719C112.711 91.7796 111.822 92.1309 111.1 92.7234C110.554 93.1986 110.392 93.6576 110.554 93.8628Z" fill="#263238"/>
<path d="M151.648 107.698C151.648 107.698 144.272 109.48 133.828 86.9346C130.264 79.2612 123.347 71.5284 123.347 71.5284L129.827 70.5942C129.827 70.5942 149.186 76.0482 149.51 76.2912C149.834 76.5342 154.397 86.3028 154.397 86.3028L151.648 107.698Z" fill="#263238"/>
<path d="M149.229 106.796C149.18 105.759 150.255 103.259 151.265 103.048C153.965 102.508 158.9 102.46 159.295 109.388C159.835 118.854 150.217 117.439 150.185 117.169C150.152 116.899 149.402 110.365 149.229 106.796Z" fill="#FFBF9D"/>
<path d="M152.874 113.4C152.912 113.368 153.041 113.508 153.328 113.621C153.731 113.766 154.174 113.749 154.564 113.573C155.542 113.152 156.292 111.515 156.244 109.793C156.219 108.979 156.016 108.181 155.65 107.455C155.544 107.164 155.369 106.904 155.141 106.696C154.912 106.488 154.636 106.339 154.337 106.261C154.145 106.221 153.944 106.25 153.77 106.343C153.597 106.436 153.461 106.586 153.387 106.769C153.274 107.039 153.349 107.228 153.295 107.244C153.241 107.26 153.085 107.098 153.139 106.704C153.178 106.466 153.298 106.248 153.479 106.088C153.601 105.983 153.744 105.903 153.898 105.853C154.052 105.802 154.214 105.784 154.375 105.797C154.769 105.85 155.141 106.004 155.458 106.244C155.775 106.483 156.025 106.799 156.184 107.163C156.631 107.961 156.878 108.856 156.902 109.771C156.951 111.683 156.076 113.524 154.742 113.994C154.493 114.082 154.226 114.114 153.963 114.085C153.699 114.057 153.445 113.971 153.22 113.832C152.901 113.648 152.82 113.438 152.874 113.4Z" fill="#FF9A6C"/>
<path d="M130.243 115.76C130.216 116.003 128.596 115.965 126.679 116.338C124.762 116.71 123.26 117.31 123.142 117.099C123.023 116.888 124.443 115.895 126.522 115.511C128.601 115.128 130.286 115.56 130.243 115.76Z" fill="#263238"/>
<path d="M204.223 189.119C204.223 189.119 212.15 182.331 214.45 182.147C216.751 181.964 222.788 183.092 222.788 183.092C222.788 183.092 226.606 183.125 228.501 182.887C230.48 182.573 232.502 182.672 234.441 183.179C235.013 183.352 235.732 184.772 234.047 185.744C233.334 186.154 226.4 186.624 226.4 186.624L243.745 191.576L241.493 193.433C241.189 193.686 240.809 193.829 240.413 193.838L215.46 194.724L214.315 197.516L204.223 189.119Z" fill="#FFBF9D"/>
<path d="M223.155 189.124H231.255C231.255 189.124 234.095 185.344 235.121 183.784C236.023 182.407 237.103 182.002 238.048 182.326C238.295 182.415 238.5 182.592 238.626 182.822C238.716 182.988 238.764 183.174 238.764 183.362C238.764 183.551 238.716 183.737 238.626 183.902L235.062 190.55L236.93 189.923C236.93 189.923 240.667 186.262 241.396 185.414C242.125 184.567 244.782 181.003 247.136 183.6L243.896 187.229L247.136 184.928C247.136 184.928 249.739 182.693 251.127 185.355L241.407 193.541" fill="#FFBF9D"/>
<path d="M214.72 185.76C214.823 185.71 214.932 185.672 215.044 185.647C215.358 185.541 215.682 185.467 216.011 185.425C217.235 185.261 218.481 185.391 219.645 185.803C220.459 186.084 221.242 186.446 221.983 186.883C222.383 187.121 222.788 187.38 223.198 187.666L223.814 188.104C224.008 188.244 224.251 188.428 224.408 188.514C226.46 188.671 228.809 188.811 231.266 188.984L231.147 189.032C231.908 188.131 232.654 187.148 233.377 186.127C233.663 185.728 233.917 185.323 234.193 184.923C234.468 184.523 234.7 184.108 234.992 183.73C235.27 183.337 235.588 182.975 235.942 182.65C236.122 182.493 236.32 182.357 236.531 182.245C236.757 182.115 237.016 182.056 237.276 182.077H237.227C237.45 182.04 237.679 182.048 237.899 182.1C238.119 182.153 238.326 182.25 238.507 182.385C238.669 182.539 238.791 182.728 238.865 182.939C238.94 183.149 238.963 183.374 238.934 183.595V183.622C237.389 186.386 236.045 188.795 235.008 190.642C234.895 190.983 234.708 191.295 234.461 191.557C234.213 191.818 233.912 192.022 233.577 192.154C233.094 192.355 232.577 192.464 232.054 192.478C231.732 192.495 231.41 192.495 231.088 192.478C230.975 192.481 230.863 192.47 230.753 192.445H231.088C231.304 192.445 231.628 192.445 232.049 192.407C232.557 192.377 233.056 192.258 233.523 192.056C233.831 191.925 234.108 191.73 234.334 191.483C234.561 191.236 234.731 190.944 234.835 190.625L238.68 183.535V183.584C238.703 183.406 238.684 183.225 238.625 183.055C238.566 182.885 238.468 182.732 238.34 182.606C238.025 182.388 237.637 182.303 237.26 182.369H237.217C237.027 182.366 236.839 182.416 236.677 182.515C236.48 182.613 236.299 182.739 236.137 182.887C235.795 183.19 235.489 183.531 235.224 183.902C234.684 184.658 234.198 185.522 233.604 186.3C232.875 187.331 232.124 188.309 231.352 189.221L231.309 189.275H231.239C228.766 189.092 226.465 188.951 224.348 188.762C224.107 188.635 223.879 188.483 223.668 188.309L223.058 187.871C222.658 187.585 222.259 187.331 221.87 187.088C221.145 186.653 220.378 186.291 219.58 186.008C218.443 185.587 217.223 185.431 216.016 185.555C215.692 185.588 215.371 185.646 215.055 185.728C214.944 185.746 214.832 185.757 214.72 185.76Z" fill="#FF9A6C"/>
<path d="M247.153 183.6C247.07 183.762 246.964 183.911 246.839 184.043C246.618 184.318 246.299 184.712 245.894 185.188C245.095 186.149 243.972 187.461 242.714 188.897C241.456 190.334 240.376 191.695 239.441 192.548C239.083 192.894 238.692 193.205 238.275 193.477C238.127 193.586 237.958 193.663 237.778 193.703C237.917 193.587 238.063 193.481 238.216 193.385C238.598 193.083 238.959 192.755 239.296 192.402C240.176 191.527 241.202 190.139 242.487 188.719C243.772 187.299 244.895 185.987 245.727 185.058L246.731 183.978C246.855 183.834 246.996 183.707 247.153 183.6Z" fill="#FF9A6C"/>
<path d="M242.708 183.978C242.422 184.396 242.093 184.784 241.726 185.134C241.094 185.825 240.203 186.754 239.209 187.79C238.394 188.633 237.632 189.41 237.049 189.999C236.406 190.259 235.733 190.441 235.046 190.539C235.219 190.452 235.4 190.382 235.586 190.328L237.001 189.788L236.957 189.815C237.541 189.189 238.286 188.406 239.117 187.569C240.111 186.543 241.024 185.625 241.693 184.972C242.003 184.613 242.343 184.28 242.708 183.978Z" fill="#FF9A6C"/>
<path d="M177.347 148.824C177.347 148.824 188.989 151.826 190.129 167.648C190.782 176.666 185.981 205.627 185.981 205.627L203.175 187.969L218.5 198.628C218.5 198.628 197.64 224.1 192.845 227.95C188.05 231.8 180.36 237.946 177.876 237.443C175.392 236.941 175.381 225.45 175.381 225.45V162L177.347 148.824Z" fill="#B366FF"/>
<path d="M93.6468 150.763C93.6468 150.763 83.2896 154.17 83.7 174.42C84.1104 194.67 83.7918 201.469 83.7918 201.469L68.2668 185.036L55.3824 199.26C55.3824 199.26 69.8112 220.698 79.9038 231.12C89.4186 240.932 97.875 232.411 100.624 225.509C102.848 219.92 104.641 198.666 104.641 198.666L93.6468 150.763Z" fill="#B366FF"/>
<g opacity="0.3">
<path d="M178.249 185.274C179.188 179.334 179.437 172.903 176.731 167.454C170.095 183.859 170.392 202.7 172.768 220.082L178.027 235.121C181.343 225.045 178.195 214.31 178.265 203.801C178.308 197.813 177.314 191.198 178.249 185.274Z" fill="black"/>
</g>
<path d="M91.4922 163.647C91.4922 163.647 98.415 210.217 99.7542 214.294C101.093 218.371 101.093 230.391 101.093 230.391C101.093 230.391 93.8304 243.923 93.3822 253.325L180.9 253.508L175.214 214.861C175.033 212.421 174.99 209.972 175.084 207.527C175.451 200.718 175.975 186.122 177.93 177.147C180.198 166.714 177.142 148.862 177.142 148.862L151 142.42C144.812 151.313 129.4 151.432 123.287 142.42L93.7818 150.763L91.4922 163.647Z" fill="#B366FF"/>
<path d="M176.931 213.014C176.994 212.862 177.082 212.722 177.19 212.598C177.374 212.344 177.649 211.977 177.995 211.518C178.893 210.347 179.898 209.263 180.997 208.278C182.116 207.316 183.362 206.515 184.702 205.897C185.242 205.67 185.641 205.497 185.938 205.4C186.09 205.334 186.25 205.289 186.413 205.265C186.473 205.378 183.762 206.248 181.181 208.505C180.099 209.479 179.085 210.525 178.146 211.637C177.774 212.124 177.368 212.584 176.931 213.014Z" fill="#263238"/>
<path d="M95.8878 212.026C95.8338 212.026 95.634 211.081 94.9698 209.66C94.1138 207.806 92.8634 206.16 91.3058 204.839C89.7483 203.517 87.9211 202.551 85.9518 202.009C84.4398 201.587 83.457 201.544 83.4678 201.469C83.6955 201.44 83.9259 201.44 84.1536 201.469C84.7767 201.522 85.3944 201.627 86.0004 201.782C88.0227 202.28 89.9023 203.239 91.4922 204.584C93.0739 205.937 94.3261 207.632 95.1534 209.542C95.4026 210.115 95.6066 210.707 95.7636 211.313C95.8364 211.544 95.8782 211.784 95.8878 212.026Z" fill="#263238"/>
<path d="M96.4494 186.791C96.3051 186.742 96.17 186.669 96.0498 186.575C95.8068 186.424 95.4612 186.187 95.0454 185.873C93.9699 185.058 92.9639 184.155 92.0376 183.173C91.1169 182.192 90.2533 181.159 89.451 180.079C89.0927 179.649 88.778 179.184 88.5114 178.691C88.9009 179.086 89.2619 179.509 89.5914 179.955C90.2502 180.749 91.1574 181.84 92.232 182.979C93.1517 183.95 94.1291 184.864 95.1588 185.717C95.6086 186.051 96.0395 186.41 96.4494 186.791Z" fill="#263238"/>
<path d="M157.54 211.999C157.54 211.999 157.54 212.036 157.469 212.107L157.243 212.404C157.027 212.657 156.74 213.057 156.319 213.521C155.15 214.857 153.887 216.108 152.539 217.264C150.531 218.986 148.392 220.55 146.14 221.94C143.392 223.63 140.552 225.167 137.635 226.546C134.536 228.02 131.544 229.333 128.833 230.553C126.122 231.773 123.698 232.891 121.694 233.901C119.691 234.911 118.093 235.775 117.002 236.401C116.462 236.704 116.041 236.941 115.754 237.125L115.425 237.308C115.349 237.346 115.312 237.368 115.306 237.362C115.336 237.332 115.371 237.306 115.409 237.287L115.722 237.076C116.003 236.898 116.408 236.628 116.948 236.304C118.028 235.651 119.605 234.749 121.603 233.723C123.601 232.697 126.025 231.563 128.731 230.315C131.436 229.068 134.422 227.767 137.511 226.292C140.42 224.917 143.255 223.39 146.005 221.719C148.248 220.352 150.385 218.82 152.399 217.134C153.758 215.998 155.041 214.773 156.238 213.467C156.67 213.019 156.973 212.63 157.194 212.387L157.448 212.112L157.54 211.999Z" fill="#263238"/>
<path d="M93.582 252.596V252.482C93.582 252.391 93.582 252.283 93.582 252.142C93.582 251.829 93.6306 251.392 93.663 250.825C93.8712 249.182 94.2015 247.558 94.6512 245.965C96.3106 240.382 98.5702 234.995 101.39 229.9V229.97C101.039 224.905 100.516 219.245 99.9108 213.295C98.7552 202.052 97.5456 191.9 96.6708 184.545C96.228 180.884 95.8662 177.914 95.5908 175.846C95.472 174.83 95.3802 174.031 95.31 173.475L95.2452 172.859C95.2381 172.789 95.2381 172.719 95.2452 172.649C95.2672 172.715 95.2817 172.784 95.2884 172.854C95.31 173.005 95.3424 173.21 95.3856 173.47C95.4612 174.01 95.5746 174.814 95.715 175.829C95.9904 177.898 96.3792 180.862 96.8652 184.523C97.7994 191.867 99.0252 202.019 100.197 213.262C100.802 219.202 101.32 224.883 101.65 229.954V229.991V230.024C98.8274 235.099 96.5451 240.456 94.8402 246.008C94.3688 247.592 94.008 249.207 93.7602 250.841C93.7116 251.381 93.6684 251.84 93.6414 252.148C93.6414 252.288 93.6414 252.401 93.6036 252.488C93.6017 252.525 93.5944 252.561 93.582 252.596Z" fill="#263238"/>
<path d="M179.005 164.732C179.013 164.81 179.013 164.887 179.005 164.965C179.005 165.132 179.005 165.353 179.005 165.645C179.005 166.239 179.005 167.119 178.956 168.248C178.897 170.51 178.664 173.777 178.259 177.806C177.854 181.834 177.282 186.613 176.688 191.927C176.094 197.24 175.511 203.089 175.327 209.255C175.199 215.049 175.598 220.842 176.521 226.562C177.298 231.854 178.216 236.579 178.924 240.565C179.631 244.55 180.182 247.774 180.484 250.015C180.646 251.138 180.738 252.013 180.803 252.601C180.803 252.887 180.851 253.141 180.868 253.276C180.875 253.353 180.875 253.431 180.868 253.508C180.845 253.435 180.831 253.359 180.824 253.282C180.824 253.114 180.77 252.893 180.727 252.612C180.646 252.018 180.538 251.149 180.355 250.031C180.025 247.795 179.464 244.571 178.735 240.597C178.006 236.623 177.061 231.898 176.267 226.6C175.329 220.865 174.92 215.055 175.046 209.245C175.235 203.067 175.835 197.213 176.434 191.9C177.034 186.586 177.649 181.807 178.054 177.784C178.459 173.761 178.74 170.505 178.837 168.242C178.907 167.114 178.913 166.239 178.934 165.645C178.934 165.353 178.934 165.132 178.934 164.965C178.951 164.885 178.974 164.807 179.005 164.732Z" fill="#263238"/>
<g opacity="0.3">
<path d="M95.499 174.712C94.0063 189.625 95.7356 204.686 100.57 218.873L95.499 174.712Z" fill="black"/>
</g>
<g opacity="0.3">
<path d="M149.634 226.309C143.003 232.4 136.35 237.605 128.191 240.505C134.341 241.045 140.546 238.675 145.298 234.738C150.05 230.801 153.436 226.638 155.612 220.882L149.634 226.309Z" fill="black"/>
</g>
<path d="M142.079 233.015C142.025 232.961 146.151 229.176 151.292 224.564C156.433 219.953 160.645 216.265 160.693 216.324C160.742 216.383 156.622 220.163 151.481 224.775C146.34 229.387 142.133 233.075 142.079 233.015Z" fill="#263238"/>
<path d="M156.746 118.735C156.746 119.405 156.547 120.06 156.175 120.617C155.803 121.174 155.273 121.608 154.654 121.864C154.035 122.12 153.354 122.187 152.698 122.056C152.041 121.924 151.437 121.601 150.964 121.127C150.491 120.653 150.169 120.05 150.039 119.392C149.909 118.735 149.976 118.054 150.234 117.436C150.491 116.817 150.925 116.289 151.483 115.917C152.04 115.546 152.696 115.348 153.365 115.349C153.81 115.349 154.25 115.437 154.66 115.607C155.071 115.777 155.444 116.027 155.758 116.341C156.072 116.656 156.321 117.029 156.49 117.44C156.66 117.851 156.747 118.291 156.746 118.735Z" fill="#455A64"/>
<path d="M176.893 163.199C175.896 154.919 174.899 146.639 173.902 138.359L152.491 131.879C152.075 146.653 149.488 163.242 145.773 177.547C153.694 180.11 162.064 180.982 170.343 180.106C170.703 176.11 171.063 172.114 171.423 168.118C171.956 171.131 172.496 174.143 173.043 177.152C175.289 175.894 176.612 173.372 177.061 170.851C177.509 168.329 177.201 165.78 176.893 163.199Z" fill="#263238"/>
<path d="M160.137 180.22C160.137 180.22 160.137 180.117 160.202 179.912C160.267 179.707 160.321 179.372 160.412 178.999C160.601 178.189 160.877 177.012 161.233 175.505C161.935 172.465 162.972 168.075 163.982 162.594C165.214 156.177 165.993 149.681 166.315 143.154C166.726 135.172 165.999 127.171 164.155 119.394C162.329 111.6 158.952 104.254 154.224 97.794C153.684 97.065 153.144 96.3252 152.539 95.634C151.934 94.9428 151.4 94.2678 150.79 93.6468L149.899 92.7018L148.991 91.8C148.397 91.1952 147.782 90.639 147.188 90.0774C144.785 87.8526 142.436 85.8978 140.335 84.0618C138.235 82.2258 136.361 80.5356 134.806 78.9534C134.411 78.5592 134.055 78.1596 133.726 77.7924C133.396 77.4252 133.034 77.0526 132.732 76.7124C132.43 76.3722 132.122 76.0104 131.841 75.681L131.08 74.709C130.583 74.1042 130.21 73.521 129.859 73.0296C129.508 72.5382 129.249 72.1062 129.038 71.7498L128.563 70.9506C128.455 70.767 128.407 70.6698 128.407 70.6698C128.407 70.6698 128.471 70.7562 128.59 70.9344L129.087 71.7228C129.303 72.0684 129.573 72.5004 129.929 72.981C130.286 73.4616 130.664 74.061 131.166 74.6442L131.933 75.6054L132.829 76.626C133.137 76.9878 133.472 77.3496 133.834 77.706C134.195 78.0624 134.546 78.4728 134.946 78.8562C136.501 80.4276 138.386 82.0962 140.492 83.9268C142.598 85.7574 144.952 87.7068 147.371 89.9208C147.965 90.4608 148.592 91.044 149.186 91.6434L150.098 92.5452L150.995 93.4956C151.61 94.1166 152.167 94.8132 152.755 95.4882C153.344 96.1632 153.895 96.8976 154.462 97.6482C159.21 104.134 162.599 111.512 164.425 119.34C166.28 127.145 167.007 135.175 166.585 143.186C166.25 149.715 165.449 156.212 164.187 162.626C163.15 168.113 162.086 172.498 161.352 175.532C160.979 177.044 160.682 178.232 160.477 179.015C160.375 179.404 160.294 179.701 160.24 179.917C160.186 180.133 160.137 180.22 160.137 180.22Z" fill="#455A64"/>
</svg>
