<svg width="270" height="270" viewBox="0 0 270 270" fill="none" xmlns="http://www.w3.org/2000/svg">
<path d="M231.66 250.598C198.104 249.766 164.068 254.432 131.22 247.493L130.518 248.4C147.569 258.163 166.847 263.37 186.494 263.52C197.559 263.585 208.564 262.035 219.515 260.491C229.171 259.13 238.918 257.747 248.027 254.286C243.292 251.132 237.314 250.738 231.66 250.598Z" fill="#F5F5F5"/>
<path d="M155.056 68.7636H125.518V127.316H155.056V68.7636Z" fill="#EBEBEB"/>
<path d="M188.109 68.7636H156.195V127.316H188.109V68.7636Z" fill="#EBEBEB"/>
<path d="M188.109 131.409H156.195V187.985H188.109V131.409Z" fill="#EBEBEB"/>
<path d="M192.202 67.7538H225.812V15.8112H226.951V67.7538H254.302V14.6556H192.202V67.7538Z" fill="#EBEBEB"/>
<path d="M254.302 68.7636H226.951V127.316H254.302V68.7636Z" fill="#EBEBEB"/>
<path d="M254.302 131.409H226.951V187.985H254.302V131.409Z" fill="#EBEBEB"/>
<path d="M155.056 131.409H125.518V187.985H155.056V131.409Z" fill="#EBEBEB"/>
<path d="M225.812 131.409H192.202V187.985H225.812V131.409Z" fill="#EBEBEB"/>
<path d="M155.056 188.995H125.518V239.976H155.056V188.995Z" fill="#EBEBEB"/>
<path d="M254.302 188.995H226.951V239.976H254.302V188.995Z" fill="#EBEBEB"/>
<path d="M155.061 67.7538V15.8112H156.195V67.7538H188.109V14.6556H125.518V67.7538H155.061Z" fill="#EBEBEB"/>
<path d="M225.812 188.995H192.202V239.976H225.812V188.995Z" fill="#EBEBEB"/>
<path d="M188.109 188.995H156.195V239.976H188.109V188.995Z" fill="#EBEBEB"/>
<path d="M225.812 68.7636H192.202V127.316H225.812V68.7636Z" fill="#EBEBEB"/>
<path d="M104.409 24.8292H27.8046V93.366H104.409V24.8292Z" fill="#FAFAFA"/>
<path d="M104.409 93.366C104.409 93.366 104.409 92.9232 104.409 92.0916C104.409 91.26 104.409 90.0234 104.409 88.4196C104.409 85.1796 104.382 80.4978 104.36 74.5092C104.36 62.532 104.312 45.4194 104.274 24.8292L104.447 25.002L27.81 25.0344L28.0098 24.8292C28.0098 49.761 28.0098 73.224 28.0098 93.366L27.8316 93.1824L83.2356 93.2742L98.8632 93.3228H103H104.08C104.317 93.3228 104.447 93.3228 104.447 93.3228H104.101H103.054H98.9496L83.3652 93.3714L27.8424 93.4632H27.6588V93.285C27.6588 73.143 27.6588 49.68 27.6588 24.7482V24.624H27.8694H104.468H104.641V24.84C104.603 45.4788 104.571 62.64 104.549 74.628C104.549 80.6004 104.517 85.293 104.506 88.5006C104.506 90.0882 104.506 91.3086 104.506 92.1402C104.506 92.9718 104.409 93.366 104.409 93.366Z" fill="#E0E0E0"/>
<path d="M57.1752 37.0062C57.1752 37.1196 53.1414 37.2114 48.168 37.2114C43.1946 37.2114 39.1662 37.1196 39.1662 37.0062C39.1662 36.8928 43.1946 36.801 48.168 36.801C53.1414 36.801 57.1752 36.8928 57.1752 37.0062Z" fill="#E0E0E0"/>
<path d="M89.64 42.1524C89.64 42.2658 78.5646 42.3576 64.9026 42.3576C51.2406 42.3576 40.1598 42.2658 40.1598 42.1524C40.1598 42.039 51.2352 41.9472 64.9026 41.9472C78.57 41.9472 89.64 42.039 89.64 42.1524Z" fill="#E0E0E0"/>
<path d="M42.525 50.868H39.2958V54.0972H42.525V50.868Z" fill="#E0E0E0"/>
<path d="M50.4684 50.868H47.2392V54.0972H50.4684V50.868Z" fill="#E0E0E0"/>
<path d="M58.563 50.7222H55.3338V53.9514H58.563V50.7222Z" fill="#E0E0E0"/>
<path d="M66.3606 50.868H63.1314V54.0972H66.3606V50.868Z" fill="#E0E0E0"/>
<path d="M74.304 50.868H71.0748V54.0972H74.304V50.868Z" fill="#E0E0E0"/>
<path d="M82.2474 50.868H79.0182V54.0972H82.2474V50.868Z" fill="#E0E0E0"/>
<path d="M90.1908 50.868H86.9616V54.0972H90.1908V50.868Z" fill="#EBEBEB"/>
<path d="M42.525 57.7314H39.2958V60.9606H42.525V57.7314Z" fill="#EBEBEB"/>
<path d="M50.4684 57.7314H47.2392V60.9606H50.4684V57.7314Z" fill="#E0E0E0"/>
<path d="M58.4118 57.7314H55.1826V60.9606H58.4118V57.7314Z" fill="#EBEBEB"/>
<path d="M66.3606 57.7314H63.1314V60.9606H66.3606V57.7314Z" fill="#E0E0E0"/>
<path d="M74.304 57.7314H71.0748V60.9606H74.304V57.7314Z" fill="#E0E0E0"/>
<path d="M82.3932 57.5802H79.164V60.8094H82.3932V57.5802Z" fill="#E0E0E0"/>
<path d="M90.1908 57.7314H86.9616V60.9606H90.1908V57.7314Z" fill="#E0E0E0"/>
<path d="M42.525 64.5894H39.2958V67.8186H42.525V64.5894Z" fill="#E0E0E0"/>
<path d="M50.6142 64.4436H47.385V67.6728H50.6142V64.4436Z" fill="#E0E0E0"/>
<path d="M58.4118 64.5894H55.1826V67.8186H58.4118V64.5894Z" fill="#E0E0E0"/>
<path d="M66.3606 64.5894H63.1314V67.8186H66.3606V64.5894Z" fill="#EBEBEB"/>
<path d="M74.304 64.5894H71.0748V67.8186H74.304V64.5894Z" fill="#E0E0E0"/>
<path d="M82.2474 64.5894H79.0182V67.8186H82.2474V64.5894Z" fill="#E0E0E0"/>
<path d="M90.1908 64.5894H86.9616V67.8186H90.1908V64.5894Z" fill="#E0E0E0"/>
<path d="M42.525 71.4528H39.2958V74.682H42.525V71.4528Z" fill="#E0E0E0"/>
<path d="M50.4684 71.4528H47.2392V74.682H50.4684V71.4528Z" fill="#E0E0E0"/>
<path d="M58.4118 71.4528H55.1826V74.682H58.4118V71.4528Z" fill="#E0E0E0"/>
<path d="M66.5064 71.307H63.2772V74.5362H66.5064V71.307Z" fill="#E0E0E0"/>
<path d="M74.304 71.4528H71.0748V74.682H74.304V71.4528Z" fill="#E0E0E0"/>
<path d="M82.2474 71.4528H79.0182V74.682H82.2474V71.4528Z" fill="#EBEBEB"/>
<path d="M90.1908 71.4528H86.9616V74.682H90.1908V71.4528Z" fill="#E0E0E0"/>
<path d="M42.525 78.3108H39.2958V81.54H42.525V78.3108Z" fill="#E0E0E0"/>
<path d="M50.4684 78.3108H47.2392V81.54H50.4684V78.3108Z" fill="#EBEBEB"/>
<path d="M58.4118 78.3108H55.1826V81.54H58.4118V78.3108Z" fill="#E0E0E0"/>
<path d="M66.3606 78.3108H63.1314V81.54H66.3606V78.3108Z" fill="#E0E0E0"/>
<path d="M74.304 78.3108H71.0748V81.54H74.304V78.3108Z" fill="#E0E0E0"/>
<path d="M82.3932 78.165H79.164V81.3942H82.3932V78.165Z" fill="#E0E0E0"/>
<path d="M90.1908 78.3108H86.9616V81.54H90.1908V78.3108Z" fill="#E0E0E0"/>
<path d="M42.606 176.04C41.0889 175.382 39.8772 174.175 39.2148 172.66C38.9448 172.039 38.9394 171.072 39.6036 170.932C40.014 170.845 40.3812 171.164 40.6836 171.472L43.6428 174.409C43.3546 173.634 43.2243 172.809 43.2595 171.983C43.2948 171.157 43.4948 170.346 43.848 169.598C44.1018 169.058 44.6256 168.518 45.1818 168.701C45.6138 168.863 45.7542 169.398 45.8298 169.857L46.5426 174.101C46.9326 172.448 47.7331 170.92 48.87 169.657C49.2804 169.198 49.95 168.75 50.4576 169.074C50.9652 169.398 50.895 170.03 50.7978 170.564C50.5625 171.892 50.2009 173.194 49.7178 174.452C50.9926 173.328 52.6194 172.682 54.3186 172.627C54.5638 172.591 54.8139 172.612 55.0498 172.688C55.2857 172.764 55.5011 172.892 55.6794 173.065C56.1384 173.648 55.7334 174.501 55.2474 175.057C53.7948 176.677 50.3874 177.12 48.2274 176.974" fill="#E0E0E0"/>
<path d="M55.701 179.528C50.4036 175.354 41.0886 174.766 34.9542 177.574C28.026 180.743 23.4954 188.114 22.815 195.183C22.1724 201.895 25.407 208.683 28.161 214.866L54.9288 214.99C58.1688 209.682 61.479 203.747 61.7004 197.548C61.9218 191.349 60.5772 183.362 55.701 179.528Z" fill="#EBEBEB"/>
<path d="M43.6968 175.846L43.578 175.878L43.227 175.964L42.687 176.089C42.4257 176.131 42.169 176.198 41.9202 176.288C40.298 176.75 38.7647 177.48 37.3842 178.448C35.3495 179.905 33.5997 181.722 32.2218 183.811C31.4105 185.043 30.6887 186.331 30.0618 187.666C29.4033 189.108 28.8475 190.595 28.3986 192.116C27.5677 195.067 27.4127 198.168 27.945 201.188C28.3745 203.663 29.0399 206.092 29.9322 208.44C30.672 210.443 31.3362 212.047 31.7736 213.165C31.9842 213.705 32.1516 214.137 32.2704 214.45C32.3244 214.585 32.3622 214.699 32.3946 214.79L32.4324 214.904C32.4324 214.904 32.4054 214.871 32.373 214.796L32.2272 214.472C32.0922 214.164 31.914 213.737 31.6872 213.203C31.2228 212.123 30.537 210.503 29.7702 208.499C28.8413 206.16 28.1449 203.734 27.6912 201.258C27.1373 198.205 27.2868 195.065 28.1286 192.078C28.582 190.546 29.1432 189.049 29.808 187.596C30.4462 186.251 31.1808 184.953 32.0058 183.713C33.4051 181.601 35.1872 179.77 37.26 178.313C38.6638 177.346 40.2238 176.628 41.8716 176.191C42.1301 176.121 42.3937 176.07 42.66 176.04L43.2378 175.937L43.5888 175.883L43.6968 175.846Z" fill="#E0E0E0"/>
<path d="M51.4944 214.774C51.5223 214.637 51.5639 214.503 51.6186 214.375L52.0182 213.246C52.3692 212.269 52.8822 210.848 53.4816 209.088C54.081 207.328 54.756 205.222 55.3392 202.835C55.9949 200.249 56.3947 197.604 56.5326 194.94C56.6452 192.281 56.3686 189.619 55.7118 187.04C55.1818 184.933 54.3351 182.92 53.2008 181.067C52.4356 179.821 51.5157 178.676 50.463 177.66C50.1066 177.282 49.7772 177.044 49.5828 176.855C49.4717 176.768 49.3687 176.67 49.275 176.564C49.3942 176.638 49.5079 176.721 49.6152 176.812C49.8204 176.99 50.1552 177.217 50.5332 177.584C51.6163 178.589 52.5639 179.731 53.352 180.981C54.519 182.839 55.3915 184.866 55.9386 186.991C56.6135 189.591 56.8974 192.278 56.781 194.962C56.6443 197.636 56.2372 200.291 55.566 202.883C54.9666 205.276 54.27 207.387 53.649 209.142C53.028 210.897 52.488 212.312 52.11 213.3C51.921 213.77 51.7752 214.142 51.6672 214.418C51.6176 214.54 51.5598 214.659 51.4944 214.774Z" fill="#E0E0E0"/>
<path d="M46.3212 176.002C46.2991 176.135 46.2648 176.265 46.2186 176.391L45.8676 177.503C45.711 177.979 45.5274 178.583 45.3276 179.258C45.1278 179.933 44.874 180.722 44.6418 181.591C44.1396 183.325 43.6158 185.404 43.0866 187.726C42.5574 190.048 42.0768 192.623 41.6664 195.345C41.256 198.067 41.0076 200.675 40.8456 203.051C40.7862 204.239 40.7052 205.367 40.6944 206.431C40.6944 206.971 40.6944 207.468 40.662 207.959C40.6296 208.451 40.662 208.926 40.662 209.374C40.662 210.276 40.6998 211.091 40.7214 211.804C40.743 212.517 40.7754 213.138 40.8132 213.64C40.851 214.142 40.8672 214.515 40.8834 214.801C40.8953 214.936 40.8953 215.071 40.8834 215.206C40.8562 215.074 40.8382 214.941 40.8294 214.807C40.797 214.52 40.7592 214.132 40.7106 213.651C40.662 213.17 40.608 212.528 40.5756 211.815C40.5432 211.102 40.4838 210.281 40.4784 209.38C40.4784 208.926 40.4784 208.456 40.4784 207.959C40.4784 207.463 40.4784 206.955 40.4784 206.426C40.4784 205.346 40.554 204.228 40.608 203.035C40.7592 200.653 41.013 198.034 41.4126 195.307C41.8122 192.58 42.3306 190.004 42.8544 187.677C43.3782 185.35 43.9344 183.271 44.4744 181.543C44.7228 180.673 44.9766 179.896 45.198 179.215C45.4194 178.535 45.6084 177.946 45.7812 177.471C45.954 176.996 46.0782 176.65 46.1754 176.391C46.2137 176.258 46.2624 176.128 46.3212 176.002Z" fill="#E0E0E0"/>
<path d="M23.6682 197.316C23.1009 197.715 22.4859 198.042 21.8376 198.288C21.2252 198.613 20.5762 198.863 19.9044 199.033C20.4726 198.636 21.0874 198.309 21.735 198.061C22.3478 197.738 22.9967 197.487 23.6682 197.316Z" fill="#E0E0E0"/>
<path d="M24.516 189.626C23.8112 189.363 23.1375 189.022 22.5072 188.611C21.836 188.274 21.2055 187.861 20.628 187.38C21.3328 187.644 22.0064 187.984 22.6368 188.395C23.308 188.733 23.9385 189.146 24.516 189.626Z" fill="#E0E0E0"/>
<path d="M29.403 183.276C29.0363 182.794 28.7383 182.263 28.5174 181.699C28.2196 181.173 27.9978 180.608 27.8586 180.02C28.2245 180.5 28.5225 181.029 28.7442 181.591C29.0388 182.12 29.2604 182.687 29.403 183.276Z" fill="#E0E0E0"/>
<path d="M36.1098 177.277C35.7301 176.971 35.4019 176.606 35.1378 176.197C34.8155 175.83 34.5564 175.412 34.371 174.96C34.7537 175.263 35.0823 175.628 35.343 176.04C35.6688 176.404 35.9283 176.823 36.1098 177.277Z" fill="#E0E0E0"/>
<path d="M26.703 206.712C26.127 207.165 25.5022 207.553 24.84 207.868C24.2143 208.255 23.5456 208.569 22.8474 208.802C23.4257 208.346 24.0544 207.958 24.7212 207.646C25.3429 207.258 26.0081 206.945 26.703 206.712Z" fill="#E0E0E0"/>
<path d="M34.695 202.036C34.0922 201.837 33.517 201.563 32.9832 201.22C32.4112 200.945 31.8776 200.596 31.3956 200.183C31.9995 200.379 32.575 200.653 33.1074 200.999C33.6807 201.272 34.2146 201.62 34.695 202.036Z" fill="#E0E0E0"/>
<path d="M36.9198 191.344C36.4321 191.743 35.8733 192.048 35.2728 192.24C34.7056 192.506 34.0941 192.665 33.4692 192.71C34.0177 192.425 34.5906 192.19 35.181 192.008C35.7415 191.739 36.323 191.517 36.9198 191.344Z" fill="#E0E0E0"/>
<path d="M39.4632 183.287C39.1307 182.913 38.892 182.465 38.7666 181.98C38.5629 181.524 38.4739 181.025 38.5074 180.527C38.721 180.966 38.8893 181.426 39.0096 181.899C39.2076 182.345 39.3596 182.81 39.4632 183.287Z" fill="#E0E0E0"/>
<path d="M33.7878 212.522C33.95 211.895 34.1913 211.291 34.506 210.724C34.7498 210.124 35.0673 209.556 35.451 209.034C35.2947 209.663 35.053 210.268 34.7328 210.832C34.4946 211.435 34.1768 212.004 33.7878 212.522Z" fill="#E0E0E0"/>
<path d="M47.2824 209.655C46.6753 209.292 46.1437 208.815 45.7164 208.251C45.23 207.743 44.8435 207.147 44.577 206.496C45.05 207.012 45.4952 207.553 45.9108 208.116C46.3937 208.605 46.8515 209.119 47.2824 209.655Z" fill="#E0E0E0"/>
<path d="M51.9588 197.888C51.3824 198.361 50.7558 198.768 50.0904 199.103C49.4662 199.509 48.7977 199.843 48.0978 200.097C48.6731 199.623 49.2998 199.216 49.9662 198.882C50.5888 198.473 51.2577 198.14 51.9588 197.888Z" fill="#E0E0E0"/>
<path d="M48.8106 190.647C49.2304 190.079 49.7162 189.562 50.2578 189.108C50.7429 188.594 51.2866 188.139 51.8778 187.753C51.4577 188.321 50.9719 188.837 50.4306 189.292C49.9454 189.805 49.4017 190.26 48.8106 190.647Z" fill="#E0E0E0"/>
<path d="M48.951 182.968C48.4145 182.692 47.9184 182.343 47.4768 181.931C46.9829 181.584 46.5395 181.169 46.1592 180.7C46.6965 180.975 47.1927 181.324 47.6334 181.737C48.1273 182.085 48.5707 182.499 48.951 182.968Z" fill="#E0E0E0"/>
<path d="M57.8718 177.887C57.4356 178.312 56.9432 178.675 56.4084 178.967C55.9131 179.34 55.3677 179.642 54.7884 179.863C55.2239 179.43 55.7162 179.057 56.2518 178.756C56.7492 178.393 57.2944 178.101 57.8718 177.887Z" fill="#E0E0E0"/>
<path d="M61.3116 184.923C60.8167 185.085 60.2987 185.165 59.778 185.161C59.2665 185.244 58.745 185.244 58.2336 185.161C58.7272 185.001 59.243 184.921 59.7618 184.923C60.2753 184.843 60.798 184.843 61.3116 184.923Z" fill="#E0E0E0"/>
<path d="M63.5526 193.25C62.9026 193.308 62.2479 193.286 61.6032 193.185C60.9497 193.164 60.3017 193.059 59.6754 192.872C60.3254 192.814 60.98 192.836 61.6248 192.937C62.2783 192.957 62.9263 193.062 63.5526 193.25Z" fill="#E0E0E0"/>
<path d="M62.4402 203.98C61.7882 203.503 61.1874 202.96 60.6474 202.36C60.0479 201.811 59.5051 201.203 59.0274 200.545C59.6783 201.023 60.279 201.566 60.8202 202.165C61.4205 202.713 61.9634 203.321 62.4402 203.98Z" fill="#E0E0E0"/>
<path d="M59.5134 212.247C58.1818 211.209 57.088 209.898 56.3058 208.402C56.3652 208.359 57.0132 209.277 57.9258 210.335C58.8384 211.394 59.562 212.22 59.5134 212.247Z" fill="#E0E0E0"/>
<path d="M63.2934 214.45H20.5308V222.032H63.2934V214.45Z" fill="#EBEBEB"/>
<path d="M24.0408 220.082L29.241 242.735H54.729L60.4152 220.082H24.0408Z" fill="#EBEBEB"/>
<path d="M63.2718 222.043C63.2718 222.124 53.6274 222.194 41.7312 222.194C29.835 222.194 20.1852 222.124 20.1852 222.043C20.1852 221.962 29.8296 221.891 41.7312 221.891C53.6328 221.891 63.2718 221.94 63.2718 222.043Z" fill="#E0E0E0"/>
<path d="M179.669 122.872C179.345 117.79 177.206 112.941 174.209 108.832C172.703 106.758 170.926 104.744 170.386 102.238C169.673 98.901 171.256 95.0724 169.43 92.1834C168.151 90.1476 165.548 89.3052 164.09 87.3936C162.518 85.3416 162.556 82.5066 161.627 80.0982C160.699 77.6898 157.567 75.6162 155.65 77.355C155.282 72.8136 156.017 70.2648 152.145 67.8726C148.273 65.4804 140.638 66.636 139.153 70.9398C135.859 68.1858 129.838 65.5398 126.052 67.5594C123.719 68.8122 121.932 70.8642 119.761 72.387C116.397 74.7414 112.288 75.7188 108.524 77.3766C104.76 79.0344 101.039 81.783 100.165 85.8006C99.522 88.7652 100.559 91.881 100.013 94.8618C99.549 97.3728 98.0154 99.5274 96.8382 101.79C95.8499 103.686 95.0956 105.695 94.5918 107.773C93.609 111.823 94.1544 117.045 97.9344 118.8C96.5711 119.189 95.3882 120.046 94.593 121.219C93.7979 122.393 93.4412 123.809 93.5854 125.22C93.7297 126.63 94.3657 127.945 95.382 128.933C96.3984 129.922 97.7302 130.521 99.144 130.626L92.7774 142.166C92.1888 143.246 91.5786 144.412 91.7784 145.616C92.0592 147.296 93.879 148.354 95.5584 148.37C97.2378 148.387 98.8578 147.625 100.381 146.88C100.917 147.882 101.722 148.715 102.705 149.285C103.688 149.856 104.81 150.142 105.946 150.112C107.082 150.082 108.188 149.736 109.139 149.114C110.09 148.492 110.849 147.617 111.332 146.588C111.974 147.773 112.923 148.764 114.079 149.456C115.236 150.149 116.557 150.518 117.904 150.525C119.252 150.532 120.577 150.177 121.741 149.497C122.904 148.817 123.864 147.836 124.519 146.659L150.374 140.719L169.868 138.92C172.697 138.656 175.851 138.218 177.584 135.972C178.708 134.509 178.967 132.575 179.204 130.745C179.598 128.14 179.753 125.505 179.669 122.872Z" fill="#263238"/>
<path d="M134.525 194.4L122.04 161.276L128.52 154.796L128.266 152.712C127.559 147.501 127.3 145.363 127.3 145.411C127.3 145.46 116.068 144.941 112.018 130.864C110.003 123.844 108.918 112.104 108.34 102.46C107.8 93.7764 112.228 82.4796 120.922 82.3554L148.565 85.8276C149.839 85.8046 151.075 86.2607 152.029 87.1057C152.983 87.9507 153.585 89.123 153.716 90.3906L158.506 148.5L162.173 151.637L166.59 191.884L134.525 194.4Z" fill="#B47266"/>
<path d="M114.696 113.659C114.754 114.136 114.996 114.572 115.37 114.875C115.744 115.177 116.221 115.322 116.699 115.279C116.936 115.27 117.168 115.213 117.382 115.112C117.596 115.011 117.788 114.868 117.946 114.692C118.104 114.516 118.226 114.31 118.303 114.086C118.38 113.862 118.411 113.625 118.395 113.389C118.335 112.913 118.093 112.478 117.72 112.175C117.346 111.873 116.87 111.728 116.392 111.769C116.155 111.779 115.924 111.837 115.71 111.938C115.496 112.039 115.304 112.182 115.146 112.358C114.989 112.534 114.867 112.74 114.79 112.963C114.713 113.187 114.681 113.423 114.696 113.659Z" fill="#263238"/>
<path d="M133.11 112.093C133.168 112.57 133.41 113.006 133.784 113.309C134.158 113.611 134.635 113.756 135.113 113.713C135.35 113.703 135.582 113.645 135.796 113.544C136.01 113.443 136.201 113.299 136.359 113.122C136.516 112.946 136.637 112.739 136.713 112.515C136.79 112.291 136.82 112.054 136.804 111.818C136.748 111.34 136.508 110.904 136.134 110.601C135.761 110.298 135.284 110.154 134.806 110.198C134.569 110.207 134.336 110.264 134.121 110.366C133.907 110.467 133.715 110.61 133.557 110.787C133.399 110.963 133.278 111.17 133.201 111.395C133.124 111.619 133.093 111.857 133.11 112.093Z" fill="#263238"/>
<path d="M111.65 109.188C111.91 109.399 113.173 108.194 115.16 107.957C117.148 107.719 118.714 108.529 118.903 108.259C118.994 108.14 118.708 107.719 118.017 107.352C117.085 106.863 116.025 106.674 114.982 106.812C113.951 106.933 112.986 107.382 112.228 108.092C111.677 108.637 111.526 109.08 111.65 109.188Z" fill="#263238"/>
<path d="M131.344 107.568C131.603 107.779 132.872 106.574 134.854 106.337C136.836 106.099 138.407 106.909 138.596 106.639C138.688 106.52 138.402 106.099 137.711 105.732C136.779 105.243 135.719 105.054 134.676 105.192C133.646 105.316 132.681 105.764 131.922 106.472C131.371 107.017 131.22 107.46 131.344 107.568Z" fill="#263238"/>
<path d="M125.82 121.775C125.82 121.662 124.562 121.597 122.531 121.592C121.991 121.592 121.527 121.559 121.397 121.225C121.293 120.706 121.348 120.168 121.554 119.68L122.575 115.646C123.979 109.901 124.924 105.208 124.691 105.149C124.459 105.089 123.136 109.706 121.732 115.452C121.403 116.867 121.084 118.211 120.776 119.502C120.658 120.101 120.409 120.793 120.776 121.522C120.872 121.691 121.005 121.836 121.165 121.946C121.325 122.057 121.508 122.129 121.7 122.159C121.99 122.196 122.284 122.196 122.575 122.159C124.556 122.04 125.82 121.889 125.82 121.775Z" fill="#263238"/>
<path d="M127.316 145.395C134.091 144.664 140.531 142.068 145.919 137.894C145.919 137.894 142.317 148.5 127.775 148.927L127.316 145.395Z" fill="#89544C"/>
<path d="M129.227 100.267C129.487 100.78 131.436 100.267 133.796 100.267C136.156 100.267 138.116 100.667 138.359 100.143C138.472 99.8946 138.083 99.4302 137.279 99.0036C136.193 98.4749 134.997 98.2138 133.79 98.2422C132.582 98.2463 131.392 98.5369 130.318 99.09C129.487 99.5436 129.109 100.019 129.227 100.267Z" fill="#263238"/>
<path d="M111.375 102.244C111.78 102.649 113.087 102.017 114.728 101.79C116.37 101.563 117.796 101.72 118.055 101.212C118.168 100.964 117.893 100.537 117.234 100.186C116.353 99.7734 115.368 99.6325 114.406 99.7816C113.445 99.9307 112.549 100.363 111.834 101.023C111.326 101.558 111.197 102.06 111.375 102.244Z" fill="#263238"/>
<path d="M152.145 108.34C152.329 108.221 159.797 104.733 160.785 112.752C161.773 120.771 153.49 120.091 153.446 119.88C153.403 119.669 152.145 108.34 152.145 108.34Z" fill="#B47266"/>
<path d="M155.52 116.532C155.552 116.5 155.671 116.613 155.92 116.689C156.269 116.792 156.645 116.755 156.967 116.586C157.777 116.17 158.328 114.739 158.188 113.292C158.127 112.601 157.911 111.933 157.556 111.337C157.451 111.096 157.289 110.884 157.084 110.719C156.879 110.555 156.637 110.442 156.379 110.392C156.212 110.371 156.043 110.407 155.901 110.496C155.758 110.584 155.65 110.719 155.596 110.878C155.52 111.116 155.596 111.267 155.547 111.289C155.498 111.31 155.358 111.175 155.385 110.835C155.402 110.63 155.492 110.439 155.639 110.295C155.737 110.198 155.853 110.122 155.981 110.071C156.109 110.02 156.246 109.995 156.384 109.998C156.725 110.021 157.053 110.133 157.338 110.323C157.622 110.512 157.851 110.772 158.004 111.078C158.43 111.725 158.689 112.467 158.76 113.238C158.906 114.858 158.263 116.478 157.14 116.948C156.932 117.037 156.706 117.078 156.48 117.067C156.254 117.057 156.033 116.996 155.833 116.888C155.569 116.721 155.52 116.548 155.52 116.532Z" fill="#89544C"/>
<path d="M159.257 118.832C159.257 118.865 159.478 118.903 159.824 119.097C160.304 119.381 160.682 119.81 160.904 120.323C161.077 120.688 161.15 121.092 161.115 121.494C161.081 121.896 160.941 122.282 160.709 122.612C160.426 123.016 160.038 123.335 159.587 123.534C159.136 123.733 158.639 123.805 158.15 123.741C157.706 123.654 157.288 123.466 156.931 123.189C156.573 122.913 156.284 122.557 156.088 122.149C155.892 121.742 155.794 121.294 155.801 120.842C155.808 120.39 155.921 119.946 156.13 119.545C156.386 119.042 156.756 118.606 157.21 118.271C157.399 118.166 157.579 118.047 157.75 117.914C157.535 117.949 157.331 118.03 157.151 118.152C156.64 118.463 156.219 118.902 155.93 119.426C155.705 119.817 155.567 120.253 155.527 120.702C155.486 121.152 155.545 121.605 155.698 122.029C155.886 122.556 156.208 123.024 156.632 123.388C157.056 123.751 157.568 123.998 158.117 124.103C158.674 124.178 159.24 124.095 159.753 123.866C160.265 123.636 160.703 123.267 161.017 122.801C161.295 122.395 161.447 121.916 161.455 121.424C161.454 121.002 161.354 120.586 161.163 120.209C160.901 119.663 160.456 119.225 159.905 118.973C159.707 118.864 159.482 118.815 159.257 118.832Z" fill="#455A64"/>
<path d="M159.084 133.326C159.121 133.319 159.16 133.319 159.197 133.326L159.511 133.358C159.923 133.385 160.337 133.376 160.747 133.331C162.303 133.147 163.77 132.508 164.965 131.495C166.768 129.89 168.032 127.766 168.583 125.415C168.971 123.998 169.153 122.532 169.123 121.063C169.099 119.444 168.67 117.856 167.875 116.446L167.843 116.392L167.87 116.332C168.434 115.112 168.746 113.79 168.79 112.446C168.833 111.102 168.605 109.763 168.12 108.509C167.636 107.255 166.904 106.111 165.969 105.145C165.033 104.179 163.913 103.411 162.675 102.886L162.464 102.794L162.643 102.643C163.005 102.35 163.3 101.981 163.507 101.563C163.996 100.51 164.059 99.3088 163.685 98.2098C163.309 97.1337 162.723 96.1426 161.962 95.2938C161.264 94.4357 160.412 93.7144 159.451 93.1662C158.542 92.6147 157.46 92.4222 156.416 92.6262L156.103 92.7018L156.271 92.4264C156.787 91.5924 157.041 90.6232 157.003 89.6432C156.964 88.6633 156.633 87.7173 156.052 86.9268C155.472 86.1363 154.669 85.5373 153.745 85.2067C152.822 84.8761 151.821 84.8291 150.871 85.0716L150.687 85.1202L150.741 84.9366C151.025 83.9387 151.066 82.8872 150.859 81.8704C150.652 80.8537 150.204 79.9015 149.553 79.0938C149.266 78.7582 148.938 78.4606 148.576 78.2082C148.242 77.9803 147.878 77.7987 147.496 77.6682C146.814 77.4331 146.091 77.3466 145.373 77.4144C144.796 77.4665 144.232 77.6162 143.705 77.8572C143.323 78.0394 142.969 78.2738 142.652 78.5538C142.4 78.8001 142.167 79.0655 141.955 79.3476C141.996 79.2684 142.043 79.1926 142.096 79.1208C142.241 78.8971 142.413 78.6921 142.609 78.5106C142.93 78.2113 143.294 77.962 143.689 77.7708C144.221 77.5171 144.792 77.3563 145.379 77.2956C146.116 77.2119 146.863 77.2912 147.566 77.5278C147.967 77.6548 148.348 77.8365 148.7 78.0678C149.076 78.3268 149.419 78.6315 149.72 78.975C150.398 79.803 150.866 80.7818 151.086 81.8287C151.306 82.8756 151.271 83.96 150.984 84.9906L150.849 84.8556C151.844 84.6055 152.891 84.6575 153.856 85.0049C154.821 85.3524 155.661 85.9796 156.269 86.8065C156.876 87.6333 157.223 88.6224 157.266 89.6474C157.308 90.6724 157.045 91.6869 156.508 92.5614L156.362 92.3616C157.472 92.1363 158.626 92.3286 159.602 92.9016C160.595 93.4657 161.473 94.2091 162.194 95.094C162.98 95.969 163.584 96.9914 163.971 98.1018C164.372 99.2698 164.303 100.548 163.777 101.666C163.556 102.124 163.237 102.528 162.842 102.848L162.81 102.611C164.083 103.147 165.235 103.935 166.196 104.927C167.157 105.919 167.908 107.095 168.404 108.385C168.9 109.674 169.13 111.05 169.081 112.431C169.032 113.811 168.704 115.168 168.118 116.419V116.305C168.935 117.751 169.37 119.381 169.382 121.041C169.406 122.532 169.212 124.018 168.804 125.453C168.234 127.84 166.931 129.989 165.078 131.598C163.851 132.618 162.346 133.244 160.758 133.396C160.343 133.436 159.925 133.436 159.511 133.396L159.192 133.342L159.084 133.326Z" fill="#455A64"/>
<path d="M156.411 104.463C156.2 99.0252 155.968 93.474 154.019 88.3926C153.645 87.2151 152.978 86.1521 152.08 85.3038C151.277 84.7036 150.358 84.2786 149.38 84.0564C147.874 83.6298 147.463 82.6092 145.903 82.4958C139.963 77.4468 131.436 75.7188 123.908 77.7492C116.381 79.7796 109.971 85.4226 106.72 92.5128C103.521 99.7291 103.288 107.914 106.072 115.301C105.57 109.523 109.231 104.107 113.719 100.429C118.206 96.7518 123.574 94.311 128.299 90.9792C128.256 91.7833 128.042 92.5689 127.669 93.2826C127.296 93.9963 126.774 94.6215 126.139 95.1156C129.886 94.1112 133.699 93.0852 137.074 91.2168C137.834 90.8022 138.568 90.3405 139.271 89.8344C139.347 90.7167 139.591 91.5764 139.99 92.367C141.259 94.8564 143.98 96.1848 146.054 98.0586C146.324 98.2702 146.54 98.542 146.686 98.8524C146.816 99.3651 146.78 99.9058 146.583 100.397C146.053 102.013 145.869 103.722 146.043 105.413C146.297 107.087 147.236 108.734 148.743 109.463C148.181 110.347 147.91 111.384 147.966 112.43C148.022 113.475 148.403 114.477 149.056 115.295C149.232 115.545 149.49 115.725 149.785 115.803C150.277 115.873 150.687 115.447 150.968 115.036C151.797 113.841 152.365 112.485 152.636 111.056C152.677 110.448 152.862 109.857 153.176 109.334C153.716 108.648 154.721 108.508 155.385 107.93C156.433 107.114 156.46 105.7 156.411 104.463Z" fill="#263238"/>
<path d="M114.178 91.8972C114.202 91.7594 114.238 91.6239 114.286 91.4922C114.425 91.1133 114.606 90.7511 114.826 90.4122C115.614 89.1451 116.856 88.226 118.298 87.8418L118.217 87.939C118.301 87.1582 118.462 86.3877 118.697 85.6386C118.972 84.8003 119.334 83.9931 119.777 83.2302C120.806 81.5155 122.244 80.0831 123.962 79.0614C124.731 78.5933 125.56 78.2301 126.425 77.9814C126.853 77.8712 127.297 77.8383 127.737 77.8842C128.181 77.9305 128.592 78.1426 128.887 78.4782H128.677C129.649 77.2225 130.898 76.208 132.327 75.5136C133.601 74.8818 134.93 74.6172 135.961 74.925C136.364 75.0351 136.736 75.2394 137.045 75.5211C137.353 75.8027 137.591 76.1536 137.738 76.545C137.811 76.7531 137.845 76.9726 137.84 77.193C137.843 77.2682 137.832 77.3432 137.808 77.4144C137.807 77.1282 137.754 76.8446 137.651 76.5774C137.495 76.2153 137.257 75.8941 136.956 75.6385C136.656 75.3829 136.301 75.1998 135.918 75.1032C134.935 74.8332 133.666 75.1032 132.43 75.735C131.043 76.4287 129.832 77.4275 128.887 78.6564L128.785 78.786L128.682 78.6618C128.196 78.0786 127.283 78.0624 126.49 78.2622C125.652 78.5017 124.85 78.8503 124.103 79.299C122.426 80.3008 121.019 81.6966 120.004 83.3652C119.563 84.1082 119.201 84.8955 118.924 85.7142C118.685 86.4451 118.517 87.1974 118.422 87.9606V88.02H118.352C116.948 88.3767 115.727 89.2405 114.923 90.4446C114.633 90.9063 114.383 91.3923 114.178 91.8972Z" fill="#455A64"/>
<path d="M104.431 140.2L104.296 140.405L103.864 141.016L103.831 141.059V141.005C103.256 139.263 102.966 137.439 102.973 135.605C102.972 132.348 103.857 129.153 105.532 126.36L105.581 126.511C104.523 126.012 103.628 125.225 102.997 124.24C102.365 123.256 102.024 122.113 102.011 120.944C101.996 120.308 102.091 119.674 102.292 119.07C102.405 118.783 102.492 118.487 102.551 118.184C102.57 118.042 102.558 117.896 102.516 117.759C102.474 117.621 102.403 117.494 102.308 117.385C102.093 117.15 101.86 116.932 101.612 116.732C101.361 116.51 101.123 116.274 100.899 116.024C100.445 115.515 100.047 114.96 99.711 114.367C98.8178 112.774 98.4199 110.951 98.568 109.131C98.7161 107.311 99.4036 105.577 100.543 104.15C100.778 103.851 101.032 103.568 101.304 103.302C101.574 103.043 101.844 102.789 101.844 102.47C101.788 102.112 101.688 101.762 101.547 101.428C101.42 101.063 101.317 100.689 101.239 100.31C101.073 99.5459 100.994 98.7652 101.002 97.983C100.998 96.3324 101.354 94.7008 102.044 93.2014C102.734 91.702 103.742 90.3707 104.998 89.2998C105.602 88.7868 106.283 88.3818 106.58 87.6798C106.725 87.3314 106.835 86.9697 106.909 86.5998C107.006 86.2272 107.131 85.86 107.239 85.4928C107.741 84.0786 108.509 82.7736 109.501 81.648C111.333 79.5424 113.795 78.0841 116.521 77.49C117.749 77.2454 119.007 77.1836 120.253 77.3064C120.53 77.3301 120.808 77.2778 121.057 77.1552C121.284 76.9976 121.494 76.8166 121.684 76.6152L122.31 76.0266L122.963 75.4866C123.8 74.8568 124.706 74.3242 125.663 73.899C126.521 73.5283 127.412 73.2426 128.326 73.0458C129.785 72.7211 131.289 72.639 132.775 72.8028C133.717 72.9134 134.645 73.127 135.54 73.44L136.22 73.71L136.453 73.8126L136.21 73.737L135.524 73.494C134.628 73.2236 133.707 73.0427 132.775 72.954C131.301 72.8124 129.813 72.909 128.369 73.2402C127.47 73.4446 126.593 73.7339 125.75 74.1042C124.808 74.5311 123.917 75.0618 123.093 75.6864L122.456 76.2264L121.84 76.8096C121.641 77.0315 121.416 77.2291 121.171 77.3982C120.889 77.5433 120.573 77.6069 120.258 77.5818C119.95 77.5818 119.653 77.5386 119.351 77.5386C119.049 77.5197 118.746 77.5197 118.444 77.5386C117.817 77.5705 117.195 77.65 116.581 77.7762C113.914 78.3738 111.508 79.8102 109.717 81.8748C108.747 82.9818 107.999 84.2652 107.514 85.6548C107.411 86.0112 107.287 86.3676 107.195 86.7348C107.116 87.1192 107 87.4953 106.85 87.858C106.51 88.6356 105.77 89.0676 105.192 89.5644C103.97 90.6107 102.99 91.9095 102.319 93.3713C101.648 94.8331 101.301 96.4231 101.304 98.0316C101.297 98.7939 101.375 99.5546 101.536 100.3C101.613 100.666 101.714 101.027 101.839 101.38C101.993 101.743 102.097 102.127 102.146 102.519C102.112 102.723 102.037 102.918 101.927 103.093C101.817 103.269 101.673 103.42 101.504 103.54C101.242 103.799 100.995 104.073 100.764 104.36C99.4501 106.012 98.763 108.076 98.8243 110.186C98.8856 112.296 99.6913 114.316 101.099 115.889C101.314 116.133 101.543 116.364 101.785 116.581C102.045 116.788 102.287 117.017 102.508 117.266C102.624 117.401 102.711 117.559 102.762 117.729C102.813 117.899 102.828 118.078 102.805 118.255C102.745 118.574 102.653 118.887 102.53 119.189C102.338 119.765 102.245 120.369 102.254 120.976C102.26 122.106 102.583 123.211 103.186 124.166C103.79 125.12 104.649 125.886 105.667 126.376L105.775 126.425L105.716 126.527C104.789 128.034 104.097 129.673 103.664 131.387C102.848 134.577 102.921 137.929 103.874 141.08H103.826L104.274 140.486C104.32 140.388 104.372 140.292 104.431 140.2Z" fill="#455A64"/>
<path d="M152.572 68.8662C151.724 68.7581 150.872 68.6986 150.017 68.688C149.101 68.7031 148.199 68.9207 147.377 69.3252C146.371 69.8139 145.596 70.6762 145.217 71.7282C145.157 71.9186 145.114 72.1137 145.087 72.3114V72.441H144.963C143.912 72.4001 142.866 72.5957 141.901 73.0134C141.125 73.3584 140.456 73.9047 139.963 74.5956C139.63 75.0584 139.395 75.5838 139.271 76.14C139.19 76.5342 139.185 76.761 139.163 76.761C139.142 76.761 139.163 76.707 139.163 76.599C139.159 76.4401 139.168 76.2811 139.19 76.1238C139.279 75.5431 139.497 74.9896 139.828 74.5038C140.322 73.7658 141.009 73.1775 141.815 72.8028C142.812 72.3487 143.901 72.1342 144.995 72.1764L144.85 72.3006C144.876 72.086 144.923 71.8745 144.99 71.6688C145.382 70.5543 146.197 69.6388 147.258 69.12C148.12 68.7113 149.064 68.5044 150.017 68.5152C150.651 68.5171 151.282 68.5822 151.902 68.7096C152.131 68.7341 152.356 68.7867 152.572 68.8662Z" fill="#455A64"/>
<path d="M130.259 188.708L170.435 187.331L174.161 242.195L139.007 242.687L130.259 188.708Z" fill="#E0E0E0"/>
<path d="M161.525 147.96C162.065 147.274 192.029 167.6 193.385 170.03C194.74 172.46 201.96 242.692 201.96 242.692H162.815C162.815 242.692 159.219 184.847 159.408 179.512C159.597 174.177 161.525 147.96 161.525 147.96Z" fill="#B366FF"/>
<path d="M71.172 243C71.172 243 66.7548 233.912 67.2462 229.5C67.7376 225.088 71.172 216.238 71.172 216.238L80.0118 200.524C80.0118 200.524 81.783 187.429 82.7604 184.972C83.7378 182.515 88.9164 165.904 95.04 162C101.164 158.096 119.783 155.417 119.783 155.417L128.029 149.294C128.029 149.294 136.231 173.513 137.457 180.144C138.683 186.775 145.557 243 145.557 243H71.172Z" fill="#B366FF"/>
<path d="M140.103 200.756C140.067 200.721 140.036 200.681 140.011 200.637L139.757 200.286L138.818 198.904L135.405 193.806C133.969 191.646 132.268 189.07 130.372 186.246L127.413 181.764C126.398 180.214 125.296 178.524 124.924 176.537C124.726 175.343 124.795 174.121 125.123 172.957C125.426 171.852 125.805 170.769 126.257 169.717L126.425 169.895L121.025 171.774L120.874 171.823V171.661C120.512 166.957 120.209 162.994 119.993 160.18C119.896 158.798 119.821 157.702 119.767 156.94C119.767 156.578 119.729 156.298 119.718 156.082C119.71 155.983 119.71 155.883 119.718 155.785C119.741 155.88 119.755 155.978 119.761 156.076C119.761 156.292 119.815 156.573 119.853 156.935C119.923 157.707 120.02 158.803 120.15 160.175C120.388 162.983 120.728 166.946 121.127 171.65L120.96 171.542L126.36 169.641L126.641 169.544L126.533 169.825C126.086 170.865 125.713 171.935 125.415 173.027C125.097 174.152 125.03 175.334 125.221 176.488C125.577 178.411 126.657 180.063 127.661 181.613C128.666 183.163 129.67 184.669 130.61 186.106L135.594 193.72L138.931 198.871L139.828 200.281L140.054 200.648C140.081 200.707 140.108 200.75 140.103 200.756Z" fill="#263238"/>
<path d="M111.861 241.817C111.834 241.765 111.816 241.708 111.807 241.65L111.677 241.153C111.569 240.694 111.418 240.073 111.218 239.231C110.835 237.546 110.284 235.132 109.598 232.157C108.281 226.157 106.466 217.901 104.458 208.78L99.36 185.387C98.7012 182.407 98.172 179.987 97.7994 178.303C97.623 177.478 97.4826 176.836 97.3782 176.375C97.335 176.164 97.3026 175.997 97.2756 175.873C97.267 175.814 97.267 175.753 97.2756 175.694C97.2756 175.694 97.2756 175.754 97.3242 175.862C97.3728 175.97 97.4052 176.153 97.4538 176.359C97.5672 176.818 97.7292 177.439 97.929 178.276C98.3286 179.944 98.8956 182.358 99.549 185.344C100.91 191.317 102.735 199.584 104.722 208.721C106.709 217.858 108.502 226.114 109.782 232.114C110.419 235.1 110.943 237.514 111.305 239.209C111.478 240.035 111.618 240.678 111.715 241.137C111.753 241.348 111.785 241.515 111.812 241.645C111.839 241.774 111.861 241.817 111.861 241.817Z" fill="#263238"/>
<g opacity="0.3">
<path d="M108.308 242.195C112.279 239.841 116.74 238.437 121.343 238.091C124.88 237.832 128.531 238.194 131.906 237.098C135.686 235.872 138.661 232.978 141.485 230.17C142.317 229.462 142.97 228.569 143.392 227.561C143.732 226.53 143.446 225.207 142.479 224.71C141.734 224.327 140.832 224.527 140.022 224.753C128.109 228.047 117.064 233.919 107.671 241.952" fill="black"/>
</g>
<path d="M97.8426 221.94C97.8426 221.94 97.6266 221.638 97.254 221.081C96.7228 220.305 96.1401 219.566 95.5098 218.867C93.4439 216.537 90.8517 214.734 87.9487 213.607C85.0456 212.479 81.9155 212.062 78.8184 212.387C77.882 212.479 76.9528 212.634 76.0374 212.852C75.7034 212.949 75.3645 213.028 75.0222 213.089C75.1008 213.042 75.1865 213.007 75.276 212.987C75.4434 212.927 75.6864 212.836 76.0104 212.749C76.9225 212.492 77.8546 212.311 78.7968 212.209C81.928 211.825 85.1055 212.22 88.0474 213.359C90.9892 214.498 93.6045 216.346 95.661 218.738C96.2836 219.454 96.847 220.22 97.3458 221.027C97.5294 221.314 97.6428 221.567 97.7292 221.697C97.8156 221.827 97.8534 221.94 97.8426 221.94Z" fill="#263238"/>
<path d="M102.141 219.807C102.141 219.807 102.087 219.726 102.011 219.559L101.704 218.824C101.574 218.506 101.417 218.117 101.196 217.679C100.975 217.242 100.764 216.729 100.451 216.194L99.9864 215.347C99.8244 215.055 99.63 214.763 99.4464 214.456C99.0792 213.829 98.6148 213.208 98.1504 212.544C96.0435 209.706 93.4467 207.266 90.4824 205.34C89.7912 204.908 89.1432 204.487 88.5006 204.163C88.182 203.99 87.8796 203.812 87.5772 203.666L86.7024 203.256C86.1624 202.981 85.6224 202.792 85.1742 202.608C84.7899 202.441 84.397 202.295 83.997 202.171L83.2464 201.906C83.1566 201.881 83.0711 201.843 82.9926 201.793C83.0845 201.802 83.1751 201.822 83.2626 201.852L84.0294 202.063C84.4356 202.173 84.8357 202.305 85.2282 202.457C85.6872 202.635 86.2218 202.808 86.7834 203.078L87.669 203.472C87.9768 203.612 88.2846 203.791 88.6086 203.953C89.2674 204.277 89.9208 204.698 90.6228 205.119C92.117 206.088 93.5245 207.185 94.8294 208.397C96.1191 209.623 97.299 210.961 98.3556 212.393C98.8254 213.068 99.279 213.7 99.6462 214.331C99.8298 214.645 100.024 214.942 100.186 215.239L100.64 216.103C100.942 216.643 101.147 217.183 101.347 217.615C101.525 217.996 101.682 218.387 101.817 218.786L102.076 219.537C102.107 219.625 102.129 219.715 102.141 219.807Z" fill="#263238"/>
<path d="M183.789 193.752C183.796 193.791 183.796 193.832 183.789 193.871L183.713 194.233C183.638 194.567 183.535 195.021 183.4 195.599C183.125 196.781 182.72 198.499 182.261 200.626C181.016 206.156 180.305 211.792 180.139 217.458C180.057 220.574 180.279 223.69 180.803 226.762C181.222 229.273 181.893 231.735 182.806 234.112C183.423 235.712 184.161 237.263 185.015 238.75C185.312 239.29 185.582 239.674 185.738 239.949L185.927 240.262C185.949 240.298 185.967 240.336 185.981 240.376C185.981 240.376 185.949 240.349 185.9 240.278L185.69 239.981C185.517 239.711 185.231 239.333 184.923 238.804C184.027 237.331 183.258 235.785 182.623 234.182C181.671 231.801 180.971 229.327 180.533 226.8C179.986 223.716 179.747 220.584 179.82 217.453C179.984 211.769 180.724 206.117 182.029 200.583C182.509 198.455 182.947 196.749 183.254 195.572C183.411 194.999 183.535 194.551 183.622 194.216C183.665 194.076 183.697 193.963 183.724 193.865L183.789 193.752Z" fill="#263238"/>
<path d="M180.004 216.637C179.991 216.501 179.991 216.363 180.004 216.227C180.032 215.935 180.065 215.546 180.101 215.06C180.155 214.558 180.198 213.937 180.252 213.219C180.306 212.501 180.365 211.68 180.419 210.773C180.646 207.149 180.803 202.133 180.765 196.592C180.727 191.052 180.506 186.035 180.274 182.412C180.166 180.598 180.052 179.134 179.971 178.119C179.939 177.633 179.912 177.25 179.89 176.953C179.874 176.816 179.874 176.679 179.89 176.542C179.922 176.675 179.943 176.811 179.955 176.947C179.987 177.239 180.036 177.628 180.095 178.108C180.203 179.118 180.349 180.587 180.484 182.396C180.765 186.019 181.024 191.036 181.057 196.592C181.089 202.149 180.905 207.16 180.625 210.784C180.565 211.691 180.495 212.512 180.419 213.23C180.344 213.948 180.29 214.569 180.225 215.071C180.16 215.573 180.112 215.941 180.074 216.232C180.059 216.369 180.036 216.504 180.004 216.637Z" fill="#263238"/>
<path d="M168.788 165.931C168.772 166.087 168.734 166.24 168.674 166.385C168.506 166.802 168.239 167.173 167.897 167.465C167.357 167.936 166.7 168.253 165.996 168.383C165.071 168.542 164.129 168.584 163.193 168.507L163.22 168.313L166.844 169.209H166.946V169.306C166.595 172.859 166.077 177.115 165.326 181.656C164.317 187.893 163.069 193.482 162.086 197.5C161.579 199.503 161.141 201.123 160.823 202.235C160.666 202.775 160.542 203.197 160.445 203.51C160.405 203.66 160.356 203.808 160.299 203.953C160.315 203.799 160.346 203.647 160.391 203.499C160.472 203.175 160.58 202.748 160.72 202.203C161.001 201.085 161.411 199.46 161.897 197.451C162.848 193.428 164.057 187.839 165.073 181.613C165.78 177.12 166.32 172.854 166.698 169.312L166.79 169.436L163.172 168.502L163.204 168.307C164.124 168.394 165.05 168.368 165.964 168.232C166.648 168.116 167.29 167.824 167.827 167.384C168.167 167.11 168.438 166.76 168.62 166.363C168.745 166.088 168.772 165.931 168.788 165.931Z" fill="#263238"/>
<g opacity="0.3">
<path d="M98.7228 182.423C98.176 181.637 97.5005 180.948 96.7248 180.387C96.4594 180.156 96.1259 180.017 95.7747 179.992C95.4235 179.967 95.0738 180.057 94.7784 180.249C94.4831 180.441 94.2582 180.723 94.1378 181.054C94.0174 181.385 94.0081 181.746 94.1112 182.083C94.2511 182.683 94.4902 183.256 94.8186 183.778C98.2702 190.126 100.556 197.041 101.569 204.196C102.001 207.252 102.195 210.352 102.854 213.376C103.513 216.4 104.193 218.684 106.294 220.936L107.158 220.568C107.061 219.757 106.92 218.951 106.736 218.155C103.923 206.42 101.461 194.713 98.7228 182.423Z" fill="black"/>
</g>
<g opacity="0.3">
<path d="M98.2044 222.059C97.8318 219.251 96.0444 216.772 93.7818 215.039C91.5192 213.305 88.8192 212.339 86.1084 211.496C84.6609 210.992 83.1376 210.74 81.6048 210.751C80.0766 210.838 77.2146 211.491 76.3182 212.733C86.4324 210.346 93.7818 215.039 97.821 222.269" fill="black"/>
</g>
<g opacity="0.3">
<path d="M180.36 185.792C179.593 194.108 177.358 202.225 176.364 210.514C175.37 218.803 175.754 227.621 179.82 234.9C181.192 237.346 183.13 239.69 185.819 240.505C182.617 236.66 181.04 231.682 180.463 226.708C179.885 221.735 180.22 216.718 180.463 211.718C180.841 203.078 180.855 194.438 180.506 185.798" fill="black"/>
</g>
<path d="M99.9756 188.244C99.7635 188.36 99.5411 188.455 99.3114 188.53C98.6943 188.762 98.0651 188.96 97.4268 189.124C96.4811 189.362 95.5217 189.543 94.554 189.664C93.365 189.816 92.1669 189.884 90.9684 189.869C89.7705 189.837 88.5761 189.723 87.3936 189.529C86.4293 189.368 85.4768 189.142 84.5424 188.854C83.9112 188.668 83.291 188.446 82.6848 188.19C82.4584 188.107 82.2397 188.004 82.0314 187.882C82.2691 187.923 82.5012 187.992 82.7226 188.087C83.16 188.244 83.8026 188.449 84.5964 188.665C85.5319 188.918 86.48 189.122 87.4368 189.275C89.7814 189.641 92.1648 189.686 94.5216 189.41C95.4824 189.296 96.4361 189.128 97.3782 188.908C98.1828 188.719 98.8308 188.541 99.2736 188.401C99.5005 188.32 99.7362 188.268 99.9756 188.244Z" fill="white"/>
<path d="M127.532 182.439C126.866 182.999 126.142 183.486 125.372 183.892C121.793 185.832 117.625 186.385 113.665 185.447C111.824 184.996 110.079 184.219 108.513 183.152C106.778 181.976 105.275 180.489 104.08 178.767C103.454 177.854 102.92 176.88 102.487 175.862C102.023 174.817 101.709 173.711 101.552 172.579C101.38 171.435 101.474 170.267 101.828 169.166C102.002 168.624 102.283 168.123 102.654 167.692C103.025 167.261 103.478 166.908 103.988 166.655C104.995 166.207 106.129 166.134 107.185 166.45C108.199 166.729 109.096 167.327 109.744 168.156C110.33 168.948 110.702 169.878 110.824 170.856C110.944 171.78 110.876 172.718 110.624 173.615C110.133 175.209 109.175 176.62 107.876 177.665C106.822 178.529 105.635 179.215 104.36 179.696C103.404 180.055 102.422 180.344 101.423 180.56C100.602 180.738 99.954 180.846 99.522 180.911L99.0198 180.986C98.9642 180.992 98.908 180.992 98.8524 180.986L99.0198 180.943L99.5112 180.846C99.9432 180.76 100.591 180.635 101.396 180.441C102.385 180.209 103.356 179.906 104.301 179.534C105.553 179.05 106.717 178.364 107.746 177.503C109.004 176.475 109.927 175.095 110.398 173.54C110.636 172.675 110.697 171.772 110.576 170.883C110.459 169.942 110.095 169.047 109.523 168.291C108.91 167.501 108.057 166.933 107.093 166.671C106.101 166.374 105.036 166.443 104.09 166.865C103.614 167.103 103.191 167.434 102.845 167.839C102.499 168.243 102.238 168.713 102.076 169.22C101.736 170.279 101.646 171.403 101.812 172.503C101.965 173.621 102.274 174.711 102.73 175.743C103.971 178.663 106.035 181.158 108.67 182.925C110.208 183.982 111.924 184.756 113.735 185.209C115.315 185.594 116.944 185.741 118.568 185.647C120.929 185.51 123.235 184.875 125.334 183.784C125.666 183.622 125.989 183.441 126.301 183.244C126.576 183.082 126.808 182.936 126.986 182.806L127.402 182.525L127.532 182.439Z" fill="white"/>
<path d="M131.533 161.109C131.533 161.158 130.847 161.212 129.751 161.417C128.326 161.683 126.936 162.113 125.609 162.697C124.284 163.285 123.029 164.02 121.867 164.889C120.976 165.559 120.474 166.034 120.436 165.969C120.529 165.834 120.637 165.71 120.76 165.602C121.07 165.282 121.4 164.982 121.748 164.705C122.889 163.776 124.149 163.004 125.496 162.41C126.844 161.819 128.264 161.409 129.719 161.19C130.159 161.124 130.602 161.083 131.047 161.066C131.21 161.056 131.374 161.07 131.533 161.109Z" fill="white"/>
<path d="M140.4 203.18L140.211 203.105L139.671 202.867C138.971 202.576 138.248 202.339 137.511 202.16C134.814 201.523 131.995 201.625 129.352 202.457C127.528 203.011 125.82 203.893 124.313 205.06C122.579 206.392 121.089 208.014 119.907 209.855C118.593 211.881 117.633 214.116 117.067 216.464C116.739 217.687 116.752 218.975 117.104 220.19C117.328 220.792 117.694 221.33 118.172 221.758C118.65 222.186 119.225 222.491 119.848 222.647C121.103 222.995 122.433 222.965 123.671 222.561C124.878 222.175 125.969 221.494 126.846 220.579C127.697 219.706 128.242 218.581 128.401 217.372C128.465 216.79 128.425 216.201 128.282 215.633C128.13 215.079 127.899 214.55 127.597 214.061C126.983 213.13 126.188 212.333 125.258 211.718C124.381 211.129 123.425 210.667 122.418 210.346C121.477 210.043 120.51 209.828 119.529 209.704C118.622 209.6 117.708 209.571 116.797 209.617C114.031 209.748 111.343 210.577 108.983 212.026C108.342 212.42 107.73 212.86 107.152 213.343L106.704 213.721L106.547 213.84C106.589 213.79 106.634 213.743 106.682 213.7L107.114 213.3C107.679 212.796 108.284 212.339 108.923 211.934C111.287 210.435 113.996 209.568 116.791 209.417C117.713 209.364 118.638 209.387 119.556 209.488C120.551 209.607 121.533 209.82 122.488 210.125C123.518 210.446 124.496 210.913 125.393 211.513C126.357 212.142 127.182 212.961 127.818 213.921C128.137 214.432 128.379 214.987 128.536 215.568C128.689 216.167 128.735 216.789 128.671 217.404C128.507 218.67 127.939 219.85 127.051 220.768C126.143 221.718 125.013 222.427 123.763 222.831C122.47 223.251 121.082 223.281 119.772 222.917C119.108 222.747 118.495 222.418 117.985 221.959C117.475 221.5 117.084 220.925 116.845 220.282C116.475 219.018 116.46 217.677 116.802 216.405C117.379 214.026 118.357 211.763 119.696 209.714C120.897 207.847 122.414 206.202 124.178 204.854C125.71 203.677 127.445 202.793 129.298 202.246C131.974 201.418 134.828 201.345 137.543 202.036C138.285 202.223 139.008 202.478 139.703 202.797L140.243 203.062L140.4 203.18Z" fill="white"/>
<path d="M91.1412 205.313C91.1412 205.367 90.531 205.443 89.6022 205.767C89.0604 205.958 88.5364 206.197 88.0362 206.48C86.8079 207.171 85.7418 208.118 84.9096 209.255C84.5743 209.722 84.2781 210.215 84.024 210.73C83.592 211.615 83.4462 212.215 83.3922 212.198C83.3921 212.052 83.4158 211.906 83.4624 211.766C83.5538 211.381 83.6804 211.005 83.8404 210.643C84.0761 210.104 84.3637 209.588 84.699 209.104C85.1201 208.514 85.6035 207.971 86.1408 207.484C86.6857 207.02 87.2796 206.616 87.912 206.28C88.4265 205.998 88.9696 205.772 89.532 205.605C89.9102 205.487 90.2991 205.405 90.693 205.362C90.8389 205.322 90.9902 205.306 91.1412 205.313Z" fill="white"/>
<path d="M109.345 232.999C109.345 232.999 109.296 232.961 109.21 232.875C109.123 232.789 108.994 232.643 108.837 232.481C108.513 232.135 108.032 231.622 107.395 230.99C105.628 229.164 103.631 227.573 101.455 226.26C99.9516 225.367 98.3224 224.704 96.6222 224.294C94.673 223.838 92.6502 223.792 90.6822 224.159C88.4997 224.562 86.5065 225.66 85.0014 227.291C84.2225 228.149 83.7201 229.222 83.5596 230.369C83.4765 230.953 83.5172 231.547 83.6791 232.114C83.841 232.68 84.1204 233.207 84.4992 233.658C84.8904 234.093 85.3895 234.417 85.9461 234.597C86.5028 234.777 87.0971 234.807 87.669 234.684C88.2211 234.547 88.7137 234.234 89.073 233.793C89.4284 233.353 89.6728 232.835 89.7858 232.281C90.0032 231.185 89.8111 230.048 89.2458 229.084C88.7121 228.152 87.955 227.367 87.0426 226.8C85.3124 225.781 83.2976 225.353 81.3024 225.58C79.5596 225.742 77.8427 226.114 76.1886 226.687C73.7755 227.486 71.4842 228.615 69.3792 230.04C68.634 230.548 68.0832 230.974 67.7052 231.266L67.284 231.601C67.1868 231.676 67.1382 231.714 67.1328 231.709C67.8063 231.069 68.5284 230.482 69.2928 229.954C71.3976 228.479 73.7036 227.315 76.14 226.498C77.8066 225.908 79.5381 225.522 81.297 225.347C83.3442 225.107 85.414 225.539 87.1938 226.579C88.1445 227.167 88.9349 227.981 89.4942 228.949C90.0958 229.971 90.2996 231.178 90.0666 232.34C89.9488 232.934 89.6874 233.491 89.3052 233.96C88.9064 234.447 88.3609 234.792 87.75 234.943C87.1292 235.08 86.4831 235.05 85.8778 234.855C85.2725 234.661 84.7297 234.309 84.3048 233.836C83.9011 233.354 83.603 232.792 83.43 232.188C83.257 231.583 83.2128 230.949 83.3004 230.326C83.4654 229.118 83.9925 227.989 84.8124 227.086C86.3561 225.412 88.4037 224.288 90.6444 223.884C92.6532 223.515 94.717 223.57 96.7032 224.046C98.415 224.473 100.053 225.153 101.563 226.066C103.749 227.402 105.746 229.024 107.503 230.888C108.13 231.541 108.583 232.065 108.907 232.421L109.258 232.832L109.345 232.999Z" fill="white"/>
<path d="M180.133 217.75C180.024 217.845 179.904 217.928 179.777 217.998C179.658 218.074 179.512 218.171 179.334 218.273L178.697 218.592C178.454 218.711 178.157 218.808 177.865 218.932C177.574 219.056 177.212 219.132 176.845 219.235C175.998 219.428 175.132 219.529 174.263 219.537C171.981 219.54 169.752 218.841 167.881 217.534C166.74 216.793 165.843 215.734 165.299 214.488C165.05 213.79 165.05 213.026 165.299 212.328C165.434 211.972 165.651 211.652 165.933 211.395C166.214 211.138 166.552 210.951 166.919 210.848C167.637 210.682 168.383 210.689 169.098 210.867C169.812 211.045 170.474 211.391 171.029 211.874C171.57 212.31 172.004 212.864 172.298 213.494C172.577 214.113 172.663 214.802 172.546 215.471C172.423 216.097 172.153 216.686 171.758 217.188C171.392 217.655 170.967 218.072 170.494 218.43C169.655 219.056 168.749 219.588 167.794 220.018C166.41 220.644 164.942 221.068 163.436 221.276C162.896 221.346 162.486 221.378 162.205 221.389C162.062 221.404 161.917 221.404 161.773 221.389C161.914 221.359 162.056 221.341 162.2 221.335C162.481 221.303 162.891 221.254 163.415 221.168C164.908 220.923 166.362 220.476 167.735 219.839C168.676 219.407 169.567 218.872 170.392 218.246C171.36 217.574 172.051 216.572 172.336 215.428C172.416 214.791 172.326 214.144 172.073 213.553C171.821 212.963 171.416 212.45 170.899 212.069C170.378 211.616 169.757 211.292 169.087 211.124C168.417 210.956 167.717 210.949 167.044 211.102C166.715 211.191 166.413 211.356 166.16 211.584C165.908 211.812 165.713 212.097 165.591 212.414C165.362 213.048 165.362 213.741 165.591 214.375C166.039 215.644 167.081 216.562 168.064 217.301C169.887 218.59 172.059 219.292 174.29 219.316C175.145 219.319 175.997 219.234 176.834 219.062C177.201 218.965 177.541 218.884 177.849 218.781C178.157 218.678 178.438 218.581 178.681 218.473L179.323 218.176C179.507 218.084 179.653 217.993 179.777 217.928C179.892 217.861 180.011 217.802 180.133 217.75Z" fill="white"/>
<path d="M164.543 180.581C163.592 180.835 162.66 181.152 161.752 181.532C160.885 181.991 160.051 182.511 159.257 183.087C159.88 182.29 160.698 181.667 161.633 181.278C162.529 180.805 163.53 180.565 164.543 180.581Z" fill="white"/>
<path d="M137.371 180.706C137.296 181.142 137.152 181.563 136.944 181.953C136.489 182.919 135.878 183.804 135.135 184.572C134.392 185.34 133.53 185.982 132.581 186.473C132.196 186.692 131.778 186.849 131.344 186.937C132.662 186.267 133.872 185.405 134.935 184.378C135.927 183.283 136.748 182.045 137.371 180.706Z" fill="white"/>
<path d="M172.611 155.228C172.611 155.228 172.228 155.299 171.531 155.471C170.568 155.718 169.632 156.061 168.739 156.497C168.122 156.791 167.526 157.128 166.957 157.507C166.305 157.932 165.736 158.472 165.278 159.1C164.784 159.794 164.534 160.631 164.565 161.482C164.589 161.923 164.717 162.352 164.938 162.734C165.18 163.116 165.527 163.419 165.937 163.609C166.342 163.808 166.798 163.877 167.243 163.809C167.676 163.743 168.064 163.508 168.323 163.156C168.547 162.807 168.673 162.404 168.687 161.99C168.702 161.575 168.604 161.165 168.404 160.801C168.215 160.473 167.958 160.189 167.651 159.966C167.344 159.744 166.993 159.589 166.622 159.511C165.966 159.356 165.282 159.366 164.63 159.538C163.682 159.824 162.799 160.294 162.032 160.92C161.492 161.347 161.179 161.606 161.163 161.59C161.147 161.573 161.222 161.509 161.357 161.379C161.492 161.249 161.692 161.06 161.962 160.839C162.718 160.165 163.609 159.658 164.576 159.354C165.26 159.158 165.982 159.136 166.676 159.289C167.084 159.37 167.469 159.536 167.807 159.777C168.145 160.018 168.428 160.329 168.637 160.688C168.861 161.094 168.97 161.554 168.954 162.018C168.938 162.482 168.797 162.933 168.545 163.323C168.25 163.732 167.806 164.008 167.308 164.09C166.806 164.168 166.291 164.091 165.834 163.868C165.373 163.657 164.985 163.315 164.716 162.886C164.471 162.464 164.331 161.99 164.306 161.503C164.275 160.591 164.549 159.694 165.083 158.954C165.565 158.31 166.162 157.761 166.844 157.334C167.429 156.957 168.041 156.623 168.674 156.335C169.586 155.911 170.542 155.593 171.526 155.385C171.871 155.315 172.147 155.282 172.33 155.261C172.422 155.237 172.516 155.226 172.611 155.228Z" fill="white"/>
<path d="M179.658 188.33C179.571 188.458 179.478 188.581 179.377 188.698C179.28 188.811 179.14 188.93 178.983 189.086C178.785 189.244 178.576 189.387 178.357 189.513C177.643 189.902 176.855 190.136 176.044 190.199C175.234 190.262 174.419 190.154 173.653 189.88C172.584 189.516 171.634 188.869 170.905 188.006C170.072 187.022 169.464 185.869 169.123 184.626C168.732 183.26 168.588 181.836 168.696 180.419C168.764 178.879 169.301 177.396 170.235 176.17C170.727 175.566 171.361 175.093 172.079 174.792C172.798 174.492 173.58 174.373 174.355 174.447C175.101 174.535 175.795 174.872 176.326 175.403C176.846 175.912 177.146 176.604 177.163 177.331C177.146 178.023 176.864 178.682 176.375 179.172C175.933 179.63 175.392 179.979 174.793 180.193C173.725 180.563 172.578 180.637 171.472 180.409C170.568 180.228 169.696 179.913 168.885 179.474C168.276 179.152 167.688 178.791 167.125 178.394C166.66 178.065 166.309 177.8 166.077 177.617C165.952 177.529 165.835 177.432 165.726 177.325C165.861 177.396 165.99 177.479 166.109 177.574L167.189 178.303C167.759 178.682 168.351 179.028 168.961 179.339C169.763 179.755 170.621 180.052 171.509 180.22C172.581 180.428 173.688 180.346 174.717 179.982C175.279 179.778 175.786 179.445 176.197 179.01C176.639 178.563 176.894 177.964 176.909 177.336C176.888 176.677 176.614 176.053 176.143 175.592C175.65 175.108 175.009 174.802 174.323 174.722C173.596 174.658 172.864 174.772 172.192 175.054C171.519 175.336 170.925 175.778 170.462 176.342C169.561 177.524 169.043 178.952 168.977 180.436C168.866 181.82 169.001 183.213 169.376 184.55C169.707 185.759 170.29 186.884 171.088 187.85C171.784 188.69 172.695 189.324 173.723 189.686C174.465 189.959 175.255 190.076 176.044 190.029C176.833 189.983 177.604 189.774 178.308 189.416C178.815 189.131 179.271 188.764 179.658 188.33Z" fill="white"/>
<path d="M194.816 184.442C194.816 184.502 193.892 184.172 192.364 184.059C190.369 183.906 188.368 184.285 186.566 185.155C184.764 186.026 183.225 187.358 182.104 189.016C181.656 189.712 181.248 190.433 180.884 191.176C180.921 190.953 180.99 190.737 181.089 190.534C181.32 189.968 181.604 189.426 181.937 188.914C183.035 187.186 184.593 185.798 186.435 184.906C188.278 184.014 190.333 183.654 192.37 183.865C192.981 183.923 193.585 184.041 194.173 184.216C194.395 184.266 194.611 184.343 194.816 184.442Z" fill="white"/>
<g opacity="0.3">
<path d="M161.017 153.949C167.108 156.919 174.517 157.091 179.944 161.12C183.1 163.462 185.275 166.891 186.05 170.744C186.825 174.596 186.145 178.6 184.14 181.98C183.746 178.546 183.06 174.647 180.155 172.8C178.88 171.995 177.358 171.72 175.943 171.18C174.35 170.597 172.881 169.7 171.266 169.187C169.106 168.496 166.72 168.523 164.549 167.805C162.378 167.087 160.267 165.235 160.429 162.945L161.017 153.949Z" fill="black"/>
</g>
<path d="M184.075 181.04L183.211 170.181C183.211 170.181 177.32 169.042 175.23 167.713C173.14 166.385 169.317 163.62 169.317 163.62C169.317 163.62 168.394 166.936 166.493 167.125L164.781 167.319L164.7 160.634C164.7 160.634 164.376 163.636 161.908 164.101C161.368 164.209 161.341 164.101 161.341 164.101L159.673 155.347C159.673 155.347 157.696 157.907 154.084 156.2C154.084 156.2 159.937 145.994 161.077 145.616C162.216 145.238 168.372 145.076 168.372 145.076C168.372 145.076 176.92 144.536 177.871 144.904C178.821 145.271 180.149 146.783 180.149 146.783C180.149 146.783 190.22 156.476 193.45 159.705C195.996 162.392 197.712 165.758 198.391 169.398C198.585 171.104 200.011 178.227 200.011 178.227" fill="#B47266"/>
<path d="M200.043 178.254L199.994 178.076L199.881 177.536C199.784 177.061 199.638 176.375 199.454 175.478C199.271 174.582 199.06 173.47 198.806 172.168C198.688 171.52 198.558 170.818 198.434 170.068C198.369 169.695 198.337 169.301 198.261 168.912C198.185 168.523 198.077 168.124 197.959 167.719C197.419 165.933 196.644 164.228 195.653 162.648C195.094 161.756 194.452 160.919 193.736 160.148C192.985 159.359 192.143 158.587 191.311 157.766L180.085 146.88C179.747 146.499 179.386 146.138 179.005 145.8C178.644 145.45 178.213 145.182 177.741 145.012C177.228 144.939 176.709 144.909 176.191 144.92C175.651 144.92 175.111 144.92 174.571 144.92C172.411 144.968 170.213 145.103 167.951 145.211C166.822 145.244 165.683 145.287 164.538 145.352C163.966 145.384 163.388 145.422 162.81 145.471C162.242 145.504 161.678 145.589 161.125 145.724C160.903 145.872 160.706 146.054 160.542 146.264C160.358 146.491 160.175 146.718 160.002 146.956C159.656 147.431 159.322 147.917 158.992 148.414C158.339 149.396 157.702 150.412 157.07 151.438C156.092 153.058 155.142 154.634 154.229 156.217L154.165 156.022C155.062 156.474 156.07 156.661 157.07 156.562C158.042 156.431 158.935 155.956 159.586 155.223L159.781 155.002L159.829 155.282C160.402 158.279 160.958 161.222 161.492 164.036C161.492 163.955 161.465 163.976 161.455 163.96H161.519C161.571 163.965 161.624 163.965 161.676 163.96C161.784 163.948 161.89 163.928 161.995 163.901L162.308 163.814L162.605 163.69C162.992 163.505 163.335 163.238 163.609 162.907C164.142 162.231 164.481 161.423 164.592 160.569H164.851C164.851 162.88 164.869 165.112 164.905 167.265L164.77 167.146L166.433 166.963C166.949 166.896 167.421 166.642 167.762 166.25C168.435 165.466 168.929 164.544 169.209 163.55L169.252 163.404L169.382 163.49L173.021 166.007L174.733 167.195C175.264 167.588 175.843 167.911 176.456 168.156C177.605 168.612 178.783 168.992 179.982 169.295C181.121 169.592 182.207 169.835 183.222 170.051H183.281V170.111C183.535 173.545 183.74 176.261 183.881 178.124C183.946 179.048 183.994 179.744 184.032 180.247C184.032 180.479 184.032 180.662 184.064 180.787C184.068 180.848 184.068 180.909 184.064 180.97C184.064 180.97 184.064 180.911 184.064 180.787C184.064 180.662 184.032 180.479 184.01 180.247C183.967 179.755 183.902 179.048 183.821 178.124C183.665 176.261 183.438 173.551 183.146 170.122L183.211 170.186C182.18 169.987 181.094 169.744 179.971 169.447C178.762 169.148 177.573 168.771 176.413 168.318C175.788 168.072 175.198 167.745 174.658 167.346L172.935 166.163C171.763 165.359 170.543 164.543 169.285 163.658L169.457 163.598C169.171 164.632 168.662 165.59 167.967 166.406C167.588 166.843 167.061 167.123 166.487 167.195L164.83 167.384H164.695V167.249C164.673 165.089 164.65 162.855 164.624 160.547H164.884C164.767 161.452 164.409 162.308 163.847 163.026C163.552 163.385 163.184 163.678 162.767 163.885L162.443 164.02L162.103 164.111C161.987 164.141 161.87 164.163 161.752 164.176H161.563H161.455H161.39C161.372 164.172 161.355 164.162 161.341 164.149C161.341 164.149 161.303 164.149 161.276 164.041L159.608 155.288L159.856 155.347C159.161 156.14 158.202 156.655 157.156 156.794C156.107 156.909 155.047 156.721 154.1 156.254L153.965 156.19L154.04 156.06C154.958 154.469 155.907 152.872 156.886 151.27C157.518 150.244 158.155 149.229 158.814 148.235C159.143 147.739 159.478 147.247 159.835 146.767C160.007 146.529 160.191 146.297 160.375 146.065C160.564 145.81 160.801 145.594 161.071 145.427C161.65 145.283 162.241 145.195 162.837 145.163C163.415 145.109 163.998 145.076 164.57 145.039C165.721 144.979 166.865 144.936 167.994 144.904C170.24 144.801 172.454 144.666 174.614 144.623C175.154 144.623 175.694 144.623 176.234 144.623C176.776 144.614 177.318 144.648 177.854 144.725C178.366 144.905 178.832 145.195 179.221 145.573C179.613 145.909 179.983 146.269 180.328 146.653L191.522 157.561C192.359 158.387 193.19 159.181 193.946 159.953C194.667 160.739 195.312 161.591 195.874 162.497C196.868 164.094 197.642 165.817 198.175 167.621C198.288 168.032 198.396 168.431 198.466 168.831C198.536 169.231 198.574 169.619 198.639 169.992C198.752 170.743 198.871 171.439 198.99 172.093C199.228 173.394 199.433 174.506 199.6 175.414C199.768 176.321 199.897 176.996 199.989 177.476C200.027 177.703 200.059 177.876 200.081 178.016C200.102 178.157 200.043 178.254 200.043 178.254Z" fill="#89544C"/>
<path d="M169.841 145.616C169.841 145.665 168.944 145.827 167.551 146.308C165.745 146.957 163.995 147.753 162.319 148.689C161.839 148.931 161.403 149.25 161.028 149.634C160.692 150 160.423 150.422 160.234 150.881C159.887 151.66 159.717 152.507 159.737 153.36C159.737 154.094 159.791 154.694 159.797 155.104C159.817 155.32 159.807 155.538 159.77 155.752C159.719 155.543 159.69 155.33 159.683 155.115C159.646 154.699 159.565 154.111 159.538 153.365C159.488 152.479 159.645 151.594 159.997 150.779C160.189 150.287 160.471 149.835 160.828 149.445C161.222 149.038 161.68 148.699 162.184 148.441C163.872 147.492 165.65 146.714 167.492 146.119C168.052 145.945 168.622 145.802 169.198 145.692C169.408 145.639 169.624 145.613 169.841 145.616Z" fill="#89544C"/>
<path d="M176.256 147.528C175.986 147.634 175.708 147.719 175.424 147.782C174.884 147.944 174.112 148.16 173.183 148.516C172.096 148.935 171.047 149.45 170.051 150.055C169.479 150.385 168.874 150.736 168.232 151.07C167.589 151.405 166.892 151.697 166.271 152.091C165.963 152.279 165.692 152.523 165.472 152.809C165.273 153.096 165.125 153.416 165.035 153.754C164.866 154.417 164.754 155.092 164.7 155.774C164.622 156.937 164.622 158.104 164.7 159.268C164.749 160.267 164.797 161.077 164.808 161.638C164.834 161.927 164.834 162.218 164.808 162.508C164.753 162.223 164.72 161.934 164.711 161.644C164.662 161.033 164.592 160.24 164.511 159.278C164.41 158.106 164.396 156.927 164.468 155.752C164.518 155.053 164.629 154.359 164.797 153.679C164.895 153.31 165.056 152.961 165.272 152.647C165.509 152.33 165.804 152.06 166.142 151.853C166.811 151.438 167.503 151.168 168.134 150.827C168.766 150.487 169.371 150.152 169.949 149.828C170.964 149.231 172.033 148.729 173.14 148.327C173.889 148.069 174.652 147.852 175.424 147.679C175.696 147.603 175.975 147.552 176.256 147.528Z" fill="#89544C"/>
<path d="M179.388 150.374C179.167 150.487 178.936 150.578 178.697 150.644C178.249 150.806 177.617 151.038 176.812 151.367C174.748 152.185 172.873 153.414 171.299 154.98C170.467 155.858 169.831 156.901 169.43 158.042C169.106 158.978 168.94 159.962 168.939 160.952C168.964 161.864 169.09 162.769 169.317 163.652C169.317 163.652 169.279 163.598 169.231 163.48C169.16 163.303 169.101 163.123 169.052 162.94C168.858 162.285 168.753 161.608 168.739 160.925C168.678 158.638 169.527 156.421 171.099 154.759C172.698 153.178 174.622 151.964 176.737 151.2C177.541 150.892 178.2 150.66 178.664 150.557C178.899 150.471 179.141 150.41 179.388 150.374Z" fill="#89544C"/>
<path d="M182.644 157.14C182.644 157.14 182.612 157.189 182.515 157.248C182.373 157.332 182.218 157.388 182.056 157.415C181.457 157.483 180.851 157.39 180.301 157.145C179.932 156.998 179.551 156.886 179.161 156.811C178.72 156.747 178.27 156.799 177.854 156.962C176.898 157.403 175.993 157.946 175.154 158.582C174.285 159.158 173.531 159.89 172.93 160.742C172.543 161.527 172.066 162.265 171.509 162.94C171.272 163.188 170.999 163.399 170.699 163.566C170.466 163.691 170.203 163.75 169.938 163.739C169.775 163.733 169.613 163.704 169.457 163.652C169.355 163.615 169.301 163.593 169.306 163.582C169.312 163.571 169.533 163.636 169.938 163.631C170.18 163.62 170.416 163.549 170.624 163.426C170.901 163.255 171.152 163.046 171.369 162.805C171.889 162.117 172.339 161.379 172.714 160.601C173.314 159.7 174.089 158.927 174.992 158.328C175.457 157.993 175.916 157.691 176.364 157.399C176.797 157.104 177.265 156.863 177.757 156.681C178.214 156.511 178.707 156.462 179.188 156.541C179.59 156.629 179.982 156.756 180.36 156.919C180.879 157.172 181.452 157.293 182.029 157.27C182.238 157.249 182.444 157.206 182.644 157.14Z" fill="#89544C"/>
<path d="M186.37 169.873C186.223 169.809 186.087 169.724 185.965 169.619C185.613 169.366 185.279 169.088 184.966 168.788C182.862 166.803 181.439 164.205 180.9 161.363C180.813 160.937 180.757 160.506 180.733 160.072C180.706 159.915 180.706 159.754 180.733 159.597C180.781 159.597 180.841 160.267 181.089 161.325C181.733 164.089 183.124 166.622 185.112 168.647C185.863 169.42 186.403 169.835 186.37 169.873Z" fill="#89544C"/>
<path d="M194.843 168.199C194.655 168.564 194.394 168.886 194.076 169.144C193.339 169.81 192.463 170.303 191.511 170.586C190.558 170.868 189.554 170.931 188.573 170.77C188.166 170.725 187.771 170.601 187.412 170.402C187.412 170.354 187.871 170.494 188.6 170.575C189.551 170.676 190.512 170.588 191.428 170.316C192.345 170.045 193.199 169.595 193.941 168.993C194.513 168.529 194.805 168.167 194.843 168.199Z" fill="#89544C"/>
<path d="M205.74 238.988C203.144 241.076 199.839 242.074 196.521 241.772C193.204 241.47 190.133 239.891 187.958 237.368C185.474 234.463 183.503 230.888 183.805 227.07C184.572 217.485 184.108 179.512 184.108 179.512L199.346 175.597C199.346 175.597 211.091 221.497 211.669 229.505C211.934 233.01 209.061 236.347 205.74 238.988Z" fill="#B47266"/>
<path d="M83.0574 222.896H100.543L110.219 219.494L113.033 211.999C113.033 211.999 118.714 207.679 124.616 213.133C130.518 218.587 134.158 229.5 134.158 229.5L118.498 234.954C118.498 234.954 108.729 242.255 107.59 242.276L76.329 242.698C76.329 242.698 76.0158 228.803 83.0574 222.896Z" fill="#B47266"/>
<path d="M123.061 219.375L121.014 186.343C120.999 186.05 121.043 185.757 121.145 185.482C121.246 185.206 121.403 184.955 121.605 184.742C121.807 184.529 122.051 184.36 122.32 184.244C122.59 184.129 122.881 184.069 123.174 184.07H141.183C141.739 184.069 142.273 184.283 142.675 184.666C143.077 185.049 143.317 185.572 143.343 186.127L144.639 219.154C144.648 219.443 144.6 219.732 144.495 220.002C144.391 220.272 144.233 220.518 144.032 220.727C143.83 220.935 143.589 221.1 143.322 221.213C143.055 221.326 142.769 221.384 142.479 221.384H125.199C124.655 221.38 124.133 221.171 123.736 220.798C123.34 220.426 123.099 219.918 123.061 219.375Z" fill="#263238"/>
<path d="M142.56 204.514C142.539 204.382 142.528 204.248 142.528 204.115C142.528 203.823 142.495 203.44 142.474 202.964C142.441 201.933 142.398 200.497 142.344 198.736C142.29 196.976 142.247 194.821 142.187 192.467C142.159 191.282 142.132 190.048 142.106 188.762C142.134 188.125 142.061 187.487 141.89 186.872C141.789 186.577 141.601 186.319 141.35 186.133C141.089 185.954 140.786 185.844 140.47 185.814C139.807 185.776 139.141 185.776 138.478 185.814L136.517 185.857L132.813 185.927L126.544 186.035L124.135 186.068C123.535 186.035 122.934 186.073 122.342 186.181C122.162 186.221 121.992 186.301 121.846 186.415C121.701 186.529 121.582 186.674 121.5 186.84C121.457 186.963 121.435 187.093 121.435 187.223C121.39 187.094 121.39 186.953 121.435 186.824C121.506 186.638 121.618 186.47 121.764 186.335C121.911 186.2 122.086 186.101 122.278 186.046C122.877 185.914 123.49 185.858 124.103 185.879L126.511 185.803L132.781 185.636L136.485 185.549L138.445 185.501C139.123 185.463 139.803 185.463 140.481 185.501C140.843 185.541 141.19 185.669 141.491 185.873C141.781 186.094 141.997 186.397 142.112 186.743C142.292 187.387 142.368 188.056 142.339 188.725C142.36 190.01 142.382 191.245 142.403 192.429C142.441 194.783 142.474 196.906 142.501 198.698C142.528 200.491 142.533 201.901 142.544 202.927C142.544 203.407 142.544 203.791 142.544 204.077C142.564 204.222 142.569 204.368 142.56 204.514Z" fill="#455A64"/>
<path d="M132.489 191.7C132.389 191.476 132.22 191.29 132.006 191.169C131.792 191.048 131.545 191 131.301 191.03C131.16 190.994 131.013 190.988 130.869 191.013C130.726 191.039 130.589 191.094 130.469 191.177C130.349 191.259 130.247 191.366 130.172 191.491C130.097 191.616 130.049 191.755 130.032 191.9C130.021 192.196 130.111 192.488 130.288 192.726C130.464 192.965 130.717 193.136 131.004 193.212C131.219 193.271 131.445 193.275 131.662 193.224C131.879 193.173 132.08 193.069 132.246 192.92C132.407 192.767 132.517 192.567 132.561 192.349C132.604 192.13 132.579 191.904 132.489 191.7Z" fill="#E0E0E0"/>
<path d="M112.687 212.917V209.552C112.687 209.552 115.992 201.776 115.895 202.063C115.798 202.349 121.754 198.256 121.754 198.256C121.957 199.967 121.891 201.7 121.559 203.391C121.171 204.663 120.499 205.83 119.594 206.804L119.129 210.433L126.614 204.336L135.54 199.643C136.07 199.601 136.601 199.696 137.083 199.921C137.565 200.145 137.98 200.49 138.289 200.923C139.428 202.441 137.813 203.958 137.057 204.433C136.301 204.908 129.497 209.833 129.497 209.833L125.717 214.191L126.522 215.109L133.196 210.875C133.196 210.875 141.637 204.714 143.532 204.331H143.635C143.984 204.273 144.342 204.323 144.663 204.472C144.984 204.622 145.253 204.864 145.433 205.169C145.614 205.473 145.699 205.825 145.677 206.178C145.654 206.532 145.526 206.87 145.309 207.149C142.987 210.168 138.991 215.303 138.791 215.125C138.505 214.877 129.838 220.849 129.838 220.849C129.838 220.849 138.505 218.003 139.266 217.339C140.027 216.675 147.798 208.429 147.798 208.429C147.798 208.429 148.84 208.618 149.029 210.989L148.559 213.359C148.559 213.359 148.748 213.926 149.029 215.158C149.31 216.389 144.952 224.834 144.952 224.834C144.952 224.834 127.883 234.22 126.274 234.317C124.664 234.414 118.687 234.317 118.687 234.317L112.687 212.917Z" fill="#B47266"/>
<path d="M148.376 213.052C148.301 213.305 148.192 213.546 148.052 213.77C147.699 214.399 147.303 215.003 146.869 215.579C146.329 216.319 145.66 217.161 144.979 218.149C144.227 219.226 143.372 220.226 142.425 221.135C140.652 222.727 138.672 224.073 136.539 225.137C135.734 225.558 135.076 225.882 134.611 226.103C134.381 226.231 134.139 226.334 133.888 226.411C134.099 226.255 134.325 226.119 134.563 226.006L136.447 224.964C138.53 223.857 140.472 222.503 142.231 220.93C143.166 220.034 144.016 219.053 144.769 217.998C145.46 217.015 146.156 216.178 146.707 215.46C147.258 214.742 147.685 214.142 147.955 213.716C148.081 213.486 148.222 213.264 148.376 213.052Z" fill="#89544C"/>
<path d="M86.5998 220.963C85.4811 221.49 84.4266 222.144 83.457 222.912C81.1887 224.867 79.4753 227.385 78.489 230.213C77.5303 233.049 76.9228 235.993 76.68 238.977C76.572 240.089 76.4856 241.002 76.4208 241.677C76.3884 241.974 76.3668 242.217 76.3452 242.417C76.3434 242.504 76.3269 242.589 76.2966 242.671C76.2883 242.584 76.2883 242.498 76.2966 242.411C76.2966 242.212 76.2966 241.963 76.3236 241.672C76.3236 241.029 76.3992 240.095 76.491 238.945C76.6709 235.935 77.2502 232.962 78.2136 230.105C79.2129 227.231 80.9795 224.686 83.322 222.745C84.0363 222.173 84.8179 221.69 85.6494 221.308C85.941 221.162 86.1894 221.092 86.3406 221.027C86.425 220.998 86.5117 220.977 86.5998 220.963Z" fill="#263238"/>
<path d="M263.833 242.768C263.833 242.843 207.554 242.908 138.148 242.908C68.742 242.908 12.4524 242.843 12.4524 242.768C12.4524 242.692 68.7204 242.627 138.148 242.627C207.576 242.627 263.833 242.692 263.833 242.768Z" fill="#263238"/>
<path d="M203.283 243.632L130.005 244.129L176.996 254.259L194.103 249.993L203.283 243.632Z" fill="#E0E0E0"/>
<path d="M130.005 247.061L176.985 258.736L249.232 253.168L263.52 195.755C264.557 192.294 262.807 190.399 260.599 190.409L193.196 193.747C192.157 193.805 191.167 194.204 190.379 194.883C189.591 195.561 189.049 196.481 188.838 197.5L176.996 254.259L130.016 244.129L130.005 247.061Z" fill="#EBEBEB"/>
<path d="M130.005 247.061C130.005 247.061 130.005 246.829 130.005 246.343C130.005 245.857 130.005 245.117 130.005 244.129H130.037L177.044 254.183L176.926 254.259L182.547 227.259L185.717 212.053C186.26 209.428 186.815 206.766 187.38 204.066C187.661 202.716 187.943 201.355 188.228 199.984C188.374 199.298 188.514 198.612 188.66 197.921C188.767 197.204 189.019 196.517 189.4 195.901C189.793 195.277 190.324 194.752 190.952 194.365C191.58 193.979 192.289 193.741 193.023 193.671C194.465 193.579 195.907 193.52 197.343 193.444L206.172 193.007L224.424 192.094L243.373 191.155L253.093 190.674L257.996 190.431L260.458 190.307C261.326 190.251 262.182 190.529 262.85 191.084C263.41 191.577 263.79 192.242 263.93 192.974C264.055 193.691 264.036 194.425 263.876 195.134C263.538 196.502 263.2 197.865 262.861 199.222C262.188 201.926 261.518 204.626 260.852 207.322C259.517 212.675 258.203 217.953 256.91 223.155C254.318 233.555 251.813 243.621 249.415 253.265V253.357H249.318L177.066 258.887L142.538 250.247L133.191 247.86L130.804 247.255C130.264 247.12 130.005 247.045 130.005 247.045L130.826 247.239L133.234 247.828L142.517 250.106L177.017 258.66H176.99L249.232 253.06L249.113 253.157C251.51 243.513 254.016 233.442 256.597 223.042C257.893 217.843 259.205 212.564 260.534 207.203C261.203 204.529 261.875 201.829 262.548 199.103C262.883 197.753 263.218 196.403 263.558 195.037C263.708 194.367 263.726 193.673 263.612 192.996C263.488 192.328 263.148 191.719 262.645 191.263C261.403 190.145 259.583 190.696 257.98 190.679L253.076 190.922L243.356 191.403L224.408 192.337L206.156 193.239L197.327 193.676C195.874 193.752 194.422 193.806 193.007 193.898C192.313 193.966 191.644 194.191 191.05 194.556C190.455 194.92 189.952 195.416 189.578 196.004C189.216 196.597 188.976 197.256 188.87 197.942C188.73 198.628 188.584 199.319 188.444 200C188.152 201.371 187.871 202.732 187.585 204.082C187.024 206.786 186.467 209.448 185.917 212.069C184.837 217.307 183.776 222.376 182.736 227.275C180.684 237.055 178.789 246.105 177.077 254.275V254.367H176.98L130 244.172V244.145C130 245.128 130 245.862 130 246.348C130 246.834 130.005 247.061 130.005 247.061Z" fill="#263238"/>
<path d="M222.842 219.24C222.135 219.348 221.47 219.64 220.912 220.087C220.354 220.533 219.922 221.118 219.661 221.783C219.426 222.458 219.432 223.194 219.679 223.865C219.927 224.536 220.399 225.1 221.017 225.461C222.518 226.222 224.462 225.331 225.337 223.889C225.604 223.427 225.773 222.915 225.832 222.384C225.892 221.853 225.841 221.316 225.682 220.806C225.369 219.726 223.522 219.019 222.842 219.24Z" fill="white"/>
<path d="M222.842 219.24C223.097 219.138 223.379 219.127 223.641 219.208C223.95 219.273 224.25 219.378 224.532 219.521C224.92 219.698 225.26 219.964 225.526 220.298C225.681 220.5 225.788 220.735 225.839 220.984C225.906 221.24 225.948 221.503 225.963 221.767C226.002 222.361 225.906 222.955 225.682 223.506C225.404 224.128 224.973 224.67 224.43 225.081C223.886 225.492 223.246 225.758 222.572 225.855C221.854 225.947 221.129 225.753 220.552 225.315C220.026 224.907 219.647 224.338 219.472 223.695C219.315 223.119 219.315 222.511 219.472 221.935C219.619 221.44 219.871 220.983 220.212 220.595C220.706 220.045 221.335 219.634 222.037 219.402C222.226 219.339 222.419 219.29 222.615 219.256C222.75 219.256 222.82 219.256 222.82 219.256C222.82 219.256 222.545 219.326 222.075 219.515C221.414 219.777 220.826 220.196 220.363 220.736C220.053 221.108 219.826 221.543 219.699 222.01C219.555 222.541 219.555 223.1 219.699 223.63C219.857 224.216 220.2 224.735 220.676 225.11C221.198 225.5 221.851 225.671 222.496 225.585C223.121 225.493 223.714 225.248 224.221 224.871C224.728 224.494 225.133 223.997 225.401 223.425C225.617 222.913 225.715 222.36 225.688 221.805C225.693 221.325 225.568 220.853 225.326 220.439C225.083 220.121 224.774 219.861 224.419 219.677C224.15 219.532 223.865 219.418 223.571 219.337C223.335 219.264 223.089 219.231 222.842 219.24Z" fill="#263238"/>
<path d="M80.1846 115.403H43.0488C42.148 115.403 41.284 115.761 40.647 116.398C40.01 117.035 39.6522 117.899 39.6522 118.8V155.936C39.6522 156.837 40.01 157.701 40.647 158.338C41.284 158.975 42.148 159.332 43.0488 159.332H68.742L79.0776 167.843V159.332H80.1846C81.0854 159.332 81.9494 158.975 82.5863 158.338C83.2233 157.701 83.5812 156.837 83.5812 155.936V118.8C83.5812 117.899 83.2233 117.035 82.5863 116.398C81.9494 115.761 81.0854 115.403 80.1846 115.403Z" fill="white"/>
<path d="M43.4592 115.403H80.3412C81.2005 115.403 82.0246 115.745 82.6322 116.352C83.2398 116.96 83.5812 117.784 83.5812 118.643V129.146C83.5812 129.179 83.5681 129.211 83.5448 129.234C83.5215 129.258 83.4899 129.271 83.457 129.271H39.7764C39.7435 129.271 39.7119 129.258 39.6886 129.234C39.6653 129.211 39.6522 129.179 39.6522 129.146V119.205C39.6493 118.705 39.7459 118.208 39.9362 117.746C40.1266 117.283 40.407 116.862 40.7612 116.509C41.1153 116.155 41.5362 115.875 41.9993 115.685C42.4625 115.496 42.9587 115.4 43.4592 115.403Z" fill="#B366FF"/>
<path d="M58.6008 135.821V150.752H55.1448V138.591H52.1586V135.821H58.6008Z" fill="#263238"/>
<path d="M72.9 135.821V138.056L67.3542 150.752H63.5742L68.931 138.634H63.9792V141.064H60.9066V135.821H72.9Z" fill="#263238"/>
<path d="M67.7538 123.271C67.7538 123.352 64.7352 123.412 61.0146 123.412C57.294 123.412 54.27 123.352 54.27 123.271C54.27 123.19 57.2886 123.12 61.02 123.12C64.7514 123.12 67.7538 123.196 67.7538 123.271Z" fill="#263238"/>
<path d="M80.1846 115.403H80.4168C80.6431 115.413 80.8676 115.447 81.0864 115.506C81.9553 115.735 82.6986 116.298 83.1546 117.072C83.4856 117.638 83.6503 118.285 83.6298 118.94C83.6298 119.653 83.6298 120.425 83.6298 121.257C83.6298 122.931 83.6298 124.848 83.6298 126.997C83.6298 131.29 83.6298 136.496 83.6568 142.441C83.6568 145.417 83.6568 148.581 83.6568 151.913C83.6568 152.744 83.6568 153.587 83.6568 154.44V155.725C83.6724 156.173 83.6122 156.62 83.4786 157.048C83.2607 157.707 82.8517 158.287 82.3036 158.713C81.7555 159.139 81.0931 159.392 80.4006 159.44C79.9308 159.467 79.4934 159.44 79.0344 159.44L79.1586 159.316C79.1586 162.016 79.1586 164.873 79.1586 167.827V168.102L78.9426 167.924L68.607 159.424L68.6934 159.451H43.0056C42.6054 159.443 42.2094 159.368 41.8338 159.23C41.0772 158.956 40.4382 158.43 40.0248 157.739C39.8203 157.406 39.6725 157.041 39.5874 156.659C39.5224 156.276 39.4971 155.887 39.5118 155.498V148.77C39.5118 142.862 39.5118 137.165 39.5118 131.738C39.5118 129.038 39.5118 126.376 39.5118 123.806C39.5118 122.521 39.5118 121.261 39.5118 120.026C39.4877 119.4 39.5094 118.774 39.5766 118.152C39.6941 117.532 39.9753 116.954 40.3912 116.48C40.8071 116.005 41.3425 115.65 41.9418 115.452C42.5217 115.294 43.1243 115.235 43.7238 115.279H47.1528H53.595L73.035 115.322H78.3216H79.6932C80.0064 115.322 80.163 115.322 80.163 115.322H79.6932H78.3216L73.035 115.349L53.595 115.398H43.74C43.1661 115.356 42.5893 115.411 42.0336 115.56C41.4673 115.783 40.9725 116.157 40.6026 116.64C40.2103 117.082 39.9437 117.621 39.8304 118.201C39.7686 118.809 39.7506 119.421 39.7764 120.031V123.811C39.7764 126.382 39.7764 129.033 39.7764 131.744C39.7764 137.144 39.7764 142.868 39.7764 148.775V155.52C39.7614 155.89 39.7849 156.261 39.8466 156.627C39.9599 157.167 40.2094 157.67 40.5713 158.086C40.9333 158.503 41.3957 158.821 41.9148 159.008C42.6414 159.212 43.3989 159.281 44.1504 159.214H68.7744L68.8122 159.241L79.1424 167.756L78.9264 167.859C78.9264 164.905 78.9264 162.032 78.9264 159.349V159.224H79.056C79.5042 159.224 79.9686 159.224 80.406 159.224C80.8369 159.192 81.2572 159.074 81.6426 158.879C82.0228 158.687 82.3616 158.423 82.6396 158.1C82.9176 157.778 83.1293 157.404 83.2626 157C83.3931 156.597 83.4516 156.175 83.4354 155.752V154.44C83.4354 153.587 83.4354 152.744 83.4354 151.913C83.4354 148.581 83.4354 145.433 83.4354 142.441C83.4354 136.501 83.4354 131.29 83.4354 126.997C83.4354 124.837 83.4354 122.931 83.4354 121.257C83.4354 119.583 83.6514 118.109 82.9926 117.115C82.5564 116.348 81.8341 115.785 80.9838 115.549C80.7216 115.48 80.4544 115.431 80.1846 115.403Z" fill="#263238"/>
<path d="M68.1696 111.1H68.0778C67.3143 111.1 66.6954 111.719 66.6954 112.482V119.637C66.6954 120.4 67.3143 121.019 68.0778 121.019H68.1696C68.9331 121.019 69.552 120.4 69.552 119.637V112.482C69.552 111.719 68.9331 111.1 68.1696 111.1Z" fill="#E0E0E0"/>
<path d="M68.175 121.019C68.469 120.978 68.7477 120.863 68.985 120.685C69.2514 120.468 69.4221 120.156 69.4602 119.815C69.4602 119.421 69.4602 118.93 69.4602 118.411C69.4602 117.331 69.4602 116.105 69.4332 114.728C69.4332 114.032 69.4332 113.303 69.4332 112.568C69.442 112.391 69.4132 112.215 69.3487 112.05C69.2841 111.885 69.1853 111.735 69.0588 111.611C68.9322 111.487 68.7808 111.391 68.6145 111.33C68.4482 111.269 68.2708 111.244 68.094 111.256C67.9161 111.257 67.7404 111.295 67.5785 111.369C67.4165 111.442 67.272 111.549 67.1544 111.683C67.0416 111.818 66.9568 111.973 66.9049 112.141C66.853 112.309 66.835 112.485 66.852 112.66C66.852 113.416 66.852 114.145 66.852 114.82C66.852 116.197 66.852 117.445 66.852 118.508C66.852 118.768 66.852 119.016 66.852 119.254C66.8324 119.471 66.8324 119.69 66.852 119.907C66.9195 120.243 67.1126 120.54 67.392 120.739C67.6431 120.901 67.9309 120.997 68.229 121.019C68.1506 121.036 68.0698 121.036 67.9914 121.019C67.7572 121.008 67.53 120.935 67.3326 120.809C67.0149 120.604 66.7885 120.285 66.7008 119.918C66.6663 119.691 66.6536 119.461 66.663 119.232C66.663 118.994 66.663 118.746 66.663 118.487C66.663 117.407 66.663 116.176 66.6306 114.799C66.6306 114.107 66.6306 113.378 66.6306 112.639C66.6115 112.43 66.6341 112.22 66.6972 112.021C66.7602 111.822 66.8624 111.637 66.9978 111.478C67.1391 111.31 67.3151 111.175 67.5137 111.081C67.7122 110.988 67.9286 110.939 68.148 110.938C68.3644 110.923 68.5815 110.955 68.7845 111.032C68.9875 111.108 69.1719 111.227 69.3253 111.38C69.4787 111.534 69.5975 111.718 69.6739 111.921C69.7502 112.124 69.7823 112.341 69.768 112.558C69.768 113.308 69.768 114.037 69.768 114.718C69.768 116.095 69.768 117.337 69.7356 118.4C69.7356 118.94 69.7356 119.389 69.6978 119.826C69.6747 120.01 69.6151 120.187 69.5223 120.348C69.4296 120.508 69.3056 120.648 69.1578 120.76C68.9725 120.901 68.7521 120.989 68.5206 121.014C68.4102 121.059 68.2868 121.061 68.175 121.019Z" fill="#263238"/>
<path d="M54.7614 111.1H54.6696C53.9061 111.1 53.2872 111.719 53.2872 112.482V119.637C53.2872 120.4 53.9061 121.019 54.6696 121.019H54.7614C55.5249 121.019 56.1438 120.4 56.1438 119.637V112.482C56.1438 111.719 55.5249 111.1 54.7614 111.1Z" fill="#E0E0E0"/>
<path d="M54.7614 121.019C55.0574 120.979 55.3381 120.864 55.5768 120.685C55.8432 120.468 56.0139 120.156 56.052 119.815C56.052 119.421 56.052 118.93 56.052 118.411C56.052 117.331 56.052 116.105 56.0196 114.728C56.0196 114.032 56.0196 113.303 56.0196 112.568C56.0284 112.391 55.9996 112.215 55.9351 112.05C55.8705 111.885 55.7717 111.735 55.6451 111.611C55.5186 111.487 55.3671 111.391 55.2008 111.33C55.0345 111.269 54.8572 111.244 54.6804 111.256C54.5025 111.257 54.3266 111.295 54.1646 111.368C54.0026 111.442 53.8581 111.549 53.7408 111.683C53.6271 111.817 53.5413 111.973 53.4884 112.141C53.4356 112.308 53.4167 112.485 53.433 112.66C53.433 113.416 53.433 114.145 53.433 114.82C53.433 116.197 53.433 117.445 53.4006 118.508C53.4006 118.768 53.4006 119.016 53.4006 119.254C53.3808 119.471 53.3808 119.69 53.4006 119.907C53.466 120.244 53.6596 120.542 53.9406 120.739C54.1896 120.901 54.4757 120.998 54.7722 121.019C54.7722 121.019 54.6966 121.019 54.5346 121.019C54.3021 121.008 54.0767 120.935 53.8812 120.809C53.5619 120.606 53.335 120.286 53.2494 119.918C53.2157 119.691 53.2012 119.461 53.2062 119.232C53.2062 118.994 53.2062 118.746 53.2062 118.487C53.2062 117.407 53.2062 116.176 53.2062 114.799C53.2062 114.107 53.2062 113.378 53.2062 112.639C53.1745 112.218 53.3081 111.801 53.5788 111.478C53.7198 111.31 53.8958 111.174 54.0944 111.081C54.293 110.988 54.5096 110.939 54.729 110.938C54.9452 110.924 55.1618 110.957 55.3645 111.034C55.5671 111.11 55.7511 111.229 55.9043 111.382C56.0575 111.535 56.1764 111.719 56.2531 111.922C56.3297 112.125 56.3624 112.341 56.349 112.558C56.349 113.308 56.349 114.037 56.349 114.718C56.349 116.095 56.349 117.337 56.349 118.4C56.349 118.94 56.349 119.389 56.3112 119.826C56.2605 120.196 56.0666 120.532 55.7712 120.76C55.5853 120.9 55.3653 120.988 55.134 121.014C55.0153 121.065 54.8815 121.067 54.7614 121.019Z" fill="#263238"/>
<g opacity="0.3">
<path d="M51.651 115.819C51.831 117.578 51.6628 119.355 51.1557 121.049C50.6487 122.742 49.8129 124.32 48.6961 125.69C47.5793 127.061 46.2034 128.198 44.647 129.036C43.0905 129.875 41.3841 130.399 39.6252 130.577L40.1652 123.196L46.8558 115.922L51.651 115.819Z" fill="black"/>
</g>
<path d="M39.8847 127.507C46.6285 125.807 50.7171 118.962 49.0169 112.218C47.3167 105.474 40.4715 101.385 33.7278 103.086C26.984 104.786 22.8953 111.631 24.5955 118.375C26.2957 125.119 33.1409 129.207 39.8847 127.507Z" fill="white"/>
<path d="M36.7902 129.249C34.1156 129.247 31.4978 128.477 29.2489 127.029C27 125.581 25.2148 123.517 24.1059 121.083C22.9971 118.649 22.6114 115.948 22.9949 113.301C23.3784 110.654 24.5148 108.173 26.2688 106.154C28.0227 104.135 30.3203 102.662 32.8876 101.912C35.4549 101.162 38.1837 101.166 40.7488 101.924C43.314 102.681 45.6073 104.16 47.3554 106.184C49.1036 108.208 50.2329 110.693 50.6088 113.341C51.1238 117.002 50.1658 120.719 47.945 123.676C45.7241 126.633 42.4215 128.588 38.7612 129.114C38.108 129.204 37.4495 129.249 36.7902 129.249ZM36.8226 104.069C36.2806 104.068 35.7392 104.106 35.2026 104.182C33.0045 104.498 30.9493 105.458 29.2966 106.941C27.644 108.424 26.468 110.364 25.9175 112.515C25.3669 114.667 25.4663 116.933 26.2032 119.028C26.9402 121.122 28.2815 122.952 30.0577 124.284C31.8339 125.617 33.9653 126.394 36.1826 126.515C38.3999 126.637 40.6035 126.099 42.5151 124.969C44.4266 123.839 45.9602 122.167 46.9222 120.166C47.8841 118.164 48.2312 115.923 47.9196 113.724C47.5403 111.049 46.2096 108.601 44.1715 106.827C42.1333 105.054 39.5242 104.075 36.8226 104.069Z" fill="#455A64"/>
<path d="M36.8226 104.069C36.8835 104.06 36.9453 104.06 37.0062 104.069C37.125 104.069 37.3032 104.069 37.5462 104.069C38.2348 104.1 38.9186 104.199 39.5874 104.366C40.6485 104.626 41.6656 105.041 42.606 105.597C43.8588 106.335 44.9586 107.307 45.846 108.459C46.9193 109.861 47.6464 111.497 47.9682 113.233C48.051 113.706 48.1087 114.184 48.141 114.664C48.1545 114.91 48.1545 115.157 48.141 115.403C48.141 115.652 48.141 115.906 48.141 116.159C48.0545 117.196 47.8367 118.218 47.493 119.2C47.0906 120.223 46.555 121.189 45.9 122.072C45.2111 122.982 44.3987 123.791 43.4862 124.475C41.5352 125.905 39.1793 126.676 36.7605 126.676C34.3417 126.676 31.9858 125.905 30.0348 124.475C28.2208 123.142 26.8462 121.298 26.0874 119.178C25.7517 118.182 25.5448 117.148 25.4718 116.1C25.403 115.121 25.4611 114.137 25.6446 113.173C26.0493 111.047 27.059 109.084 28.5523 107.518C30.0456 105.951 31.9591 104.85 34.0632 104.344C34.5006 104.247 34.8948 104.177 35.235 104.134L36.1044 104.085H36.6444H36.828L36.6444 104.112L36.1044 104.161L35.2404 104.236C34.9002 104.29 34.5168 104.366 34.0848 104.474C33.0395 104.746 32.0378 105.164 31.1094 105.716C29.8902 106.451 28.8204 107.409 27.9558 108.54C26.9075 109.917 26.1956 111.521 25.8768 113.222C25.6989 114.167 25.6463 115.131 25.7202 116.089C25.8034 117.102 26.0157 118.1 26.352 119.059C26.7279 120.061 27.2345 121.009 27.8586 121.878C28.5418 122.766 29.343 123.556 30.24 124.227C32.1447 125.618 34.4423 126.368 36.801 126.368C39.1597 126.368 41.4573 125.618 43.362 124.227C45.1373 122.932 46.4885 121.139 47.2446 119.075C47.5891 118.118 47.807 117.119 47.8926 116.105C47.925 115.862 47.8926 115.614 47.8926 115.371C47.9061 115.13 47.9061 114.888 47.8926 114.647C47.844 114.172 47.8224 113.697 47.7306 113.238C47.4213 111.535 46.7186 109.929 45.6786 108.545C44.1536 106.533 42.0005 105.086 39.5604 104.436C38.8988 104.262 38.2229 104.148 37.5408 104.096C37.071 104.08 36.8226 104.085 36.8226 104.069Z" fill="#263238"/>
<path d="M36.7902 129.249H37.017L37.6758 129.211C37.9674 129.211 38.3238 129.152 38.7558 129.087L40.1976 128.79C41.4921 128.44 42.7342 127.918 43.8912 127.24C45.4085 126.316 46.74 125.116 47.817 123.703C49.113 121.983 49.9945 119.988 50.3928 117.871C50.4552 117.586 50.4985 117.298 50.5224 117.007C50.5224 116.716 50.5872 116.424 50.6142 116.127C50.6412 115.83 50.6142 115.528 50.6142 115.225V114.766L50.571 114.307C50.4875 113.044 50.2257 111.798 49.7934 110.608C48.8201 107.95 47.0566 105.653 44.7399 104.027C42.4231 102.4 39.6641 101.522 36.8334 101.509C33.9951 101.502 31.2237 102.371 28.8968 103.996C26.5699 105.622 24.8007 107.925 23.8302 110.592C22.975 112.908 22.7641 115.412 23.22 117.839C23.4193 118.937 23.7512 120.007 24.2082 121.025C24.428 121.502 24.6732 121.967 24.9426 122.418L25.3422 123.071L25.7904 123.671C26.854 125.092 28.1814 126.294 29.7 127.213C30.8532 127.899 32.0964 128.421 33.3936 128.763C33.8656 128.891 34.3454 128.989 34.83 129.055C35.187 129.12 35.5477 129.163 35.91 129.184L36.5742 129.227H36.801C36.7257 129.237 36.6495 129.237 36.5742 129.227H35.91C35.5482 129.219 35.1875 129.186 34.83 129.13C34.3417 129.073 33.8581 128.981 33.3828 128.855C30.2922 128.106 27.5549 126.313 25.6338 123.779L25.1802 123.174L24.7698 122.515C24.4932 122.059 24.2408 121.589 24.0138 121.106C23.5473 120.07 23.2065 118.982 22.9986 117.866C22.5162 115.395 22.7141 112.84 23.571 110.473C24.5531 107.75 26.353 105.397 28.7242 103.736C31.0955 102.075 33.9222 101.188 36.8172 101.196C39.7101 101.198 42.5321 102.091 44.8993 103.754C47.2666 105.417 49.064 107.769 50.0472 110.489C50.4871 111.706 50.7507 112.979 50.8302 114.269L50.868 114.734V115.198C50.868 115.506 50.868 115.814 50.868 116.116C50.868 116.419 50.8032 116.721 50.7708 117.018C50.7478 117.313 50.7026 117.605 50.6358 117.893C50.2217 120.042 49.316 122.065 47.9898 123.806C46.8898 125.228 45.5325 126.432 43.9884 127.354C42.8134 128.028 41.5529 128.54 40.2408 128.876L38.7828 129.152C38.3616 129.206 37.9998 129.233 37.7028 129.244C37.4058 129.254 37.1628 129.244 37.0386 129.244C36.9144 129.244 36.7902 129.249 36.7902 129.249Z" fill="#263238"/>
<path d="M43.3926 97.9035L42.242 99.7487L49.6411 104.362L50.7916 102.517L43.3926 97.9035Z" fill="#455A64"/>
<path d="M49.4262 104.463C49.5109 104.278 49.6064 104.097 49.7124 103.923L50.5062 102.6V102.719C48.8322 101.709 46.1268 100.046 43.0974 98.1504L43.2918 98.1072V98.1396L43.254 98.199L43.1784 98.3124L43.0326 98.55L42.741 99.0144C42.5538 99.3204 42.3738 99.6228 42.201 99.9216L42.1578 99.7326C44.2368 101.039 46.0458 102.2 47.3526 103.054L48.897 104.063C49.0839 104.187 49.2641 104.32 49.437 104.463C49.2501 104.375 49.0697 104.274 48.897 104.161L47.3364 103.232C46.008 102.433 44.1288 101.293 41.9958 99.9918L41.877 99.9162L41.9526 99.8028L42.4926 98.8902L42.7842 98.4258L42.93 98.1936L43.0056 98.0748L43.0434 98.0154V97.9884L43.2324 97.9452C46.2672 99.8406 48.9456 101.542 50.5872 102.605L50.6574 102.654L50.6142 102.724C50.2254 103.318 49.9176 103.772 49.7124 104.08C49.6265 104.214 49.5308 104.342 49.4262 104.463Z" fill="#263238"/>
<path d="M25.4008 100.977L19.3515 107.861L20.9821 109.294L27.0314 102.41L25.4008 100.977Z" fill="#455A64"/>
<path d="M20.9898 109.291C20.9898 109.291 21.1518 109.075 21.4434 108.718L22.68 107.233C23.76 105.986 25.218 104.263 26.9136 102.319V102.514L25.2936 101.083H25.4934L25.461 101.12L25.4016 101.185L25.2882 101.315L25.056 101.579L24.597 102.119L23.7006 103.14L22.0428 105.008L19.44 107.914V107.795C19.9098 108.232 20.2932 108.594 20.5956 108.875C20.898 109.156 21.0168 109.285 21.0168 109.296C20.8605 109.201 20.714 109.09 20.5794 108.967C20.2932 108.734 19.8666 108.383 19.332 107.924L19.2672 107.87L19.3212 107.811L21.8808 104.83L23.5008 102.951C23.787 102.616 24.084 102.281 24.3864 101.936C24.5322 101.763 24.6888 101.59 24.84 101.396L25.0722 101.131L25.1856 101.002L25.245 100.931L25.2774 100.899H25.4772L27.0972 102.335L27.1998 102.427L27.108 102.53C25.3584 104.506 23.814 106.223 22.7124 107.433L21.4218 108.842C21.2871 109.001 21.1429 109.15 20.9898 109.291Z" fill="#263238"/>
<path d="M31.3092 116.402L32.3838 114.361L36.2232 116.095L40.3542 108.572L42.2874 109.685L36.936 119.173L31.3092 116.402Z" fill="#455A64"/>
<path d="M36.9414 119.189L31.32 116.408L32.4 114.35L36.2178 116.1L40.3488 108.54L42.2928 109.658L36.9414 119.189ZM31.32 116.397L36.9252 119.151L42.2658 109.69L40.3542 108.61L36.2286 116.1L32.4 114.377L31.32 116.397Z" fill="#263238"/>
<path d="M29.3004 130.847C29.0952 130.788 28.8976 130.705 28.7118 130.599C28.4942 130.495 28.2832 130.378 28.08 130.248C27.7899 130.083 27.5087 129.903 27.2376 129.708C26.5202 129.228 25.8462 128.686 25.2234 128.088C24.4629 127.355 23.7724 126.552 23.1606 125.69C22.5608 124.822 22.042 123.9 21.6108 122.936C21.268 122.145 20.9917 121.327 20.7846 120.49C20.7011 120.17 20.6344 119.845 20.5848 119.518C20.5345 119.274 20.5002 119.027 20.4822 118.778C20.4498 118.569 20.439 118.358 20.4498 118.147C20.5038 118.147 20.5902 119.043 20.9898 120.442C21.2193 121.258 21.51 122.056 21.8592 122.828C22.2956 123.771 22.8123 124.674 23.4036 125.528C23.9932 126.384 24.6544 127.188 25.38 127.931C25.9882 128.52 26.6398 129.061 27.3294 129.551C28.5066 130.41 29.3274 130.799 29.3004 130.847Z" fill="#263238"/>
<path d="M22.9284 127.98C22.584 127.675 22.2808 127.327 22.0266 126.943C21.3709 126.047 20.798 125.092 20.3148 124.092C19.8328 123.087 19.4477 122.038 19.1646 120.96C19.0147 120.524 18.9256 120.07 18.9 119.61C19.0722 120.033 19.2183 120.465 19.3374 120.906C19.672 121.951 20.0761 122.972 20.547 123.962C21.0251 124.947 21.5662 125.899 22.167 126.814C22.4487 127.183 22.7031 127.573 22.9284 127.98Z" fill="#263238"/>
<path d="M189.086 119.259L195.161 108.54C191.41 102.444 190.074 95.1647 191.416 88.1336C192.759 81.1025 196.683 74.8277 202.417 70.5427C208.151 66.2577 215.28 64.2723 222.403 64.9768C229.527 65.6812 236.129 69.0246 240.913 74.3497C245.696 79.6748 248.315 86.5965 248.255 93.7544C248.194 100.912 245.458 107.789 240.585 113.032C235.712 118.275 229.054 121.506 221.92 122.09C214.785 122.674 207.691 120.568 202.03 116.186L189.086 119.259Z" fill="#FAFAFA"/>
<path d="M189.086 119.259L202.046 116.143L202.009 116.251C202.002 116.245 201.996 116.238 201.992 116.229C201.989 116.221 201.987 116.212 201.987 116.203C201.987 116.193 201.989 116.184 201.992 116.176C201.996 116.168 202.002 116.16 202.009 116.154C202.02 116.143 202.036 116.138 202.052 116.138C202.068 116.138 202.083 116.143 202.095 116.154C203.91 117.545 205.882 118.72 207.97 119.653C210.453 120.754 213.081 121.494 215.773 121.851C217.265 122.052 218.772 122.124 220.277 122.067C221.049 122.018 221.837 121.997 222.631 121.927L225.029 121.559C232.156 120.137 238.479 116.063 242.719 110.16C245.076 106.89 246.707 103.155 247.504 99.2034C248.316 95.0261 248.198 90.721 247.158 86.5944C247.018 86.0544 246.899 85.5144 246.742 85.0176L246.202 83.4786C245.818 82.4458 245.371 81.4377 244.863 80.46C244.619 79.9631 244.345 79.4816 244.042 79.0182C243.751 78.543 243.47 78.0624 243.167 77.5926L242.163 76.248L241.661 75.573C241.493 75.3462 241.288 75.1518 241.121 74.9412L239.965 73.6668C239.582 73.2402 239.128 72.8892 238.718 72.495L238.086 71.9226C237.881 71.7281 237.662 71.5477 237.433 71.3826L236.072 70.3674C235.845 70.2054 235.629 70.0164 235.386 69.876L234.662 69.4332L233.226 68.5638L231.725 67.8294C231.231 67.5735 230.723 67.3481 230.202 67.1544C226.169 65.5563 221.828 64.8863 217.501 65.1942C213.397 65.4474 209.4 66.6035 205.794 68.58C199.341 72.1656 194.51 78.0894 192.294 85.131C191.407 88.129 190.981 91.2444 191.03 94.3704C191.099 97.0858 191.557 99.7773 192.391 102.362C193.089 104.525 194.037 106.598 195.215 108.54C195.223 108.55 195.227 108.562 195.227 108.575C195.227 108.588 195.223 108.6 195.215 108.61L189.086 119.281C189.319 118.859 191.246 115.441 195.102 108.54V108.61C193.911 106.667 192.95 104.592 192.24 102.427C191.388 99.8287 190.916 97.1203 190.841 94.3866C190.781 91.238 191.202 88.0986 192.089 85.077C194.305 77.962 199.168 71.9696 205.675 68.337C209.298 66.3307 213.316 65.1436 217.447 64.8594C221.818 64.547 226.202 65.2206 230.278 66.8304C230.802 67.0278 231.314 67.2568 231.811 67.5162C232.313 67.7592 232.826 67.9968 233.329 68.2506L234.781 69.1308L235.51 69.5736C235.753 69.7194 235.969 69.9084 236.201 70.0758L237.578 71.1018C237.81 71.2669 238.03 71.4473 238.237 71.6418L238.874 72.2196C239.29 72.6192 239.749 72.9756 240.133 73.4076L241.299 74.6928C241.488 74.9088 241.693 75.1032 241.839 75.33L242.347 76.0104L243.362 77.3712C243.67 77.841 243.95 78.327 244.247 78.8076C244.551 79.2772 244.827 79.764 245.074 80.2656C245.588 81.2512 246.038 82.2685 246.424 83.3112C246.614 83.8368 246.803 84.3552 246.991 84.8664C247.147 85.4064 247.271 85.9464 247.412 86.4864C248.461 90.6522 248.578 94.9983 247.752 99.2142C246.939 103.205 245.282 106.975 242.892 110.273C238.611 116.237 232.217 120.343 225.013 121.754L222.593 122.121C221.794 122.191 221 122.207 220.223 122.251C218.707 122.312 217.189 122.237 215.687 122.024C212.999 121.656 210.377 120.907 207.9 119.799C205.804 118.851 203.827 117.66 202.009 116.251L202.106 116.154C202.119 116.168 202.126 116.186 202.126 116.205C202.126 116.224 202.119 116.243 202.106 116.257H202.079L189.086 119.259Z" fill="#263238"/>
<path d="M222.799 80.379L221.843 95.499C221.804 96.0969 221.549 96.6601 221.124 97.0828C220.699 97.5054 220.135 97.7584 219.537 97.794C218.912 97.8327 218.296 97.6303 217.816 97.2285C217.336 96.8267 217.028 96.256 216.956 95.634L215.276 80.4384C215.243 80.1655 215.269 79.8887 215.351 79.6266C215.434 79.3644 215.572 79.123 215.755 78.9184C215.939 78.7138 216.164 78.5509 216.416 78.4405C216.668 78.3301 216.94 78.2749 217.215 78.2784L220.903 78.3324C221.164 78.3363 221.421 78.393 221.659 78.4992C221.898 78.6054 222.112 78.7588 222.289 78.9501C222.466 79.1414 222.603 79.3667 222.69 79.6123C222.778 79.8579 222.815 80.1187 222.799 80.379Z" fill="#B366FF"/>
<path d="M216.324 106.299C216.553 106.993 216.984 107.603 217.56 108.052C218.136 108.501 218.833 108.77 219.561 108.823C220.29 108.876 221.018 108.712 221.654 108.352C222.289 107.991 222.803 107.45 223.131 106.797C223.459 106.144 223.586 105.409 223.496 104.683C223.406 103.958 223.103 103.276 222.625 102.724C222.147 102.171 221.516 101.772 220.812 101.578C220.107 101.384 219.361 101.403 218.668 101.633C217.739 101.943 216.971 102.608 216.532 103.482C216.093 104.357 216.018 105.369 216.324 106.299Z" fill="#B366FF"/>
<path d="M134.702 128.709C134.372 128.374 133.968 128.12 133.522 127.967C133.075 127.814 132.598 127.765 132.128 127.825C131.659 127.896 131.215 128.076 130.83 128.349C130.446 128.622 130.133 128.981 129.917 129.396C129.735 129.733 129.629 130.105 129.605 130.486C129.581 130.867 129.641 131.248 129.78 131.605C129.983 132.103 130.342 132.526 130.805 132.811C131.268 133.097 131.812 133.231 132.357 133.194C132.903 133.157 133.422 132.951 133.841 132.606C134.26 132.261 134.557 131.795 134.689 131.274C134.939 130.243 135.351 129.015 134.427 128.463" fill="#E27F5F"/>
<path d="M134.793 126C134.94 126 135.11 126.607 134.906 127.581C134.594 128.877 133.809 129.992 132.721 130.685C132.181 131.026 131.581 131.251 130.957 131.347C130.333 131.443 129.697 131.408 129.086 131.243C128.169 130.982 127.739 130.53 127.807 130.411C127.875 130.292 128.396 130.411 129.211 130.411C130.237 130.474 131.257 130.21 132.137 129.654C133.018 129.098 133.719 128.277 134.147 127.296C134.498 126.547 134.634 125.988 134.793 126Z" fill="#263238"/>
</svg>
