<svg width="270" height="270" viewBox="0 0 270 270" fill="none" xmlns="http://www.w3.org/2000/svg">
<path d="M209.27 47.26H160.62V60.13H209.27V47.26Z" fill="#F5F5F5"/>
<path d="M239.27 152H190.62V164.87H239.27V152Z" fill="#F5F5F5"/>
<path d="M49.27 162H0.619995V174.87H49.27V162Z" fill="#F5F5F5"/>
<path d="M188.7 73.69C188.7 73.69 188.7 73.61 188.7 73.46V72.8C188.7 72.19 188.7 71.34 188.7 70.26C188.7 68.04 188.7 64.85 188.62 60.82L188.77 60.97L140.12 61.07C140.23 60.96 139.87 61.31 140.37 60.82V67.34C140.37 69.4867 140.37 71.5967 140.37 73.67L140.13 73.43L174.8 73.54L185.03 73.61H187.8H188.52C188.607 73.6015 188.694 73.6015 188.78 73.61H188.56H187.86H185.15L174.97 73.68L140.13 73.79H139.89V73.55C139.89 71.4767 139.89 69.3667 139.89 67.22V60.7L140.14 60.45L188.79 60.55H188.94V60.7C188.94 64.76 188.88 67.99 188.86 70.23C188.86 71.3 188.86 72.13 188.86 72.73C188.86 72.99 188.86 73.2 188.86 73.36C188.86 73.52 188.71 73.69 188.7 73.69Z" fill="#E0E0E0"/>
<path d="M218.7 143.69C218.7 143.69 218.7 143.61 218.7 143.46V142.8C218.7 142.19 218.7 141.34 218.7 140.26C218.7 138.04 218.7 134.85 218.62 130.82L218.77 130.97L170.12 131.07C170.23 130.96 169.87 131.31 170.37 130.82V137.34C170.37 139.487 170.37 141.597 170.37 143.67L170.13 143.43L204.8 143.54L215.03 143.61H217.8H218.52C218.607 143.602 218.694 143.602 218.78 143.61H218.56H217.86H215.15L204.97 143.68L170.13 143.79H169.89V143.55C169.89 141.477 169.89 139.367 169.89 137.22V130.7L170.14 130.45L218.79 130.55H218.94V130.7C218.94 134.76 218.88 137.99 218.86 140.23C218.86 141.3 218.86 142.13 218.86 142.73C218.86 142.99 218.86 143.2 218.86 143.36C218.86 143.52 218.71 143.69 218.7 143.69Z" fill="#E0E0E0"/>
<path d="M65.26 27.1C65.2511 27.0236 65.2511 26.9464 65.26 26.87C65.26 26.7 65.26 26.48 65.26 26.21C65.26 25.6 65.26 24.76 65.26 23.67C65.26 21.45 65.26 18.26 65.18 14.23L65.33 14.38L16.61 14.49C16.72 14.38 16.36 14.74 16.85 14.24V27.1L16.61 26.86L51.28 26.97L61.51 27.04H64.28H65H65.26C65.1836 27.0494 65.1064 27.0494 65.03 27.04H64.34H61.62L51.45 27.11L16.61 27.22H16.36V14.25L16.61 14L65.26 14.1H65.41V14.25C65.41 18.32 65.35 21.54 65.33 23.78C65.33 24.85 65.33 25.69 65.33 26.28C65.33 26.54 65.33 26.75 65.33 26.92C65.3114 26.9817 65.288 27.0419 65.26 27.1Z" fill="#E0E0E0"/>
<path d="M85.26 147.1C85.2511 147.024 85.2511 146.946 85.26 146.87C85.26 146.7 85.26 146.48 85.26 146.21C85.26 145.6 85.26 144.76 85.26 143.67C85.26 141.45 85.26 138.26 85.18 134.23L85.33 134.38L36.61 134.49C36.72 134.38 36.36 134.74 36.85 134.24V147.1L36.61 146.86L71.28 146.97L81.51 147.04H84.28H85H85.26C85.1836 147.049 85.1064 147.049 85.03 147.04H84.34H81.62L71.45 147.11L36.61 147.22H36.36V134.25L36.61 134L85.26 134.1H85.41V134.25C85.41 138.32 85.35 141.54 85.33 143.78C85.33 144.85 85.33 145.69 85.33 146.28C85.33 146.54 85.33 146.75 85.33 146.92C85.3114 146.982 85.288 147.042 85.26 147.1Z" fill="#E0E0E0"/>
<path d="M132.922 217.396L126.827 220.017L127.237 183.863C127.425 179.535 125.436 177.69 124.355 176.46C114.543 165.301 99.9092 173.396 99.7818 184.705L99.4161 217.013L93.4818 216.947L94.0691 183.148C94.1135 179.341 97.0723 172.737 100.059 170.371C116.571 157.289 133.465 170.803 133.304 185.098L132.922 217.396Z" fill="#F5F5F5"/>
<path d="M132.922 217.396V216.748C132.922 216.321 132.922 215.695 132.922 214.875C132.922 213.213 132.955 210.802 132.977 207.672C132.999 204.541 133.038 200.746 133.077 196.318C133.099 194.102 133.121 191.744 133.143 189.243C133.143 186.738 133.37 184.073 132.855 181.336C132.339 178.47 131.178 175.758 129.459 173.407C129.231 173.102 129.015 172.792 128.777 172.493C128.539 172.194 128.267 171.939 128.012 171.634C127.492 171.056 126.936 170.51 126.35 169.999C126.068 169.728 125.735 169.512 125.425 169.263C125.114 169.013 124.81 168.758 124.461 168.559C123.789 168.111 123.09 167.708 122.366 167.351C120.886 166.606 119.319 166.048 117.701 165.689L116.449 165.484L115.822 165.378L115.185 165.34L113.9 165.256C113.468 165.256 113.035 165.284 112.603 165.301C109.021 165.463 105.554 166.614 102.585 168.625C99.4615 170.74 97.0127 173.711 95.5319 177.18C94.7881 178.97 94.2994 180.856 94.0802 182.782C93.914 184.721 93.9583 186.722 93.9195 188.722C93.8309 196.74 93.7367 205.04 93.6425 213.545C93.6425 214.679 93.6296 215.809 93.6037 216.936L93.4652 216.792L99.3994 216.858L99.2609 216.997C99.3311 210.57 99.4031 204.29 99.477 198.158C99.5102 195.107 99.5453 192.098 99.5823 189.132C99.5823 187.654 99.5989 186.186 99.6321 184.727C99.6639 183.27 99.9065 181.826 100.352 180.438C101.262 177.739 102.975 175.382 105.262 173.684C105.533 173.47 105.816 173.272 106.109 173.091L106.996 172.537C107.597 172.219 108.222 171.944 108.863 171.717C109.497 171.486 110.147 171.301 110.808 171.163C111.135 171.091 111.467 171.063 111.794 171.008L112.287 170.941H112.786C114.088 170.869 115.393 170.979 116.665 171.268C117.904 171.566 119.1 172.022 120.222 172.626C123.416 174.399 125.799 177.34 126.871 180.832C127.184 181.915 127.37 183.03 127.425 184.156C127.425 184.433 127.425 184.71 127.453 184.982C127.48 185.253 127.453 185.536 127.453 185.796C127.453 186.35 127.453 186.871 127.453 187.403C127.453 188.462 127.453 189.503 127.414 190.523C127.359 194.601 127.314 198.346 127.27 201.726C127.176 208.481 127.104 213.767 127.054 217.279L127.015 217.241L131.492 217.313H132.6H132.96H131.509L127.009 217.285H126.971V217.246C126.971 213.733 127.048 208.447 127.109 201.693C127.142 198.313 127.181 194.562 127.22 190.484C127.22 189.464 127.22 188.423 127.253 187.364C127.253 186.81 127.253 186.301 127.253 185.758C127.253 185.492 127.253 185.204 127.253 184.949L127.22 184.134C127.138 181.863 126.463 179.653 125.264 177.723C124.014 175.656 122.243 173.954 120.128 172.786C119.024 172.195 117.849 171.748 116.631 171.457C115.376 171.175 114.087 171.071 112.803 171.146H112.315L111.833 171.218C111.506 171.268 111.179 171.296 110.858 171.368C109.556 171.646 108.298 172.099 107.118 172.714L106.248 173.235C105.96 173.404 105.683 173.589 105.417 173.789C103.169 175.461 101.489 177.782 100.602 180.438C100.165 181.801 99.9302 183.219 99.9037 184.649C99.9037 186.105 99.887 187.573 99.8538 189.054C99.8205 192.01 99.7873 195.018 99.754 198.08C99.6876 204.175 99.6155 210.475 99.5435 216.919V217.058H99.405L93.4652 216.991H93.3267V216.853C93.3267 215.745 93.3396 214.614 93.3655 213.462C93.4652 204.962 93.5594 196.662 93.6536 188.639C93.6924 186.633 93.6536 184.655 93.8143 182.671C94.0403 180.72 94.5383 178.811 95.2937 176.998C96.0662 175.265 97.0648 173.642 98.2636 172.171C99.478 170.739 100.877 169.474 102.425 168.409C105.432 166.37 108.946 165.204 112.576 165.04C113.013 165.04 113.451 164.991 113.889 165.002L115.379 165.09L116.199 165.184L117.44 165.389L117.995 165.511C119.533 165.871 121.022 166.418 122.427 167.14C123.161 167.5 123.87 167.91 124.549 168.365C124.898 168.57 125.198 168.847 125.519 169.08C125.84 169.312 126.167 169.551 126.461 169.822C127.048 170.343 127.603 170.898 128.123 171.484L128.899 172.354C129.137 172.659 129.353 172.975 129.58 173.285C131.315 175.663 132.485 178.405 132.999 181.303C133.514 184.073 133.254 186.755 133.271 189.259C133.287 191.764 133.204 194.146 133.176 196.363C133.115 200.795 133.06 204.608 133.016 207.727C132.971 210.847 132.938 213.268 132.91 214.897C132.91 215.706 132.91 216.332 132.877 216.753C132.844 217.174 132.922 217.396 132.922 217.396Z" fill="#E0E0E0"/>
<path d="M86.7036 195.843L140.446 196.452C140.996 196.459 141.521 196.683 141.905 197.076C142.289 197.469 142.501 197.998 142.495 198.548L142.024 240.085C142.018 240.585 141.814 241.062 141.457 241.411C141.1 241.76 140.618 241.953 140.119 241.947L86.2097 241.336L86.7258 195.843L86.7036 195.843Z" fill="#E0E0E0"/>
<path d="M86.7043 195.726L133.968 196.199C134.564 196.205 135.134 196.448 135.552 196.874C135.969 197.3 136.201 197.874 136.195 198.471L135.79 238.919C135.783 239.654 135.484 240.356 134.959 240.87C134.435 241.384 133.727 241.669 132.992 241.662L86.3272 241.195C85.71 241.189 85.1205 240.938 84.6885 240.497C84.2564 240.056 84.0171 239.462 84.0233 238.845L84.4322 197.953C84.4382 197.357 84.6809 196.787 85.107 196.369C85.5331 195.952 86.1077 195.72 86.7043 195.726Z" fill="#EBEBEB"/>
<path d="M117.019 214.919C117.029 214.069 116.868 213.226 116.546 212.439C116.223 211.653 115.746 210.939 115.142 210.34C114.538 209.742 113.821 209.271 113.031 208.955C112.242 208.639 111.397 208.486 110.548 208.503C108.913 208.551 107.358 209.223 106.202 210.379C105.045 211.536 104.374 213.09 104.325 214.725C104.3 216.111 104.731 217.468 105.552 218.585C106.373 219.702 107.538 220.519 108.869 220.909L104.63 229.619L115.573 229.946L112.337 220.931C113.665 220.573 114.84 219.793 115.685 218.709C116.529 217.624 116.998 216.294 117.019 214.919Z" fill="#E0E0E0"/>
<path d="M123.94 197.659C123.94 197.737 116.975 197.814 108.381 197.831C99.7873 197.848 92.8169 197.798 92.8169 197.72C92.8169 197.643 99.7817 197.571 108.381 197.554C116.981 197.537 123.94 197.571 123.94 197.659Z" fill="white"/>
<path d="M104.082 218.194C103.973 218.076 103.885 217.941 103.821 217.795C103.622 217.409 103.463 217.004 103.345 216.587C102.948 215.195 102.985 213.716 103.45 212.346C103.915 210.976 104.787 209.781 105.949 208.918C106.294 208.657 106.665 208.433 107.057 208.248C107.195 208.171 107.345 208.119 107.5 208.093C107.5 208.137 106.896 208.397 106.065 209.073C104.973 209.945 104.155 211.111 103.706 212.434C103.257 213.757 103.197 215.181 103.533 216.537C103.804 217.606 104.126 218.16 104.082 218.194Z" fill="white"/>
<path d="M106.575 221.23C106.536 221.297 106.165 221.136 105.744 220.875C105.323 220.615 105.018 220.349 105.057 220.283C105.095 220.216 105.472 220.377 105.893 220.637C106.314 220.898 106.575 221.164 106.575 221.23Z" fill="white"/>
<path d="M111.85 166.725C111.496 166.792 111.139 166.839 110.78 166.863C109.813 166.993 108.857 167.198 107.921 167.478C104.813 168.38 102.027 170.148 99.8865 172.576C97.7465 175.003 96.3418 177.99 95.8367 181.186C95.67 182.149 95.5866 183.124 95.5874 184.101C95.5874 184.788 95.5874 185.176 95.5874 185.176C95.5576 185.087 95.5426 184.993 95.543 184.899C95.543 184.716 95.4876 184.45 95.4821 184.101C95.443 183.115 95.4986 182.128 95.6483 181.153C96.1106 177.903 97.5144 174.859 99.6866 172.398C101.859 169.936 104.704 168.164 107.871 167.301C108.819 167.023 109.791 166.837 110.775 166.747C111.118 166.708 111.39 166.714 111.573 166.708C111.665 166.705 111.758 166.71 111.85 166.725Z" fill="white"/>
<path d="M95.2936 190.08C95.1674 189.535 95.1337 188.973 95.1939 188.417C95.156 187.857 95.2141 187.295 95.3656 186.755C95.5327 187.859 95.5083 188.984 95.2936 190.08Z" fill="white"/>
<path d="M20.8819 234.331L10.0243 249.074L28.3077 262.68C29.5161 260.868 22.6462 250.306 22.6462 250.306L29.9934 241.146L20.8819 234.331Z" fill="#455A64"/>
<path d="M17.607 245.315C17.392 245.237 17.1556 245.241 16.9436 245.327C16.7315 245.413 16.5588 245.575 16.459 245.781C16.3741 245.994 16.3737 246.231 16.4579 246.445C16.5421 246.658 16.7046 246.831 16.9122 246.929C17.14 247.009 17.3894 247.002 17.6125 246.909C17.8355 246.817 18.0165 246.645 18.1206 246.427C18.1873 246.196 18.1617 245.947 18.049 245.734C17.9363 245.521 17.7453 245.36 17.5164 245.285" fill="white"/>
<path d="M10 249.11L11.154 247.527L28.235 261.279C28.235 261.279 28.7788 262.245 28.235 262.747L10 249.11Z" fill="#263238"/>
<path d="M23.0448 250.439C22.9783 250.53 22.501 250.24 21.8364 250.197C21.1717 250.155 20.6702 250.361 20.6279 250.264C20.5856 250.167 21.0932 249.75 21.8787 249.811C22.6641 249.871 23.0931 250.373 23.0448 250.439Z" fill="#263238"/>
<path d="M24.344 252.663C24.2957 252.765 23.8002 252.626 23.2141 252.777C22.628 252.928 22.2474 253.267 22.1568 253.194C22.0661 253.122 22.3924 252.59 23.1235 252.403C23.8546 252.215 24.4044 252.578 24.344 252.663Z" fill="#263238"/>
<path d="M23.7216 255.768C23.6249 255.726 23.8364 255.164 24.4285 254.868C25.0206 254.572 25.5825 254.669 25.5644 254.771C25.5463 254.874 25.0931 254.941 24.6158 255.212C24.1385 255.484 23.8182 255.823 23.7216 255.768Z" fill="#263238"/>
<path d="M24.4585 248.167C24.3558 248.222 24.0416 247.793 23.5099 247.454C22.9782 247.116 22.4707 246.977 22.4767 246.85C22.4828 246.723 23.0809 246.699 23.7214 247.11C24.3619 247.521 24.5552 248.131 24.4585 248.167Z" fill="#263238"/>
<path d="M65.0858 172.617C65.412 174.466 65.9317 190.193 66.264 198.489C66.5963 206.785 65.7685 210.863 64.8199 212.724C63.8713 214.585 28.0961 240.947 25.3711 247.261L16.308 239.956C16.308 239.956 29.6006 216.096 35.2681 211.758C40.9355 207.419 51.8415 203.438 51.8415 203.438L48.7419 158.007L63.5994 157.198L65.0858 172.617Z" fill="#263238"/>
<path d="M31.8361 248.911L31.679 267.2L54.4637 267.514C54.361 265.339 42.6333 260.801 42.6333 260.801L43.2375 249.074L31.8361 248.911Z" fill="#455A64"/>
<path d="M35.6004 259.744C35.3805 259.807 35.1918 259.95 35.0703 260.144C34.9488 260.338 34.903 260.57 34.9418 260.795C34.9978 261.018 35.1365 261.21 35.3297 261.334C35.5228 261.457 35.7557 261.502 35.981 261.46C36.2132 261.391 36.4118 261.239 36.5388 261.033C36.6659 260.826 36.7125 260.58 36.6698 260.342C36.5888 260.116 36.4231 259.93 36.2078 259.825C35.9924 259.719 35.7442 259.7 35.5158 259.774" fill="white"/>
<path d="M31.673 267.266V265.303L53.5755 266.438C53.5755 266.438 54.5785 266.904 54.4517 267.617L31.673 267.266Z" fill="#263238"/>
<path d="M42.984 260.717C42.984 260.832 42.4221 260.874 41.8722 261.224C41.3224 261.575 41.0203 262.034 40.9176 261.992C40.8149 261.949 40.9901 261.303 41.6668 260.892C42.3435 260.481 43.0323 260.614 42.984 260.717Z" fill="#263238"/>
<path d="M45.4005 261.762C45.4005 261.871 44.9352 262.052 44.5546 262.517C44.1739 262.982 44.0531 263.484 43.9503 263.472C43.8476 263.46 43.7751 262.837 44.2645 262.263C44.7539 261.689 45.4005 261.635 45.4005 261.762Z" fill="#263238"/>
<path d="M46.6996 264.62C46.5969 264.62 46.4518 264.082 46.7419 263.478C47.0319 262.874 47.5636 262.638 47.6059 262.729C47.6482 262.819 47.328 263.146 47.0923 263.647C46.8567 264.149 46.8083 264.608 46.6996 264.62Z" fill="#263238"/>
<path d="M42.8387 258.028C42.7904 258.131 42.2829 257.968 41.6303 258.028C40.9778 258.089 40.5065 258.252 40.4219 258.155C40.3373 258.058 40.8388 257.672 41.582 257.641C42.3251 257.611 42.8931 257.944 42.8387 258.028Z" fill="#263238"/>
<path d="M66.7292 155.319C66.7292 156.388 68.4633 183.463 59.6116 203.051C59.6116 203.051 56.5483 209.178 55.9863 211.854C55.4244 214.531 43.9747 258.928 43.9747 258.928L30.7425 258.445C30.7425 258.445 28.6278 236.204 30.7425 223.328C32.8572 210.453 36.7846 211.963 36.7846 203.649C36.7846 195.335 34.8088 178.097 34.8088 178.097C34.8088 178.097 31.9207 173.39 30.9358 164.261C30.1322 156.847 33.6246 148.902 33.6246 148.902L37.0746 142.793L66.2639 141.265L66.7292 155.319Z" fill="#263238"/>
<path d="M66.7292 155.319C66.7292 155.319 66.7292 155.004 66.7292 154.394C66.7292 153.784 66.693 152.878 66.6688 151.687C66.6144 149.301 66.5238 145.784 66.415 141.24V141.174H66.3425L37.1532 142.66H37.0928L37.0565 142.715C35.9871 144.612 34.8089 146.684 33.6005 148.823C32.7017 150.991 32 153.236 31.5038 155.53C30.9557 157.945 30.7101 160.419 30.7728 162.895C30.9567 165.481 31.3609 168.046 31.9812 170.563C32.5795 173.205 33.5199 175.758 34.7787 178.158V178.097C35.2802 182.605 35.7454 187.275 36.1381 192.085C36.3315 194.502 36.5007 196.918 36.6215 199.402C36.6819 200.61 36.7303 201.879 36.7363 203.13C36.7363 203.734 36.7363 204.38 36.7 205.003C36.657 205.627 36.5804 206.248 36.4704 206.864C36.2231 208.104 35.7849 209.298 35.1714 210.404C34.5672 211.534 33.963 212.652 33.3588 213.83C32.2645 216.221 31.4671 218.737 30.9842 221.322C29.9329 226.519 29.7214 231.92 29.661 237.364C29.661 244.548 29.9994 251.605 30.5915 258.427V258.572H30.7305L43.9626 259.055H44.0895L44.1197 258.928C47.9565 244.059 51.5334 230.162 54.6873 217.667L55.8293 213.045C56.0287 212.277 56.1556 211.516 56.3912 210.791C56.6269 210.066 56.8927 209.347 57.1706 208.646C57.7386 207.244 58.3791 205.885 58.9833 204.562L59.4546 203.577C59.6219 203.255 59.7712 202.924 59.9017 202.586C60.1736 201.915 60.4455 201.257 60.7173 200.598C62.5964 195.725 63.9947 190.68 64.8924 185.535C66.1864 178.206 66.8535 170.779 66.8863 163.336C66.9226 158.128 66.7111 155.3 66.7111 155.3C66.7111 155.3 66.7111 155.476 66.7111 155.82C66.7111 156.164 66.7111 156.69 66.7474 157.367C66.7836 158.726 66.8078 160.732 66.7474 163.336C66.6915 170.773 66.0185 178.192 64.7353 185.517C63.8169 190.645 62.4003 195.672 60.5059 200.525L59.6962 202.501C59.5633 202.84 59.4123 203.16 59.2491 203.486C59.086 203.812 58.9289 204.145 58.7718 204.477C58.1676 205.8 57.5271 207.16 56.9592 208.567C56.6752 209.274 56.4033 209.993 56.1677 210.731C55.932 211.468 55.793 212.247 55.5997 212.996C55.219 214.519 54.8384 216.054 54.4457 217.619C51.2373 230.102 47.6664 243.998 43.8418 258.868L43.9989 258.753L30.7667 258.264L30.9238 258.409C30.3196 251.599 29.9692 244.548 29.9933 237.376C30.0537 231.938 30.2652 226.561 31.3105 221.401C31.7919 218.84 32.581 216.347 33.6609 213.975C34.2047 212.809 34.8693 211.703 35.4735 210.555C36.0829 209.419 36.5149 208.197 36.7544 206.93C36.869 206.301 36.9477 205.665 36.9901 205.027C36.9901 204.423 37.0505 203.758 37.0263 203.136C37.0263 201.879 36.9719 200.628 36.9115 199.39C36.7907 196.912 36.6155 194.471 36.4161 192.067C36.0133 187.233 35.5561 182.566 35.0445 178.067V178.031C33.7854 175.662 32.8409 173.14 32.2349 170.527C31.6182 168.027 31.214 165.481 31.0265 162.913C30.9615 160.46 31.2009 158.009 31.7395 155.615C32.2263 153.344 32.9117 151.12 33.7878 148.968L37.2318 142.854L37.1351 142.914L66.3244 141.337L66.2459 141.271C66.3909 145.808 66.4996 149.325 66.5721 151.711C66.6144 152.92 66.6446 153.802 66.6688 154.418C66.693 155.035 66.7292 155.319 66.7292 155.319Z" fill="#455A64"/>
<path d="M57.237 99.8763C57.237 99.8763 49.3823 98.4867 50.1134 108.595C50.5725 114.637 52.3489 125.005 53.3338 131.621C53.6721 133.911 54.4214 138.008 57.4484 140.413L79.1395 155.421L85.9852 147.234L66.6143 128.788L63.5933 110.541L57.237 99.8763Z" fill="#455A64"/>
<path d="M58.1613 63.4425C59.4064 64.4451 60.3914 65.7329 61.033 67.197C61.6746 68.6611 61.9538 70.2582 61.847 71.8531C61.7262 73.3999 61.2972 75.1581 62.3062 76.3364C63.3152 77.5146 65.2487 77.4723 66.2033 78.6686C67.3211 80.0824 66.3846 82.1851 66.8075 83.9433C67.0231 84.7646 67.5238 85.4824 68.2201 85.9683C68.9164 86.4543 69.7628 86.6767 70.608 86.5958C68.6251 88.2185 66.2336 89.2637 63.6959 89.6169L61.7141 87.1456C62.4512 88.0157 62.2518 89.3993 61.5449 90.2875C60.7769 91.1142 59.7867 91.7017 58.693 91.9793C56.0901 92.7801 53.3374 92.9694 50.6493 92.5324C47.9613 92.0954 45.4103 91.0439 43.1951 89.4598" fill="#263238"/>
<path d="M29.1414 77.0795C29.5281 75.8711 30.1806 74.8016 30.4404 73.5871C30.9963 70.9709 29.7214 68.0224 30.9903 65.666C31.8966 63.9923 33.818 63.1706 35.6427 62.6087C37.4674 62.0468 39.4129 61.5755 40.7724 60.2402C41.7633 59.2614 42.3313 57.9079 43.3222 56.9291C44.736 55.5273 46.8266 55.05 48.8084 54.9292C50.8548 54.7314 52.9175 55.0665 54.7961 55.9019C55.7289 56.3275 56.5486 56.9665 57.1888 57.7674C57.8291 58.5682 58.272 59.5084 58.4818 60.5121C58.6389 61.4909 58.518 62.5241 58.8322 63.4727C59.1706 64.5119 59.9863 65.3216 60.4938 66.2943C61.0021 67.339 61.1492 68.5229 60.9119 69.6602C60.6746 70.7976 60.0663 71.8239 59.1827 72.5781L45.1771 90.6681C42.2346 91.7799 35.1049 90.4385 32.8331 88.2513C30.5613 86.0641 28.1686 80.0703 29.1414 77.0795Z" fill="#263238"/>
<path d="M58.814 70.2822C58.2097 66.1736 55.1102 61.3218 51.0317 62.071L38.44 66.3004C37.2316 66.53 38.0896 68.5541 38.2104 69.8049L40.9475 98.2027C40.9475 98.2027 39.2436 99.4111 38.6394 99.1815C38.605 99.1695 38.5677 99.1685 38.5327 99.1786C38.4977 99.1888 38.4668 99.2096 38.4442 99.2382C38.4216 99.2668 38.4084 99.3017 38.4066 99.3381C38.4048 99.3745 38.4144 99.4106 38.434 99.4413C39.9626 101.647 47.0863 111.235 54.4637 108.293C56.1071 107.634 54.2884 102.456 54.4637 100.541L54.2461 95.6408C54.083 93.1394 54.0045 92.1122 54.0045 92.1364C54.0045 92.1606 59.2127 90.8555 59.7747 83.889C60.0586 80.4389 59.4544 74.844 58.814 70.2822Z" fill="#FFBF9D"/>
<path d="M57.9381 76.6022C57.9568 76.8322 57.8853 77.0604 57.7387 77.2386C57.5921 77.4168 57.3819 77.5309 57.1526 77.5569C57.0409 77.5748 56.9267 77.5701 56.8169 77.5432C56.707 77.5162 56.6037 77.4675 56.513 77.3999C56.4223 77.3323 56.3461 77.2472 56.2888 77.1496C56.2316 77.052 56.1945 76.9439 56.1798 76.8318C56.1611 76.6018 56.2326 76.3736 56.3792 76.1954C56.5258 76.0172 56.736 75.9031 56.9653 75.8772C57.077 75.8592 57.1911 75.8639 57.301 75.8908C57.4108 75.9178 57.5142 75.9665 57.6049 76.0341C57.6956 76.1017 57.7718 76.1868 57.829 76.2844C57.8863 76.382 57.9233 76.49 57.9381 76.6022Z" fill="#263238"/>
<path d="M49.3582 77.1399C49.3786 77.3693 49.3084 77.5975 49.1628 77.7759C49.0172 77.9543 48.8076 78.0687 48.5787 78.0946C48.4672 78.1116 48.3533 78.1064 48.2437 78.0791C48.1342 78.0518 48.0312 78.003 47.9407 77.9355C47.8502 77.868 47.774 77.7833 47.7165 77.6861C47.6591 77.5889 47.6215 77.4813 47.606 77.3695C47.5872 77.1395 47.6587 76.9113 47.8053 76.7331C47.952 76.5549 48.1621 76.4408 48.3914 76.4149C48.5028 76.397 48.6166 76.4017 48.7261 76.4287C48.8356 76.4557 48.9385 76.5045 49.0287 76.5722C49.1189 76.6398 49.1946 76.725 49.2512 76.8225C49.3078 76.9201 49.3442 77.028 49.3582 77.1399Z" fill="#263238"/>
<path d="M58.2522 73.6899C58.1556 73.853 57.3338 73.3334 56.3067 73.4845C55.2795 73.6355 54.6209 74.3364 54.4941 74.2095C54.3672 74.0826 54.4941 73.8711 54.7901 73.5509C55.1619 73.1336 55.6702 72.8624 56.2238 72.786C56.7775 72.7096 57.3403 72.833 57.8112 73.134C58.1495 73.3696 58.3006 73.6174 58.2522 73.6899Z" fill="#263238"/>
<path d="M49.0259 74.4573C48.905 74.6083 48.1014 74.0222 46.9957 74.0706C45.89 74.1189 45.1046 74.7413 44.9777 74.6023C44.8508 74.4633 45.0321 74.276 45.3765 73.9981C45.8285 73.6249 46.3917 73.4124 46.9776 73.3939C47.5607 73.3709 48.1348 73.5432 48.609 73.8833C48.9534 74.131 49.0803 74.3848 49.0259 74.4573Z" fill="#263238"/>
<path d="M52.488 80.9646C52.9759 80.7655 53.4878 80.6314 54.0106 80.5658C54.2463 80.5236 54.4759 80.4571 54.5 80.2879C54.5032 80.0353 54.4271 79.7881 54.2825 79.581C54.0106 79.013 53.7267 78.4149 53.4246 77.7684C52.2161 75.2126 51.34 73.1099 51.4428 73.0616C51.5455 73.0132 52.6028 75.0434 53.7992 77.5931C54.0892 78.2276 54.3671 78.8016 54.6269 79.4058C54.8037 79.6861 54.8744 80.0204 54.8263 80.3483C54.7986 80.4367 54.751 80.5176 54.6871 80.5846C54.6232 80.6517 54.5447 80.7031 54.4578 80.735C54.3268 80.7799 54.1909 80.8083 54.0529 80.8196C53.5389 80.9297 53.0136 80.9784 52.488 80.9646Z" fill="#263238"/>
<path d="M54.0046 92.1486C50.769 92.4456 47.5145 91.8391 44.6031 90.3964C44.6031 90.3964 47.2919 95.0488 54.1255 93.8766L54.0046 92.1486Z" fill="#FF9A6C"/>
<path d="M49.5939 83.7318C49.7016 83.493 49.8679 83.2852 50.0772 83.1276C50.3334 83.0058 50.6243 82.978 50.8989 83.0491C51.307 83.1086 51.6846 83.2995 51.9744 83.5929C52.1167 83.7409 52.2169 83.9242 52.2647 84.1239C52.3125 84.3236 52.3062 84.5324 52.2463 84.7288C52.1376 85.1276 51.5454 85.333 51.1406 85.4176C50.7212 85.4788 50.2937 85.3912 49.9322 85.1698C49.775 85.0982 49.6377 84.9892 49.5324 84.8523C49.4271 84.7154 49.3569 84.5547 49.328 84.3844C49.3548 84.1465 49.4468 83.9207 49.5939 83.7318Z" fill="#FF9A6C"/>
<path d="M49.7871 82.3965C49.9381 82.3965 50.0227 83.4056 50.9593 84.0702C51.8958 84.7348 52.9834 84.5354 53.0015 84.6744C53.0196 84.8134 52.7779 84.8919 52.3127 84.9403C51.709 84.9956 51.1053 84.835 50.6088 84.4871C50.1298 84.1566 49.7999 83.6509 49.6904 83.0793C49.63 82.6624 49.7146 82.3965 49.7871 82.3965Z" fill="#263238"/>
<path d="M48.9412 70.7414C48.8626 71.0012 47.908 70.9529 46.8023 71.1764C45.6966 71.4 44.8205 71.7806 44.6573 71.545C44.5848 71.4423 44.7178 71.1885 45.0622 70.9106C45.5235 70.5669 46.0576 70.3336 46.6232 70.2289C47.1889 70.1241 47.7711 70.1506 48.3249 70.3064C48.7478 70.4272 48.9714 70.6145 48.9412 70.7414Z" fill="#263238"/>
<path d="M57.6659 70.2278C57.4907 70.4574 56.7294 70.2942 55.8533 70.3547C54.9772 70.4151 54.2038 70.6265 54.0104 70.4151C53.9259 70.3124 54.0104 70.0828 54.3428 69.8532C54.7797 69.5652 55.288 69.4042 55.811 69.3879C56.3307 69.3505 56.8504 69.4615 57.3094 69.7081C57.6236 69.8894 57.7445 70.1069 57.6659 70.2278Z" fill="#263238"/>
<path d="M35.6547 67.2914C36.2589 66.3125 37.4311 65.811 38.5186 65.3941C43.2156 63.5805 48.112 62.3331 53.1042 61.6783C53.7085 62.6994 53.1526 64.0951 52.2161 64.8383C51.2795 65.5814 50.0711 65.8775 48.9533 66.2944C47.8355 66.7113 46.6815 67.3639 46.2163 68.4696C45.751 69.5753 46.1438 71.0314 45.7087 72.2277C44.9656 74.2941 42.0835 74.9588 41.3645 77.0191C40.8086 78.584 41.7149 80.2456 41.9687 81.889C42.0847 82.7231 42.0215 83.5724 41.7833 84.3801C41.545 85.1878 41.1373 85.9354 40.5871 86.573C40.037 87.2106 39.3573 87.7235 38.5932 88.0775C37.8291 88.4316 36.9983 88.6185 36.1562 88.626C35.8178 82.7088 35.4775 76.7956 35.1351 70.8864C35.0324 69.6538 34.984 68.3246 35.6547 67.2914Z" fill="#263238"/>
<path d="M23.7395 82.2334C24.6761 81.3936 25.8482 80.6685 26.2168 79.4722C26.7606 77.726 25.3588 75.6778 26.2651 74.0887C27.0868 72.6386 29.5097 72.7171 30.2771 71.2368C30.8813 70.0768 30.1864 69.0556 30.41 68.0406C30.6336 67.0255 32.0837 66.1373 33.1108 66.2582L41.171 77.9617C41.9202 81.889 42.6754 84.0038 41.8356 86.2756C41.2801 87.4988 40.8607 88.7794 40.5849 90.0942C40.4036 91.4235 40.748 92.9279 41.8295 93.7195C36.9959 94.1001 32.4764 91.5745 28.2953 89.1275L23.8906 86.5415C23.4084 86.3107 22.9926 85.9615 22.6822 85.5264C22.0236 84.4509 22.809 83.0672 23.7395 82.2334Z" fill="#263238"/>
<path d="M28.1926 87.9372C28.3613 87.9914 28.5357 88.0259 28.7122 88.0399C29.2163 88.088 29.7249 88.0513 30.2167 87.9311C31.0019 87.7431 31.7245 87.3536 32.3133 86.8012C33.0911 86.0527 33.5791 85.0532 33.6909 83.9796C33.7636 83.357 33.7101 82.7262 33.5338 82.1247C33.3172 81.4836 33.0165 80.8741 32.6396 80.312C32.24 79.7415 31.9284 79.1142 31.7152 78.4511C31.6019 78.1121 31.5665 77.7519 31.6115 77.3973C31.6564 77.0427 31.7807 76.7028 31.975 76.4028C32.41 75.7986 33.2257 75.6717 33.987 75.3696C34.3982 75.2218 34.7558 74.9547 35.0141 74.6023C35.252 74.2255 35.368 73.7845 35.3465 73.3395C35.242 72.4863 35.0579 71.6448 34.7966 70.826C34.7039 70.4285 34.7039 70.015 34.7966 69.6175C34.903 69.2167 35.1495 68.8673 35.4915 68.6327C36.2267 68.2088 37.0597 67.9839 37.9083 67.9801C38.7866 67.9511 39.6431 67.6996 40.3977 67.2491C41.1318 66.8015 41.7278 66.1595 42.1196 65.3941C42.4412 64.6592 42.6451 63.8783 42.7239 63.08C42.8077 62.341 42.9656 61.6123 43.1951 60.9049C43.4496 60.2615 43.8366 59.6789 44.3311 59.1949C45.243 58.3296 46.4203 57.7974 47.6723 57.6844C48.7163 57.5952 49.7641 57.8047 50.6934 58.2886C51.3923 58.6463 52.0224 59.125 52.5543 59.7025C52.9989 60.2066 53.3841 60.76 53.7023 61.352C53.7023 61.352 53.7023 61.3097 53.66 61.2251C53.6104 61.1051 53.554 60.9881 53.4909 60.8746C53.2602 60.436 52.9782 60.0263 52.651 59.6541C52.1195 59.0534 51.4852 58.5521 50.778 58.1738C49.8389 57.6577 48.7718 57.4208 47.7025 57.4911C46.3904 57.5872 45.1511 58.1311 44.1921 59.0318C43.6637 59.5422 43.2515 60.1604 42.9837 60.8444C42.7441 61.565 42.5781 62.3079 42.4882 63.0619C42.4044 63.834 42.2005 64.5882 41.884 65.2974C41.5156 66.0106 40.96 66.6101 40.2768 67.0315C39.5569 67.4538 38.7425 67.6886 37.9083 67.7143C36.9991 67.7124 36.1061 67.9544 35.3223 68.4152C34.9302 68.6819 34.6471 69.0808 34.5247 69.539C34.4188 69.986 34.4188 70.4515 34.5247 70.8985C34.7806 71.7019 34.9626 72.5271 35.0685 73.3636C35.0934 73.7522 34.9963 74.1388 34.7906 74.4693C34.5572 74.7759 34.2404 75.0087 33.8782 75.14C33.5218 75.2911 33.1351 75.3938 32.7604 75.5509C32.3704 75.6981 32.0264 75.9462 31.7635 76.2699C31.5501 76.6035 31.4134 76.9804 31.3632 77.3732C31.3131 77.7661 31.3507 78.1652 31.4735 78.5417C31.6997 79.2261 32.0255 79.8735 32.4402 80.4631C32.8082 80.9973 33.1029 81.5785 33.3163 82.1911C33.4875 82.7625 33.545 83.3619 33.4855 83.9554C33.3865 84.9888 32.929 85.9549 32.1925 86.6865C31.6287 87.2324 30.9336 87.6236 30.1744 87.8224C29.5279 87.9912 28.8543 88.0302 28.1926 87.9372Z" fill="#455A64"/>
<path d="M21.7519 79.6172C21.6729 79.7358 21.6194 79.8695 21.5948 80.0099C21.5145 80.4243 21.5875 80.8538 21.8002 81.2183C21.9477 81.4786 22.1548 81.7002 22.4045 81.8648C22.7157 82.0531 23.0739 82.1495 23.4377 82.1428C23.8797 82.1331 24.3106 82.0024 24.6834 81.7648C25.0563 81.5272 25.3569 81.1919 25.5524 80.7954C25.7822 80.3403 25.9003 79.837 25.8968 79.3272C25.8822 78.7793 25.7675 78.2387 25.5584 77.7321C25.1778 76.6868 24.4769 75.6657 24.4648 74.4452C24.442 74.1447 24.48 73.8426 24.5765 73.5571C24.673 73.2716 24.8262 73.0085 25.0267 72.7836C25.5166 72.3791 26.1461 72.1837 26.7789 72.2398C27.4832 72.2913 28.1909 72.2176 28.8695 72.0223C29.225 71.8776 29.5255 71.6237 29.7275 71.2972C29.9219 70.9728 30.0436 70.6099 30.084 70.2338C30.1188 69.5123 30.0599 68.7892 29.9087 68.0828C29.8006 67.4198 29.8397 66.7411 30.0235 66.095C30.366 64.8616 31.1682 63.8063 32.2651 63.1465C33.3064 62.6161 34.4623 62.3505 35.6306 62.3731C36.6689 62.3754 37.7009 62.2123 38.6879 61.8897C39.4903 61.5952 40.2258 61.1433 40.851 60.5604C41.3297 60.1181 41.7373 59.6045 42.0594 59.0378C42.3428 58.5678 42.5374 58.0496 42.6334 57.5092C42.4535 58.0193 42.2291 58.5127 41.9627 58.9835C41.2015 60.2539 40.029 61.226 38.6395 61.7386C37.6609 62.0381 36.6419 62.1848 35.6185 62.1737C34.4162 62.1398 33.2244 62.4056 32.1503 62.9471C30.9968 63.6235 30.1453 64.7149 29.7698 65.9983C29.5764 66.6798 29.5331 67.3951 29.6429 68.0949C29.7843 68.7782 29.8431 69.4761 29.8181 70.1734C29.8038 70.5049 29.6988 70.8262 29.5145 71.1021C29.3301 71.3781 29.0736 71.5981 28.7728 71.7383C28.1272 71.9216 27.4542 71.9891 26.785 71.9377C26.0842 71.8764 25.3874 72.0935 24.8455 72.5419C24.6241 72.7939 24.4564 73.0883 24.3526 73.4072C24.2487 73.7261 24.2108 74.0628 24.2413 74.3968C24.2679 75.0241 24.4178 75.64 24.6823 76.2095C24.918 76.7532 25.1778 77.2608 25.3772 77.7683C25.5799 78.2495 25.6945 78.7632 25.7155 79.2849C25.7238 79.7614 25.6203 80.2332 25.4134 80.6625C25.2381 81.0329 24.9646 81.3481 24.6226 81.574C24.2807 81.7998 23.8834 81.9276 23.4739 81.9434C23.138 81.9554 22.8054 81.8738 22.5132 81.7078C22.2631 81.5618 22.055 81.3537 21.909 81.1035C21.6972 80.7673 21.6096 80.3677 21.6613 79.9737C21.6915 79.7562 21.77 79.6232 21.7519 79.6172Z" fill="#263238"/>
<path d="M72.6445 82.4992C72.7882 82.9079 72.7882 83.3534 72.6445 83.762C72.5648 83.9966 72.4332 84.2103 72.2595 84.387C72.0859 84.5638 71.8747 84.6992 71.6415 84.7831C71.3307 84.8748 71.0004 84.8781 70.6877 84.7928C70.3751 84.7074 70.0924 84.5367 69.8712 84.2998C69.6174 84.0208 69.4699 83.6615 69.4543 83.2847C69.4427 82.8739 69.5062 82.4643 69.6416 82.0763C69.8954 81.2606 70.421 80.3724 70.3425 79.303C70.3043 78.7608 70.1535 78.2325 69.8996 77.7518C69.6458 77.2712 69.2945 76.8487 68.8682 76.5115C68.4218 76.1541 67.9111 75.8855 67.3637 75.72C66.8046 75.565 66.2279 75.4818 65.6478 75.4723C65.0856 75.4676 64.5251 75.409 63.9741 75.2971C63.4598 75.191 62.9996 74.9063 62.6751 74.4935C62.3877 74.0697 62.2264 73.5732 62.2098 73.0615C62.1829 72.5629 62.2236 72.0629 62.3307 71.5751C62.5959 70.655 62.7421 69.7047 62.7657 68.7474C62.717 67.8975 62.4162 67.0813 61.9017 66.4031C61.4666 65.8649 60.9335 65.4139 60.3307 65.0738C59.8903 64.8132 59.4684 64.5225 59.0679 64.2038C58.7396 63.9226 58.4722 63.5772 58.2825 63.1887C58.2825 63.1887 58.2825 63.1887 58.2825 63.2733C58.3063 63.355 58.3387 63.434 58.3791 63.509C58.5298 63.8026 58.7349 64.0651 58.9834 64.2823C59.375 64.6233 59.7932 64.9324 60.2341 65.2068C60.8105 65.5497 61.3185 65.9962 61.7325 66.5239C62.2114 67.1741 62.485 67.9527 62.518 68.7595C62.4821 69.6952 62.3299 70.6227 62.0648 71.5208C61.9479 72.0317 61.9012 72.5561 61.9259 73.0796C61.9484 73.6435 62.1284 74.1898 62.4455 74.6566C62.8057 75.1227 63.3195 75.446 63.8956 75.569C64.4624 75.6853 65.039 75.748 65.6176 75.7563C66.1768 75.7636 66.733 75.8407 67.2731 75.9859C67.7858 76.1452 68.265 76.3971 68.6869 76.729C69.0841 77.0421 69.412 77.4341 69.6502 77.8802C69.8883 78.3263 70.0315 78.8169 70.0706 79.3211C70.1552 80.2939 69.6718 81.1337 69.406 82.0098C69.2663 82.4301 69.2049 82.8725 69.2247 83.3149C69.251 83.7371 69.4241 84.1368 69.7141 84.4448C69.9623 84.7048 70.2786 84.8897 70.627 84.9784C70.9753 85.067 71.3415 85.0559 71.6838 84.9463C71.9339 84.8493 72.1585 84.6966 72.3407 84.4998C72.5229 84.3029 72.6578 84.0672 72.7352 83.8104C72.8447 83.4955 72.8615 83.1557 72.7835 82.8316C72.7572 82.7134 72.7102 82.6009 72.6445 82.4992Z" fill="#263238"/>
<path d="M66.868 129.827V123.144C67.6172 119.392 67.2607 114.945 65.5145 111.519C64.2478 109.311 62.8474 107.183 61.3213 105.145L54.675 96.5109C51.0135 99.1755 45.2796 97.2481 40.3613 95.4596C40.3613 95.4596 35.5276 98.1483 33.2437 100.674C30.8692 103.332 38.9898 136.594 38.9898 136.594C35.3101 143.953 30.561 150.491 29.842 157.198L68.2697 158.678L66.6384 141.059L66.868 129.827Z" fill="#455A64"/>
<path d="M66.3364 141.246C66.2982 140.997 66.2881 140.743 66.3062 140.491C66.3062 139.941 66.3062 139.283 66.3062 138.443C66.3364 136.63 66.3727 134.292 66.415 131.688C66.4573 129.084 66.5358 126.661 66.6204 124.933C66.6627 124.069 66.705 123.368 66.7412 122.885C66.7454 122.634 66.7779 122.385 66.8379 122.141C66.8623 122.391 66.8623 122.641 66.8379 122.891C66.8379 123.44 66.8379 124.099 66.8379 124.939C66.8077 126.752 66.7654 129.09 66.7231 131.694C66.6808 134.298 66.6083 136.721 66.5237 138.449C66.4814 139.313 66.4391 140.014 66.3968 140.497C66.4063 140.749 66.386 141 66.3364 141.246Z" fill="#263238"/>
<path d="M83.8888 147.325C83.8888 147.325 87.6349 147.53 89.9309 148.98C92.2269 150.43 95.973 152.69 97.5137 155.488C98.2207 156.775 96.2086 157.047 95.2117 156.303C94.2148 155.56 92.6982 154.146 91.9429 153.977L91.1877 153.802C91.8772 155.363 92.6455 156.887 93.4897 158.37C94.2691 159.578 94.9458 161.584 92.6015 161.675C92.6015 161.675 91.0245 163.729 89.4294 162.207C89.4294 162.207 88.1847 164.074 86.1788 161.488C86.1788 161.488 85.0066 162.968 84.5232 162.4C84.0399 161.832 82.4387 160.938 81.9735 159.089C81.2754 156.937 80.4688 154.821 79.5566 152.751L83.8888 147.325Z" fill="#FFBF9D"/>
<path d="M167.759 95.3991C168.176 95.3991 185.329 93.5865 185.329 93.5865C185.329 93.5865 186.786 86.6139 186.707 84.8013C186.628 82.9887 185.408 70.9951 185.408 70.9951L191.831 67.9741C191.831 67.9741 200.416 96.9278 198.543 99.3325C196.67 101.737 193.148 103.894 192.846 103.906C192.544 103.918 176.224 111.157 164.871 107.393C153.518 103.628 167.759 95.3991 167.759 95.3991Z" fill="#FFBF9D"/>
<path d="M152.726 111.03C155.252 113.537 159.602 115.622 166.865 113.809C181.221 110.22 191.982 107.163 196.259 104.867C200.537 102.571 198.87 92.3116 199.232 91.8464C200.314 90.4446 199.123 87.4356 197.583 86.9644C193.19 85.6351 185.547 86.1608 185.16 86.5595C182.906 88.928 184.961 91.8041 184.961 91.8041L166.031 94.2874C163.703 94.1783 161.371 94.3262 159.076 94.7285" fill="#455A64"/>
<path d="M159.077 94.7285L159.53 94.6318C159.832 94.5774 160.279 94.4989 160.871 94.4264C162.584 94.2107 164.312 94.138 166.037 94.2089L184.961 91.6712L184.87 91.8827C184.249 90.9681 183.943 89.8754 184 88.771C184.052 88.1998 184.238 87.649 184.544 87.1638C184.698 86.92 184.871 86.6896 185.064 86.475C185.139 86.419 185.223 86.3742 185.311 86.3421L185.529 86.2877C185.674 86.2514 185.813 86.2394 185.952 86.2091C188.296 85.9388 190.661 85.8903 193.015 86.0641C194.251 86.1394 195.479 86.3091 196.689 86.5717C196.991 86.6381 197.293 86.7288 197.607 86.8073C197.929 86.9101 198.224 87.0835 198.471 87.3148C198.951 87.7713 199.318 88.3343 199.54 88.9583C199.78 89.5833 199.865 90.257 199.788 90.922C199.733 91.268 199.603 91.5979 199.407 91.8887C199.353 91.9491 199.359 92.1123 199.353 92.2694V92.7527C199.395 94.0518 199.456 95.375 199.42 96.7043C199.429 98.5913 199.121 100.466 198.507 102.251C198.192 103.145 197.651 103.942 196.936 104.565C196.566 104.854 196.16 105.094 195.728 105.278C195.329 105.489 194.906 105.653 194.519 105.846C192.864 106.553 191.202 107.133 189.565 107.659C187.927 108.184 186.32 108.692 184.731 109.157C178.411 110.97 172.647 112.438 167.85 113.64C166.704 113.943 165.542 114.183 164.369 114.359C163.319 114.506 162.258 114.562 161.197 114.528C159.494 114.492 157.814 114.127 156.249 113.453C155.267 113.02 154.352 112.45 153.53 111.761C153.24 111.527 152.969 111.27 152.72 110.994C152.72 110.994 152.998 111.26 153.572 111.713C154.405 112.377 155.324 112.926 156.303 113.344C157.858 113.986 159.521 114.328 161.203 114.353C162.252 114.378 163.301 114.314 164.339 114.16C165.504 113.976 166.657 113.73 167.795 113.423C172.629 112.214 178.345 110.728 184.647 108.879C186.224 108.414 187.831 107.918 189.48 107.375C191.13 106.831 192.767 106.257 194.405 105.562C194.803 105.375 195.22 105.212 195.613 105C196.016 104.822 196.396 104.595 196.743 104.323C197.417 103.737 197.928 102.985 198.223 102.142C198.818 100.381 199.115 98.5329 199.099 96.674C199.136 95.3508 199.099 94.0397 199.033 92.7346V92.2391C199.033 92.1546 199.033 92.07 199.033 91.9793C199.028 91.9311 199.028 91.8825 199.033 91.8343C199.046 91.797 199.063 91.7607 199.081 91.7256L199.111 91.6772C199.281 91.4295 199.393 91.1465 199.438 90.8495C199.508 90.2351 199.428 89.6127 199.202 89.0368C198.999 88.4598 198.664 87.9384 198.223 87.5142C198.009 87.3136 197.753 87.1629 197.474 87.0732C197.172 86.9946 196.87 86.91 196.574 86.8375C195.38 86.5787 194.168 86.4111 192.948 86.336C190.619 86.158 188.278 86.2025 185.958 86.469C185.819 86.469 185.68 86.5052 185.547 86.5415L185.354 86.5838C185.312 86.6002 185.271 86.6204 185.233 86.6442C185.051 86.8426 184.887 87.0569 184.743 87.2846C184.456 87.7292 184.281 88.2374 184.236 88.7649C184.183 89.8034 184.467 90.8311 185.045 91.6954L185.166 91.8827H184.955L166.019 94.2995C164.304 94.2124 162.584 94.2609 160.877 94.4445C160.273 94.5049 159.832 94.5714 159.53 94.6137C159.228 94.656 159.077 94.7285 159.077 94.7285Z" fill="#263238"/>
<path d="M107.823 114.406L100.113 100.553L245.951 19.3806C247.631 18.4454 249.614 18.216 251.464 18.7428C253.313 19.2696 254.877 20.5095 255.813 22.1897L256.474 23.3776C257.409 25.0578 257.638 27.0407 257.112 28.8901C256.585 30.7395 255.345 32.3038 253.665 33.239L107.826 114.412L107.823 114.406Z" fill="#B366FF"/>
<path d="M230.115 41.1425L212.258 9.05956C212.172 8.90427 212.117 8.73346 212.096 8.55691C212.076 8.38035 212.091 8.20149 212.139 8.03056C212.188 7.85962 212.27 7.69996 212.38 7.56067C212.491 7.42138 212.627 7.3052 212.783 7.21876L220.976 2.65824C221.132 2.5718 221.302 2.51679 221.479 2.49636C221.656 2.47593 221.834 2.49048 222.005 2.53917C222.176 2.58786 222.336 2.66975 222.475 2.78015C222.615 2.89055 222.731 3.0273 222.817 3.1826L240.674 35.2656L230.115 41.1425Z" fill="#B366FF"/>
<path d="M194.987 26.203L208.001 49.5855C208.527 50.5302 209.719 50.8698 210.664 50.344L217.801 46.3711C218.746 45.8453 219.086 44.6532 218.56 43.7085L205.545 20.326C205.02 19.3813 203.827 19.0417 202.883 19.5676L195.745 23.5404C194.8 24.0662 194.461 25.2583 194.987 26.203Z" fill="#B366FF"/>
<path d="M206.477 24.8375L214.534 39.3136L230.932 30.1867L222.875 15.7105L206.477 24.8375Z" fill="#B366FF"/>
<path d="M243.817 20.5981C243.859 20.6706 215.238 36.6822 179.904 56.3552C144.569 76.0282 115.857 91.9189 115.857 91.8404C115.857 91.7618 144.43 75.7564 179.777 56.0773C215.123 36.3982 243.775 20.5196 243.817 20.5981Z" fill="#263238"/>
<path d="M48.7601 141.168C59.515 160.503 82.1909 168.357 99.4109 158.781C116.631 149.204 121.887 125.761 111.133 106.45C100.378 87.1396 77.7077 79.2607 60.4817 88.8374C43.2557 98.4142 38.0112 121.857 48.7601 141.168ZM101.804 111.646C109.338 125.181 105.658 141.597 93.5863 148.31C81.5142 155.023 65.6296 149.518 58.0951 135.972C50.5606 122.425 54.2402 106.021 66.3063 99.3023C78.3723 92.5835 94.2691 98.1121 101.804 111.646Z" fill="#B366FF"/>
<path d="M124.662 86.7219L132.619 101.019C133.677 102.92 136.076 103.603 137.977 102.545L138.621 102.186C140.522 101.128 141.206 98.7294 140.148 96.8283L132.19 82.5317C131.132 80.6306 128.733 79.9473 126.832 81.0054L126.188 81.3639C124.287 82.422 123.604 84.8209 124.662 86.7219Z" fill="#B366FF"/>
<path d="M139.944 78.2155L147.902 92.5121C148.96 94.4132 151.359 95.0965 153.26 94.0384L153.904 93.6799C155.805 92.6218 156.488 90.2229 155.43 88.3218L147.473 74.0252C146.415 72.1241 144.016 71.4408 142.115 72.4989L141.471 72.8574C139.57 73.9155 138.886 76.3144 139.944 78.2155Z" fill="#B366FF"/>
<path d="M132.02 82.3119C132.098 82.2697 133.941 85.5143 136.147 89.5625C138.352 93.6107 140.074 96.9096 139.995 96.9519C139.917 96.9942 138.074 93.7557 135.869 89.7014C133.663 85.6472 131.941 82.3119 132.02 82.3119Z" fill="#263238"/>
<path d="M125.005 87.2967C125.084 87.2544 126.884 90.354 129.035 94.2089C131.186 98.0637 132.86 101.236 132.787 101.278C132.715 101.32 130.908 98.2208 128.781 94.3962C126.655 90.5715 124.933 87.339 125.005 87.2967Z" fill="#263238"/>
<path d="M147.397 73.8954C147.476 73.8531 149.355 77.0795 151.596 81.1036C153.838 85.1276 155.59 88.4326 155.512 88.4749C155.433 88.5172 153.56 85.2847 151.319 81.2607C149.077 77.2366 147.325 73.9376 147.397 73.8954Z" fill="#263238"/>
<path d="M140.02 78.3483C140.092 78.306 141.935 81.5144 144.122 85.5142C146.31 89.5141 148.031 92.7647 147.953 92.8312C147.874 92.8977 146.044 89.6651 143.85 85.6653C141.657 81.6654 139.941 78.3906 140.02 78.3483Z" fill="#263238"/>
<path d="M183.843 56.5546C184.547 56.6374 185.256 56.4554 185.832 56.0441C186.409 55.6328 186.812 55.0215 186.963 54.3293C187.114 53.6372 187.002 52.9137 186.648 52.2997C186.295 51.6857 185.726 51.2253 185.051 51.0079C185.487 50.5617 185.772 49.9897 185.864 49.3728C185.957 48.756 185.853 48.1257 185.568 47.571C185.283 47.0164 184.83 46.5655 184.274 46.2823C183.719 45.9991 183.088 45.8979 182.471 45.993C182.446 45.3795 182.262 44.783 181.938 44.2615C181.614 43.74 181.161 43.3113 180.622 43.0169C180.083 42.7225 179.477 42.5726 178.863 42.5817C178.249 42.5907 177.648 42.7585 177.118 43.0686C176.427 42.5037 175.567 42.1861 174.675 42.1664C173.782 42.1467 172.909 42.426 172.194 42.9599C171.593 42.8451 170.971 42.9271 170.42 43.1937C169.87 43.4603 169.42 43.8973 169.137 44.4398C168.854 44.9823 168.753 45.6016 168.85 46.2057C168.947 46.8098 169.236 47.3666 169.674 47.7935" fill="#263238"/>
<path d="M171.584 45.7754H172.188C175.234 45.778 178.168 46.9277 180.405 48.9957C182.642 51.0637 184.018 53.8982 184.26 56.9351C184.713 62.7899 185.136 69.261 185.088 72.4029C184.973 78.9283 178.484 79.8951 178.484 79.8951L179.009 87.7135L163.221 87.2L161.91 58.8626C161.354 52.1015 164.816 46.15 171.584 45.7754Z" fill="#FFBF9D"/>
<path d="M178.538 79.8951C175.518 79.8869 172.563 79.0124 170.025 77.3755C170.025 77.3755 172.115 82.2998 178.604 81.7319L178.538 79.8951Z" fill="#FF9A6C"/>
<path d="M180.689 63.068C180.691 63.31 180.597 63.5431 180.429 63.7171C180.261 63.8911 180.031 63.9921 179.789 63.9984C179.671 64.0066 179.552 63.9913 179.44 63.9535C179.328 63.9156 179.225 63.8559 179.136 63.7778C179.047 63.6996 178.975 63.6047 178.923 63.4984C178.871 63.3921 178.841 63.2766 178.834 63.1586C178.834 62.9164 178.927 62.6835 179.095 62.5089C179.263 62.3342 179.492 62.2314 179.734 62.2221C179.853 62.2139 179.972 62.2294 180.084 62.2676C180.196 62.3059 180.3 62.3661 180.389 62.4449C180.478 62.5236 180.55 62.6193 180.602 62.7262C180.653 62.8332 180.683 62.9494 180.689 63.068Z" fill="#263238"/>
<path d="M182.852 60.1314C182.737 60.2523 182.03 59.7327 181.039 59.7327C180.049 59.7327 179.305 60.2281 179.197 60.1073C179.088 59.9864 179.263 59.8354 179.583 59.5997C180.017 59.3019 180.532 59.1457 181.058 59.1526C181.577 59.1504 182.083 59.3157 182.502 59.6239C182.804 59.8595 182.906 60.0831 182.852 60.1314Z" fill="#263238"/>
<path d="M171.68 62.6329C171.685 62.8787 171.592 63.1164 171.423 63.2941C171.253 63.4719 171.019 63.5752 170.774 63.5815C170.656 63.5897 170.537 63.5744 170.425 63.5365C170.313 63.4987 170.21 63.4389 170.121 63.3608C170.032 63.2827 169.96 63.1878 169.908 63.0815C169.856 62.9752 169.826 62.8597 169.819 62.7417C169.817 62.499 169.911 62.2653 170.079 62.0903C170.247 61.9153 170.477 61.813 170.719 61.8051C170.837 61.7961 170.955 61.8103 171.067 61.8471C171.179 61.8838 171.283 61.9424 171.372 62.0193C171.461 62.0962 171.534 62.19 171.587 62.2953C171.64 62.4006 171.672 62.5154 171.68 62.6329Z" fill="#263238"/>
<path d="M173.028 60.2886C172.913 60.4094 172.206 59.8898 171.215 59.8898C170.224 59.8898 169.481 60.3852 169.372 60.2644C169.263 60.1435 169.439 59.9925 169.759 59.7568C170.192 59.459 170.707 59.3028 171.233 59.3097C171.753 59.3075 172.259 59.4728 172.677 59.781C172.979 60.0167 173.082 60.2342 173.028 60.2886Z" fill="#263238"/>
<path d="M176.629 67.7143C177.156 67.5486 177.702 67.4511 178.254 67.4243C178.508 67.4243 178.749 67.3518 178.798 67.1766C178.819 66.9135 178.76 66.6502 178.629 66.4213L177.879 64.4758C176.84 61.7025 176.067 59.4246 176.2 59.3883C176.333 59.3521 177.245 61.5575 178.284 64.3247C178.532 65.0075 178.774 65.66 179.003 66.2824C179.16 66.5921 179.205 66.9464 179.13 67.2854C179.092 67.3749 179.034 67.4546 178.961 67.5184C178.888 67.5823 178.801 67.6286 178.707 67.6539C178.568 67.6953 178.423 67.7156 178.278 67.7143C177.73 67.7828 177.176 67.7828 176.629 67.7143Z" fill="#263238"/>
<path d="M173.904 56.4458C173.771 56.6995 172.919 56.4458 171.861 56.3853C170.804 56.3249 169.922 56.5243 169.825 56.2585C169.783 56.1316 169.97 55.908 170.351 55.7026C170.842 55.46 171.387 55.3477 171.934 55.3763C172.476 55.3955 173.004 55.5581 173.463 55.8476C173.807 56.0832 173.964 56.331 173.904 56.4458Z" fill="#263238"/>
<path d="M182.913 56.0168C182.701 56.2403 181.873 56.0168 180.882 56.0168C179.891 56.0168 179.07 56.1678 178.858 55.9262C178.774 55.8114 178.907 55.5818 179.275 55.3703C179.783 55.1041 180.352 54.977 180.925 55.0017C181.494 55.0094 182.052 55.1701 182.538 55.467C182.888 55.6724 183.003 55.902 182.913 56.0168Z" fill="#263238"/>
<path d="M183.643 53.9746C183.643 53.9746 181.94 49.8962 179.976 48.9415C177.601 47.7814 176.574 50.3856 174.308 49.7451C172.043 49.1047 169.777 47.999 167.457 49.7451C164.919 51.6544 166.103 53.0018 165.934 55.8899C165.269 67.5874 163.118 70.8864 162.532 65.376C162.466 64.7718 160.792 64.2884 160.551 61.7508C160.236 58.4457 160.122 54.4277 160.871 52.0834C161.475 50.1076 162.629 48.7421 164.653 47.2497C167.855 44.8812 172.242 44.8329 175.221 45.1531C178.2 45.4734 183.927 48.8751 183.643 53.9746Z" fill="#263238"/>
<path d="M162.943 65.1947C162.937 64.956 162.882 64.7212 162.782 64.5044C162.682 64.2876 162.538 64.0933 162.361 63.9335C162.184 63.7736 161.976 63.6514 161.75 63.5743C161.524 63.4972 161.284 63.4667 161.046 63.4848C159.838 63.5996 158.478 64.2824 158.551 66.7898C158.678 71.2368 163.119 70.1915 163.125 70.0586C163.131 69.9257 163.016 67.0557 162.943 65.1947Z" fill="#FFBF9D"/>
<path d="M162.104 68.4152C162.104 68.4152 162.031 68.4756 161.898 68.536C161.718 68.6189 161.512 68.6297 161.324 68.5663C161.031 68.3927 160.789 68.1436 160.624 67.8451C160.46 67.5465 160.378 67.2093 160.388 66.8684C160.364 66.489 160.426 66.1091 160.569 65.7567C160.607 65.6174 160.679 65.4895 160.778 65.3842C160.877 65.2789 161 65.1994 161.137 65.1525C161.225 65.1255 161.321 65.1307 161.406 65.1672C161.491 65.2037 161.561 65.2691 161.602 65.3519C161.663 65.4727 161.638 65.5633 161.663 65.5694C161.687 65.5754 161.753 65.4908 161.711 65.3096C161.687 65.1993 161.622 65.1022 161.53 65.0377C161.469 64.9928 161.399 64.9606 161.326 64.943C161.252 64.9253 161.175 64.9226 161.101 64.935C160.919 64.9759 160.75 65.063 160.612 65.1879C160.473 65.3128 160.369 65.4712 160.309 65.6479C160.13 66.0372 160.049 66.4646 160.073 66.8926C160.128 67.7868 160.611 68.6146 161.282 68.7838C161.402 68.8153 161.527 68.8192 161.648 68.7951C161.77 68.771 161.884 68.7196 161.983 68.6448C162.104 68.524 162.122 68.4152 162.104 68.4152Z" fill="#FF9A6C"/>
<path d="M163.058 56.5788C163.602 57.0222 164.248 57.3233 164.937 57.4549C165.283 57.5091 165.638 57.4362 165.934 57.2496C166.231 57.063 166.45 56.7753 166.551 56.4398C166.605 56.1317 166.551 55.7691 166.732 55.5335C166.913 55.2978 167.427 55.3401 167.795 55.3824C169.088 55.5214 170.605 54.0955 170.937 52.8387C171.105 53.0797 171.358 53.2477 171.646 53.3083C171.933 53.3689 172.233 53.3177 172.484 53.165C172.895 52.9139 173.259 52.5928 173.559 52.2164C173.735 51.9767 173.965 51.7828 174.231 51.6513C174.497 51.5198 174.791 51.4546 175.088 51.4611C175.401 51.5692 175.725 51.6402 176.055 51.6726C176.659 51.6243 176.925 50.9415 177.015 50.3615C177.106 49.7814 177.179 49.1107 177.674 48.7966C178.183 48.5973 178.745 48.5824 179.263 48.7543C179.801 48.8389 180.472 48.712 180.635 48.1863C180.657 48.0458 180.651 47.9023 180.616 47.7643C180.582 47.6263 180.521 47.4965 180.435 47.3827C180.076 46.8438 179.545 46.442 178.929 46.2424C178.312 46.0428 177.647 46.0571 177.04 46.2831C176.826 45.5394 176.395 44.8763 175.803 44.3781C175.211 43.88 174.485 43.5693 173.715 43.4857C172.946 43.4021 172.169 43.5494 171.484 43.9087C170.799 44.2681 170.236 44.8233 169.868 45.5036C169.397 45.0726 168.829 44.7619 168.213 44.5977C167.596 44.4336 166.949 44.4211 166.326 44.5611C165.704 44.7012 165.124 44.9897 164.637 45.4021C164.15 45.8145 163.77 46.3386 163.53 46.9296C162.986 46.7845 162.411 46.8025 161.877 46.9815C161.344 47.1605 160.874 47.4926 160.528 47.9363C160.181 48.38 159.973 48.9158 159.929 49.477C159.884 50.0382 160.006 50.6 160.279 51.0926C159.865 51.297 159.51 51.6033 159.246 51.9828C158.983 52.3622 158.821 52.8023 158.774 53.2617C158.774 54.1801 159.651 55.0743 160.539 54.8568C160.355 55.2187 160.316 55.6374 160.431 56.0269C160.545 56.4164 160.805 56.7471 161.156 56.9513C161.507 57.1554 161.923 57.2174 162.318 57.1245C162.714 57.0317 163.058 56.791 163.282 56.4519" fill="#263238"/>
<path d="M177.366 47.5881C177.366 47.5881 177.366 47.5881 177.366 47.6727C177.366 47.7573 177.366 47.8056 177.336 47.9083C177.273 48.2098 177.163 48.4995 177.009 48.7663C176.764 49.1844 176.427 49.5417 176.025 49.8116C175.492 50.1748 174.856 50.355 174.212 50.3251L174.284 50.2285C174.415 50.6274 174.382 51.0619 174.194 51.4369C173.994 51.8344 173.738 52.2008 173.432 52.5245C173.284 52.7132 173.116 52.8854 172.931 53.038C172.602 53.2543 172.207 53.3468 171.817 53.2993C171.426 53.2517 171.065 53.0671 170.798 52.7782L170.961 52.7299C170.899 53.1916 170.74 53.6351 170.496 54.0316C170.251 54.4281 169.926 54.7689 169.541 55.0319C169.119 55.346 168.606 55.5136 168.079 55.5093C167.586 55.4823 167.1 55.3741 166.641 55.189L166.762 55.1346C166.529 55.6727 166.166 56.1441 165.705 56.5062C165.494 56.6865 165.246 56.8175 164.978 56.8896C164.711 56.9617 164.43 56.9732 164.158 56.9231C163.691 56.8215 163.263 56.5854 162.928 56.2441C162.593 55.9027 162.365 55.4709 162.273 55.0017L162.375 55.0501C161.905 55.2936 161.366 55.3702 160.847 55.2676C160.46 55.1938 160.096 55.0303 159.783 54.7902C159.589 54.6378 159.422 54.454 159.288 54.2465C159.239 54.1744 159.202 54.0948 159.179 54.0108C159.348 54.2887 159.567 54.5325 159.826 54.7298C160.134 54.9525 160.49 55.0995 160.865 55.1588C161.358 55.2522 161.869 55.1711 162.309 54.9292L162.394 54.8809V54.9776C162.485 55.4142 162.702 55.8148 163.017 56.1302C163.333 56.4457 163.733 56.6624 164.17 56.7539C164.419 56.7974 164.675 56.7847 164.918 56.7168C165.162 56.6488 165.387 56.5274 165.578 56.3612C166.011 56.017 166.351 55.5706 166.569 55.0621L166.605 54.9836H166.69C167.127 55.1595 167.59 55.2616 168.061 55.2857C168.548 55.2896 169.023 55.1348 169.415 54.8446C169.777 54.5961 170.083 54.2749 170.314 53.9014C170.545 53.5279 170.695 53.1104 170.756 52.6755V52.464L170.895 52.6272C171.052 52.8008 171.249 52.9333 171.469 53.0133C171.689 53.0934 171.926 53.1184 172.158 53.0864C172.374 53.0575 172.581 52.9789 172.762 52.8568C172.937 52.7162 173.095 52.556 173.233 52.3795C173.532 52.0712 173.784 51.7211 173.982 51.3402C174.071 51.1706 174.126 50.9849 174.142 50.7941C174.159 50.6032 174.137 50.4109 174.079 50.2285L174.043 50.1197H174.158C174.775 50.158 175.387 49.9947 175.904 49.6545C176.3 49.3992 176.635 49.0586 176.883 48.6575C177.106 48.3324 177.269 47.9703 177.366 47.5881Z" fill="#455A64"/>
<path d="M176.617 71.0314C176.58 70.8683 175.499 71.1341 174.496 70.397C173.493 69.6599 173.33 68.4756 173.179 68.5058C173.028 68.536 173.028 68.82 173.136 69.3094C173.285 69.948 173.656 70.5131 174.182 70.9045C174.684 71.279 175.312 71.4436 175.934 71.3637C176.399 71.2912 176.641 71.1039 176.617 71.0314Z" fill="#263238"/>
<path d="M210.126 240.083L214.416 254.699C214.416 254.699 230.73 255.243 231.775 257.871L203.703 267.2L196.078 244.693L210.126 240.083Z" fill="#455A64"/>
<path d="M205.341 256.372C205.098 256.545 204.928 256.8 204.862 257.09C204.797 257.38 204.84 257.684 204.984 257.943C205.147 258.192 205.398 258.369 205.687 258.437C205.976 258.506 206.28 258.461 206.537 258.312C206.794 258.129 206.974 257.857 207.042 257.549C207.11 257.241 207.061 256.919 206.906 256.644C206.709 256.402 206.426 256.246 206.116 256.207C205.806 256.169 205.494 256.252 205.244 256.439" fill="#E0E0E0"/>
<path d="M230.192 256.813C230.192 256.813 231.624 256.94 231.775 257.871L203.703 267.2L203.027 264.898L230.168 256.801" fill="#263238"/>
<path d="M214.821 254.403C214.863 254.542 214.217 254.832 213.673 255.496C213.129 256.161 212.978 256.856 212.833 256.844C212.688 256.832 212.633 255.974 213.286 255.182C213.939 254.391 214.809 254.27 214.821 254.403Z" fill="white"/>
<path d="M218.168 254.638C218.247 254.765 217.733 255.194 217.455 255.925C217.177 256.657 217.256 257.321 217.117 257.357C216.978 257.394 216.633 256.65 216.99 255.744C217.346 254.838 218.126 254.512 218.168 254.638Z" fill="white"/>
<path d="M221.014 257.605C220.899 257.678 220.482 257.055 220.585 256.191C220.688 255.327 221.225 254.808 221.322 254.904C221.419 255.001 221.153 255.508 221.08 256.246C221.008 256.983 221.147 257.533 221.014 257.605Z" fill="white"/>
<path d="M213.474 251.182C213.474 251.327 212.767 251.346 212.011 251.654C211.256 251.962 210.73 252.409 210.622 252.318C210.513 252.228 210.93 251.545 211.83 251.189C212.73 250.832 213.51 251.05 213.474 251.182Z" fill="white"/>
<path d="M144.666 240.21L138.558 254.167C138.558 254.167 150.696 265.043 149.82 267.75L122.329 256.874L130.951 234.736L144.666 240.21Z" fill="#455A64"/>
<path d="M130.528 249.617C130.232 249.594 129.938 249.68 129.702 249.86C129.465 250.039 129.304 250.299 129.247 250.59C129.213 250.885 129.293 251.182 129.47 251.42C129.648 251.658 129.909 251.819 130.201 251.871C130.515 251.894 130.827 251.801 131.076 251.61C131.326 251.418 131.496 251.141 131.555 250.832C131.555 250.228 131.005 249.539 130.413 249.623" fill="#E0E0E0"/>
<path d="M149.282 265.925C149.282 265.925 150.297 266.946 149.82 267.738L122.329 256.862L123.289 254.669L149.27 265.907" fill="#263238"/>
<path d="M139.053 254.203C138.998 254.336 138.304 254.131 137.47 254.3C136.636 254.469 136.062 254.904 135.959 254.795C135.857 254.687 136.364 253.998 137.373 253.811C138.382 253.623 139.137 254.089 139.053 254.203Z" fill="white"/>
<path d="M141.47 256.536C141.47 256.675 140.781 256.675 140.098 257.061C139.416 257.448 139.053 257.998 138.89 257.943C138.727 257.889 138.975 257.091 139.826 256.626C140.678 256.161 141.518 256.409 141.47 256.536Z" fill="white"/>
<path d="M141.748 260.632C141.615 260.632 141.693 259.871 142.352 259.273C143.01 258.675 143.73 258.626 143.742 258.759C143.754 258.892 143.21 259.134 142.696 259.635C142.183 260.137 141.887 260.674 141.748 260.632Z" fill="white"/>
<path d="M140.098 250.886C139.996 250.983 139.452 250.56 138.672 250.282C137.893 250.004 137.21 250.04 137.186 249.901C137.162 249.762 137.917 249.503 138.83 249.805C139.742 250.107 140.207 250.789 140.098 250.886Z" fill="white"/>
<path d="M154.956 163.536L145.325 202.604C145.325 202.604 127.954 231.848 125.011 246.482L140.902 252.729C140.902 252.729 152.46 224.543 155.85 219.371C157.375 217.053 159.128 214.893 161.083 212.924C162.353 211.663 163.265 210.086 163.723 208.356L171.016 180.484L154.956 163.536Z" fill="#263238"/>
<path d="M150.853 157.288C150.853 157.288 152.194 167.753 162.267 172.393L183.486 206.954C183.486 206.954 185.148 218.192 188.32 227.66C191.492 237.128 197.903 255.376 197.903 255.376L215.358 248.85L204.235 210.821L202.422 197.631L185.106 153.524L170.23 144.606L150.853 157.288Z" fill="#263238"/>
<path d="M150.853 157.288L151.173 157.071L152.134 156.43L155.904 153.941L170.2 144.545L170.248 144.515L170.296 144.545L185.184 153.445V153.482L202.537 197.547V197.577C203.111 201.746 203.745 206.211 204.35 210.767C207.371 221.038 210.573 232.029 213.884 243.352C214.42 245.176 214.952 246.989 215.479 248.79L215.522 248.929L215.383 248.977L197.927 255.502L197.776 255.557L197.728 255.406C194.707 246.639 191.782 238.198 189.021 230.192C188.326 228.192 187.643 226.21 187.075 224.229C186.507 222.247 185.994 220.277 185.529 218.331C184.61 214.44 183.873 210.64 183.293 206.954V207.003L162.194 172.43L162.23 172.46C159.678 171.267 157.412 169.54 155.584 167.397C154.244 165.823 153.145 164.06 152.321 162.164C151.812 160.994 151.407 159.781 151.113 158.539C151.01 158.128 150.95 157.808 150.913 157.59C150.877 157.373 150.871 157.264 150.871 157.264C150.871 157.264 150.871 157.373 150.938 157.584C151.004 157.796 151.04 158.116 151.155 158.533C151.467 159.759 151.883 160.955 152.4 162.11C153.233 163.986 154.337 165.731 155.675 167.288C157.509 169.409 159.775 171.115 162.321 172.291L183.583 206.827V206.858C184.187 210.531 184.912 214.326 185.831 218.211C186.296 220.15 186.803 222.114 187.377 224.09C187.951 226.065 188.628 228.035 189.323 230.035C192.096 238.041 195.015 246.482 198.048 255.243L197.848 255.152L215.304 248.627L215.207 248.814C214.684 247.013 214.152 245.201 213.612 243.376L204.09 210.785C203.486 206.229 202.845 201.764 202.277 197.595V197.631L184.991 153.524L185.039 153.578L170.176 144.642H170.266L155.971 153.995L152.164 156.448L151.185 157.083L150.853 157.288Z" fill="#455A64"/>
<path d="M160.2 82.6261C160.2 82.6261 155.113 86.5414 152.642 90.9159C149.681 96.1544 149.361 103.918 149.27 115.978C149.179 127.132 150.847 130.232 150.207 134.437C148.944 142.648 148.007 170.206 148.007 170.206C148.007 170.206 164.321 163.941 167.487 161.143L170.671 158.376L191.087 165.125L186.967 140.038L184.139 108.77L180.514 92.1847L179.91 85.6774L162.375 78.6323L160.2 82.6261Z" fill="#455A64"/>
<path d="M179.251 85.333C179.462 85.3753 178.749 86.8073 177.493 88.9099L177.438 88.9945L177.342 88.9583C175.571 88.2695 173.227 87.4054 170.665 86.4689C167.777 85.4176 165.167 84.4388 163.3 83.6775C162.363 83.2968 161.614 82.9766 161.1 82.741C160.828 82.6355 160.565 82.5061 160.315 82.3543C160.602 82.4182 160.881 82.5113 161.149 82.6322L163.378 83.472L170.774 86.1729C173.336 87.1094 175.674 87.9855 177.42 88.7347L177.275 88.783C178.592 86.7227 179.372 85.3632 179.251 85.333Z" fill="#263238"/>
<path d="M200.35 72.3062C200.35 72.3062 199.057 70.2942 197.836 68.4393C196.616 66.5844 194.767 65.672 194.471 64.7053C194.175 63.7385 192.55 59.4305 192.29 58.3611C192.064 57.3254 191.959 56.267 191.976 55.2071C191.976 55.2071 193.311 54.6392 193.951 56.5485C194.338 57.6965 195.571 61.5936 195.837 61.7869C196.102 61.9803 196.441 61.6963 196.441 61.6963C195.892 60.2371 195.418 58.7508 195.021 57.2433C194.96 56.5364 195.208 51.8477 195.208 51.8477C195.539 51.7809 195.884 51.835 196.179 52.0002C196.473 52.1653 196.699 52.4306 196.815 52.748C197.45 53.9564 197.474 56.9774 197.474 56.9774L198.435 60.3489L198.096 57.0137L198.58 50.881C199.049 50.9479 199.487 51.1578 199.832 51.4821C200.178 51.8064 200.416 52.2295 200.513 52.6936C200.918 54.3491 200.38 56.6572 200.652 57.1466C200.924 57.636 201.22 60.5967 201.22 60.5967C201.22 60.5967 201.552 53.4066 202.32 53.2011C203.087 52.9957 203.715 53.757 203.607 55.2071C203.498 56.6572 203.468 59.7266 203.866 61.08C204.265 62.4335 208.356 67.7263 208.023 70.0465C207.82 71.4483 207.693 72.8603 207.643 74.2759H200.634L200.35 72.3062Z" fill="#FFBF9D"/>
<path d="M175.765 90.4145C176.157 90.5655 192.9 94.7104 192.9 94.7104C192.9 94.7104 196.64 88.6683 197.19 86.9161C197.74 85.1639 200.682 73.4906 200.682 73.4906L207.757 72.826C207.757 72.826 205.945 102.97 203.383 104.595C200.821 106.221 196.737 107.042 196.471 106.952C196.205 106.861 178.375 108.1 168.979 100.698C159.584 93.2965 175.765 90.4145 175.765 90.4145Z" fill="#FFBF9D"/>
<g opacity="0.3">
<path d="M163.765 106.372C165.562 108.406 167.96 109.815 170.611 110.396C175.052 111.374 184.508 113.109 184.508 113.109L184.048 108.468L163.505 106.269" fill="black"/>
</g>
<path d="M156.309 99.9911C157.832 103.205 161.215 106.637 168.653 107.417C183.378 108.939 194.526 109.749 199.341 109.024C204.157 108.299 206.072 98.106 206.592 97.7918C208.09 96.8492 207.993 93.6107 206.7 92.6439C203.027 89.8948 195.661 87.8102 195.166 88.0338C192.236 89.4899 193.19 92.8977 193.19 92.8977L174.52 88.777C172.37 87.8825 170.126 87.23 167.832 86.8314" fill="#455A64"/>
<path d="M167.832 86.8314C167.832 86.8314 167.989 86.8314 168.291 86.8919C168.593 86.9523 169.046 87.0248 169.626 87.1517C171.31 87.5336 172.959 88.055 174.556 88.7105L193.214 92.7708L193.057 92.94C192.781 91.8692 192.866 90.7371 193.299 89.7196C193.538 89.1985 193.898 88.7426 194.35 88.3903C194.579 88.2117 194.824 88.054 195.081 87.919C195.17 87.8927 195.261 87.8785 195.353 87.8767H195.577C195.728 87.8767 195.861 87.9251 196.006 87.9492C198.302 88.4922 200.541 89.2508 202.694 90.215C203.829 90.7093 204.926 91.2869 205.975 91.943C206.235 92.1122 206.495 92.2995 206.755 92.4808C207.023 92.685 207.242 92.9473 207.395 93.2481C207.69 93.8414 207.843 94.495 207.842 95.1574C207.858 95.8278 207.708 96.4917 207.407 97.0909C207.24 97.4 207.005 97.6666 206.718 97.8703C206.646 97.9066 206.598 98.0637 206.537 98.2087L206.38 98.6618C205.981 99.8703 205.582 101.163 205.099 102.408C204.466 104.193 203.539 105.859 202.356 107.338C201.927 107.9 201.38 108.362 200.754 108.689C200.128 109.017 199.437 109.204 198.731 109.236C198.278 109.302 197.824 109.314 197.377 109.35C195.565 109.459 193.825 109.435 192.103 109.387C190.381 109.338 188.695 109.248 187.057 109.145C180.49 108.722 174.599 108.124 169.656 107.61C168.476 107.507 167.302 107.337 166.14 107.103C165.109 106.882 164.098 106.575 163.119 106.184C161.532 105.568 160.078 104.653 158.835 103.489C158.059 102.747 157.392 101.899 156.853 100.97C156.66 100.651 156.492 100.318 156.352 99.973C156.352 99.973 156.521 100.317 156.907 100.94C157.466 101.845 158.142 102.672 158.919 103.399C160.161 104.537 161.609 105.427 163.185 106.021C164.166 106.4 165.177 106.697 166.206 106.909C167.365 107.131 168.535 107.291 169.711 107.387C174.653 107.876 180.544 108.45 187.1 108.861C188.743 108.958 190.423 109.042 192.139 109.084C193.855 109.127 195.613 109.151 197.389 109.048C197.83 109.006 198.284 108.994 198.725 108.927C199.165 108.904 199.6 108.821 200.018 108.68C200.852 108.358 201.589 107.825 202.157 107.133C203.314 105.682 204.221 104.049 204.839 102.299C205.323 101.091 205.715 99.8159 206.114 98.5712L206.283 98.0999C206.283 98.0274 206.344 97.9489 206.38 97.8643C206.402 97.8177 206.428 97.7732 206.459 97.7314C206.482 97.7023 206.508 97.6759 206.537 97.6528L206.579 97.6166C206.83 97.443 207.037 97.2133 207.184 96.9459C207.466 96.3845 207.603 95.7613 207.582 95.1333C207.584 94.522 207.446 93.9184 207.178 93.369C207.046 93.1095 206.858 92.8825 206.628 92.7043C206.368 92.5291 206.12 92.3418 205.86 92.1787C204.826 91.5273 203.743 90.9557 202.622 90.4688C200.493 89.5089 198.277 88.7523 196.006 88.209C195.867 88.209 195.728 88.1486 195.595 88.1365H195.396H195.263C195.025 88.2636 194.798 88.4112 194.586 88.5776C194.165 88.8951 193.827 89.3097 193.601 89.786C193.201 90.7417 193.118 91.8008 193.365 92.8071L193.42 93.0185L193.208 92.9702L174.581 88.8012C172.998 88.1353 171.365 87.5939 169.699 87.1819C169.094 87.0429 168.677 86.9462 168.375 86.8858C168.073 86.8254 167.832 86.8314 167.832 86.8314Z" fill="#263238"/>
<path d="M199.341 98.7283C198.912 98.6219 198.503 98.4442 198.133 98.2027C197.206 97.6858 196.353 97.0478 195.595 96.3055C194.833 95.5659 194.167 94.7336 193.613 93.8282C193.361 93.4572 193.167 93.0497 193.039 92.6198C193.867 93.8402 194.795 94.9901 195.812 96.0577C196.906 97.0516 198.087 97.9454 199.341 98.7283Z" fill="#263238"/>
<path d="M67.8893 148.491C67.8893 148.491 71.6354 148.69 73.9314 150.147C76.2274 151.603 79.9735 153.85 81.5142 156.654C82.2211 157.941 80.2091 158.213 79.2182 157.464C78.2273 156.714 76.6987 155.313 75.9434 155.137L75.1882 154.968C75.8768 156.527 76.6451 158.05 77.4902 159.53C78.2696 160.738 78.9463 162.744 76.608 162.841C76.608 162.841 75.025 164.895 73.4299 163.373C73.4299 163.373 72.1852 165.234 70.1793 162.654C70.1793 162.654 69.0131 164.128 68.5237 163.566C68.0343 163.004 66.4392 162.104 65.974 160.255C65.2798 158.101 64.473 155.986 63.5571 153.917L67.8893 148.491Z" fill="#FFBF9D"/>
<path d="M36.0111 99.2298C34.0909 99.8482 32.4336 101.093 31.3043 102.764C29.8663 104.976 29.4252 108.807 29.8361 111.658C30.7062 117.67 33.4613 127.815 35.0142 134.328C35.5459 136.576 36.6395 140.6 39.8478 142.733L62.7413 156.46L68.8619 147.397L47.9926 130.389L43.8658 107.079L36.0111 99.2298Z" fill="#455A64"/>
<path d="M32.0536 122.141C32.085 122.218 32.1092 122.296 32.1261 122.377L32.3194 123.084C32.4826 123.724 32.7122 124.643 33.0143 125.821C33.6185 128.238 34.4765 131.67 35.5459 135.942C36.1668 138.268 37.482 140.351 39.3162 141.911C40.364 142.75 41.4841 143.494 42.6635 144.135L46.3431 146.358L62.832 156.316L62.6205 156.364L64.8259 153.095L68.7412 147.277L68.7714 147.488L48.0893 130.455H48.053V130.413C46.6875 124.667 45.6966 119.96 45.0682 116.685C44.7601 115.048 44.5426 113.773 44.4036 112.903C44.3432 112.48 44.2949 112.148 44.2586 111.912C44.2224 111.677 44.2163 111.574 44.2163 111.574C44.2491 111.683 44.2754 111.794 44.2949 111.906C44.3372 112.142 44.3976 112.468 44.4701 112.891C44.6332 113.755 44.8689 115.03 45.2072 116.661C45.8658 119.924 46.893 124.619 48.2887 130.359L48.2464 130.292L68.9647 147.246L69.0735 147.337L68.9949 147.452L65.0797 153.27L62.8743 156.539L62.7957 156.66L62.6628 156.587L46.1981 146.6L42.5245 144.37C41.3373 143.723 40.2092 142.973 39.153 142.129C37.2871 140.531 35.9564 138.398 35.3405 136.02C34.3073 131.736 33.4795 128.274 32.9236 125.875C32.6518 124.667 32.4342 123.767 32.2832 123.126L32.108 122.383C32.0842 122.304 32.066 122.223 32.0536 122.141Z" fill="#263238"/>
<path d="M32.4281 102.45C32.5702 102.357 32.7277 102.289 32.8933 102.251C33.3319 102.115 33.7804 102.014 34.2347 101.949C35.7502 101.715 37.3009 101.925 38.6998 102.553C40.0518 103.258 41.2002 104.298 42.035 105.574C42.2881 105.96 42.4912 106.376 42.6392 106.813C42.7041 106.968 42.7409 107.134 42.748 107.302C42.4869 106.747 42.186 106.212 41.8477 105.701C40.9877 104.51 39.8624 103.536 38.5608 102.855C37.2109 102.257 35.7264 102.028 34.2589 102.191C33.129 102.281 32.4462 102.505 32.4281 102.45Z" fill="#263238"/>
</svg>
