<svg width="280" height="280" viewBox="0 0 280 280" fill="none" xmlns="http://www.w3.org/2000/svg">
<path d="M227.601 49.3752L220.802 62.1096L215.981 57.5568L209.574 75.1576L216.194 63.812L221.318 68.6896L230.798 52.528L227.601 49.3752Z" fill="#B366FF"/>
<path d="M243.874 79.0496L233.621 83.888L232.714 78.7584L220.427 86.8504L229.914 82.8016L230.86 88.2784L244.406 82.5384L243.874 79.0496Z" fill="#B366FF"/>
<path d="M198.716 42.504L199.394 52.3824L194.936 51.492L197.613 64.0584L197.333 55.0536L202.093 56.028L201.723 43.176L198.716 42.504Z" fill="#B366FF"/>
<path d="M42.0392 37.0664L45.1416 47.4936L49.3864 44.8616L51.464 58.8112L48.2832 49.4424L43.7696 52.2704L39.2056 38.92L42.0392 37.0664Z" fill="#B366FF"/>
<path d="M25.7096 59.556L31.9984 63.196L32.8496 59.9704L40.2696 65.7888L34.4232 62.6976L33.5272 66.1472L25.1776 61.7568L25.7096 59.556Z" fill="#B366FF"/>
<path d="M68.9472 37.4416L68.068 44.6544L71.3664 44.1784L68.9192 53.284L69.4736 46.6928L65.9512 47.2192L66.7128 37.8168L68.9472 37.4416Z" fill="#B366FF"/>
<path d="M24.6456 85.2264L31.5896 83.076L29.7976 80.2592L39.1048 78.7696L32.8664 80.9592L34.7928 83.9608L25.9 87.108L24.6456 85.2264Z" fill="#B366FF"/>
<path d="M264.796 265.591H265.518H267.669V265.653C255.472 265.72 204.103 265.77 142.61 265.77L52.136 265.692L24.724 265.647L17.2648 265.619H24.724L52.136 265.574L142.61 265.44C204.103 265.44 255.472 265.49 267.669 265.558V265.619H265.518L264.796 265.591Z" fill="#263238"/>
<path d="M261.649 141.299L265.149 135.99C265.149 135.99 265.149 134.417 261.89 134.938C258.63 135.458 255.254 141.982 255.254 141.982L251.233 144.962L254.957 139.978L258.255 133.644C258.076 133.55 257.889 133.473 257.695 133.414C256.818 133.145 255.876 133.178 255.021 133.509C254.166 133.841 253.447 134.45 252.98 135.24L250.841 138.779L245.935 143.13C246.238 142.862 249.995 138.723 245.874 138.617L237.944 141.977C235.192 143.26 232.52 144.707 229.942 146.311C225.523 149.05 225.417 154.834 225.417 154.834L234.674 160.199C245.168 156.162 250.914 152.88 250.914 152.88L254.223 149.576L259.364 148.075L268.744 140.946C267.081 138.426 261.649 141.299 261.649 141.299Z" fill="#FFBF9D"/>
<path d="M252.907 150.601C253.389 150.21 253.894 149.849 254.419 149.52C255.641 148.672 256.784 147.716 257.835 146.664C258.866 145.597 259.768 144.413 260.523 143.136C261.083 142.15 261.408 141.506 261.453 141.529C261.419 141.692 261.364 141.85 261.29 141.999C261.125 142.421 260.938 142.834 260.73 143.237C260.016 144.565 259.121 145.788 258.07 146.871C257.008 147.933 255.831 148.872 254.559 149.671C254.072 149.979 253.674 150.231 253.389 150.371C253.241 150.472 253.079 150.55 252.907 150.601Z" fill="#FF9A6C"/>
<path d="M225.417 154.84L216.266 187.158L230.95 200.48L235.866 158.95L225.417 154.84Z" fill="#FFBF9D"/>
<path d="M248.45 147.146C248.701 146.807 248.994 146.502 249.323 146.238C250.081 145.568 250.874 144.938 251.698 144.351C252.655 143.657 253.54 143.063 254.184 142.632C254.517 142.378 254.875 142.16 255.254 141.982C254.192 142.935 253.059 143.805 251.866 144.586C250.914 145.275 250.062 145.919 249.458 146.395C249.15 146.681 248.812 146.933 248.45 147.146Z" fill="#FF9A6C"/>
<path d="M244.77 143.158C244.635 143.284 244.482 143.39 244.317 143.472C243.882 143.724 243.427 143.939 242.956 144.116C241.401 144.657 239.818 145.111 238.213 145.477C236.627 145.858 235.135 146.553 233.822 147.521C233.305 147.956 232.829 148.437 232.4 148.96C232.461 148.784 232.55 148.62 232.663 148.473C232.949 148.057 233.287 147.68 233.671 147.353C234.977 146.316 236.495 145.578 238.118 145.191C239.988 144.693 241.69 144.346 242.872 143.92C244.054 143.494 244.72 143.114 244.77 143.158Z" fill="#FF9A6C"/>
<path d="M242.889 151.53C243.566 151.34 244.21 151.047 244.798 150.662C245.091 150.467 245.336 150.21 245.518 149.909C245.7 149.608 245.814 149.27 245.851 148.921C245.874 148.318 245.69 147.725 245.33 147.241C243.74 145.208 242.676 143.416 243.046 142.234C243.438 140.672 244.591 140.213 245.616 140.924C246.641 141.635 247.856 143.948 248.466 145.029C249.542 146.922 250.662 149.038 250.197 151.189" fill="#FFBF9D"/>
<path d="M250.197 151.155C250.163 151.155 250.258 150.78 250.242 150.108C250.193 149.163 249.961 148.237 249.558 147.381C249.088 146.261 248.326 145.046 247.542 143.657C247.133 142.936 246.664 142.251 246.142 141.607C245.885 141.275 245.551 141.009 245.168 140.834C244.979 140.754 244.774 140.722 244.569 140.741C244.365 140.759 244.169 140.828 243.998 140.941C243.656 141.199 243.403 141.557 243.275 141.966C243.122 142.355 243.083 142.781 243.163 143.192C243.372 143.993 243.719 144.751 244.188 145.432C244.614 146.104 245.067 146.703 245.498 147.28C245.892 147.859 246.041 148.569 245.913 149.257C245.771 149.809 245.445 150.297 244.989 150.64C244.646 150.893 244.269 151.097 243.869 151.245C243.625 151.341 243.377 151.423 243.124 151.491C243.04 151.526 242.951 151.546 242.861 151.553C242.861 151.553 243.208 151.407 243.824 151.138C244.195 150.977 244.541 150.766 244.854 150.511C245.268 150.183 245.559 149.725 245.683 149.212C245.782 148.584 245.636 147.943 245.274 147.42C244.843 146.86 244.373 146.255 243.936 145.578C243.443 144.878 243.077 144.097 242.855 143.27C242.811 143.042 242.798 142.808 242.816 142.576C242.843 142.343 242.896 142.114 242.973 141.893C243.119 141.422 243.411 141.01 243.807 140.717C244.019 140.568 244.266 140.476 244.523 140.449C244.781 140.421 245.041 140.46 245.28 140.56C245.706 140.754 246.079 141.048 246.366 141.417C246.895 142.076 247.367 142.778 247.778 143.517C248.509 144.733 249.171 145.989 249.76 147.28C250.153 148.162 250.36 149.115 250.37 150.08C250.367 150.344 250.337 150.606 250.281 150.864C250.268 150.965 250.239 151.063 250.197 151.155Z" fill="#FF9A6C"/>
<path d="M216.938 180.471L213.875 192.326L188.832 163.962L181.552 160.737L187.852 202.804L211.932 222.606C211.932 222.606 219.061 233.246 226.61 220.046C233.122 208.645 235.866 194.88 235.866 194.88L216.938 180.471Z" fill="#B366FF"/>
<path d="M206.584 97.6696C208.663 100.214 210.097 103.223 210.762 106.441C211.427 109.659 211.304 112.99 210.403 116.15C209.507 119.196 207.9 122.556 209.418 125.356C210.935 128.156 214.855 128.884 216.255 131.706C217.907 135.022 215.135 138.846 215.18 142.554C215.258 144.298 215.955 145.958 217.147 147.235C218.339 148.512 219.946 149.322 221.682 149.52C217.005 151.919 211.759 152.984 206.517 152.6L203.717 146.787C204.837 148.842 203.84 151.547 202.037 153.026C200.234 154.504 197.826 155.014 195.502 155.266C189.928 155.767 184.314 154.975 179.097 152.951C173.88 150.926 169.201 147.725 165.424 143.595L206.584 97.6696Z" fill="#263238"/>
<path d="M142.447 112.706C143.73 110.494 145.499 108.562 146.546 106.226C148.786 101.186 147.476 94.7464 151.026 90.5464C153.558 87.5616 157.774 86.7328 161.666 86.3856C165.558 86.0384 169.691 85.9096 172.99 83.804C175.409 82.2584 177.122 79.7888 179.536 78.2376C182.974 76.0256 187.376 75.9584 191.414 76.5576C195.569 77.1736 199.724 78.4672 203.028 81.0376C206.332 83.608 208.673 87.6792 208.471 91.8736C208.37 93.9176 207.687 95.9392 207.911 97.972C208.158 100.212 209.451 102.189 210.05 104.362C210.64 106.684 210.439 109.136 209.479 111.331C208.518 113.526 206.853 115.338 204.747 116.48L168.879 146.866C162.495 147.846 148.719 142.106 145.096 136.786C141.473 131.466 139.21 118.294 142.447 112.706Z" fill="#263238"/>
<path d="M155.422 160.759L160.642 99.428C160.783 98.1874 161.384 97.0448 162.326 96.2258C163.269 95.4067 164.484 94.9708 165.732 95.004L192.847 91.868C201.365 92.0976 205.57 103.186 204.982 111.686C204.322 121.128 203.151 132.636 201.107 139.474C197.008 153.233 185.987 153.586 185.987 153.586C185.987 153.586 185.713 155.63 184.974 160.731L183.322 170.671" fill="#FFBF9D"/>
<path d="M200.318 124.421C200.26 124.892 200.02 125.322 199.65 125.619C199.28 125.916 198.808 126.057 198.335 126.011C198.103 125.998 197.876 125.94 197.668 125.838C197.459 125.736 197.273 125.594 197.12 125.419C196.967 125.244 196.85 125.04 196.777 124.82C196.704 124.6 196.676 124.367 196.694 124.135C196.753 123.666 196.993 123.238 197.362 122.942C197.731 122.647 198.2 122.506 198.671 122.55C198.903 122.562 199.13 122.621 199.339 122.722C199.548 122.823 199.735 122.965 199.888 123.139C200.042 123.313 200.159 123.516 200.232 123.736C200.306 123.957 200.335 124.189 200.318 124.421Z" fill="#263238"/>
<path d="M182.655 122.08C182.598 122.551 182.358 122.98 181.987 123.277C181.617 123.573 181.145 123.712 180.673 123.665C180.441 123.652 180.215 123.593 180.007 123.492C179.798 123.39 179.612 123.249 179.459 123.074C179.307 122.9 179.19 122.697 179.117 122.477C179.043 122.258 179.015 122.025 179.032 121.794C179.09 121.325 179.329 120.896 179.698 120.6C180.067 120.304 180.538 120.164 181.009 120.21C181.241 120.221 181.468 120.279 181.678 120.379C181.887 120.48 182.074 120.622 182.228 120.797C182.381 120.971 182.498 121.174 182.572 121.395C182.645 121.615 182.673 121.848 182.655 122.08Z" fill="#263238"/>
<path d="M202.401 118.306C202.138 118.586 200.721 117.186 198.582 117.057C196.442 116.928 194.824 118.054 194.611 117.734C194.505 117.594 194.785 117.068 195.496 116.536C196.422 115.867 197.554 115.544 198.694 115.623C199.83 115.707 200.899 116.191 201.712 116.99C202.334 117.6 202.53 118.16 202.401 118.306Z" fill="#263238"/>
<path d="M183.523 115.92C183.215 116.172 181.843 114.649 179.603 114.24C177.363 113.831 175.521 114.8 175.325 114.453C175.23 114.302 175.571 113.82 176.383 113.383C177.455 112.831 178.679 112.646 179.866 112.857C181.046 113.059 182.125 113.65 182.93 114.537C183.523 115.226 183.68 115.791 183.523 115.92Z" fill="#263238"/>
<path d="M187.712 130.48C187.712 130.368 188.955 130.323 190.938 130.329C191.442 130.329 191.923 130.329 192.058 129.982C192.166 129.476 192.12 128.948 191.923 128.47C191.617 127.211 191.296 125.89 190.96 124.505C189.638 118.866 188.759 114.257 188.983 114.206C189.207 114.156 190.467 118.686 191.783 124.32C192.097 125.714 192.399 127.036 192.685 128.302C192.797 128.89 193.032 129.573 192.685 130.278C192.591 130.444 192.46 130.586 192.303 130.692C192.146 130.799 191.966 130.868 191.778 130.894C191.493 130.931 191.205 130.931 190.921 130.894C188.927 130.721 187.706 130.57 187.712 130.48Z" fill="#263238"/>
<path d="M185.998 153.586C179.368 152.806 173.085 150.2 167.849 146.059C167.849 146.059 171.265 156.554 185.506 157.108L185.998 153.586Z" fill="#FF9A6C"/>
<path d="M175.465 107.923C175.678 107.402 177.621 107.744 179.945 107.57C182.269 107.397 184.134 106.859 184.425 107.346C184.548 107.582 184.206 108.069 183.434 108.545C182.408 109.131 181.262 109.476 180.083 109.552C178.904 109.629 177.723 109.436 176.63 108.987C175.773 108.64 175.37 108.175 175.465 107.923Z" fill="#263238"/>
<path d="M195.843 107.52C196.364 107.234 197.652 108.198 199.388 108.847C201.124 109.497 202.703 109.732 202.888 110.292C202.961 110.555 202.574 110.891 201.768 111.054C200.707 111.224 199.62 111.098 198.626 110.69C197.623 110.317 196.746 109.668 196.095 108.819C195.653 108.164 195.602 107.66 195.843 107.52Z" fill="#263238"/>
<path d="M159.712 95.8048C161.392 94.1248 163.918 93.5648 166.281 93.2064C176.493 91.5653 186.865 91.146 197.176 91.9576C197.988 94.2816 196.241 96.8352 194.04 97.9328C191.839 99.0304 189.297 99.1088 186.861 99.4784C184.425 99.848 181.821 100.649 180.443 102.67C178.954 104.821 179.194 107.794 177.817 110.018C175.448 113.842 169.383 113.938 167.031 117.79C165.256 120.697 166.365 124.421 166.124 127.82C166.001 129.546 165.511 131.226 164.687 132.748C163.864 134.27 162.725 135.599 161.347 136.646C159.969 137.693 158.384 138.435 156.697 138.821C155.01 139.207 153.26 139.229 151.564 138.886C153.401 126.853 155.236 114.822 157.069 102.794C157.45 100.285 157.92 97.5968 159.712 95.8048Z" fill="#263238"/>
<path d="M129.399 120.753C131.639 119.465 134.294 118.513 135.559 116.273C137.39 113.002 135.453 108.282 137.939 105.476C140.213 102.911 145.057 104.093 147.224 101.444C148.904 99.3776 147.974 97.0256 148.865 95.0824C149.755 93.1392 153.026 91.9632 155.053 92.652L166.292 119.616C166.13 127.831 166.751 132.35 164.08 136.612C162.613 138.947 160.877 141.154 159.947 143.752C159.018 146.35 159.04 149.52 160.899 151.553C151.032 150.254 143.013 143.248 135.654 136.55L127.859 129.466C126.987 128.795 126.296 127.918 125.849 126.913C125.003 124.477 127.165 122.035 129.399 120.753Z" fill="#263238"/>
<path d="M135.912 134.12C136.227 134.297 136.562 134.438 136.909 134.54C137.906 134.862 138.953 135.004 140 134.96C141.658 134.917 143.277 134.444 144.698 133.588C146.582 132.415 147.991 130.614 148.674 128.503C149.083 127.283 149.244 125.995 149.15 124.712C148.983 123.342 148.633 122.001 148.109 120.725C147.557 119.404 147.198 118.01 147.045 116.586C146.978 115.164 147.314 113.557 148.439 112.582C149.565 111.608 151.273 111.647 152.919 111.356C153.811 111.226 154.644 110.836 155.316 110.236C155.955 109.576 156.375 108.735 156.52 107.828C156.878 106.047 156.464 104.261 156.492 102.542C156.47 101.687 156.645 100.838 157.002 100.061C157.387 99.3005 158.033 98.7042 158.822 98.3808C160.434 97.6808 162.254 97.8992 164.007 98.112C165.785 98.4213 167.612 98.2808 169.322 97.7032C170.97 97.1092 172.426 96.0773 173.533 94.7184C174.5 93.3807 175.256 91.9017 175.773 90.3336C176.251 88.8851 176.88 87.4906 177.649 86.1728C178.427 84.9808 179.455 83.972 180.662 83.216C182.664 81.9646 185.012 81.3824 187.366 81.5535C189.721 81.7247 191.96 82.6403 193.76 84.168C195.013 85.1846 196.073 86.4174 196.89 87.808C197.571 89.0098 198.112 90.2855 198.503 91.6104C198.499 91.5178 198.486 91.4259 198.464 91.336C198.419 91.1624 198.38 90.8936 198.279 90.552C197.997 89.5557 197.597 88.5968 197.086 87.696C196.285 86.2566 195.228 84.9756 193.967 83.916C192.292 82.4839 190.246 81.5541 188.065 81.2336C185.402 80.8864 182.701 81.4552 180.404 82.8464C179.13 83.6352 178.041 84.6896 177.212 85.9376C176.426 87.2758 175.779 88.6905 175.28 90.16C174.773 91.673 174.037 93.099 173.096 94.388C172.049 95.6625 170.677 96.63 169.126 97.188C167.503 97.7307 165.77 97.8578 164.086 97.5576C162.35 97.3504 160.406 97.0872 158.598 97.8712C157.688 98.2443 156.943 98.932 156.498 99.8088C156.106 100.665 155.914 101.6 155.938 102.542C155.938 104.373 156.318 106.098 155.988 107.733C155.869 108.525 155.507 109.261 154.952 109.838C154.357 110.358 153.623 110.691 152.841 110.796C152.051 110.947 151.228 110.992 150.405 111.154C149.562 111.275 148.768 111.623 148.109 112.162C146.798 113.322 146.479 115.086 146.558 116.598C146.715 118.07 147.093 119.51 147.678 120.87C148.195 122.106 148.546 123.406 148.719 124.734C148.824 125.958 148.683 127.189 148.305 128.358C147.667 130.394 146.336 132.142 144.542 133.297C143.176 134.151 141.614 134.64 140.006 134.719C138.615 134.787 137.225 134.584 135.912 134.12Z" fill="#455A64"/>
<path d="M126.515 114.649C126.302 114.854 126.136 115.102 126.028 115.377C125.697 116.169 125.663 117.054 125.933 117.869C126.119 118.466 126.452 119.007 126.902 119.442C127.447 119.95 128.124 120.294 128.856 120.434C129.747 120.603 130.668 120.526 131.518 120.209C132.368 119.892 133.115 119.348 133.678 118.636C134.33 117.818 134.783 116.859 134.999 115.836C135.204 114.725 135.204 113.587 134.999 112.476C134.674 110.236 133.711 107.873 134.204 105.409C134.284 104.796 134.488 104.205 134.803 103.673C135.118 103.141 135.537 102.678 136.035 102.312C137.088 101.618 138.471 101.69 139.798 101.959C141.126 102.228 142.554 102.676 144.094 102.413C144.87 102.274 145.584 101.894 146.132 101.326C146.66 100.755 147.056 100.074 147.291 99.3328C147.795 97.86 147.745 96.3536 147.851 94.9424C147.924 93.5647 148.29 92.2186 148.926 90.9944C150.147 88.6628 152.212 86.8858 154.7 86.0272C157.074 85.204 159.538 85.5848 161.756 85.9152C163.974 86.2456 166.152 86.5816 168.106 86.2512C169.854 85.9838 171.53 85.3667 173.034 84.4368C174.17 83.7469 175.192 82.8856 176.064 81.8832C177.492 80.2032 178.024 79.6432 178.024 79.6432C178.024 79.6432 177.352 80.1696 175.896 81.7544C175.012 82.7098 173.991 83.5288 172.866 84.1848C171.386 85.0579 169.747 85.6289 168.045 85.8648C166.163 86.156 164.069 85.8312 161.829 85.4616C159.589 85.092 157.069 84.6832 154.549 85.5344C151.911 86.4121 149.71 88.2681 148.4 90.72C147.735 92.0157 147.354 93.4377 147.28 94.892C147.162 96.3312 147.202 97.7984 146.72 99.1368C146.238 100.475 145.303 101.629 143.959 101.836C142.615 102.043 141.249 101.64 139.877 101.388C138.505 101.136 136.948 101.013 135.71 101.836C135.15 102.244 134.678 102.762 134.324 103.357C133.97 103.953 133.74 104.615 133.65 105.302C133.442 106.566 133.484 107.857 133.773 109.105C134.008 110.303 134.333 111.434 134.501 112.543C134.704 113.594 134.717 114.674 134.54 115.73C134.353 116.693 133.94 117.599 133.336 118.373C132.824 119.039 132.14 119.553 131.357 119.859C130.575 120.165 129.723 120.251 128.895 120.109C128.216 119.993 127.581 119.691 127.064 119.235C126.639 118.839 126.316 118.345 126.123 117.796C125.849 117.026 125.849 116.186 126.123 115.416C126.336 114.895 126.56 114.671 126.515 114.649Z" fill="#263238"/>
<path d="M227.573 142.15C227.676 143.033 227.479 143.925 227.013 144.682C226.749 145.116 226.392 145.486 225.968 145.766C225.544 146.046 225.063 146.228 224.56 146.3C223.895 146.352 223.228 146.218 222.634 145.912C222.041 145.606 221.544 145.142 221.2 144.57C220.804 143.895 220.661 143.1 220.797 142.33C220.941 141.489 221.243 140.684 221.687 139.955C222.555 138.421 223.983 136.853 224.274 134.68C224.433 133.575 224.358 132.449 224.055 131.375C223.752 130.3 223.228 129.301 222.516 128.442C221.766 127.535 220.855 126.776 219.828 126.202C218.765 125.649 217.636 125.235 216.468 124.97C215.346 124.719 214.249 124.365 213.192 123.911C212.201 123.477 211.397 122.705 210.924 121.733C210.526 120.76 210.409 119.694 210.588 118.658C210.748 117.643 211.045 116.654 211.473 115.718C212.285 113.865 213.265 112.101 213.55 110.225C213.814 108.496 213.559 106.729 212.817 105.146C212.17 103.872 211.289 102.732 210.218 101.786C209.446 101.077 208.725 100.313 208.062 99.5008C207.522 98.7922 207.128 97.9831 206.903 97.1208C206.903 97.1208 206.903 97.1824 206.903 97.3C206.92 97.4742 206.951 97.6466 206.998 97.8152C207.172 98.4718 207.468 99.0894 207.872 99.6352C208.512 100.481 209.218 101.275 209.983 102.01C210.996 102.946 211.827 104.06 212.436 105.297C213.12 106.81 213.34 108.492 213.069 110.13C212.783 111.899 211.82 113.602 210.98 115.489C210.525 116.465 210.206 117.5 210.034 118.563C209.836 119.705 209.964 120.879 210.403 121.951C210.928 123.046 211.825 123.917 212.934 124.41C214.017 124.888 215.142 125.263 216.294 125.53C217.414 125.782 218.496 126.177 219.514 126.706C220.481 127.238 221.34 127.946 222.046 128.794C222.713 129.592 223.206 130.52 223.496 131.519C223.785 132.517 223.863 133.565 223.726 134.596C223.485 136.59 222.146 138.096 221.25 139.714C220.784 140.499 220.472 141.366 220.332 142.268C220.204 143.128 220.381 144.005 220.83 144.749C221.218 145.376 221.775 145.881 222.436 146.205C223.098 146.53 223.838 146.662 224.571 146.586C225.115 146.499 225.633 146.29 226.084 145.974C226.535 145.657 226.909 145.242 227.175 144.76C227.527 144.17 227.705 143.492 227.69 142.806C227.687 142.582 227.648 142.361 227.573 142.15Z" fill="#263238"/>
<path d="M187.712 109.435C187.712 109.396 187.908 109.334 188.182 109.161C188.538 108.945 188.827 108.635 189.017 108.265C189.191 107.887 189.257 107.468 189.207 107.055C189.168 106.73 189.095 106.534 189.134 106.495C189.174 106.456 189.314 106.652 189.409 106.999C189.533 107.459 189.487 107.948 189.28 108.377C189.069 108.802 188.713 109.14 188.278 109.329C187.947 109.486 187.718 109.474 187.712 109.435Z" fill="#FF9A6C"/>
<path d="M192.578 110.37C192.578 110.37 192.31 110.275 192.058 109.917C191.893 109.682 191.779 109.414 191.723 109.133C191.667 108.851 191.671 108.561 191.733 108.28C191.796 108 191.917 107.736 192.087 107.504C192.258 107.273 192.475 107.08 192.724 106.938C193.105 106.725 193.385 106.719 193.39 106.753C193.396 106.786 193.155 106.876 192.83 107.111C192.413 107.406 192.12 107.845 192.008 108.344C191.896 108.843 191.974 109.366 192.226 109.81C192.416 110.158 192.606 110.32 192.578 110.37Z" fill="#FF9A6C"/>
<path d="M185.142 134.456C185.024 134.315 184.879 134.199 184.716 134.114C183.678 133.588 182.556 133.247 181.401 133.106C181.12 133.024 180.825 133.003 180.535 133.043C180.246 133.084 179.968 133.185 179.721 133.342C179.497 133.577 179.343 133.869 179.276 134.186C179.209 134.504 179.231 134.834 179.34 135.139C179.462 135.64 179.689 136.11 180.006 136.517C180.323 136.924 180.721 137.26 181.177 137.502C181.635 137.74 182.145 137.86 182.661 137.852C183.177 137.844 183.683 137.709 184.134 137.458C184.472 137.256 184.764 136.985 184.991 136.663C185.218 136.341 185.374 135.974 185.45 135.587C185.482 135.388 185.47 135.184 185.414 134.99C185.358 134.797 185.259 134.618 185.125 134.467L185.142 134.456Z" fill="#FF9A6C"/>
<path d="M184.044 137.329C184.044 137.362 183.898 137.491 183.557 137.62C183.068 137.796 182.545 137.861 182.028 137.81C181.243 137.741 180.498 137.436 179.889 136.937C179.522 136.639 179.223 136.267 179.01 135.845C178.76 135.372 178.679 134.829 178.78 134.305C178.832 134.035 178.939 133.779 179.095 133.554C179.251 133.328 179.453 133.138 179.687 132.994C180.131 132.776 180.632 132.701 181.121 132.782C181.869 132.887 182.603 133.075 183.31 133.342C184.503 133.801 185.142 134.282 185.102 134.344C184.45 134.173 183.808 133.969 183.176 133.734C182.488 133.535 181.783 133.398 181.07 133.325C180.688 133.264 180.296 133.325 179.95 133.498C179.788 133.602 179.649 133.738 179.542 133.898C179.435 134.058 179.363 134.239 179.329 134.428C179.285 134.826 179.344 135.229 179.499 135.598C179.653 135.967 179.899 136.291 180.214 136.539C180.739 136.991 181.378 137.291 182.062 137.407C182.723 137.472 183.39 137.446 184.044 137.329Z" fill="#263238"/>
<path d="M203.974 189.61C204.569 188.132 205.248 186.688 206.007 185.287C207.362 183.019 208.079 182.986 208.69 182.986C209.709 182.986 210.538 183.96 209.961 186.099C209.882 186.39 209.16 188.412 209.16 188.412C209.16 188.412 210.431 185.332 212.52 185.797C214.609 186.262 213.461 188.882 213.461 188.882C213.461 188.882 214.866 188.546 215.141 192.035C215.415 195.524 214.34 205.24 214.34 205.24L216.199 213.08H203.7L202.877 192.36L203.974 189.61Z" fill="#FFBF9D"/>
<path d="M210.269 200.85C210.219 200.69 210.196 200.524 210.202 200.357C210.17 199.906 210.16 199.453 210.174 199.002C210.266 195.997 211.089 193.06 212.57 190.445C212.792 190.058 213.035 189.685 213.298 189.325C213.483 189.062 213.595 188.927 213.612 188.938C213.629 188.95 213.27 189.56 212.755 190.568C212.076 191.879 211.532 193.257 211.131 194.678C210.737 196.1 210.486 197.558 210.381 199.03C210.302 200.138 210.319 200.85 210.269 200.85Z" fill="#FF9A6C"/>
<path d="M205.705 195.367C205.815 194.893 205.978 194.433 206.192 193.995C206.534 193.166 207.049 192.041 207.693 190.831C208.337 189.622 208.986 188.591 209.485 187.813C209.73 187.393 210.021 187.003 210.353 186.648C210.161 187.094 209.928 187.521 209.658 187.925C209.21 188.692 208.594 189.762 207.95 190.966C207.306 192.17 206.769 193.278 206.377 194.079C206.194 194.529 205.969 194.96 205.705 195.367Z" fill="#FF9A6C"/>
<path d="M220.186 265.44C220.186 248.175 213.427 232.4 213.427 232.4L203.515 194.555C203.515 194.555 185.83 162.708 184.8 162.708C183.77 162.708 155.613 156.167 155.613 156.167C155.613 156.167 149.313 159.578 145.774 164.668C139.653 173.46 141.921 187.068 144.094 201.494C146.266 215.919 156.386 242.407 156.386 242.407L159.942 253.523L156.442 265.44H220.186Z" fill="#B366FF"/>
<path opacity="0.3" d="M153.608 196.151C153.608 196.151 163.766 215.314 180.046 227.366C196.325 239.417 216.082 241.651 216.082 241.651L213.427 229.331L193.351 206.438L153.608 196.151Z" fill="black"/>
<path d="M143.125 171.276C144.654 162.96 153.11 157.92 161.28 159.975C165.67 161.095 172.794 165.844 176.725 169.954C194.578 188.608 212.822 207.906 217.431 213.713C222.04 219.52 221.978 229.555 216.569 234.091C211.159 238.627 197.988 234.282 186.726 227.825C175.465 221.368 161.588 203.896 158.099 201.202C157.27 200.564 145.169 187.762 143.13 176.669C142.798 174.887 142.796 173.059 143.125 171.276Z" fill="#B366FF"/>
<path d="M143.125 171.276V171.427L143.063 171.864C142.986 172.44 142.943 173.019 142.934 173.6C142.922 174.538 142.997 175.476 143.158 176.4C143.408 177.663 143.745 178.907 144.166 180.124C145.383 183.449 146.992 186.617 148.96 189.56C151.513 193.483 154.414 197.168 157.629 200.57C159.642 202.406 161.56 204.344 163.374 206.377C165.306 208.46 167.294 210.627 169.439 212.834C171.584 215.04 173.802 217.269 176.193 219.486C178.63 221.781 181.222 223.906 183.949 225.848C186.867 227.81 189.94 229.531 193.138 230.994C196.45 232.575 199.896 233.855 203.437 234.819C205.253 235.309 207.111 235.627 208.986 235.771C210.88 235.957 212.792 235.725 214.586 235.094C215.479 234.758 216.288 234.23 216.955 233.548C217.129 233.374 217.308 233.218 217.47 233.044L217.924 232.484C218.232 232.111 218.508 231.712 218.747 231.291C219.724 229.594 220.335 227.711 220.539 225.764C220.991 221.863 220.07 217.927 217.935 214.631C217.381 213.855 216.789 213.108 216.16 212.391C215.538 211.663 214.917 210.935 214.284 210.23C213.03 208.796 211.764 207.396 210.504 206.007C205.464 200.469 200.514 195.205 195.793 190.193C191.072 185.181 186.558 180.449 182.353 176.008C180.242 173.796 178.209 171.64 176.232 169.607C174.288 167.706 172.176 165.985 169.921 164.466C167.896 163.051 165.737 161.837 163.475 160.843C162.434 160.394 161.344 160.069 160.227 159.874C159.181 159.69 158.119 159.615 157.058 159.65C155.142 159.719 153.258 160.156 151.508 160.938C150.038 161.598 148.68 162.482 147.482 163.559C145.844 165.083 144.587 166.971 143.814 169.07C143.597 169.614 143.428 170.176 143.31 170.75C143.209 171.13 143.153 171.31 143.153 171.31C143.153 171.31 143.192 171.114 143.276 170.75C143.388 170.177 143.549 169.615 143.758 169.07C144.515 166.952 145.764 165.044 147.403 163.503C148.603 162.408 149.967 161.509 151.446 160.838C154.204 159.583 157.277 159.192 160.261 159.718C161.392 159.904 162.496 160.229 163.548 160.686C165.824 161.677 167.998 162.889 170.038 164.304C172.309 165.827 174.436 167.554 176.394 169.462C178.382 171.5 180.41 173.639 182.554 175.851L196 189.98C200.726 194.986 205.677 200.25 210.722 205.789C211.988 207.17 213.252 208.578 214.514 210.011C215.146 210.722 215.768 211.45 216.395 212.178C217.031 212.909 217.629 213.672 218.187 214.463C220.362 217.814 221.301 221.818 220.842 225.786C220.621 227.782 219.98 229.708 218.96 231.437C218.715 231.867 218.434 232.275 218.12 232.658L217.655 233.218C217.487 233.397 217.302 233.559 217.123 233.733C216.429 234.443 215.588 234.994 214.659 235.346C212.823 235.993 210.867 236.228 208.93 236.034C207.038 235.89 205.163 235.568 203.33 235.071C199.773 234.104 196.311 232.817 192.987 231.224C189.774 229.754 186.687 228.021 183.758 226.044C181.023 224.092 178.424 221.956 175.98 219.649C173.594 217.409 171.354 215.169 169.26 212.979C167.166 210.79 165.133 208.594 163.206 206.511C161.398 204.475 159.485 202.533 157.478 200.693C154.26 197.276 151.362 193.572 148.82 189.627C146.858 186.674 145.26 183.494 144.06 180.158C143.644 178.933 143.313 177.681 143.069 176.411C142.914 175.475 142.849 174.526 142.873 173.578C142.89 172.996 142.943 172.417 143.03 171.842C143.074 171.472 143.125 171.276 143.125 171.276Z" fill="#263238"/>
<path d="M189.095 164.668C189.095 164.668 189.168 164.746 189.28 164.92L189.762 165.682C190.17 166.348 190.747 167.317 191.442 168.532C192.83 170.957 194.65 174.362 196.482 178.198C198.313 182.034 199.898 185.562 200.99 188.132C201.55 189.42 201.964 190.462 202.255 191.184C202.39 191.526 202.496 191.8 202.58 192.024C202.627 192.119 202.659 192.221 202.675 192.326C202.621 192.236 202.572 192.143 202.53 192.046C202.429 191.834 202.306 191.559 202.149 191.229C201.813 190.484 201.359 189.459 200.799 188.216C199.679 185.668 198.072 182.157 196.218 178.326C194.365 174.496 192.578 171.08 191.24 168.633L189.661 165.76C189.487 165.441 189.347 165.2 189.23 164.976C189.175 164.878 189.13 164.775 189.095 164.668Z" fill="#263238"/>
<path d="M57.2488 98.4984C55.9051 99.2683 54.3228 99.5099 52.8105 99.1761C51.2983 98.8423 49.9647 97.957 49.0701 96.6929C48.1754 95.4289 47.7838 93.8769 47.9717 92.3397C48.1596 90.8025 48.9136 89.3905 50.0864 88.3792C48.8282 87.8552 47.7672 86.9478 47.0545 85.7861C46.3418 84.6244 46.0135 83.2675 46.1165 81.9084C46.2195 80.5493 46.7484 79.2574 47.628 78.2163C48.5077 77.1752 49.6932 76.438 51.016 76.1096C50.5433 74.8546 50.4042 73.4984 50.6121 72.1736C50.8201 70.8487 51.368 69.6004 52.2023 68.5505C53.0367 67.5006 54.1291 66.685 55.3728 66.1833C56.6165 65.6816 57.9691 65.5109 59.2984 65.688C60.2068 63.9665 61.6652 62.5985 63.4411 61.8019C65.2171 61.0052 67.2086 60.8257 69.0984 61.292C70.2065 60.559 71.5207 60.201 72.8474 60.2708C74.1742 60.3406 75.4436 60.8344 76.4687 61.6796C77.4938 62.5248 78.2206 63.6767 78.5421 64.9658C78.8635 66.255 78.7627 67.6132 78.2544 68.8408" fill="#263238"/>
<path d="M72.7384 66.4272L71.4784 66.9872C65.3645 69.5887 60.4547 74.3973 57.7265 80.4557C54.9982 86.514 54.6517 93.3777 56.756 99.68C60.8104 111.838 65.4528 125.216 68.2136 131.488C73.92 144.48 87.8584 140.918 87.8584 140.918L93.4584 157.074L124.729 142.604L103.275 84.5264C98.672 70.4704 86.66 61.4376 72.7384 66.4272Z" fill="#FFBF9D"/>
<path d="M87.7408 140.946C87.7408 140.946 96.292 137.9 102.715 128.654C102.715 128.654 102.609 140.095 89.0792 144.469L87.7408 140.946Z" fill="#FF9A6C"/>
<path d="M65.4696 111.748C65.6712 112.237 66.0557 112.627 66.5411 112.836C67.0265 113.046 67.5744 113.057 68.068 112.868C68.3131 112.785 68.5391 112.654 68.7329 112.483C68.9267 112.311 69.0842 112.103 69.1964 111.87C69.3085 111.636 69.373 111.383 69.386 111.125C69.399 110.866 69.3602 110.608 69.272 110.365C69.0704 109.876 68.6859 109.486 68.2005 109.276C67.7151 109.067 67.1672 109.056 66.6736 109.245C66.4281 109.327 66.2015 109.458 66.0073 109.629C65.8131 109.8 65.6553 110.009 65.543 110.242C65.4308 110.476 65.3665 110.729 65.3538 110.988C65.3412 111.246 65.3806 111.505 65.4696 111.748Z" fill="#263238"/>
<path d="M62.2832 104.849C62.6192 104.994 63.5824 103.348 65.5928 102.502C67.6032 101.657 69.5128 102.026 69.6136 101.69C69.6696 101.534 69.2496 101.198 68.4096 101.002C67.2807 100.765 66.1063 100.887 65.0496 101.349C64.0039 101.791 63.1255 102.554 62.5408 103.527C62.16 104.261 62.1208 104.793 62.2832 104.849Z" fill="#263238"/>
<path d="M84.1848 104.16C84.3853 104.65 84.7696 105.041 85.2554 105.25C85.7412 105.46 86.2897 105.47 86.7832 105.28C87.0286 105.198 87.2551 105.068 87.4494 104.898C87.6438 104.727 87.8019 104.519 87.9147 104.286C88.0274 104.054 88.0924 103.801 88.1058 103.542C88.1192 103.284 88.0808 103.026 87.9928 102.782C87.79 102.295 87.4054 101.905 86.9204 101.696C86.4355 101.487 85.8881 101.475 85.3944 101.662C85.1499 101.745 84.9244 101.876 84.7309 102.047C84.5374 102.218 84.3798 102.426 84.2672 102.658C84.1547 102.891 84.0895 103.143 84.0753 103.401C84.0611 103.659 84.0984 103.917 84.1848 104.16Z" fill="#263238"/>
<path d="M82.1632 96.8296C82.4936 96.9696 83.468 95.3232 85.4728 94.4776C87.4776 93.632 89.3928 94.0072 89.4936 93.6656C89.5496 93.5144 89.1296 93.1728 88.2896 92.9824C87.1607 92.7462 85.9863 92.8675 84.9296 93.3296C83.8832 93.7681 83.0043 94.5294 82.4208 95.5024C82.0232 96.236 82.0008 96.768 82.1632 96.8296Z" fill="#263238"/>
<path d="M81.2 114.8C81.1608 114.682 79.8224 114.996 77.6888 115.601C77.1568 115.763 76.6304 115.87 76.3952 115.556C76.16 115.242 76.0928 114.593 76.0872 113.876C76.0424 112.431 75.992 110.919 75.9416 109.329C75.6784 102.878 75.2584 97.664 75.0008 97.6752C74.7432 97.6864 74.7376 102.928 75.0008 109.379C75.0792 110.962 75.152 112.476 75.2192 113.921C75.2752 114.587 75.2192 115.388 75.8128 116.043C75.9637 116.192 76.1465 116.305 76.3473 116.373C76.5481 116.44 76.7617 116.462 76.972 116.435C77.2897 116.392 77.6004 116.307 77.896 116.183C79.9904 115.45 81.256 114.923 81.2 114.8Z" fill="#263238"/>
<path d="M87.0184 87.8808C86.632 87.3936 84.9128 88.3456 82.6728 88.8608C80.4328 89.376 78.456 89.3816 78.3608 89.9808C78.3272 90.2664 78.82 90.6752 79.7216 90.9496C80.8741 91.27 82.0903 91.2835 83.2496 90.9888C84.401 90.7232 85.4604 90.1548 86.3184 89.3424C86.968 88.6984 87.1976 88.1104 87.0184 87.8808Z" fill="#263238"/>
<path d="M67.1216 94.948C66.4664 94.7744 65.2288 96.1744 63.4144 97.356C61.6 98.5376 59.864 99.2208 59.7856 99.8816C59.7856 100.195 60.2728 100.442 61.1968 100.442C61.6504 100.598 62.3784 100.442 64.6688 99.1928C65.7152 98.5199 66.5592 97.5753 67.1104 96.46C67.4856 95.6032 67.424 95.0376 67.1216 94.948Z" fill="#263238"/>
<path d="M55.44 93.1392C55.44 93.1392 55.4008 83.496 58.5312 79.9064C62.3224 75.5664 66.6064 79.9064 70.6104 76.72C74.6144 73.5336 78.232 69.356 84.3752 70.896C91.0952 72.576 89.8688 76.2888 92.652 81.9504C103.925 104.91 111.042 109.704 107.554 98.1232C107.167 96.8576 110.124 94.4608 108.438 89.1296C106.26 82.2136 103.079 74.0432 99.5904 69.9608C96.6504 66.5224 93.2176 64.7416 87.8696 63.448C79.4248 61.3984 70.5768 65.044 64.8536 68.1968C59.1304 71.3496 50.5568 83.132 55.44 93.1392Z" fill="#263238"/>
<path d="M106.59 98.1232C106.403 97.6373 106.316 97.1185 106.335 96.5981C106.354 96.0778 106.478 95.5666 106.7 95.0955C106.922 94.6245 107.237 94.2033 107.626 93.8574C108.016 93.5115 108.471 93.2482 108.965 93.0832C111.496 92.2768 114.794 92.5232 116.777 97.608C120.294 106.652 110.482 108.321 110.365 108.063C110.286 107.89 108.03 101.92 106.59 98.1232Z" fill="#FFBF9D"/>
<path d="M111.014 103.891C111.014 103.846 111.216 103.942 111.53 103.958C111.966 103.975 112.392 103.82 112.717 103.527C113.534 102.805 113.747 100.974 113.159 99.3272C112.881 98.5417 112.432 97.8281 111.843 97.2384C111.646 96.9853 111.39 96.7848 111.097 96.6548C110.804 96.5249 110.483 96.4695 110.163 96.4936C109.964 96.5153 109.779 96.6063 109.639 96.7505C109.5 96.8948 109.416 97.0833 109.402 97.2832C109.402 97.5856 109.508 97.7424 109.463 97.776C109.418 97.8096 109.211 97.7032 109.138 97.3C109.1 97.0563 109.148 96.8069 109.273 96.5944C109.451 96.3125 109.732 96.1115 110.057 96.0344C110.456 95.9647 110.867 95.9981 111.25 96.1313C111.633 96.2646 111.976 96.4934 112.246 96.796C112.936 97.4313 113.461 98.2251 113.775 99.1088C114.425 100.951 114.156 103.029 112.991 103.908C112.776 104.073 112.526 104.187 112.26 104.242C111.995 104.298 111.72 104.292 111.457 104.227C111.115 104.104 110.986 103.919 111.014 103.891Z" fill="#FF9A6C"/>
<path d="M99.0528 80.9032C98.2296 82.1912 97.3728 83.5296 96.012 84.2632C94.6512 84.9968 92.736 84.8792 91.9128 83.5912C91.5432 83.0312 91.3864 82.2304 90.7928 81.9112C90.0592 81.5416 89.236 82.1072 88.5528 82.5048C86.072 83.8824 81.8328 82.3088 80.0856 80.0632C79.9516 80.6911 79.5834 81.2444 79.056 81.6105C78.5286 81.9767 77.8815 82.1283 77.2464 82.0344C76.2093 81.8769 75.2071 81.5416 74.284 81.0432C73.1136 80.4832 71.6744 80.1416 70.5656 80.8136C69.944 81.1888 69.496 81.844 68.8072 82.068C67.592 82.46 66.4328 81.3344 65.7608 80.248C65.0888 79.1616 64.372 77.8568 63.112 77.6496C61.9416 77.4536 60.872 78.2992 59.8808 78.9208C58.8896 79.5424 57.372 79.8784 56.644 78.9208C56.4771 78.6572 56.3653 78.3625 56.3152 78.0546C56.2652 77.7466 56.2779 77.4317 56.3528 77.1288C56.6196 75.7416 57.346 74.4847 58.4149 73.5611C59.4838 72.6376 60.8328 72.1011 62.244 72.0384C62.0633 70.3746 62.3767 68.6945 63.1451 67.2078C63.9135 65.721 65.1029 64.4936 66.5647 63.6788C68.0265 62.864 69.6959 62.4978 71.3646 62.6261C73.0332 62.7543 74.6271 63.3713 75.9472 64.4C76.5285 63.1363 77.4064 62.0317 78.5061 61.18C79.6058 60.3283 80.8948 59.7546 82.2637 59.5078C83.6326 59.2609 85.0409 59.3482 86.3688 59.7622C87.6967 60.1761 88.9051 60.9046 89.8912 61.8856C90.8611 61.131 92.0315 60.6783 93.2568 60.5837C94.482 60.4891 95.708 60.7569 96.7823 61.3537C97.8565 61.9505 98.7316 62.85 99.2986 63.9402C99.8656 65.0305 100.099 66.2634 99.9712 67.4856C101.97 67.7152 104.02 68.7288 104.838 70.56C105.655 72.3912 104.647 75.0008 102.654 75.2752C103.333 75.8457 103.767 76.6549 103.868 77.5362C103.969 78.4175 103.727 79.3038 103.194 80.0127C102.661 80.7217 101.877 81.1992 101.002 81.3472C100.127 81.4951 99.2294 81.3021 98.4928 80.808" fill="#263238"/>
<path d="M62.6528 74.9784C62.6711 75.035 62.6955 75.0895 62.7256 75.1408C62.7872 75.2416 62.86 75.404 62.9888 75.5944C63.3664 76.1477 63.8317 76.6357 64.3664 77.0392C65.2162 77.6761 66.201 78.1092 67.2448 78.3048C68.6308 78.5867 70.0709 78.4057 71.344 77.7896L71.1088 77.6552C71.1876 78.5837 71.6305 79.4433 72.3408 80.0464C73.0812 80.6763 73.9094 81.1951 74.7992 81.5864C75.2557 81.8379 75.7383 82.0388 76.2384 82.1856C76.7811 82.2965 77.3429 82.2715 77.8736 82.1128C78.4312 81.9657 78.9445 81.6849 79.369 81.2945C79.7935 80.9042 80.1164 80.4162 80.3096 79.8728L79.9344 79.9232C80.4528 80.7978 81.1487 81.5541 81.9772 82.1435C82.8057 82.7328 83.7485 83.142 84.7448 83.3448C85.8666 83.6164 87.0464 83.5141 88.1048 83.0536C89.0745 82.5872 89.9587 81.9605 90.72 81.2H90.44C91.3601 82.0846 92.489 82.7222 93.7216 83.0536C94.2993 83.2378 94.9108 83.2907 95.5114 83.2083C96.1121 83.126 96.6868 82.9105 97.1936 82.5776C98.0442 81.9755 98.7004 81.1379 99.0814 80.1679C99.4625 79.1979 99.5518 78.1377 99.3384 77.1176L99.176 77.2968C100.328 77.3995 101.48 77.0986 102.435 76.4456C103.152 75.9683 103.746 75.3296 104.171 74.5808C104.433 74.1086 104.613 73.5955 104.703 73.0632C104.734 72.8782 104.743 72.6903 104.731 72.5032C104.62 73.2053 104.381 73.8811 104.026 74.4968C103.598 75.2062 103.009 75.8048 102.306 76.244C101.392 76.8464 100.299 77.1154 99.2096 77.0056L99.0024 76.9776L99.0472 77.1848C99.2327 78.1417 99.1368 79.1319 98.771 80.0353C98.4052 80.9388 97.7854 81.7169 96.9864 82.2752C96.5223 82.5738 95.9971 82.7646 95.4496 82.8334C94.902 82.9022 94.346 82.8473 93.8224 82.6728C92.6605 82.3492 91.5966 81.7432 90.7256 80.9088L90.5856 80.7688L90.44 80.9032C89.7039 81.6242 88.8521 82.2167 87.92 82.656C86.9442 83.0724 85.8601 83.1627 84.8288 82.9136C83.8895 82.7221 83.0005 82.3369 82.2185 81.7825C81.4365 81.228 80.7787 80.5166 80.2872 79.6936L80.052 79.296L79.912 79.7384C79.7415 80.2192 79.4567 80.6514 79.0821 80.9978C78.7075 81.3441 78.2543 81.5941 77.7616 81.7264C77.2939 81.8718 76.7975 81.8987 76.3168 81.8048C75.8492 81.6642 75.397 81.4766 74.9672 81.2448C74.1041 80.8726 73.2988 80.3785 72.576 79.7776C71.9342 79.2385 71.5316 78.4675 71.456 77.6328V77.3864L71.2376 77.4984C70.0269 78.1074 68.6504 78.3041 67.3176 78.0584C66.3096 77.8852 65.353 77.4892 64.5176 76.8992C63.7869 76.3747 63.1555 75.7243 62.6528 74.9784Z" fill="#455A64"/>
<path d="M87.2872 118.597C87.3376 118.765 85.5624 119.291 83.7872 120.641C82.012 121.99 80.9872 123.525 80.836 123.441C80.7744 123.402 80.9424 122.959 81.396 122.321C82.5465 120.677 84.193 119.445 86.0944 118.804C86.8 118.563 87.2704 118.524 87.2872 118.597Z" fill="#263238"/>
<path d="M69.664 95.9504C69.664 95.9056 69.9104 95.816 70.224 95.536C70.6287 95.175 70.8776 94.6712 70.9184 94.1304C70.9253 93.5895 70.7249 93.0666 70.3584 92.6688C70.0728 92.3608 69.7984 92.2488 69.8376 92.204C69.8768 92.1592 70.14 92.204 70.4984 92.5232C70.731 92.7234 70.9156 92.9732 71.0387 93.2543C71.1618 93.5354 71.2202 93.8405 71.2096 94.1472C71.1904 94.453 71.1036 94.7508 70.9554 95.019C70.8072 95.2873 70.6014 95.5193 70.3528 95.6984C70 95.9616 69.6696 95.984 69.664 95.9504Z" fill="#FF9A6C"/>
<path d="M75.796 94.0184C75.5322 94.1379 75.2344 94.1598 74.956 94.08C74.6093 94.024 74.2795 93.891 73.9909 93.6909C73.7023 93.4908 73.4622 93.2285 73.2882 92.9235C73.1142 92.6184 73.0107 92.2782 72.9853 91.928C72.9599 91.5777 73.0133 91.2261 73.1416 90.8992C73.3376 90.3952 73.6064 90.1824 73.6232 90.2048C73.64 90.2272 73.4664 90.4904 73.3376 90.9608C73.2483 91.2627 73.2212 91.5796 73.2581 91.8923C73.295 92.205 73.395 92.5069 73.5522 92.7797C73.7093 93.0526 73.9202 93.2907 74.1721 93.4795C74.424 93.6684 74.7117 93.8041 75.0176 93.8784C75.4712 94.0128 75.7904 93.968 75.796 94.0184Z" fill="#FF9A6C"/>
<path d="M63.2296 115.422C63.2296 115.422 60.5472 117.303 60.0824 119.846C59.6176 122.388 58.0216 127.126 57.68 129.231C57.3384 131.337 53.956 138.466 51.3856 140.291C48.8152 142.117 34.888 140.56 34.888 140.56C34.888 140.56 33.2584 133.633 33.8632 129.842C34.468 126.05 37.3632 118.255 37.3632 118.255C37.3632 118.255 39.536 115.142 41.7312 115.886C43.9264 116.631 43.4672 118.434 43.4672 118.434C43.4672 118.434 43.8592 113.305 46.2056 113.445C48.552 113.585 48.636 115.444 48.636 115.444C48.636 115.444 49.196 111.087 51.996 111.619C54.796 112.151 54.5216 115.382 54.5216 115.382C54.5216 115.382 55.2664 108.142 57.5904 108.735C59.9144 109.329 59.9424 113.557 59.9424 113.557C59.9424 113.557 62.8152 112 63.2296 115.422Z" fill="#FFBF9D"/>
<path d="M54.488 114.8C54.544 114.8 54.6336 115.36 55.048 116.178C55.2608 116.645 55.6491 117.009 56.1288 117.191C56.4254 117.282 56.7382 117.307 57.0456 117.266C57.3529 117.224 57.6477 117.117 57.9096 116.95C58.4428 116.601 58.8585 116.1 59.1024 115.511C59.3085 115.026 59.4498 114.516 59.5224 113.994C59.5606 113.498 59.6317 113.006 59.7352 112.521C59.8043 113.017 59.8043 113.52 59.7352 114.016C59.6868 114.566 59.5585 115.105 59.3544 115.618C59.0999 116.267 58.6498 116.821 58.0664 117.202C57.7678 117.388 57.4318 117.507 57.0824 117.548C56.733 117.59 56.3788 117.554 56.0448 117.443C55.7793 117.336 55.538 117.177 55.3351 116.975C55.1321 116.773 54.9717 116.532 54.8632 116.267C54.7201 115.926 54.6167 115.569 54.5552 115.203C54.5067 115.074 54.4838 114.938 54.488 114.8Z" fill="#FF9A6C"/>
<path d="M48.5408 114.901C48.5396 115.209 48.5115 115.516 48.4568 115.819C48.384 116.463 48.2776 117.303 48.16 118.317C48.0424 119.33 47.9192 120.63 47.8856 122.03C47.8358 122.75 47.8867 123.474 48.0368 124.18C48.1108 124.545 48.2745 124.885 48.5131 125.17C48.7516 125.456 49.0576 125.678 49.4032 125.815C49.7605 125.908 50.136 125.906 50.4919 125.807C50.8479 125.709 51.1715 125.519 51.4304 125.255C51.8893 124.712 52.1845 124.05 52.2816 123.346C52.528 121.968 52.7632 120.714 52.9928 119.678C53.2224 118.642 53.4296 117.802 53.5864 117.23C53.6535 116.928 53.7453 116.633 53.8608 116.346C53.8304 116.652 53.7761 116.955 53.6984 117.253C53.5696 117.886 53.4016 118.714 53.1944 119.717C52.9872 120.719 52.78 122.002 52.5448 123.396C52.4457 124.152 52.1285 124.862 51.632 125.44C51.3411 125.747 50.9725 125.97 50.5653 126.084C50.158 126.198 49.7274 126.2 49.3192 126.09C48.927 125.938 48.5791 125.69 48.3072 125.369C48.0353 125.048 47.848 124.665 47.7624 124.253C47.6067 123.517 47.5576 122.763 47.6168 122.013C47.6652 120.765 47.7773 119.52 47.9528 118.283C48.0984 117.225 48.244 116.379 48.3448 115.791C48.3868 115.49 48.4524 115.192 48.5408 114.901Z" fill="#FF9A6C"/>
<path d="M43.3048 117.314C43.3013 117.561 43.2769 117.806 43.232 118.048C43.176 118.518 43.0976 119.202 43.0472 120.047C42.9098 122.248 43.0509 124.457 43.4672 126.622C43.5594 127.221 43.7789 127.794 44.1112 128.302C44.2684 128.523 44.4809 128.7 44.7275 128.814C44.9741 128.927 45.2462 128.975 45.5168 128.951C46.0216 128.892 46.4934 128.67 46.8608 128.318C47.1881 128.01 47.4343 127.625 47.5776 127.198C47.7867 126.569 47.9037 125.913 47.9248 125.25C47.9231 125.003 47.9456 124.758 47.992 124.516C48.0328 124.76 48.0478 125.008 48.0368 125.255C48.0607 125.935 47.9718 126.615 47.7736 127.266C47.6238 127.769 47.3334 128.219 46.9366 128.563C46.5399 128.908 46.0531 129.132 45.5336 129.209C45.2128 129.244 44.8884 129.193 44.5934 129.062C44.2984 128.932 44.0432 128.725 43.8536 128.464C43.4857 127.922 43.2445 127.303 43.148 126.655C42.7214 124.467 42.6064 122.229 42.8064 120.008C42.8646 119.337 42.9581 118.67 43.0864 118.009C43.1308 117.769 43.2041 117.536 43.3048 117.314Z" fill="#FF9A6C"/>
<path d="M38.64 118.619C38.8839 119.084 39.0827 119.572 39.2336 120.075C39.564 120.988 40.0008 122.254 40.4656 123.659C40.7064 124.365 40.8968 125.042 41.1544 125.614C41.3628 126.123 41.7006 126.569 42.1344 126.907C42.4309 127.127 42.7808 127.265 43.148 127.305C43.4112 127.305 43.5624 127.305 43.568 127.305C43.442 127.381 43.2951 127.417 43.148 127.406C42.7492 127.404 42.3596 127.286 42.028 127.064C41.5343 126.729 41.1459 126.261 40.908 125.714C40.621 125.078 40.3723 124.426 40.1632 123.76C39.6984 122.354 39.2896 121.078 39.0096 120.148C38.8393 119.651 38.7155 119.139 38.64 118.619Z" fill="#FF9A6C"/>
<path d="M37.4752 123.508C38.0364 123.532 38.5894 123.651 39.1104 123.861C39.6597 123.982 40.1842 124.196 40.6616 124.494C40.0982 124.473 39.5427 124.354 39.0208 124.141C38.4726 124.022 37.9495 123.808 37.4752 123.508Z" fill="#FF9A6C"/>
<path d="M43.5624 137.127C43.5652 136.938 43.5934 136.749 43.6464 136.567C43.7516 136.078 43.892 135.597 44.0664 135.128C45.2102 131.998 47.3587 129.336 50.176 127.557C50.5951 127.287 51.0331 127.047 51.4864 126.84C51.6487 126.751 51.8219 126.683 52.0016 126.638C52.0016 126.689 51.3184 127.025 50.288 127.758C47.5737 129.587 45.4676 132.184 44.24 135.218C43.792 136.377 43.6128 137.138 43.5624 137.127Z" fill="#FF9A6C"/>
<path d="M50.8032 139.468L61.6 181.098L75.1912 173.258L84.7112 198.218C84.7112 198.218 64.1872 212.145 52.7912 212.626C38.7912 213.186 39.1048 188.082 37.464 173.958C36.064 161.907 35.1176 140.073 35.1176 140.073L50.8032 139.468Z" fill="#FFBF9D"/>
<path d="M59.5056 189.924C59.5776 189.459 59.6919 189.002 59.8472 188.558C60.0768 187.723 60.4072 186.57 60.6872 185.282C60.9672 183.994 61.2024 182.823 61.3536 181.972C61.4128 181.506 61.5102 181.045 61.6448 180.594C61.673 181.066 61.6448 181.54 61.5608 182.006C61.276 184.255 60.7676 186.471 60.0432 188.619C59.9174 189.074 59.7369 189.512 59.5056 189.924Z" fill="#FF9A6C"/>
<path d="M106.058 146.72C104.888 146.955 97.7144 145.986 88.256 155.719C78.9488 165.301 64.0416 178.119 64.0416 178.119L92.0416 205.033C92.0416 205.033 118.821 185.954 122.959 172.962C127.098 159.97 126.734 142.593 106.058 146.72Z" fill="#B366FF"/>
<path d="M68.4656 187.656C68.3908 187.779 68.3025 187.894 68.2024 187.998L67.396 188.933L64.4 192.332C63.1176 193.771 61.6 195.468 59.92 197.372C58.24 199.276 56.2968 201.264 54.5888 203.627C52.9713 205.825 51.5685 208.173 50.4 210.638C49.4133 212.645 48.8419 214.829 48.72 217.062C48.651 218.566 48.856 220.071 49.3248 221.502C49.6776 222.51 49.98 223.02 49.952 223.037C49.866 222.921 49.791 222.797 49.728 222.667C49.5339 222.305 49.3636 221.931 49.2184 221.547C48.7014 220.112 48.4619 218.592 48.5128 217.067C48.5939 214.803 49.143 212.579 50.1256 210.538C51.2893 208.038 52.7001 205.661 54.3368 203.442C56.0198 201.266 57.8122 199.176 59.7072 197.182L64.232 192.203C65.5144 190.814 66.556 189.678 67.3008 188.843L68.1464 187.947C68.2463 187.843 68.3529 187.746 68.4656 187.656Z" fill="#FF9A6C"/>
<path d="M60.9448 246.282L58.604 265.44L132.524 265.479L129.282 246.075C129.282 246.075 137.402 194.438 137.592 182.963C137.782 171.489 137.995 158.418 133.179 150.248C126.554 139.048 121.834 134.417 121.834 134.417L90.8376 152.152C90.8376 152.152 66.2816 204.747 66.2872 206.679C66.2928 208.611 60.9448 246.282 60.9448 246.282Z" fill="#B366FF"/>
<path opacity="0.3" d="M64.6688 229.242C64.6688 229.242 70.8288 230.003 79.296 226.666C87.7632 223.328 94.5392 216.681 94.5392 216.681L98.14 218.014C98.14 218.014 125.02 197.624 126.7 183.529L105.42 184.29L64.6688 229.242Z" fill="black"/>
<path d="M65.9568 191.201L86.3016 167.77L111.406 194.617C111.406 194.617 82.9976 219.184 74.48 224.997C65.884 230.877 56.56 231.157 51.2624 225.366C49.7477 223.674 48.8515 221.518 48.72 219.251C48.5072 216.238 48.7648 211.501 51.5704 207.368C56.112 200.687 65.9568 191.201 65.9568 191.201Z" fill="#FFBF9D"/>
<path d="M108.926 146.49C107.671 146.748 101.517 149.895 91.3752 160.434C81.3904 170.8 66.8808 186.144 66.8808 186.144L95.6984 213.584C95.6984 213.584 124.466 192.864 128.862 178.83C133.258 164.797 131.202 141.904 108.926 146.49Z" fill="#B366FF"/>
<path d="M108.926 146.49L109.413 146.39L110.852 146.126C112.705 145.847 114.584 145.785 116.452 145.942C117.804 146.08 119.133 146.382 120.411 146.843C121.93 147.4 123.339 148.221 124.572 149.268C125.978 150.492 127.146 151.965 128.016 153.614C128.991 155.455 129.702 157.425 130.127 159.466C130.606 161.704 130.846 163.986 130.844 166.275C130.856 168.756 130.648 171.234 130.222 173.678C129.811 176.311 129.058 178.879 127.982 181.317C126.727 183.844 125.196 186.226 123.418 188.418C119.61 193.104 115.416 197.463 110.88 201.449C106.198 205.638 101.153 209.759 95.76 213.713L95.6648 213.786L95.5752 213.702L95.0152 213.186L66.7464 186.239L66.6512 186.15L66.7408 186.054L82.9808 169.042L89.824 161.885C91.9296 159.645 93.9344 157.651 95.8048 155.904C98.6914 153.135 101.815 150.624 105.14 148.4C106.024 147.818 106.947 147.296 107.901 146.838C108.147 146.724 108.4 146.623 108.657 146.535L108.926 146.474C108.926 146.474 108.842 146.507 108.668 146.558C108.412 146.653 108.162 146.761 107.918 146.882C106.973 147.353 106.06 147.884 105.185 148.473C101.901 150.717 98.8134 153.237 95.956 156.005C94.0893 157.756 92.1051 159.755 90.0032 162.002L83.1824 169.182L66.976 186.234V186.049L95.2616 212.974L95.8216 213.489H95.6312C100.996 209.569 106.036 205.425 110.712 201.247C115.247 197.275 119.443 192.931 123.256 188.261C125.021 186.086 126.543 183.726 127.798 181.222C128.856 178.803 129.598 176.259 130.004 173.65C130.435 171.221 130.649 168.759 130.642 166.292C130.638 164.012 130.396 161.74 129.92 159.51C129.5 157.486 128.801 155.53 127.842 153.698C126.993 152.07 125.855 150.611 124.482 149.391C123.265 148.35 121.873 147.531 120.372 146.972C119.107 146.508 117.791 146.2 116.452 146.054C114.586 145.885 112.707 145.93 110.852 146.188L109.413 146.418L108.926 146.49Z" fill="#263238"/>
<path d="M86.3184 164.948C86.2456 164.92 87.2256 162.109 88.5136 158.67C89.8016 155.232 90.9104 152.466 90.9888 152.51C91.0672 152.555 90.076 155.35 88.788 158.788C87.5 162.226 86.3912 164.976 86.3184 164.948Z" fill="#263238"/>
</svg>
