<svg width="270" height="270" viewBox="0 0 270 270" fill="none" xmlns="http://www.w3.org/2000/svg">
<path d="M199.381 79.8267H170.175V122.159H199.381V79.8267Z" fill="#E0E0E0"/>
<path d="M197.919 79.8267H168.713V122.159H197.919V79.8267Z" fill="#F5F5F5"/>
<path d="M194.291 84.41H172.341V117.576H194.291V84.41Z" fill="white"/>
<path d="M194.285 117.57C194.285 117.57 194.285 117.518 194.285 117.413V116.941C194.285 116.522 194.285 115.916 194.285 115.124C194.285 113.535 194.285 111.217 194.285 108.287C194.285 102.464 194.285 94.1589 194.25 84.41L194.32 84.4798H172.376L172.458 84.3983C172.458 96.9077 172.458 108.445 172.458 117.559L172.394 117.5H188.374H192.783H194.285H193.901H192.736H188.333H172.318H172.254V117.436C172.254 108.322 172.254 96.7854 172.254 84.276V84.1945H194.355V84.2702C194.355 94.0424 194.326 102.324 194.32 108.2C194.32 111.112 194.32 113.441 194.32 115.014C194.32 115.8 194.32 116.406 194.32 116.819V117.279C194.319 117.377 194.307 117.475 194.285 117.57Z" fill="#E0E0E0"/>
<path d="M198.001 79.8267C197.851 80.094 197.678 80.3474 197.483 80.5837C197.145 81.0322 196.661 81.6495 196.114 82.3309C195.567 83.0123 195.048 83.5888 194.67 84.0081C194.473 84.245 194.257 84.4651 194.023 84.6662C194.199 84.4094 194.394 84.1661 194.606 83.9382L196.015 82.2319L197.419 80.5255C197.592 80.2759 197.787 80.042 198.001 79.8267Z" fill="#E0E0E0"/>
<path d="M194.402 117.466C195.496 119.2 196.781 120.806 198.234 122.253L194.402 117.466Z" fill="white"/>
<path d="M198.234 122.253C197.99 122.084 197.765 121.888 197.564 121.67C197.055 121.152 196.573 120.607 196.12 120.04C195.666 119.48 195.242 118.897 194.85 118.293C194.673 118.047 194.523 117.784 194.402 117.506C194.603 117.731 194.784 117.972 194.943 118.228C195.264 118.683 195.718 119.3 196.242 119.976C196.766 120.651 197.279 121.216 197.646 121.63C197.857 121.823 198.053 122.031 198.234 122.253Z" fill="#E0E0E0"/>
<path d="M168.713 122.125L172.534 117.407L168.713 122.125Z" fill="white"/>
<path d="M172.534 117.407C171.96 118.241 171.344 119.043 170.688 119.813C169.628 121.117 168.742 122.142 168.713 122.142C169.285 121.306 169.902 120.501 170.559 119.731C171.178 118.924 171.837 118.148 172.534 117.407Z" fill="#E0E0E0"/>
<path d="M168.713 79.8267C169.374 80.5308 169.994 81.2716 170.571 82.0455C171.193 82.7912 171.777 83.5688 172.318 84.375C171.658 83.6709 171.037 82.9301 170.46 82.1562C169.835 81.4127 169.252 80.635 168.713 79.8267Z" fill="#E0E0E0"/>
<path d="M187.454 91.1422H180.104V112.009H187.454V91.1422Z" fill="#E0E0E0"/>
<path d="M141.289 198.27C139.961 198.709 138.735 199.411 137.684 200.335C136.633 201.258 135.78 202.384 135.174 203.645C133.981 206.179 133.383 208.952 133.427 211.752C133.357 217.151 135.693 222.905 138.406 227.569C143.386 224.227 145.284 217.541 146.036 214.087C147.2 208.625 146.036 198.043 141.295 198.27" fill="#F5F5F5"/>
<path d="M132.082 235.699C132.582 234.216 132.681 232.626 132.368 231.091C132.055 229.557 131.342 228.133 130.3 226.964C129.242 225.815 127.966 224.889 126.546 224.239C125.126 223.589 123.591 223.228 122.03 223.178C120.592 223.103 118.996 223.324 118.029 224.395C117.608 224.924 117.336 225.555 117.241 226.223C117.146 226.892 117.231 227.574 117.488 228.198C118.019 229.444 118.871 230.527 119.957 231.337C123.527 234.249 127.528 236.445 132.082 235.688" fill="#F5F5F5"/>
<path d="M135.815 248.675C135.882 247.484 135.827 246.29 135.652 245.111C135.51 243.814 135.213 242.539 134.767 241.313C134.268 239.806 133.67 238.334 132.979 236.905C131.703 234.28 129.799 232.012 127.435 230.301C126.703 229.801 125.923 229.378 125.105 229.037C124.813 228.897 124.5 228.806 124.179 228.769C124.132 228.868 125.431 229.351 127.161 230.644C129.372 232.406 131.162 234.638 132.402 237.179C133.08 238.585 133.681 240.028 134.202 241.5C134.657 242.685 134.989 243.915 135.192 245.169C135.553 247.329 135.722 248.686 135.815 248.675Z" fill="#E0E0E0"/>
<path d="M141.47 206.423C141.283 206.993 141.147 207.577 141.062 208.17C140.841 209.335 140.544 210.966 140.194 213.01C139.49 217.087 138.587 222.759 137.737 229.037C136.886 235.315 136.287 241.016 135.937 245.157C135.762 247.225 135.64 248.896 135.576 250.055C135.507 250.654 135.495 251.259 135.541 251.86C135.682 251.275 135.772 250.679 135.809 250.078C135.955 248.814 136.141 247.166 136.391 245.198C136.852 241.075 137.521 235.385 138.366 229.119C139.21 222.852 140.049 217.285 140.643 213.074C140.922 211.106 141.149 209.463 141.324 208.211C141.424 207.621 141.473 207.022 141.47 206.423Z" fill="#E0E0E0"/>
<path d="M138.581 238.6C139.957 235.605 142.026 232.981 144.618 230.945C147.21 228.91 150.249 227.521 153.484 226.894C155.126 226.591 157.153 226.649 158.056 228.059C158.958 229.468 158.166 231.343 157.171 232.718C155.039 235.489 152.136 237.567 148.826 238.691C145.516 239.816 141.948 239.936 138.57 239.036" fill="#F5F5F5"/>
<path d="M151.19 231.233C150.872 231.248 150.559 231.314 150.264 231.431C149.681 231.594 148.837 231.879 147.818 232.258C145.122 233.237 142.63 234.706 140.468 236.59C139.302 237.667 138.319 238.926 137.556 240.318C136.946 241.46 136.497 242.681 136.223 243.946C136.036 244.792 135.926 245.654 135.896 246.52C135.843 246.834 135.843 247.155 135.896 247.469C136.019 247.469 136.065 246.124 136.607 244.051C137.318 241.351 138.795 238.914 140.858 237.033C142.978 235.204 145.377 233.725 147.963 232.654C149.972 231.786 151.236 231.326 151.19 231.233Z" fill="#E0E0E0"/>
<path d="M252.284 96.2147C252.284 96.2147 246.181 94.4151 243.711 108.445C241.242 122.474 241.044 130.202 241.044 130.202C241.044 130.202 240.188 133.248 237.928 132.118C235.669 130.988 231.831 127.011 229.123 128.769C226.31 130.592 226.351 134.343 228.488 139.211C230.625 144.08 234.894 154.936 235.29 155.914C235.686 156.892 235.547 158.506 233.887 157.987C232.227 157.469 221.657 151.098 218.92 156.339C216.183 161.58 224.371 174.136 225.239 175.557C226.106 176.978 226.007 177.689 225.402 178.283C224.796 178.877 221.441 176.402 218.355 174.713C215.268 173.024 211.395 171.609 210.079 174.742C208.763 177.875 211.244 188.44 226.281 202.248L233.654 208.188L242.582 204.903C261.258 196.703 267.041 187.525 266.82 184.13C266.599 180.735 262.464 180.799 258.999 181.381C255.534 181.964 251.556 183.239 251.172 182.476C250.787 181.713 250.939 180.985 252.214 179.949C253.49 178.912 265.306 169.641 264.415 163.834C263.524 158.028 251.445 160.631 249.704 160.585C247.963 160.538 248.382 158.96 249.046 158.174C249.71 157.387 257.298 148.494 260.897 144.575C264.496 140.656 265.749 137.127 263.681 134.488C261.689 131.943 256.762 134.488 254.264 134.803C251.766 135.117 251.935 131.984 251.935 131.984C251.935 131.984 254.264 124.611 256.46 110.529C258.655 96.4476 252.15 96.203 252.15 96.203" fill="#F5F5F5"/>
<path d="M250.054 108.788C250.054 108.788 250.054 108.887 250.024 109.085L249.902 109.953C249.786 110.728 249.617 111.851 249.407 113.284C248.97 116.196 248.312 120.366 247.479 125.514C245.814 135.851 243.403 150.108 240.671 165.849C237.94 181.591 235.488 195.842 233.77 206.167C232.914 211.321 232.221 215.485 231.744 218.397C231.505 219.83 231.319 220.948 231.161 221.722C231.097 222.089 231.051 222.375 231.01 222.584C230.969 222.794 230.946 222.875 230.946 222.875C230.946 222.875 230.946 222.776 230.981 222.578C231.016 222.38 231.051 222.083 231.097 221.711C231.214 220.936 231.383 219.812 231.592 218.38C232.029 215.468 232.687 211.298 233.52 206.15C235.185 195.812 237.597 181.55 240.334 165.809C243.071 150.067 245.534 135.822 247.281 125.473C248.132 120.319 248.825 116.155 249.308 113.243L249.861 109.918L250.013 109.056C250.022 108.966 250.035 108.877 250.054 108.788Z" fill="#E0E0E0"/>
<path d="M234.271 134.57C234.431 134.734 234.572 134.916 234.691 135.112C234.947 135.473 235.273 136.003 235.727 136.661C236.583 137.983 237.719 139.835 238.93 141.902L242.011 147.219L242.949 148.821C243.082 148.999 243.189 149.195 243.269 149.403C243.107 149.242 242.964 149.062 242.844 148.867C242.593 148.506 242.261 147.976 241.819 147.312C240.974 145.979 239.862 144.109 238.651 142.042L235.535 136.748C235.162 136.119 234.842 135.583 234.586 135.146C234.456 134.969 234.35 134.775 234.271 134.57Z" fill="#E0E0E0"/>
<path d="M244.154 149.351C244.102 149.275 247.823 146.771 252.465 143.748C257.106 140.726 260.897 138.344 260.95 138.414C261.002 138.483 257.275 140.999 252.639 144.016C248.004 147.033 244.201 149.415 244.154 149.351Z" fill="#E0E0E0"/>
<path d="M238.878 173.321C239.088 173.218 239.308 173.138 239.536 173.082L241.353 172.529C242.885 172.057 245.004 171.405 247.311 170.596C249.617 169.786 251.69 169 253.187 168.412L254.934 167.719C255.146 167.615 255.371 167.541 255.604 167.497C255.41 167.63 255.203 167.741 254.986 167.829C254.579 168.027 253.99 168.301 253.239 168.621C251.772 169.262 249.71 170.095 247.415 170.898C245.121 171.702 242.966 172.331 241.417 172.745C240.637 172.948 240.008 173.106 239.565 173.205C239.341 173.271 239.111 173.31 238.878 173.321Z" fill="#E0E0E0"/>
<path d="M226.997 161.93C227.184 162.041 227.356 162.174 227.51 162.326C227.824 162.594 228.279 162.99 228.826 163.491C229.932 164.487 231.441 165.873 233.095 167.416C234.749 168.959 236.234 170.374 237.3 171.411C237.829 171.923 238.255 172.349 238.546 172.646C238.707 172.791 238.851 172.953 238.977 173.129C238.788 173.024 238.616 172.892 238.464 172.739C238.144 172.471 237.696 172.069 237.142 171.574C236.042 170.584 234.527 169.198 232.873 167.649C231.22 166.1 229.734 164.69 228.675 163.66C228.139 163.141 227.714 162.722 227.422 162.419C227.26 162.275 227.117 162.111 226.997 161.93Z" fill="#E0E0E0"/>
<path d="M219.648 182.511C219.883 182.658 220.102 182.83 220.3 183.023L221.995 184.509C223.416 185.772 225.361 187.531 227.504 189.494C229.647 191.456 231.581 193.244 232.949 194.549L234.574 196.109C234.787 196.284 234.982 196.479 235.156 196.692C234.924 196.541 234.706 196.369 234.504 196.179L232.809 194.694C231.388 193.431 229.443 191.666 227.3 189.709C225.157 187.752 223.223 185.959 221.861 184.654L220.218 183.128C220.007 182.943 219.816 182.736 219.648 182.511Z" fill="#E0E0E0"/>
<path d="M234.865 196.267C235.129 196.136 235.404 196.029 235.686 195.946L237.969 195.16C239.891 194.496 242.547 193.57 245.453 192.47C248.359 191.369 250.962 190.309 252.837 189.529L255.068 188.603C255.336 188.476 255.614 188.375 255.901 188.3C255.656 188.467 255.394 188.607 255.12 188.719C254.608 188.97 253.862 189.302 252.931 189.732C251.073 190.571 248.475 191.666 245.563 192.767C242.652 193.867 239.984 194.776 238.039 195.358C237.067 195.661 236.292 195.894 235.71 196.045C235.436 196.147 235.153 196.221 234.865 196.267Z" fill="#E0E0E0"/>
<path d="M47.4336 220.604C60.8807 212.928 65.2485 196.808 66.0696 182.033C66.2094 179.564 66.7161 177.002 65.7435 174.736C64.771 172.471 62.1794 170.747 59.8848 171.58C57.9805 172.273 56.9729 174.323 55.8082 175.988C54.2277 178.205 52.0537 179.931 49.536 180.968C47.8937 181.637 45.9137 181.952 44.4461 180.968C42.431 179.599 42.4485 176.646 42.6989 174.206C43.161 169.641 43.6055 165.082 44.0326 160.532C44.2714 158.092 44.5101 155.594 43.9627 153.206C43.4153 150.818 41.9302 148.5 39.6648 147.638C37.3993 146.776 34.3943 147.848 33.6838 150.201C33.3926 151.179 33.4974 152.228 33.3402 153.235C33.1829 154.243 32.6006 155.326 31.5931 155.524C30.5855 155.722 29.677 154.941 29.0131 154.155C26.6836 151.453 25.2918 148.116 23.9814 144.802C22.6711 141.489 21.4131 138.117 19.369 135.211C17.3249 132.304 14.3548 129.888 10.8721 129.387C7.38955 128.886 3.45851 130.691 2.25882 134.046C1.05913 137.4 2.74219 141.092 4.67568 144.086C7.5596 148.516 11.0666 152.507 15.0885 155.937C15.8107 156.555 16.5911 157.224 16.8357 158.156C17.2142 159.833 15.5195 161.313 13.8656 161.703C11.9845 162.14 10.0219 161.767 8.10004 161.819C6.17821 161.872 4.02342 162.518 3.14403 164.259C1.9094 166.665 3.76135 169.501 5.65989 171.382C9.46474 175.198 13.8996 178.328 18.7692 180.636C20.5163 181.457 22.3449 182.208 23.6786 183.606C25.0122 185.004 25.6878 187.281 24.657 188.923C23.6262 190.565 21.32 190.915 19.468 190.391C17.616 189.866 16.0262 188.69 14.2907 187.851C11.0469 186.273 6.68487 186.104 4.26802 188.812C2.67813 190.594 2.31124 193.238 2.8179 195.579C3.32457 197.921 4.59415 200.017 5.96855 201.986C10.7731 208.799 17.2026 214.518 24.756 217.937C32.3094 221.355 39.4551 222.747 47.4686 220.627" fill="#F5F5F5"/>
<path d="M46.6299 231.541C46.5683 224.647 45.8487 217.775 44.481 211.018C42.7682 202.768 40.5846 194.623 37.9409 186.623L35.8793 180.327C35.2037 178.26 34.534 176.21 33.7536 174.241C32.2532 170.471 30.5442 166.786 28.6346 163.205C26.835 159.775 25.0064 156.584 23.2709 153.614C21.5354 150.643 19.8523 147.906 18.2217 145.46C15.6625 141.622 12.8038 137.992 9.67242 134.605C8.56591 133.405 7.6807 132.502 7.0692 131.897L6.37036 131.215C6.29304 131.135 6.20929 131.061 6.11993 130.994C6.18554 131.083 6.25756 131.166 6.33541 131.245L7.00514 131.961C7.58752 132.584 8.46108 133.51 9.5443 134.727C12.6192 138.157 15.4322 141.813 17.9596 145.664C19.5728 148.093 21.2267 150.836 22.9506 153.817C24.6744 156.799 26.4914 159.991 28.2735 163.415C30.1688 166.98 31.8698 170.644 33.3693 174.393C34.138 176.349 34.8019 178.382 35.4716 180.455C36.1414 182.528 36.8227 184.625 37.5158 186.757C40.1502 194.737 42.3395 202.859 44.0733 211.082C45.4543 217.812 46.203 224.655 46.3096 231.524" fill="#E0E0E0"/>
<path d="M33.6488 174.212C33.8034 173.888 33.9169 173.546 33.9866 173.193C34.1788 172.529 34.4175 171.562 34.7029 170.357C35.2853 167.952 35.9434 164.609 36.6713 160.917C37.3993 157.224 38.1156 153.899 38.7213 151.511C39.0183 150.346 39.2687 149.351 39.4551 148.687C39.5688 148.346 39.6468 147.995 39.688 147.638C39.5154 147.953 39.3806 148.288 39.2862 148.634C39.0532 149.287 38.7504 150.242 38.4126 151.43C37.7254 153.8 36.9567 157.131 36.2287 160.829L34.3884 170.316C34.1613 171.452 33.9691 172.413 33.806 173.181C33.7213 173.519 33.6686 173.864 33.6488 174.212Z" fill="#E0E0E0"/>
<path d="M2.74799 165.459C3.15314 165.582 3.56817 165.67 3.98844 165.721C4.79212 165.867 5.95105 166.071 7.37204 166.373C10.2257 166.956 14.1334 167.876 18.4022 169.093C22.671 170.31 26.4856 171.592 29.2228 172.587C30.5913 173.077 31.692 173.502 32.4491 173.793C32.8346 173.97 33.2364 174.108 33.6488 174.206C33.2923 173.975 32.9139 173.78 32.519 173.624C31.7794 173.28 30.6962 172.809 29.3334 172.279C26.6195 171.195 22.8108 169.874 18.5245 168.645C14.8737 167.587 11.1707 166.718 7.43028 166.041C5.99764 165.785 4.82706 165.628 4.01756 165.535C3.59803 165.467 3.17265 165.441 2.74799 165.459Z" fill="#E0E0E0"/>
<path d="M44.1432 210.407C44.2445 210.298 44.3289 210.174 44.3937 210.04L45.0401 208.951C45.6225 208.007 46.3563 206.621 47.2764 204.874C49.1226 201.415 51.5278 196.552 54.1019 191.148C56.676 185.743 59.0288 180.863 60.805 177.369L62.9132 173.234L63.4956 172.104C63.5673 171.975 63.624 171.838 63.6645 171.696C63.5661 171.806 63.482 171.927 63.414 172.057L62.7734 173.146C62.2202 174.096 61.4573 175.476 60.5313 177.223C58.6852 180.688 56.2858 185.551 53.7058 190.955C51.1259 196.36 48.779 201.234 47.0085 204.734L44.8945 208.869L44.3121 209.999C44.2372 210.127 44.1804 210.264 44.1432 210.407Z" fill="#E0E0E0"/>
<path d="M3.59827 193.11C3.72139 193.199 3.85674 193.27 4.00011 193.32L5.16486 193.838L9.50355 195.702C13.1725 197.268 18.2392 199.499 23.7717 201.968C29.3043 204.437 34.3943 206.627 38.0982 208.118C39.9443 208.869 41.4468 209.458 42.4951 209.865L43.7006 210.308C43.8391 210.365 43.9837 210.406 44.1316 210.43C44.0112 210.34 43.8776 210.269 43.7356 210.22L42.5708 209.702L38.2088 207.821C34.5399 206.249 29.4732 204.018 23.9406 201.549C18.4081 199.08 13.3123 196.89 9.6142 195.399C7.76807 194.654 6.26554 194.06 5.21727 193.652L4.01175 193.215C3.8785 193.164 3.73972 193.129 3.59827 193.11Z" fill="#E0E0E0"/>
<path d="M88.7823 44.9308V93H19.7476L17.255 45.2685L88.7823 44.9308Z" fill="#E0E0E0"/>
<path d="M17.255 45.2744L17.255 92.901H86.2897V45.2744L17.255 45.2744Z" fill="white"/>
<path d="M86.6217 93.2271H16.9288V44.9424H86.6217V93.2271ZM17.5869 92.569H85.9636V45.5947H17.5869V92.569Z" fill="#E0E0E0"/>
<path d="M78.812 51.1855H24.7327V86.9782H78.812V51.1855Z" fill="white"/>
<path d="M78.8179 51.1855H78.55H77.8104H74.8402L63.6936 51.2262L24.7618 51.3019L24.9191 51.1447C24.9191 62.0817 24.9191 74.2009 24.9191 86.9375L24.7443 86.7686L78.8295 86.8035L78.6897 86.9375C78.7247 76.0471 78.748 67.1367 78.7654 60.8995C78.7654 57.7896 78.7654 55.3611 78.8004 53.6955C78.8004 52.8744 78.8004 52.2396 78.8004 51.8028C78.8004 51.366 78.8004 51.1447 78.8004 51.1447C78.8004 51.1447 78.8004 51.3544 78.8004 51.7737C78.8004 52.193 78.8004 52.8278 78.8004 53.6431C78.8004 55.297 78.8004 57.7197 78.8353 60.8121C78.8353 67.0494 78.8761 76.0121 78.9052 86.9375V87.0772H78.7713L24.6861 87.1122H24.5172V86.9375C24.5172 74.2009 24.5172 62.0817 24.5172 51.1447V50.9875H24.6686L63.6878 51.069L74.7995 51.1098H77.7113H78.4626L78.8179 51.1855Z" fill="#E0E0E0"/>
<path d="M17.2433 45.1346C17.66 45.345 18.0508 45.603 18.4081 45.9033C19.1186 46.4158 20.0795 47.1379 21.1161 47.9707C22.1528 48.8035 23.0671 49.5839 23.7135 50.1721C24.0836 50.4664 24.4144 50.807 24.6977 51.1855C24.6337 51.2612 22.9506 49.8926 20.9006 48.2328C18.8507 46.573 17.1967 45.2161 17.2433 45.1346Z" fill="#E0E0E0"/>
<path d="M86.2956 45.2685C85.1598 46.3849 83.9453 47.4184 82.6615 48.3609C81.4499 49.3936 80.1653 50.3375 78.8179 51.1854C79.9612 50.0705 81.1814 49.0371 82.4694 48.093C83.676 47.0618 84.9547 46.1179 86.2956 45.2685Z" fill="#E0E0E0"/>
<path d="M86.2373 92.9068L78.5441 86.6637L86.2373 92.9068Z" fill="white"/>
<path d="M78.5442 86.6637C79.9263 87.5719 81.2473 88.5699 82.4985 89.6513C83.8189 90.6483 85.0682 91.7361 86.2373 92.9068C84.8535 92.001 83.5324 91.0029 82.283 89.9192C80.1399 88.2012 78.4801 86.7395 78.5442 86.6637Z" fill="#E0E0E0"/>
<path d="M17.2433 92.901C18.3683 91.7952 19.5711 90.7715 20.8424 89.8377C22.0426 88.8174 23.3134 87.8833 24.6453 87.0423C23.5233 88.149 22.3224 89.1728 21.0521 90.1056C19.8501 91.1261 18.5773 92.0602 17.2433 92.901Z" fill="#E0E0E0"/>
<path d="M35.7162 62.3438V74.329H69.7444V62.3438H35.7162Z" fill="#E0E0E0"/>
<path d="M248.19 33.7608H211.279V87.2636H248.19V33.7608Z" fill="#E0E0E0"/>
<path d="M246.344 33.7608H209.433V87.2636H246.344V33.7608Z" fill="#F5F5F5"/>
<path d="M241.755 39.5554H214.016V81.469H241.755V39.5554Z" fill="white"/>
<path d="M241.76 81.469C241.76 81.469 241.76 81.3991 241.76 81.2651V80.6828C241.76 80.1528 241.76 79.3841 241.76 78.3824C241.76 76.3732 241.76 73.4497 241.76 69.7516C241.76 62.3613 241.731 51.8902 241.714 39.5671L241.807 39.6603H214.016L214.121 39.5613C214.121 55.3728 214.121 69.9496 214.121 81.4923L214.039 81.4107L234.23 81.4573H239.81H241.277H241.784H241.295H239.844H234.283L214.039 81.4981H213.964V81.4166C213.964 69.8914 213.964 55.3145 213.964 39.4856V39.4565H241.918V39.5496C241.918 51.9018 241.889 62.3846 241.877 69.7924C241.877 73.4788 241.877 76.4023 241.848 78.4057C241.848 79.3957 241.848 80.1528 241.848 80.6828V81.2651C241.761 81.4049 241.76 81.469 241.76 81.469Z" fill="#E0E0E0"/>
<path d="M246.449 33.7608C246.261 34.1001 246.041 34.42 245.791 34.7159C245.36 35.2983 244.754 36.0728 244.043 36.9173C243.333 37.7617 242.698 38.5072 242.215 39.0371C241.976 39.3355 241.711 39.6123 241.423 39.8641C241.63 39.5373 241.866 39.2294 242.127 38.9439L243.904 36.7892C244.573 35.968 245.185 35.2284 245.68 34.6285C245.911 34.318 246.168 34.0277 246.449 33.7608Z" fill="#E0E0E0"/>
<path d="M241.9 81.335C243.282 83.5269 244.905 85.5565 246.74 87.3859L241.9 81.335Z" fill="white"/>
<path d="M246.74 87.3859C246.433 87.1594 246.15 86.9017 245.895 86.6172C245.4 86.1163 244.731 85.4 244.067 84.5614C243.496 83.8432 242.961 83.0968 242.465 82.3251C242.238 82.0157 242.043 81.684 241.883 81.335C242.133 81.6215 242.361 81.9273 242.564 82.2494C242.972 82.8317 243.543 83.6005 244.206 84.4333C244.87 85.2661 245.511 85.9999 245.983 86.5182C246.256 86.7888 246.509 87.0788 246.74 87.3859Z" fill="#E0E0E0"/>
<path d="M209.427 87.2228L214.261 81.2593L209.427 87.2228Z" fill="white"/>
<path d="M214.261 81.2593C213.539 82.3155 212.762 83.3322 211.931 84.3051C210.592 85.9474 209.474 87.2578 209.433 87.217C210.156 86.1618 210.933 85.1452 211.762 84.1712C212.544 83.1579 213.378 82.186 214.261 81.2593Z" fill="#E0E0E0"/>
<path d="M209.427 33.7608C210.253 34.654 211.031 35.591 211.757 36.5678C212.538 37.4989 213.269 38.4709 213.946 39.4797C213.118 38.5882 212.34 37.6511 211.617 36.6727C210.836 35.7416 210.105 34.7696 209.427 33.7608Z" fill="#E0E0E0"/>
<path d="M233.118 48.0639H223.829V74.4339H233.118V48.0639Z" fill="#E0E0E0"/>
<path d="M255.976 257.849C255.976 257.936 199.241 258 129.281 258C59.3199 258 2.57324 257.959 2.57324 257.849C2.57324 257.738 59.2907 257.697 129.281 257.697C199.27 257.697 255.976 257.79 255.976 257.849Z" fill="#263238"/>
<path d="M186.09 153.571C186.535 155.382 186.483 157.28 185.94 159.064C185.396 160.847 184.381 162.451 183.001 163.706C181.172 165.325 178.804 166.261 177.125 168.042C176.085 169.226 175.371 170.66 175.05 172.202C174.729 173.745 174.814 175.345 175.296 176.845C175.805 178.334 176.612 179.705 177.666 180.874C178.72 182.043 180.001 182.986 181.43 183.645C183.377 184.555 185.51 184.991 187.657 184.918C189.804 184.845 191.904 184.265 193.784 183.226C198.419 180.605 201.118 175.346 201.801 170.063C202.485 164.779 201.412 159.43 200.002 154.291" fill="#263238"/>
<path d="M244.553 246.732C249.35 245.946 253.848 247.409 258.597 248.459C259.86 248.833 261.193 248.905 262.489 248.669C264.546 248.141 266.009 246.138 266.327 244.039C266.584 242.2 266.157 240.331 265.128 238.786C264.715 238.12 264.152 237.559 263.485 237.149C262.769 236.79 261.987 236.586 261.188 236.549C258.277 236.315 255.357 236.866 252.732 238.144C250.115 239.417 247.74 241.138 245.716 243.23C244.709 244.237 245.008 245.394 244.565 246.75" fill="#263238"/>
<path d="M147.291 169.301C146.521 164.727 146.615 160.048 147.566 155.508C147.969 153.288 148.782 151.163 149.965 149.242C150.368 148.525 150.982 147.95 151.722 147.593C152.26 147.414 152.837 147.388 153.389 147.519C153.941 147.649 154.445 147.93 154.847 148.33C155.359 148.864 155.752 149.5 156 150.197C156.248 150.893 156.346 151.635 156.286 152.372C156.179 153.846 155.818 155.291 155.218 156.642C153.365 161.379 150.421 165.313 147.273 169.295" fill="#263238"/>
<path d="M240.241 186.638C241.326 187.411 265.427 239.326 265.427 239.326C263.489 238.498 261.343 238.288 259.281 238.726L257.973 239.074C255.634 239.703 253.415 240.716 251.407 242.072L244.529 246.726C244.256 246.569 244.026 246.35 243.856 246.086C243.686 245.822 243.581 245.521 243.551 245.209V245.011L224.865 212.94L240.241 186.638Z" fill="#B366FF"/>
<path d="M149.743 103.99L156.172 140.528C158.241 145.446 182.366 175.238 182.366 175.238L174.39 200.868L142.703 157.541C139.761 154.395 138.16 150.226 138.241 145.92L139.477 106.88L149.743 103.99Z" fill="#FFBE9D"/>
<path d="M183.955 169.511L200.5 170.764L214.928 173.001C214.928 173.001 240.241 179.652 240.241 182.422C240.241 183.346 233.333 205.348 229.447 218.529C228.494 221.73 227.717 224.981 227.12 228.268L240.241 257.316H177.976V230.684C177.976 230.684 173.778 195.705 174.516 190.926C175.254 186.146 183.955 169.511 183.955 169.511Z" fill="#B366FF"/>
<path d="M141.893 89.2258C141.991 85.5042 142.372 81.7954 143.033 78.1317C143.123 77.61 143.339 76.9803 143.86 76.9324C144.508 76.8484 144.838 77.682 144.922 78.3296C145.497 82.7481 145.312 87.2323 144.376 91.5885" fill="#EB996E"/>
<path d="M149.269 166.596C156.37 160.252 156.61 149.26 156.004 140.51C155.885 139.871 155.982 139.211 156.28 138.633C156.957 137.668 158.607 138.034 159.278 139.005C159.95 139.977 159.878 141.254 159.842 142.429C160.208 141.434 161.767 141.44 162.498 142.208C163.23 142.975 163.356 144.132 163.44 145.206L163.674 148.132L184.417 167.922C184.417 167.922 184.986 166.123 186.51 167.16C188.033 168.198 189.016 170.386 189.016 170.386L174.402 202.283L147.279 169.301C147.8 168.303 148.472 167.391 149.269 166.596Z" fill="#B366FF"/>
<path d="M177.418 188.671C175.254 191.431 173.638 194.58 172.657 197.948C171.679 201.338 171.786 204.948 172.963 208.274C173.873 210.575 175.364 212.602 177.291 214.155C179.217 215.708 181.513 216.736 183.955 217.138" fill="#B366FF"/>
<path d="M244.553 246.732L243.767 257.316H259.137L262.735 238.576C258.053 238.315 253.435 239.761 249.74 242.648L244.553 246.732Z" fill="#FFBE9D"/>
<path d="M156.496 164.252C156.582 163.961 156.695 163.678 156.831 163.406C157.071 162.878 157.395 162.099 157.761 161.127C158.127 160.156 158.517 158.981 158.882 157.661C159.263 156.221 159.565 154.762 159.788 153.29C159.995 151.816 160.121 150.333 160.166 148.846C160.166 147.473 160.166 146.237 160.082 145.2C159.998 144.162 159.92 143.329 159.842 142.753C159.79 142.454 159.762 142.151 159.758 141.848C159.855 142.136 159.924 142.433 159.962 142.735C160.117 143.544 160.231 144.361 160.304 145.182C160.421 146.402 160.471 147.627 160.454 148.852C160.408 151.856 159.973 154.841 159.158 157.733C158.823 158.912 158.423 160.071 157.959 161.205C157.563 162.177 157.209 162.944 156.933 163.46C156.808 163.735 156.661 163.999 156.496 164.252Z" fill="#263238"/>
<path d="M161.011 158.681C161.207 158.165 161.431 157.66 161.683 157.17C162.733 154.736 163.342 152.135 163.482 149.488C163.481 148.937 163.511 148.386 163.572 147.839C163.69 148.382 163.734 148.938 163.704 149.494C163.683 152.183 163.069 154.835 161.905 157.259C161.676 157.773 161.375 158.252 161.011 158.681Z" fill="#263238"/>
<path d="M185.37 175.268C185.322 175.238 185.574 174.848 185.718 174.14C185.886 173.216 185.833 172.264 185.562 171.364C185.277 170.458 184.931 169.572 184.525 168.713C184.335 168.358 184.194 167.979 184.105 167.586C184.342 167.907 184.543 168.253 184.705 168.617C185.179 169.462 185.563 170.355 185.85 171.28C186.137 172.227 186.16 173.235 185.916 174.194C185.84 174.597 185.651 174.97 185.37 175.268Z" fill="#263238"/>
<path d="M181.766 217.509C181.672 217.47 181.584 217.42 181.502 217.359L180.795 216.892C180.195 216.478 179.301 215.872 178.258 215.051C177.025 214.101 175.897 213.021 174.894 211.83C173.66 210.356 172.77 208.625 172.291 206.763C171.833 204.9 171.715 202.971 171.943 201.066C172.127 199.522 172.471 198 172.969 196.527C173.299 195.534 173.681 194.559 174.114 193.606C174.27 193.27 174.39 193.006 174.48 192.839C174.52 192.745 174.57 192.657 174.63 192.575C174.516 192.942 174.382 193.302 174.228 193.654C173.958 194.338 173.569 195.333 173.179 196.592C172.718 198.06 172.401 199.568 172.231 201.096C172.022 202.966 172.144 204.858 172.591 206.685C173.058 208.506 173.92 210.201 175.116 211.65C176.097 212.834 177.196 213.915 178.396 214.877C179.415 215.716 180.273 216.346 180.867 216.796L181.538 217.311C181.694 217.431 181.772 217.497 181.766 217.509Z" fill="#263238"/>
<path d="M215.738 223.44C215.655 223.484 215.566 223.516 215.474 223.536C215.294 223.584 215.036 223.674 214.695 223.74C213.728 223.949 212.745 224.068 211.756 224.094C208.461 224.195 205.211 223.307 202.424 221.545C199.638 219.782 197.443 217.226 196.122 214.205C195.72 213.302 195.405 212.362 195.181 211.399C195.097 211.057 195.067 210.799 195.031 210.607C195.01 210.514 195 210.42 195.001 210.325C195.124 210.664 195.224 211.011 195.301 211.363C196.255 214.983 198.393 218.181 201.373 220.447C204.354 222.714 208.006 223.919 211.75 223.872C212.729 223.867 213.705 223.783 214.671 223.62C215.023 223.541 215.379 223.481 215.738 223.44Z" fill="#263238"/>
<path d="M225.279 235.128C225.195 235.128 225.987 231.788 227.078 227.722C228.169 223.656 229.069 220.376 229.147 220.4C229.225 220.424 228.439 223.734 227.378 227.8C226.316 231.866 225.363 235.128 225.279 235.128Z" fill="#263238"/>
<path d="M233.644 228.058C233.572 228.1 231.162 224.16 228.247 219.254C225.333 214.349 223.054 210.337 223.132 210.295C223.21 210.253 225.615 214.187 228.529 219.093C231.444 223.998 233.746 228.01 233.644 228.058Z" fill="#263238"/>
<path d="M256.666 237.766C256.666 237.826 255.791 237.898 254.423 238.246C253.625 238.449 252.841 238.708 252.079 239.02C251.148 239.413 250.25 239.879 249.392 240.411C248.545 240.956 247.743 241.568 246.993 242.24C246.382 242.799 245.811 243.4 245.284 244.039C244.385 245.125 243.941 245.886 243.887 245.838C243.959 245.644 244.054 245.459 244.169 245.286C244.447 244.796 244.761 244.326 245.11 243.883C245.623 243.221 246.186 242.599 246.795 242.024C247.55 241.326 248.364 240.696 249.23 240.141C250.103 239.598 251.022 239.133 251.977 238.75C252.755 238.443 253.557 238.2 254.375 238.024C254.924 237.897 255.481 237.813 256.042 237.772C256.249 237.741 256.459 237.739 256.666 237.766Z" fill="#263238"/>
<path d="M259.605 234.156C259.605 234.222 258.639 234.102 257.098 234.234C256.199 234.316 255.308 234.472 254.435 234.702C252.295 235.27 250.295 236.273 248.558 237.647C247.852 238.208 247.194 238.828 246.592 239.5C245.566 240.651 245.086 241.491 245.032 241.461C245.113 241.248 245.22 241.047 245.35 240.861C245.479 240.629 245.623 240.407 245.782 240.195C245.982 239.905 246.196 239.625 246.424 239.356C247.013 238.652 247.668 238.005 248.379 237.425C249.258 236.72 250.206 236.105 251.209 235.59C252.218 235.096 253.275 234.706 254.363 234.426C255.256 234.202 256.167 234.064 257.086 234.013C257.436 233.995 257.786 233.995 258.135 234.013C258.402 234.014 258.668 234.03 258.933 234.06C259.16 234.064 259.386 234.096 259.605 234.156Z" fill="#263238"/>
<g opacity="0.3">
<path d="M195.643 211.602C194.233 214.277 195.409 217.539 196.698 220.28C197.7 222.403 198.815 224.556 200.638 226.037C201.534 226.769 202.571 227.308 203.685 227.62C204.799 227.933 205.966 228.011 207.112 227.852C208.258 227.692 209.358 227.297 210.344 226.691C211.33 226.086 212.18 225.283 212.842 224.334C209.019 224.277 205.303 223.065 202.182 220.857C199.061 218.649 196.681 215.548 195.355 211.962" fill="black"/>
</g>
<g opacity="0.3">
<path d="M223.174 210.295C222.095 212.868 222.91 216.388 224.038 218.937C225.165 221.485 226.364 224.334 225.459 226.978C225.225 227.448 225.104 227.965 225.105 228.489C225.165 229.005 225.705 229.503 226.19 229.263C226.442 229.086 226.615 228.82 226.676 228.519C227.528 225.953 228.381 223.388 229.237 220.826" fill="black"/>
</g>
<path d="M166.444 176.419C166.541 174.809 166.741 173.206 167.044 171.622C167.248 170.029 167.554 168.45 167.962 166.896C167.871 168.507 167.671 170.11 167.362 171.694C167.16 173.287 166.853 174.866 166.444 176.419Z" fill="#FAFAFA"/>
<path d="M160.13 175.094C160.052 175.142 159.02 173.703 157.593 172.048C156.166 170.393 154.907 169.151 154.966 169.085C156.042 169.872 157.006 170.799 157.833 171.844C158.736 172.823 159.508 173.916 160.13 175.094Z" fill="#FAFAFA"/>
<path d="M165.551 159.646C165.37 160.033 165.143 160.395 164.873 160.726C164.417 161.367 163.752 162.225 162.978 163.124C162.205 164.024 161.461 164.833 160.903 165.385C160.624 165.706 160.303 165.988 159.95 166.225C159.884 166.165 161.197 164.743 162.738 162.92C164.279 161.097 165.479 159.568 165.551 159.646Z" fill="#FAFAFA"/>
<path d="M163.434 152.096C163.344 152.132 163.002 151.371 162.342 150.609C161.683 149.847 160.975 149.41 161.023 149.32C161.647 149.499 162.193 149.881 162.576 150.405C163.038 150.861 163.339 151.455 163.434 152.096Z" fill="#FAFAFA"/>
<path d="M157.965 156.75C157.475 156.981 156.946 157.117 156.406 157.152C155.881 157.288 155.335 157.321 154.799 157.248C155.812 156.88 156.887 156.711 157.965 156.75Z" fill="#FAFAFA"/>
<path d="M171.764 163.412C171.777 162.479 171.711 161.546 171.566 160.624C171.317 159.723 170.99 158.846 170.588 158.003C171.268 158.702 171.715 159.594 171.865 160.558C172.122 161.497 172.087 162.493 171.764 163.412Z" fill="#FAFAFA"/>
<path d="M179.134 171.34C178.027 169.574 176.542 168.077 174.786 166.956C175.778 167.341 176.677 167.93 177.426 168.685C178.175 169.441 178.757 170.345 179.134 171.34Z" fill="#FAFAFA"/>
<path d="M167.302 185.097C165.517 185.766 163.539 185.699 161.803 184.911C161.833 184.821 163.002 185.199 164.543 185.241C166.084 185.283 167.278 185.007 167.302 185.097Z" fill="#FAFAFA"/>
<path d="M172.855 187.945C172.771 187.909 173.239 186.53 173.629 184.779C174.018 183.028 174.192 181.576 174.282 181.588C174.344 182.686 174.226 183.785 173.934 184.845C173.744 185.93 173.379 186.976 172.855 187.945Z" fill="#FAFAFA"/>
<path d="M184.986 188.407C184.038 187.605 183.161 186.722 182.366 185.768C181.488 184.885 180.686 183.93 179.967 182.914C180.912 183.72 181.787 184.604 182.582 185.558C183.459 186.442 184.263 187.394 184.986 188.407Z" fill="#FAFAFA"/>
<path d="M190.635 202.421C189.916 201.899 189.26 201.296 188.68 200.622C188.03 200.018 187.451 199.342 186.953 198.607C187.673 199.129 188.329 199.733 188.908 200.406C189.564 201.005 190.144 201.682 190.635 202.421Z" fill="#FAFAFA"/>
<path d="M180.135 203.759C179.445 204.493 178.634 205.101 177.736 205.558C176.892 206.12 175.954 206.526 174.966 206.757C174.966 206.673 176.165 206.157 177.58 205.312C178.996 204.466 180.075 203.687 180.135 203.759Z" fill="#FAFAFA"/>
<path d="M184.968 217.09C184.878 217.09 185.238 215.494 185.418 213.521C185.598 211.548 185.544 209.923 185.634 209.923C185.854 211.11 185.887 212.324 185.73 213.521C185.67 214.744 185.413 215.949 184.968 217.09Z" fill="#FAFAFA"/>
<path d="M203.145 206.253C202.154 205.647 201.276 204.874 200.548 203.969C199.746 203.131 199.098 202.159 198.635 201.096C198.713 201.042 199.535 202.343 200.782 203.765C202.029 205.186 203.205 206.175 203.145 206.253Z" fill="#FAFAFA"/>
<path d="M209.783 211.908C209.711 211.854 210.623 210.607 211.642 209.006C212.662 207.405 213.411 206.061 213.489 206.103C213.1 207.194 212.566 208.227 211.9 209.174C211.324 210.179 210.612 211.099 209.783 211.908Z" fill="#FAFAFA"/>
<path d="M208.812 198.068C206.764 197.728 204.755 197.185 202.815 196.449C203.849 196.572 204.869 196.793 205.861 197.108C206.875 197.328 207.863 197.649 208.812 198.068Z" fill="#FAFAFA"/>
<path d="M203.972 222.427C203.866 221.482 203.866 220.529 203.972 219.584C203.98 218.634 204.089 217.687 204.296 216.76C204.404 217.704 204.404 218.658 204.296 219.602C204.29 220.553 204.182 221.5 203.972 222.427Z" fill="#FAFAFA"/>
<path d="M208.158 230.768C208.472 229.8 208.725 228.812 208.914 227.812C208.997 226.796 209.013 225.777 208.962 224.759C209.271 225.757 209.36 226.811 209.221 227.846C209.082 228.882 208.719 229.875 208.158 230.756V230.768Z" fill="#FAFAFA"/>
<path d="M197.31 228.927C197.004 226.856 197.41 224.741 198.461 222.93C198.545 222.966 197.993 224.232 197.682 225.893C197.37 227.554 197.4 228.921 197.31 228.927Z" fill="#FAFAFA"/>
<path d="M187.415 233.155C186.437 232.476 185.497 231.745 184.597 230.966C183.633 230.268 182.707 229.522 181.82 228.729C182.898 229.266 183.905 229.935 184.818 230.72C185.776 231.428 186.648 232.245 187.415 233.155Z" fill="#FAFAFA"/>
<path d="M194.114 221.389C191.818 222.845 189.412 224.119 186.917 225.197C188.046 224.42 189.233 223.731 190.467 223.134C191.636 222.46 192.855 221.876 194.114 221.389Z" fill="#FAFAFA"/>
<path d="M214.928 247.793C214.801 247.835 214.671 247.867 214.539 247.889C214.281 247.937 213.903 248.033 213.411 248.099C212.023 248.311 210.618 248.402 209.213 248.369C205.586 248.316 202.01 247.495 198.723 245.959C195.436 244.423 192.512 242.207 190.144 239.458C188.768 237.875 187.59 236.131 186.636 234.264C185.985 233.013 185.447 231.707 185.028 230.36C184.866 229.887 184.789 229.509 184.717 229.257C184.677 229.128 184.65 228.996 184.639 228.861C184.696 228.983 184.742 229.109 184.777 229.239C184.866 229.485 184.962 229.839 185.142 230.324C186.292 233.612 188.063 236.647 190.36 239.266C192.733 241.952 195.63 244.125 198.873 245.652C202.116 247.179 205.637 248.028 209.219 248.147C210.621 248.199 212.024 248.143 213.417 247.979C213.915 247.931 214.293 247.853 214.551 247.829C214.675 247.803 214.802 247.791 214.928 247.793Z" fill="#263238"/>
<path d="M197.01 244.687C196.805 243.735 196.904 242.743 197.292 241.85C197.585 240.921 198.164 240.109 198.947 239.53C198.417 240.296 197.962 241.112 197.586 241.964C197.311 242.852 197.118 243.764 197.01 244.687Z" fill="#FAFAFA"/>
<path d="M192.075 242.624C191.505 243.065 190.983 243.563 190.515 244.111C190.126 244.715 189.796 245.356 189.532 246.024C189.552 245.264 189.807 244.529 190.263 243.92C190.718 243.311 191.351 242.858 192.075 242.624Z" fill="#FAFAFA"/>
<path d="M211.055 253.922C210.073 253.843 209.125 253.53 208.29 253.008C207.455 252.486 206.758 251.771 206.257 250.923C207.561 252.332 209.217 253.367 211.055 253.922Z" fill="#FAFAFA"/>
<path d="M214.005 237.311C213.879 238.192 213.506 239.02 212.93 239.699C212.354 240.378 211.598 240.881 210.749 241.149C211.45 240.665 212.1 240.113 212.692 239.5C213.204 238.817 213.644 238.084 214.005 237.311Z" fill="#FAFAFA"/>
<path d="M222.394 249.694C222.322 249.634 223.114 248.633 223.846 247.253C224.577 245.874 224.967 244.657 225.045 244.687C224.705 246.594 223.774 248.346 222.382 249.694H222.394Z" fill="#FAFAFA"/>
<path d="M233.483 251.319C233.518 251.409 232.427 251.841 231.33 252.747C230.232 253.652 229.573 254.624 229.495 254.546C229.839 253.718 230.406 253.002 231.132 252.477C231.793 251.88 232.607 251.479 233.483 251.319Z" fill="#FAFAFA"/>
<path d="M225.027 237.125C224.931 237.155 224.427 235.404 223.306 233.461C222.185 231.518 220.985 230.151 221.063 230.091C221.392 230.322 221.682 230.606 221.921 230.93C223.183 232.405 224.144 234.112 224.751 235.955C224.902 236.329 224.995 236.723 225.027 237.125Z" fill="#FAFAFA"/>
<path d="M226.682 219.272C224.816 219.917 222.886 220.361 220.925 220.598C222.792 219.955 224.722 219.511 226.682 219.272Z" fill="#FAFAFA"/>
<path d="M221.579 213.935C220.894 213.299 220.279 212.591 219.744 211.824C219.133 211.118 218.6 210.348 218.155 209.528C218.846 210.156 219.462 210.862 219.99 211.632C220.606 212.337 221.139 213.109 221.579 213.935Z" fill="#FAFAFA"/>
<path d="M234.244 210.733C232.301 210.685 230.389 210.231 228.631 209.402C229.581 209.564 230.52 209.782 231.444 210.055C232.39 210.224 233.325 210.451 234.244 210.733Z" fill="#FAFAFA"/>
<path d="M243.239 210.571C243.497 209.723 243.804 208.89 244.157 208.076C244.41 207.224 244.716 206.389 245.074 205.576C245.025 206.473 244.823 207.356 244.475 208.184C244.207 209.047 243.789 209.855 243.239 210.571Z" fill="#FAFAFA"/>
<path d="M241.188 222.757C239.329 222.341 237.649 221.346 236.391 219.914C236.451 219.842 237.398 220.67 238.712 221.443C240.025 222.217 241.218 222.667 241.188 222.757Z" fill="#FAFAFA"/>
<path d="M247.029 222.385C247.15 221.181 247.37 219.99 247.689 218.823C247.906 217.637 248.223 216.471 248.636 215.339C248.3 217.732 247.756 220.091 247.011 222.391L247.029 222.385Z" fill="#FAFAFA"/>
<path d="M242.154 236.009C240.657 234.316 239.32 232.487 238.16 230.546C238.946 231.36 239.656 232.243 240.283 233.185C240.992 234.067 241.619 235.012 242.154 236.009Z" fill="#FAFAFA"/>
<path d="M250.477 230.798C250.393 230.84 249.848 229.755 248.984 228.543C248.121 227.332 247.287 226.451 247.353 226.385C248.107 226.913 248.749 227.586 249.242 228.364C249.815 229.083 250.235 229.911 250.477 230.798Z" fill="#FAFAFA"/>
<path d="M258.285 229.629C257.602 228.826 256.961 227.987 256.366 227.116C255.685 226.313 255.044 225.477 254.447 224.609C256.043 226.015 257.347 227.721 258.285 229.629Z" fill="#FAFAFA"/>
<path d="M256.432 234.804C256.325 234.084 256.083 233.39 255.719 232.759C255.28 232.177 254.737 231.681 254.118 231.296C254.118 231.26 254.393 231.296 254.771 231.482C255.259 231.741 255.671 232.121 255.971 232.585C256.276 233.048 256.459 233.58 256.504 234.132C256.564 234.528 256.486 234.804 256.432 234.804Z" fill="#FAFAFA"/>
<path d="M250.364 241.898C250.316 241.898 250.334 241.736 250.286 241.527C250.229 241.257 250.083 241.014 249.872 240.837C249.65 240.673 249.379 240.591 249.104 240.603C248.888 240.603 248.75 240.657 248.726 240.603C248.702 240.549 248.816 240.441 249.074 240.369C249.244 240.325 249.421 240.32 249.593 240.356C249.765 240.391 249.926 240.466 250.064 240.574C250.202 240.682 250.313 240.82 250.389 240.978C250.465 241.136 250.503 241.309 250.501 241.485C250.495 241.772 250.4 241.91 250.364 241.898Z" fill="#FAFAFA"/>
<path d="M187.973 253.238C186.853 252.807 185.835 252.147 184.984 251.3C184.134 250.453 183.468 249.439 183.031 248.321C184.255 250.344 185.95 252.039 187.973 253.262V253.238Z" fill="#FAFAFA"/>
<path d="M149.803 104.398C148.838 95.2766 147.093 86.6952 146.619 77.754C146.638 77.5298 146.609 77.3041 146.536 77.0914C146.463 76.8787 146.346 76.6836 146.193 76.5186C146.063 76.4423 145.918 76.3933 145.768 76.3747C145.618 76.356 145.465 76.3681 145.32 76.4102C145.175 76.4523 145.04 76.5234 144.923 76.6194C144.806 76.7154 144.71 76.8341 144.64 76.9684C144.378 77.5296 144.275 78.1516 144.34 78.7674C144.35 83.5224 143.539 88.2434 141.941 92.722C140.916 95.6304 139.543 98.4189 138.775 101.399C138.007 104.38 139.453 105.393 140.796 108.17" fill="#FFBE9D"/>
<path d="M140.814 108.158C139.626 107.246 138.705 106.033 138.147 104.643C137.589 103.254 137.414 101.74 137.642 100.26C137.948 98.4609 138.841 96.8298 139.549 95.1507C140.256 93.4716 140.802 91.6066 140.37 89.8375C140.132 89.1809 139.971 88.4986 139.891 87.8046C139.891 87.109 140.34 86.3294 141.036 86.2994C141.299 86.3206 141.553 86.4026 141.779 86.5389C142.005 86.6753 142.196 86.8622 142.337 87.085C143.507 88.5302 144.442 92.7519 143.854 95.9063" fill="#FFBE9D"/>
<path d="M143.854 95.9063C143.854 95.9063 143.914 95.4206 143.95 94.545C143.988 93.3101 143.885 92.0748 143.645 90.863C143.483 90.0283 143.242 89.2111 142.925 88.4223C142.758 87.9932 142.532 87.5895 142.253 87.2229C142.128 87.0262 141.964 86.8572 141.771 86.7262C141.578 86.5952 141.361 86.5051 141.132 86.4613C140.896 86.4726 140.67 86.5607 140.49 86.7124C140.309 86.864 140.183 87.0707 140.13 87.3009C140.002 87.8122 140.035 88.3507 140.226 88.8421C140.428 89.3907 140.569 89.9598 140.646 90.5392C140.704 91.1391 140.682 91.7441 140.58 92.3382C140.16 94.7729 138.865 96.7399 138.181 98.6888C137.844 99.5994 137.664 100.56 137.648 101.531C137.644 102.377 137.769 103.218 138.02 104.026C138.383 105.205 138.996 106.291 139.819 107.21C140.418 107.852 140.808 108.134 140.79 108.164C140.683 108.109 140.582 108.043 140.49 107.966C140.219 107.76 139.965 107.533 139.729 107.288C138.852 106.384 138.195 105.291 137.81 104.092C137.536 103.266 137.395 102.402 137.39 101.531C137.395 100.529 137.571 99.5355 137.912 98.5929C138.571 96.6019 139.849 94.635 140.244 92.2902C140.347 91.7204 140.369 91.1391 140.31 90.5632C140.238 90.0002 140.103 89.447 139.908 88.914C139.701 88.3633 139.672 87.7613 139.825 87.193C139.914 86.9092 140.077 86.6546 140.298 86.4554C140.409 86.3523 140.539 86.2731 140.682 86.2226C140.824 86.172 140.975 86.1512 141.126 86.1615C141.401 86.1978 141.664 86.292 141.9 86.4377C142.136 86.5835 142.338 86.7775 142.493 87.0071C142.785 87.404 143.019 87.8401 143.189 88.3024C143.506 89.1078 143.739 89.9438 143.884 90.797C144.111 92.0265 144.182 93.2798 144.094 94.527C144.073 94.8655 144.029 95.2021 143.962 95.5345C143.944 95.6629 143.908 95.7881 143.854 95.9063Z" fill="#EB996E"/>
<path d="M222.25 144.606C222.447 145.464 222.911 146.237 223.576 146.813C224.242 147.389 225.073 147.738 225.951 147.808C226.83 147.852 227.705 147.671 228.495 147.282C229.285 146.894 229.963 146.312 230.466 145.59C231.462 144.121 231.863 142.329 231.588 140.576C231.246 138.052 229.567 135.623 227.132 134.873C224.697 134.124 221.669 135.473 220.997 137.92L218.191 141.836L222.25 144.606Z" fill="#263238"/>
<path d="M218.934 136.912C219.207 134.742 219.04 132.54 218.445 130.435C217.849 128.331 216.837 126.367 215.469 124.661C214.1 122.955 212.403 121.542 210.477 120.504C208.552 119.467 206.438 118.827 204.26 118.622C195.559 117.795 187.817 124.277 186.516 132.924C185.37 140.504 184.387 148.156 184.423 150.915C184.531 159.31 189.43 162.561 191.421 163.508C192.136 163.766 192.875 163.949 193.628 164.054C193.635 164.055 193.642 164.058 193.648 164.062C193.654 164.066 193.659 164.072 193.663 164.078C193.667 164.084 193.669 164.091 193.671 164.098C193.672 164.105 193.672 164.113 193.67 164.12L191.811 173.715C190.965 180.017 194.485 185.642 200.776 186.56C207.067 187.477 212.026 182.638 212.991 176.329L218.934 136.912Z" fill="#FFBE9D"/>
<path d="M187.961 137.824C188.099 138.022 189.202 137.428 190.623 137.638C192.045 137.848 192.974 138.711 193.154 138.556C193.244 138.49 193.118 138.16 192.716 137.764C192.165 137.248 191.467 136.915 190.719 136.81C189.981 136.703 189.228 136.831 188.567 137.176C188.069 137.446 187.889 137.734 187.961 137.824Z" fill="#263238"/>
<path d="M200.578 140.558C200.716 140.756 201.825 140.163 203.241 140.373C204.656 140.582 205.597 141.446 205.777 141.29C205.861 141.224 205.741 140.894 205.334 140.492C204.783 139.98 204.088 139.649 203.343 139.545C202.604 139.437 201.851 139.565 201.19 139.911C200.704 140.181 200.512 140.468 200.578 140.558Z" fill="#263238"/>
<path d="M195.673 147.263C194.959 146.921 194.206 146.669 193.43 146.513C193.07 146.423 192.74 146.297 192.716 146.045C192.74 145.668 192.878 145.306 193.112 145.008L194.587 142.405C196.644 138.693 198.185 135.623 198.041 135.539C197.898 135.455 196.098 138.4 194.042 142.136L192.608 144.756C192.321 145.163 192.182 145.656 192.213 146.153C192.251 146.285 192.317 146.407 192.407 146.511C192.497 146.615 192.609 146.697 192.734 146.753C192.926 146.835 193.128 146.893 193.334 146.927C194.096 147.138 194.882 147.25 195.673 147.263Z" fill="#263238"/>
<path d="M193.682 164.114C193.682 164.114 199.079 165.361 206.545 162.243C206.545 162.243 203.331 169.169 193.184 166.704L193.682 164.114Z" fill="#EB996E"/>
<path d="M195.775 150.771C196.093 150.479 196.479 150.27 196.898 150.166C197.317 150.061 197.755 150.063 198.173 150.171C198.482 150.247 198.772 150.384 199.028 150.574C199.283 150.763 199.498 151.001 199.661 151.275C199.816 151.538 199.887 151.843 199.862 152.148C199.837 152.453 199.719 152.743 199.523 152.978C199.259 153.201 198.934 153.339 198.591 153.374C198.247 153.409 197.901 153.34 197.598 153.176C196.961 152.844 196.398 152.387 195.943 151.832C195.796 151.697 195.678 151.534 195.595 151.353C195.553 151.267 195.539 151.17 195.554 151.076C195.569 150.981 195.613 150.894 195.679 150.825" fill="#EB996E"/>
<path d="M199.703 148.852C199.475 148.804 199.247 150.345 197.772 151.251C196.296 152.156 194.677 151.742 194.635 151.958C194.599 152.054 194.959 152.312 195.649 152.432C196.548 152.574 197.47 152.396 198.251 151.928C199.001 151.477 199.547 150.753 199.775 149.907C199.924 149.266 199.81 148.858 199.703 148.852Z" fill="#263238"/>
<path d="M201.556 135.941C201.64 136.349 203.085 136.373 204.716 136.816C206.347 137.26 207.636 137.908 207.906 137.596C208.026 137.446 207.846 137.05 207.36 136.595C206.702 136.031 205.924 135.625 205.086 135.407C204.248 135.189 203.37 135.164 202.521 135.335C201.861 135.491 201.526 135.749 201.556 135.941Z" fill="#263238"/>
<path d="M189.394 133.452C189.592 133.812 190.623 133.62 191.793 133.776C192.962 133.932 193.934 134.304 194.191 134.004C194.317 133.854 194.191 133.506 193.814 133.14C193.284 132.688 192.631 132.405 191.938 132.325C191.246 132.246 190.546 132.376 189.928 132.697C189.49 132.966 189.304 133.278 189.394 133.452Z" fill="#263238"/>
<path d="M184.873 131.048C186.606 133.692 192.111 132.055 195.433 130.238C197.168 131.345 199.267 131.731 201.283 131.315C203.299 130.898 205.073 129.711 206.227 128.007C208.128 130.406 211.996 129.626 213.423 126.898C214.85 124.169 214.023 120.409 212.104 118.022C210.185 115.636 207.343 114.424 204.548 113.915C197.922 112.715 190.707 115.258 186.744 121.249C184.914 124.013 183.817 127.737 184.902 131.048" fill="#263238"/>
<path d="M203.187 114.856C203.187 114.976 201.622 114.676 199.163 115.084C195.969 115.615 193.042 117.191 190.839 119.564C188.766 122.048 187.395 125.042 186.869 128.235C186.687 129.566 186.617 130.91 186.66 132.253C186.532 131.906 186.457 131.542 186.438 131.173C186.333 130.176 186.349 129.169 186.486 128.175C186.92 124.858 188.298 121.736 190.456 119.18C192.735 116.711 195.807 115.118 199.139 114.676C200.133 114.543 201.139 114.526 202.137 114.628C202.497 114.65 202.851 114.727 203.187 114.856Z" fill="#455A64"/>
<path d="M194.227 127.186C194.129 126.882 194.084 126.563 194.096 126.244C194.064 125.374 194.155 124.504 194.365 123.659C194.686 122.243 195.294 120.907 196.15 119.734C197.007 118.561 198.094 117.575 199.346 116.838C200.597 116.101 201.986 115.628 203.428 115.448C204.869 115.268 206.332 115.385 207.726 115.792C208.568 116.022 209.375 116.365 210.125 116.811C210.414 116.961 210.673 117.165 210.887 117.411C209.841 116.916 208.753 116.514 207.636 116.211C204.92 115.52 202.041 115.929 199.626 117.351C197.211 118.774 195.456 121.093 194.743 123.803C194.156 125.806 194.341 127.186 194.227 127.186Z" fill="#455A64"/>
<path d="M210.125 124.307C209.475 126.654 209.101 129.069 209.01 131.503C208.92 133.951 209.68 136.354 211.162 138.304C213.477 141.092 217.339 141.944 220.901 142.621C222.807 137.868 223.381 132.685 222.562 127.629C222.155 125.177 221.363 122.676 219.636 120.889C218.352 119.622 216.684 118.817 214.893 118.6C213.103 118.383 211.291 118.766 209.741 119.69" fill="#263238"/>
<path d="M212.104 135.917C211.168 137.944 211.234 140.289 211.558 142.513C211.882 144.738 212.446 146.915 212.422 149.146C212.398 151.377 211.69 153.745 209.939 155.143C209.408 155.497 208.91 155.898 208.452 156.342C208.226 156.567 208.074 156.857 208.018 157.171C207.963 157.486 208.005 157.81 208.14 158.099C208.476 158.639 209.489 158.627 209.633 158.009L209.543 158.165C209.455 158.314 209.407 158.484 209.405 158.658C209.404 158.831 209.447 159.002 209.532 159.154C209.617 159.305 209.741 159.431 209.89 159.52C210.039 159.608 210.209 159.656 210.383 159.658C210.996 159.629 211.596 159.474 212.147 159.204C212.697 158.934 213.187 158.554 213.585 158.087C214.73 156.762 215.186 154.981 215.486 153.29C216.41 147.994 216.23 142.495 217.693 137.332" fill="#263238"/>
<path d="M191.769 170.692C192.182 172.496 192.978 174.19 194.104 175.659C195.229 177.128 196.657 178.337 198.292 179.205C199.926 180.073 201.728 180.58 203.575 180.69C205.422 180.8 207.272 180.511 208.998 179.843C212.104 178.644 214.611 176.305 217.027 174.021C217.46 176.622 217.341 179.284 216.678 181.836C216.015 184.388 214.823 186.773 213.179 188.834C211.535 190.896 209.477 192.589 207.136 193.803C204.796 195.018 202.227 195.727 199.595 195.885C195.619 196.125 191.349 194.913 188.848 191.813C187.103 189.654 186.402 186.794 186.45 184.017C186.571 181.236 187.1 178.488 188.021 175.862C188.728 173.595 189.85 171.064 192.141 170.434" fill="#B366FF"/>
<path d="M220.218 142.777C222.616 144.067 223.9 146.765 224.361 149.428C224.823 152.09 224.589 154.825 224.703 157.517C224.817 160.21 225.333 163.04 227.042 165.133C228.841 167.364 231.689 168.42 234.238 169.781C239.827 172.779 244.433 177.894 246.112 184.023C247.791 190.152 246.268 197.216 241.68 201.624C237.482 205.618 231.426 207.021 225.645 207.021C221.525 207.021 216.997 206.133 214.425 202.913C211.852 199.693 212.026 195.177 212.926 191.207C213.825 187.237 215.474 183.382 215.54 179.31C214.924 181.83 213.851 184.217 212.374 186.35C211.948 186.95 211.222 187.609 210.575 187.261C209.927 186.914 210.125 185.792 210.461 185.043C215.426 173.991 213.699 151.712 216.644 139.509" fill="#263238"/>
<path d="M216.128 141.524C216.278 141.476 222.077 140.379 221.327 146.111C220.577 151.844 214.982 149.913 214.994 149.752C215.006 149.59 216.128 141.524 216.128 141.524Z" fill="#FFBE9D"/>
<path d="M217.027 147.809C217.027 147.809 217.117 147.887 217.279 147.988C217.503 148.12 217.77 148.161 218.023 148.102C218.658 147.958 219.294 147.059 219.456 146.033C219.532 145.543 219.499 145.041 219.36 144.564C219.33 144.378 219.254 144.202 219.141 144.051C219.027 143.901 218.878 143.78 218.706 143.701C218.599 143.663 218.481 143.661 218.373 143.697C218.264 143.733 218.171 143.804 218.107 143.899C218.011 144.049 218.029 144.168 217.999 144.174C217.969 144.18 217.891 144.061 217.963 143.833C218.014 143.694 218.112 143.578 218.239 143.503C218.328 143.449 218.427 143.415 218.53 143.401C218.634 143.388 218.738 143.396 218.838 143.425C219.068 143.502 219.274 143.637 219.436 143.817C219.599 143.996 219.713 144.214 219.768 144.45C219.945 144.979 219.993 145.543 219.906 146.093C219.72 147.245 218.988 148.246 218.107 148.378C217.947 148.404 217.784 148.393 217.629 148.346C217.474 148.299 217.332 148.218 217.213 148.108C217.021 147.946 217.009 147.815 217.027 147.809Z" fill="#EB996E"/>
<path d="M185.844 183.046C186.125 182.434 186.45 181.842 186.815 181.277C187.651 179.893 188.344 178.428 188.884 176.905C189.409 175.38 189.585 173.757 189.4 172.156C189.283 171.498 189.131 170.848 188.944 170.207C189.057 170.353 189.145 170.517 189.202 170.692C189.398 171.152 189.539 171.633 189.622 172.126C189.874 173.762 189.724 175.435 189.184 177.001C188.64 178.547 187.909 180.021 187.007 181.391C186.672 181.918 186.408 182.338 186.186 182.62C185.964 182.902 185.862 183.058 185.844 183.046Z" fill="#263238"/>
<path d="M188.764 176.431C188.68 176.431 188.519 175.939 188.003 175.598C187.487 175.256 186.971 175.256 186.959 175.166C186.947 175.076 187.085 175.064 187.319 175.058C187.629 175.061 187.931 175.159 188.183 175.34C188.437 175.517 188.633 175.765 188.746 176.053C188.824 176.275 188.806 176.419 188.764 176.431Z" fill="#FAFAFA"/>
<path d="M192.47 176.419C192.021 175.914 191.527 175.451 190.995 175.034C190.405 174.703 189.782 174.434 189.136 174.23C189.493 174.181 189.857 174.204 190.205 174.298C190.553 174.391 190.879 174.554 191.163 174.776C191.797 175.132 192.266 175.722 192.47 176.419Z" fill="#FAFAFA"/>
<path d="M194.797 188.587C194.811 187.76 194.928 186.938 195.145 186.14C195.261 185.316 195.48 184.51 195.799 183.741C195.785 184.57 195.668 185.394 195.451 186.194C195.335 187.016 195.115 187.82 194.797 188.587Z" fill="#FAFAFA"/>
<path d="M204.152 190.422C204.002 188.7 204.057 186.967 204.314 185.259C204.472 186.98 204.418 188.714 204.152 190.422Z" fill="#FAFAFA"/>
<path d="M13.1482 217.072L3.90112 257.34L23.4567 257.4L32.4879 221.989L13.1482 217.072Z" fill="#B78876"/>
<path d="M109.181 167.598C107.322 165.109 105.187 162.717 104.21 159.766C103.736 158.339 103.55 156.828 103.046 155.412C102.542 153.997 101.625 152.618 100.222 152.084C98.8184 151.551 97.751 152.084 96.8394 153.092L90.129 172.719L93.997 187.795C97.8589 186.926 102.692 185.894 106.302 184.269C109.912 182.644 112.299 180.041 112.551 176.089C112.725 172.989 111.04 170.093 109.181 167.598Z" fill="#263238"/>
<path d="M48.1155 164.132C48.1155 164.132 24.788 174.284 21.8735 178.866C18.9591 183.447 9.3642 216.112 9.3642 216.112L33.9511 223.308L33.5313 257.316H93.7991L93.3014 197.348L85.7454 164.21C85.7454 164.21 72.4385 163.352 71.2032 162.747C69.9678 162.141 48.1155 164.132 48.1155 164.132Z" fill="#B366FF"/>
<path d="M131.015 81.0102C131.207 79.6369 130.242 78.1257 130.937 76.9204C131.397 76.2992 132.055 75.853 132.802 75.655C133.164 75.4895 133.556 75.3978 133.954 75.3852C134.152 75.382 134.347 75.4371 134.514 75.5437C134.682 75.6503 134.814 75.8037 134.895 75.9849C134.938 76.2142 134.918 76.451 134.837 76.6697C134.755 76.8884 134.616 77.0808 134.433 77.2262C134.068 77.5133 133.761 77.8675 133.528 78.2696C133.365 79.2567 133.441 80.2684 133.75 81.2201C134.549 83.314 135.212 85.4573 135.735 87.6366" fill="#B78876"/>
<path d="M126.092 81.4779C126.176 79.3971 127.891 71.1994 127.951 69.1185C129.36 69.5503 130.176 71.0495 130.44 72.5007C130.703 73.952 130.565 75.4452 130.817 76.8964C131.153 78.8454 132.167 80.6024 133.186 82.2935C134.206 83.9846 135.273 85.7057 135.735 87.6247C136.196 89.5436 137.936 94.533 136.58 95.9722" fill="#B78876"/>
<path d="M125.702 95.5105L117.361 135.137C117.067 136.936 85.7454 164.252 85.7454 164.252L91.9281 188.953L132.706 149.056C135.651 145.908 137.253 141.737 137.174 137.428L136.478 100.248L125.702 95.5105Z" fill="#B78876"/>
<path d="M124.275 81.7298L125.702 95.5224L136.496 100.272C136.496 100.272 136.628 99.2944 137.096 94.515C137.606 89.2498 131.945 86.989 129.42 83.1211C128.341 81.4599 128.622 78.4016 127.789 74.6116C127.693 74.1738 127.093 71.5232 126.769 70.102C126.599 69.3122 126.136 68.616 125.474 68.153C124.982 67.8292 124.431 67.6673 124.029 68.153C123.627 68.6388 124.275 81.7298 124.275 81.7298Z" fill="#B78876"/>
<path d="M131.015 97.8012C132.215 96.7638 132.502 94.9048 132.053 93.3636C131.502 91.846 130.633 90.4638 129.504 89.3098C128.377 88.1587 127.428 86.8447 126.692 85.4118C126.236 84.3804 126.02 83.241 125.492 82.2275C124.964 81.2141 124.071 80.2846 122.944 80.2426C123.849 85.9456 123.825 89.2378 125.678 95.4865" fill="#B78876"/>
<path d="M124.065 86.7551C124.065 86.7551 124.023 86.5992 123.957 86.2994C123.891 85.9996 123.777 85.5018 123.669 84.9921C123.411 83.7927 123.069 82.2635 122.716 80.5065L122.68 80.3386H122.854C123.223 80.3251 123.591 80.385 123.937 80.5146C124.283 80.6443 124.599 80.8413 124.869 81.0942C125.692 81.8777 126.278 82.8774 126.56 83.9786C126.799 84.8345 127.114 85.6674 127.501 86.4673C127.795 86.9927 128.149 87.4818 128.557 87.9245C128.705 88.0946 128.827 88.2868 128.916 88.4942C128.752 88.3421 128.6 88.1777 128.461 88.0025C128.014 87.5808 127.627 87.1007 127.309 86.5752C126.886 85.7727 126.54 84.9313 126.278 84.0626C125.999 83.0164 125.439 82.0666 124.659 81.316C124.172 80.8596 123.526 80.612 122.86 80.6264L123.004 80.4465C123.729 84.0566 124.197 86.7611 124.065 86.7551Z" fill="#7C5142"/>
<path d="M128.916 83.247C128.481 81.3918 128.149 79.5139 127.921 77.622C127.588 75.745 127.358 73.8512 127.231 71.949C127.67 73.8056 128.002 75.6857 128.227 77.58C128.56 79.455 128.79 81.3469 128.916 83.247Z" fill="#7C5142"/>
<path d="M132.353 83.7148C132.353 83.7148 132.395 83.7747 132.43 83.9246H132.341C131.895 82.6416 131.53 81.3317 131.249 80.0027C130.991 78.8454 130.805 77.7899 130.691 77.0043C130.599 76.5934 130.562 76.1717 130.583 75.751C130.673 75.751 131.039 77.616 131.555 79.9488C131.969 81.8138 132.353 83.3849 132.43 83.9126H132.341C132.335 83.7867 132.335 83.7148 132.353 83.7148Z" fill="#7C5142"/>
<path d="M134.481 91.3127C134.433 91.3127 134.218 91.0008 133.786 90.5391C132.645 89.3271 131.097 88.5796 129.438 88.4402C129.091 88.4433 128.744 88.4212 128.401 88.3742C128.733 88.2455 129.089 88.1922 129.444 88.2183C130.308 88.2292 131.16 88.4298 131.938 88.8059C132.716 89.1821 133.402 89.7246 133.948 90.3952C134.193 90.6563 134.376 90.9701 134.481 91.3127Z" fill="#7C5142"/>
<path d="M126.68 96.6019C126.383 96.0858 126.144 95.5388 125.966 94.9707C125.473 93.6252 125.06 92.2515 124.731 90.8569C124.395 89.474 124.143 88.0723 123.975 86.6592C123.877 86.0648 123.841 85.4619 123.867 84.8601C124.017 85.4331 124.126 86.0164 124.191 86.6052C124.371 87.6786 124.647 89.1658 125.03 90.803C125.414 92.4401 125.846 93.8733 126.176 94.9168C126.383 95.4661 126.551 96.0292 126.68 96.6019Z" fill="#7C5142"/>
<path d="M78.4233 164.965C78.9576 164.147 79.7865 163.566 80.7378 163.343C81.6892 163.119 82.69 163.271 83.5326 163.766C87.9343 160.168 92.4379 156.678 96.8395 153.098C95.4003 160.294 94.4408 170.326 97.6611 176.911C97.6611 176.911 101.721 184.455 108.185 183.304L102.417 188.953L93.3194 197.39" fill="#B366FF"/>
<path d="M76.9961 168.324C77.0029 167.358 77.2973 166.416 77.8416 165.619C78.3013 164.767 79.0023 164.071 79.8566 163.616C78.5016 164.903 77.5142 166.528 76.9961 168.324Z" fill="#263238"/>
<path d="M81.7516 172.761C81.5019 172.361 81.331 171.918 81.2478 171.454C80.989 170.342 80.9581 169.189 81.157 168.064C81.3559 166.94 81.7805 165.867 82.4052 164.911C82.6434 164.503 82.9567 164.142 83.3287 163.85C83.3707 163.886 83.0229 164.294 82.5971 165.049C82.0432 166.005 81.6597 167.05 81.4637 168.138C81.2759 169.227 81.2759 170.341 81.4637 171.43C81.6136 172.209 81.7995 172.713 81.7516 172.761Z" fill="#263238"/>
<path d="M103.784 188.161C103.341 188.436 102.857 188.639 102.351 188.761C100.965 189.095 99.5156 189.051 98.1528 188.635C96.1344 187.994 94.3682 186.735 93.1035 185.037C91.5843 182.954 90.559 180.552 90.1051 178.014C89.2581 173.444 89.0162 168.783 89.3855 164.15C89.5234 162.351 89.7213 160.947 89.8892 159.952C89.9672 159.46 90.0391 159.082 90.0931 158.825C90.1117 158.692 90.1439 158.561 90.189 158.435C90.1932 158.57 90.1812 158.705 90.1531 158.837L90.0091 159.97C89.8832 160.953 89.7153 162.369 89.6073 164.168C89.3006 168.781 89.5705 173.414 90.4109 177.96C90.8599 180.433 91.8534 182.774 93.3194 184.815C94.532 186.496 96.2413 187.754 98.2068 188.413C99.5339 188.84 100.949 188.917 102.315 188.635C102.814 188.51 103.305 188.352 103.784 188.161Z" fill="#FAFAFA"/>
<path d="M34.065 233.431C33.9811 233.431 33.9091 224.903 33.9091 214.391C33.9091 203.879 33.9811 195.351 34.065 195.351C34.149 195.351 34.221 203.873 34.221 214.391C34.221 224.909 34.155 233.431 34.065 233.431Z" fill="#263238"/>
<path d="M33.5852 188.773C33.5193 188.773 33.5373 187.921 33.2434 186.596C33.0684 185.821 32.8173 185.066 32.4938 184.341C32.0908 183.459 31.5942 182.622 31.0126 181.846C30.4148 181.081 29.7374 180.382 28.9917 179.759C28.3777 179.258 27.7171 178.816 27.0187 178.44C25.8194 177.811 24.9858 177.601 25.0038 177.541C25.2085 177.551 25.4105 177.592 25.6035 177.661C25.8308 177.717 26.0533 177.791 26.2692 177.882C26.5633 177.984 26.8499 178.106 27.1267 178.248C27.8471 178.601 28.5268 179.031 29.1536 179.532C29.9234 180.16 30.6213 180.872 31.2345 181.654C31.833 182.45 32.3362 183.314 32.7337 184.227C33.0603 184.974 33.3036 185.754 33.4593 186.554C33.5208 186.859 33.5629 187.167 33.5852 187.477C33.6133 187.71 33.6253 187.945 33.6212 188.179C33.6321 188.378 33.62 188.577 33.5852 188.773Z" fill="#263238"/>
<path d="M74.6573 163.868C74.7071 164.034 74.7412 164.205 74.7593 164.378C74.8401 164.864 74.8922 165.355 74.9152 165.847C74.9868 167.666 74.733 169.484 74.1656 171.214C73.3206 173.794 71.8229 176.112 69.8179 177.942C67.3031 180.14 64.145 181.465 60.815 181.72C57.485 181.976 54.1619 181.147 51.3418 179.358C49.0874 177.849 47.2612 175.783 46.0406 173.361C45.223 171.735 44.7011 169.976 44.4994 168.168C44.4507 167.677 44.4287 167.185 44.4335 166.692C44.419 166.521 44.419 166.348 44.4335 166.177C44.4616 166.345 44.4756 166.516 44.4754 166.686C44.4908 167.176 44.5308 167.664 44.5954 168.15C44.841 169.932 45.3885 171.66 46.2145 173.259C47.438 175.632 49.2485 177.654 51.4737 179.13C54.2428 180.871 57.4972 181.678 60.759 181.433C64.0208 181.188 67.1181 179.904 69.596 177.769C71.5791 175.976 73.0697 173.705 73.9257 171.172C74.5004 169.467 74.7842 167.677 74.7653 165.877C74.7653 165.241 74.7113 164.749 74.6633 164.414C74.6153 164.078 74.6513 163.874 74.6573 163.868Z" fill="#263238"/>
<path d="M33.5493 215.896C33.5493 215.98 28.5659 214.415 22.4852 212.406C16.4044 210.397 11.493 208.7 11.523 208.616C11.553 208.532 16.5004 210.097 22.5871 212.106C28.6739 214.115 33.5732 215.812 33.5493 215.896Z" fill="#FAFAFA"/>
<path d="M92.7197 207.573C92.7197 207.663 79.4968 207.788 63.1855 207.854C46.8742 207.92 33.6453 207.908 33.6453 207.854C33.6453 207.8 46.8682 207.639 63.1855 207.573C79.5028 207.507 92.7197 207.489 92.7197 207.573Z" fill="#FAFAFA"/>
<path d="M93.0196 212.796C93.0196 212.88 79.7247 212.952 63.3354 212.952C46.9462 212.952 33.6453 212.88 33.6453 212.796C33.6453 212.712 46.9342 212.64 63.3354 212.64C79.7366 212.64 93.0196 212.706 93.0196 212.796Z" fill="#FAFAFA"/>
<path d="M84.8759 219.14C84.8353 219.307 84.7791 219.47 84.708 219.626C84.576 219.962 84.3961 220.418 84.1743 220.993L83.7785 221.977C83.6225 222.337 83.4366 222.715 83.2447 223.128C82.849 223.944 82.4412 224.891 81.8715 225.887L81.0079 227.458C80.7081 228.004 80.3483 228.543 80.0005 229.119C79.3168 230.277 78.4773 231.44 77.6018 232.681C75.6545 235.319 73.5095 237.805 71.1852 240.117C68.8278 242.398 66.2998 244.494 63.6232 246.39C62.3639 247.229 61.1825 248.051 60.0251 248.711C59.4255 249.046 58.8978 249.394 58.346 249.688L56.7389 250.516C55.7374 251.061 54.778 251.457 53.9564 251.835C53.5426 252.015 53.1588 252.195 52.799 252.345L51.8035 252.723L50.4303 253.232C50.2719 253.3 50.1072 253.352 49.9385 253.388C50.0882 253.303 50.2447 253.231 50.4063 253.172L51.7616 252.609L52.739 252.207C53.0988 252.051 53.4766 251.865 53.8844 251.673C54.7 251.283 55.6475 250.876 56.637 250.318L58.2141 249.478C58.7598 249.178 59.3055 248.825 59.8812 248.489C61.0386 247.823 62.208 246.996 63.4793 246.156C68.8209 242.387 73.5189 237.78 77.3919 232.513C78.2614 231.284 79.107 230.115 79.7906 228.981C80.1444 228.412 80.5102 227.878 80.816 227.338L81.6856 225.779C82.2853 224.801 82.687 223.86 83.0948 223.05C83.2927 222.643 83.4906 222.271 83.6525 221.917C83.8144 221.563 83.9464 221.239 84.0723 220.946C84.3182 220.382 84.5161 219.938 84.672 219.602C84.732 219.445 84.8001 219.291 84.8759 219.14Z" fill="#263238"/>
<g opacity="0.3">
<path d="M82.4411 224.334C78.4113 229.239 74.1896 232.795 68.2707 235.086C65.4342 236.177 62.4658 236.927 59.7193 238.228C56.9727 239.53 54.3821 241.49 53.1228 244.267C52.1693 246.414 52.6311 249.664 54.9218 250.132C55.8118 250.241 56.7146 250.102 57.5305 249.73C69.2542 245.478 76.9601 234.738 82.4052 224.334" fill="black"/>
</g>
<path d="M40.5056 117.639C37.9749 119.624 37.807 123.336 37.933 126.55C38.0589 129.764 38.0949 133.422 35.7501 135.641C33.8312 137.47 30.473 138.148 29.9212 140.744C29.7816 141.356 29.8374 141.996 30.0809 142.575C30.3243 143.153 30.743 143.64 31.2781 143.968C31.8132 144.296 32.4377 144.448 33.0635 144.402C33.6894 144.356 34.285 144.115 34.7667 143.713C33.9511 145.746 34.3229 148.348 36.056 149.709C37.789 151.071 40.8174 150.423 41.4531 148.336C41.3548 148.681 41.3277 149.043 41.3734 149.399C41.4191 149.755 41.5366 150.098 41.7189 150.407C41.9011 150.717 42.1443 150.986 42.4336 151.198C42.723 151.411 43.0524 151.562 43.4021 151.643C43.7517 151.725 44.1142 151.734 44.4676 151.671C44.821 151.608 45.1579 151.474 45.4579 151.277C45.7579 151.08 46.0147 150.824 46.2128 150.525C46.4109 150.225 46.5462 149.889 46.6103 149.536" fill="#263238"/>
<path d="M77.2299 140.912C77.3505 141.333 77.5565 141.725 77.8349 142.064C78.1134 142.402 78.4585 142.679 78.8486 142.879C79.2388 143.078 79.6658 143.195 80.1031 143.222C80.5404 143.25 80.9787 143.187 81.3907 143.038C81.8027 142.889 82.1796 142.656 82.498 142.355C82.8165 142.054 83.0697 141.691 83.2419 141.288C83.414 140.885 83.5015 140.451 83.4989 140.013C83.4963 139.575 83.4037 139.142 83.2267 138.741C82.729 137.494 81.4277 136.552 81.3977 135.215C81.3197 133.596 83.0228 132.523 84.516 131.893C86.0092 131.263 87.7603 130.424 87.9942 128.823C88.228 127.221 86.8908 125.992 85.7754 124.895C84.66 123.797 83.5865 122.13 84.3721 120.775C84.7739 120.085 85.5715 119.713 86.0872 119.108C87.2506 117.765 86.7828 115.51 85.4395 114.364C84.0963 113.219 82.1713 112.955 80.4142 113.165C78.6572 113.375 76.9781 114.035 75.257 114.46C72.403 115.149 69.4372 115.238 66.547 114.722C63.6568 114.206 60.9051 113.096 58.4659 111.462" fill="#263238"/>
<path d="M42.2266 130.004L48.3973 165.769C48.653 167.266 49.2024 168.697 50.0139 169.981C50.8254 171.264 51.8829 172.375 53.1254 173.248C54.368 174.121 55.771 174.739 57.2537 175.067C58.7364 175.395 60.2693 175.427 61.7642 175.16C64.5966 174.653 67.1364 173.103 68.8835 170.817C70.6305 168.53 71.458 165.673 71.2032 162.806C70.9213 159.634 70.6814 157.008 70.6814 157.008C70.6814 157.008 79.6407 154.705 78.8671 145.614C78.4893 141.212 76.9841 132.211 75.5209 124.079C74.7622 119.87 72.4469 116.102 69.0355 113.523C65.6241 110.943 61.3668 109.743 57.1107 110.161L56.2352 110.245C54.0048 110.594 51.867 111.387 49.9479 112.576C48.0289 113.765 46.3675 115.327 45.0618 117.169C43.7561 119.01 42.8325 121.095 42.3456 123.299C41.8587 125.504 41.8182 127.784 42.2266 130.004Z" fill="#B78876"/>
<path d="M73.6079 129.95C73.647 130.288 73.5512 130.629 73.3413 130.897C73.1314 131.165 72.8243 131.34 72.4865 131.383C72.3228 131.413 72.1547 131.41 71.9923 131.374C71.8299 131.337 71.6764 131.269 71.5411 131.172C71.4057 131.075 71.2911 130.952 71.2042 130.81C71.1174 130.668 71.0599 130.51 71.0353 130.346C70.9962 130.007 71.092 129.667 71.3019 129.399C71.5118 129.131 71.8189 128.956 72.1567 128.913C72.3204 128.883 72.4884 128.886 72.6509 128.922C72.8133 128.958 72.9667 129.027 73.1021 129.124C73.2375 129.221 73.3521 129.344 73.439 129.486C73.5258 129.628 73.5833 129.785 73.6079 129.95Z" fill="#263238"/>
<path d="M74.0037 128.709C73.8598 128.889 72.8043 128.259 71.4071 128.397C70.0098 128.535 69.0503 129.338 68.8824 129.182C68.8045 129.11 68.9364 128.793 69.3502 128.421C69.9149 127.942 70.615 127.65 71.3531 127.587C72.0794 127.515 72.81 127.674 73.44 128.043C73.9017 128.331 74.0756 128.625 74.0037 128.709Z" fill="#263238"/>
<path d="M59.9352 131.551C59.9693 131.889 59.8708 132.227 59.6604 132.493C59.45 132.759 59.1442 132.933 58.8078 132.978C58.6442 133.008 58.4764 133.004 58.3143 132.967C58.1522 132.93 57.9991 132.862 57.8639 132.765C57.7287 132.668 57.6142 132.546 57.527 132.404C57.4399 132.263 57.382 132.105 57.3566 131.941C57.3207 131.603 57.4176 131.265 57.627 130.997C57.8363 130.73 58.1415 130.554 58.478 130.508C58.6424 130.479 58.8109 130.483 58.9738 130.52C59.1366 130.557 59.2904 130.626 59.4261 130.723C59.5619 130.82 59.6768 130.943 59.7643 131.086C59.8517 131.228 59.9098 131.386 59.9352 131.551Z" fill="#263238"/>
<path d="M60.289 130.304C60.1451 130.49 59.0897 129.86 57.6924 129.998C56.2952 130.136 55.3417 130.94 55.1678 130.784C55.0898 130.712 55.2217 130.394 55.6355 130.022C56.2015 129.545 56.9009 129.254 57.6384 129.188C58.3649 129.113 59.0964 129.273 59.7253 129.644C60.1871 129.932 60.337 130.226 60.289 130.304Z" fill="#263238"/>
<path d="M66.3758 140.181C66.3758 140.097 67.2153 139.863 68.6006 139.545C68.9544 139.473 69.2902 139.371 69.3262 139.119C69.3161 138.749 69.1972 138.39 68.9844 138.088L67.6591 135.473C65.8181 131.743 64.4508 128.667 64.6007 128.595C64.7506 128.523 66.3638 131.485 68.1988 135.191L69.4761 137.83C69.7419 138.238 69.8545 138.726 69.7939 139.209C69.7579 139.344 69.6909 139.468 69.5982 139.572C69.5056 139.676 69.3898 139.757 69.2602 139.809C69.0665 139.88 68.8653 139.928 68.6606 139.953C67.911 140.121 67.1438 140.198 66.3758 140.181Z" fill="#263238"/>
<path d="M60.1151 124.787C60.0132 125.183 58.6039 125.135 56.9848 125.494C55.3656 125.854 54.0763 126.43 53.8304 126.094C53.7165 125.944 53.9084 125.56 54.4301 125.141C55.0962 124.615 55.8769 124.253 56.7089 124.085C57.5388 123.902 58.4003 123.921 59.2216 124.139C59.8272 124.337 60.1571 124.607 60.1151 124.787Z" fill="#263238"/>
<path d="M73.0982 124.709C72.8823 125.051 71.8988 124.817 70.6994 124.913C69.5001 125.009 68.5826 125.339 68.3007 125.027C68.1868 124.877 68.3007 124.541 68.7085 124.199C69.2457 123.774 69.9016 123.527 70.5855 123.491C71.2668 123.436 71.9485 123.595 72.5345 123.947C73.0202 124.235 73.1881 124.547 73.0982 124.709Z" fill="#263238"/>
<path d="M51.1259 119.066L51.0779 119.114C49.7415 120.396 48.951 122.145 48.8711 123.995C48.8711 124.061 48.8711 124.127 48.8711 124.181C48.7691 126.814 49.087 129.446 48.961 132.073C48.8351 134.7 48.1934 137.422 46.4484 139.395C45.7347 140.205 44.3915 140.846 43.6599 140.049C43.4053 139.713 43.2514 139.311 43.2161 138.891C42.1247 132.679 39.8699 127.287 39.2462 120.733C39.1567 119.856 39.2782 118.971 39.6006 118.151C39.9229 117.331 40.4368 116.6 41.0992 116.02C42.3705 114.898 43.9477 113.717 45.5428 114.292C47.138 114.868 49.3868 117.525 50.6881 118.616" fill="#263238"/>
<path d="M45.6928 133.818C45.5309 133.77 39.2643 132.583 40.0678 138.777C40.8714 144.972 46.9282 142.891 46.9162 142.711C46.9042 142.531 45.6928 133.818 45.6928 133.818Z" fill="#B78876"/>
<path d="M44.7453 140.612C44.7453 140.612 44.6494 140.702 44.4754 140.804C44.3564 140.877 44.2241 140.926 44.0862 140.947C43.9483 140.969 43.8075 140.963 43.6719 140.93C42.9882 140.774 42.2986 139.803 42.1247 138.693C42.0396 138.163 42.0744 137.62 42.2266 137.104C42.2608 136.903 42.3429 136.713 42.4661 136.55C42.5893 136.387 42.7499 136.256 42.9343 136.169C43.0539 136.122 43.1862 136.118 43.3086 136.157C43.4309 136.196 43.536 136.277 43.6059 136.385C43.7138 136.546 43.6899 136.678 43.7258 136.684C43.7618 136.69 43.8458 136.564 43.7618 136.313C43.7076 136.163 43.6039 136.036 43.468 135.953C43.2851 135.852 43.0709 135.824 42.8683 135.875C42.6199 135.959 42.3969 136.105 42.2206 136.299C42.0444 136.493 41.9205 136.729 41.8608 136.984C41.666 137.563 41.6145 138.18 41.7109 138.783C41.9148 140.025 42.7064 141.11 43.6359 141.254C43.8086 141.282 43.9854 141.27 44.1527 141.219C44.3201 141.168 44.4736 141.08 44.6014 140.96C44.7453 140.762 44.7453 140.618 44.7453 140.612Z" fill="#7C5142"/>
<path d="M45.4169 115.276C43.6179 112.937 47.4918 108.955 50.4662 107.69C53.4406 106.425 57.6324 107.522 60.7867 108.236C62.7717 108.691 64.7806 109.393 66.7835 109.111C68.1265 108.843 69.422 108.376 70.6275 107.726C71.8316 107.065 73.158 106.657 74.5254 106.527C75.2102 106.474 75.8963 106.611 76.5094 106.92C77.1224 107.23 77.6391 107.701 78.0035 108.284C78.6392 109.483 78.0695 111.282 76.7382 111.612C77.1477 111.33 77.6194 111.152 78.1129 111.093C78.6063 111.034 79.1068 111.095 79.5713 111.272C80.0358 111.449 80.4504 111.736 80.7795 112.108C81.1086 112.481 81.3424 112.927 81.4607 113.41C81.579 113.893 81.5784 114.397 81.4589 114.88C81.3394 115.362 81.1045 115.808 80.7745 116.18C80.4445 116.551 80.0293 116.837 79.5643 117.013C79.0994 117.189 78.5988 117.249 78.1055 117.189C78.927 116.433 80.3903 117.411 80.3903 118.52C80.3903 119.63 79.4608 120.541 78.4893 121.087C76.0066 122.478 72.9482 122.406 70.1777 121.764C67.4072 121.123 64.7806 119.965 62.0221 119.246C59.2635 118.526 54.64 117.231 52.0614 118.436C50.1664 119.318 49.027 121.818 47.8636 121.435C47.3131 121.206 46.8239 120.852 46.4354 120.4C46.0469 119.947 45.77 119.411 45.6268 118.832C45.3589 117.669 45.282 116.47 45.3989 115.282" fill="#263238"/>
<path d="M45.7708 134.879C45.848 138.173 46.2254 141.453 46.8981 144.678C47.5705 147.915 49.1059 150.909 51.3418 153.344C54.3402 156.42 58.2741 159.34 62.5318 160.066C67.1793 160.834 72.8643 159.862 76.6483 157.068C78.4473 155.742 79.7486 152.87 79.1909 150.699C79.9526 150.34 80.6044 149.783 81.0789 149.087C81.5533 148.391 81.8332 147.581 81.8895 146.741C81.9854 145.062 80.96 142.963 79.6347 142.741C80.6301 142.573 80.918 140.99 80.5402 140.097C80.1624 139.203 78.8491 138.933 77.8536 139.125C76.8697 139.383 75.9546 139.854 75.1731 140.504C74.3961 141.156 73.5193 141.678 72.5764 142.052C69.3622 143.095 66.1059 140.253 62.7297 140.39C59.6773 140.51 56.9608 143.047 53.9324 142.621C53.0917 142.461 52.2942 142.126 51.5916 141.637C50.8891 141.148 50.2972 140.517 49.8546 139.785C48.9191 138.352 49.3269 133.056 48.961 131.389" fill="#263238"/>
<g opacity="0.6">
<path d="M70.2677 149.158C70.0149 149.099 69.7665 149.023 69.5241 148.93C68.9367 148.762 68.3186 148.731 67.7176 148.841C67.1165 148.95 66.5487 149.196 66.0579 149.56C65.6741 149.835 65.4583 150.057 65.4583 150.027C65.4583 149.997 65.5782 149.734 65.944 149.428C66.4365 148.994 67.0383 148.703 67.6841 148.587C68.3299 148.471 68.9952 148.533 69.608 148.768C70.0518 148.918 70.2857 149.128 70.2677 149.158Z" fill="#455A64"/>
</g>
<path d="M63.7012 142.267C63.9291 142.231 64.079 143.749 65.5002 144.666C66.9215 145.584 68.4986 145.296 68.5346 145.506C68.5646 145.596 68.2048 145.836 67.5212 145.92C66.6352 146.023 65.7411 145.811 64.9965 145.32C64.2833 144.844 63.7842 144.108 63.6052 143.269C63.4673 142.657 63.5992 142.267 63.7012 142.267Z" fill="white"/>
<path d="M59.1916 159.052C59.3272 159.083 59.4582 159.132 59.5814 159.196C59.8392 159.292 60.217 159.424 60.7148 159.562C62.1253 159.943 63.573 160.171 65.0325 160.24C66.032 160.299 67.0345 160.279 68.0309 160.18C69.1799 160.077 70.3153 159.856 71.4191 159.52C72.6376 159.156 73.8001 158.626 74.8732 157.943C76.0402 157.239 77.0586 156.314 77.8716 155.221C78.8374 153.933 79.2672 152.321 79.071 150.723V150.597L79.1789 150.549C79.9248 150.202 80.5707 149.672 81.0559 149.008C81.2913 148.694 81.4923 148.357 81.6556 148C81.7989 147.654 81.8879 147.288 81.9195 146.915C81.9847 146.239 81.8882 145.558 81.638 144.927C81.3877 144.296 80.9908 143.734 80.4802 143.287L80.3903 143.215L80.4622 143.125C80.7327 142.782 80.9092 142.374 80.9744 141.942C81.0396 141.51 80.9912 141.068 80.834 140.66C80.7108 140.351 80.5245 140.071 80.287 139.838C80.0496 139.604 79.7661 139.423 79.4548 139.305C79.0573 139.146 78.6271 139.087 78.2014 139.131C77.9076 139.167 77.7637 139.221 77.7577 139.203C77.8961 139.137 78.0437 139.093 78.1954 139.071C78.7651 138.979 79.3493 139.078 79.8569 139.352C80.3646 139.627 80.7672 140.061 81.0019 140.588C81.1795 141.028 81.2397 141.506 81.1766 141.976C81.1136 142.446 80.9294 142.892 80.6421 143.269V143.107C81.19 143.575 81.6183 144.166 81.8915 144.833C82.1648 145.499 82.2751 146.221 82.2133 146.939C82.1826 147.351 82.0875 147.756 81.9314 148.138C81.7576 148.514 81.5466 148.872 81.3018 149.206C80.7913 149.918 80.1055 150.486 79.3108 150.855L79.4008 150.675C79.6415 152.354 79.2106 154.061 78.2014 155.424C77.3644 156.55 76.3153 157.502 75.1131 158.225C74.0182 158.922 72.8286 159.457 71.581 159.814C70.4578 160.152 69.3019 160.369 68.1328 160.462C67.117 160.542 66.0963 160.542 65.0804 160.462C63.6095 160.37 62.1544 160.106 60.7448 159.676C60.3626 159.557 59.9881 159.415 59.6234 159.25C59.4728 159.2 59.328 159.134 59.1916 159.052Z" fill="#455A64"/>
<path d="M32.0081 143.227C31.8933 143.195 31.7855 143.143 31.6903 143.071C31.4201 142.869 31.2123 142.594 31.0906 142.279C30.888 141.773 30.8441 141.216 30.9647 140.684C31.1539 139.98 31.5768 139.36 32.164 138.927C32.854 138.407 33.6235 138.002 34.4428 137.728C35.361 137.439 36.2487 137.062 37.0934 136.6C37.9823 136.038 38.6788 135.218 39.0904 134.25C39.5418 133.208 39.7823 132.087 39.798 130.951C39.8459 128.607 39.3062 126.382 39.2463 124.313C39.1863 122.244 39.5461 120.313 40.4876 119.018C41.1928 117.979 42.2634 117.245 43.486 116.961C43.8176 116.895 44.1571 116.879 44.4935 116.913C44.6108 116.927 44.7271 116.949 44.8413 116.979C44.397 116.958 43.9518 116.992 43.516 117.081C42.3375 117.392 41.315 118.127 40.6435 119.144C39.768 120.403 39.4022 122.274 39.5101 124.301C39.6181 126.328 40.1098 128.553 40.1098 130.963C40.0848 132.142 39.826 133.304 39.3482 134.382C38.9074 135.403 38.1645 136.265 37.2193 136.852C36.3515 137.322 35.4371 137.7 34.4908 137.98C33.6948 138.231 32.9439 138.608 32.266 139.095C31.7091 139.489 31.3014 140.06 31.1086 140.714C30.9779 141.213 31.0009 141.74 31.1746 142.225C31.3326 142.643 31.6261 142.996 32.0081 143.227Z" fill="#455A64"/>
<path d="M76.9661 111.51C77.0512 111.458 77.1417 111.416 77.236 111.384C77.3499 111.333 77.4684 111.293 77.5898 111.264C77.7525 111.216 77.919 111.182 78.0875 111.162C78.6471 111.101 79.2133 111.168 79.7431 111.358C80.273 111.549 80.7527 111.857 81.1459 112.26C81.5391 112.787 81.8237 113.387 81.9833 114.025C82.1429 114.664 82.1742 115.327 82.0754 115.978C81.9577 116.784 81.6795 117.559 81.2572 118.256C80.8349 118.954 80.277 119.559 79.6167 120.037C78.0962 121.144 76.2791 121.771 74.3995 121.836C72.3618 121.917 70.3233 121.698 68.3487 121.189C65.2121 120.419 62.236 119.101 59.5574 117.297C58.4124 116.51 57.2096 115.81 55.9593 115.204C54.8642 114.697 53.6852 114.396 52.4812 114.316C50.7273 114.195 48.9714 114.521 47.3779 115.264C46.2565 115.792 45.7228 116.247 45.6988 116.211C46.1913 115.787 46.7378 115.431 47.3239 115.15C48.9268 114.357 50.7078 113.994 52.4932 114.095C53.7361 114.158 54.9563 114.453 56.0912 114.964C57.3596 115.569 58.5804 116.268 59.7433 117.057C62.4029 118.826 65.3489 120.12 68.4506 120.883C70.3948 121.393 72.4025 121.619 74.4115 121.555C76.2338 121.491 77.9967 120.89 79.4788 119.827C80.1149 119.372 80.6545 118.796 81.0663 118.131C81.478 117.466 81.7537 116.726 81.8775 115.954C81.9832 115.328 81.9639 114.689 81.8208 114.071C81.6778 113.453 81.4137 112.87 81.0439 112.355C80.6719 111.966 80.2182 111.663 79.7154 111.469C79.2125 111.275 78.673 111.195 78.1355 111.234C77.7392 111.296 77.3482 111.388 76.9661 111.51Z" fill="#455A64"/>
<path d="M73.7878 106.227C73.7872 106.699 73.6913 107.166 73.5059 107.6C72.986 108.793 72.0827 109.779 70.9393 110.4C70.1673 110.85 69.3199 111.155 68.4386 111.3C67.4285 111.447 66.4024 111.447 65.3923 111.3C63.2514 111.03 61.0386 110.191 58.7118 109.465C56.3851 108.739 54.0403 108.308 51.9774 108.751C50.1495 109.151 48.4939 110.116 47.246 111.51C46.3959 112.44 45.7449 113.534 45.333 114.724C45.0571 115.576 45.0032 116.073 44.9672 116.067C44.9525 115.948 44.9525 115.827 44.9672 115.708C45.0152 115.363 45.0894 115.022 45.1891 114.688C45.5616 113.456 46.198 112.321 47.0541 111.36C48.3143 109.904 50.0085 108.891 51.8875 108.469C54.0224 107.996 56.4331 108.434 58.7718 109.165C61.1106 109.897 63.3054 110.736 65.3983 111.012C66.3825 111.156 67.3824 111.156 68.3667 111.012C69.2217 110.883 70.0465 110.6 70.8014 110.179C71.919 109.592 72.8172 108.66 73.362 107.522C73.5382 107.102 73.6806 106.669 73.7878 106.227Z" fill="#455A64"/>
<path d="M119.811 68.2607C119.759 68.3247 116.486 65.6633 112.497 62.3146C108.507 58.966 105.322 56.1706 105.38 56.1298C105.438 56.089 108.705 58.7272 112.695 62.0817C116.684 65.4362 119.869 68.1966 119.811 68.2607Z" fill="#263238"/>
<path d="M136.421 64.2714C136.339 64.2714 136.007 59.0999 135.687 52.7113C135.366 46.3226 135.168 41.1395 135.25 41.1337C135.331 41.1278 135.663 46.3052 135.99 52.6996C136.316 59.0941 136.502 64.2714 136.421 64.2714Z" fill="#263238"/>
<path d="M125.845 60.5733C125.763 60.5733 124.744 57.6615 123.562 53.975C122.379 50.2886 121.488 47.3127 121.57 47.2894C121.651 47.2661 122.671 50.2012 123.853 53.8819C125.035 57.5625 125.92 60.55 125.845 60.5733Z" fill="#263238"/>
<path d="M116.416 73.7234C114.882 73.1839 113.383 72.5518 111.926 71.8306C110.426 71.1984 108.967 70.4729 107.558 69.6584C109.092 70.1979 110.591 70.83 112.048 71.5511C113.547 72.1847 115.006 72.9102 116.416 73.7234Z" fill="#263238"/>
<path d="M101.105 67.0319C101.105 67.1134 100.61 67.1251 100.022 67.0319C99.4339 66.9387 98.968 66.8339 98.9796 66.7523C98.9913 66.6708 99.4747 66.6592 100.057 66.7523C100.639 66.8455 101.105 66.9504 101.105 67.0319Z" fill="#263238"/>
<path d="M121.949 43.5272C121.861 43.5272 121.797 43.0555 121.797 42.4673C121.797 41.8791 121.861 41.4016 121.949 41.4016C122.036 41.4016 122.1 41.8791 122.1 42.4673C122.1 43.0555 122.03 43.5272 121.949 43.5272Z" fill="#263238"/>
<path d="M157.013 51.7504C157.077 51.8086 154.387 54.8894 151.015 58.634C147.643 62.3787 144.859 65.3721 144.783 65.3139C144.708 65.2556 147.41 62.1807 150.782 58.4302C154.154 54.6797 156.955 51.698 157.013 51.7504Z" fill="#263238"/>
<path d="M161.294 47.5165C161.352 47.5748 161.043 47.9824 160.601 48.425C160.158 48.8676 159.756 49.1705 159.698 49.1122C159.64 49.054 159.948 48.6463 160.391 48.2095C160.834 47.7728 161.236 47.435 161.294 47.5165Z" fill="#263238"/>
<path d="M171.672 62.4253C171.422 62.6052 171.157 62.763 170.88 62.897C170.361 63.1824 169.604 63.5842 168.661 64.0618C166.768 65.0169 164.118 66.2631 161.136 67.5036C158.155 68.7441 155.4 69.7341 153.385 70.4155C152.383 70.7474 151.568 70.9979 150.997 71.1667C150.709 71.2716 150.41 71.3477 150.106 71.3939C150.382 71.2576 150.668 71.1446 150.962 71.0561L153.292 70.2116C155.284 69.4953 158.015 68.4645 160.997 67.2415C163.978 66.0185 166.628 64.7897 168.568 63.8871L170.827 62.8155C171.099 62.6648 171.381 62.5343 171.672 62.4253Z" fill="#263238"/>
<path d="M163.157 76.7634C162.66 76.985 162.141 77.1548 161.608 77.27C160.642 77.5379 159.279 77.8524 157.776 78.1145C156.274 78.3766 154.864 78.5222 153.88 78.592C153.341 78.6607 152.796 78.6704 152.255 78.6212C152.784 78.4993 153.321 78.4175 153.863 78.3766C154.853 78.2543 156.221 78.0679 157.724 77.7942C159.226 77.5205 160.583 77.2584 161.562 77.0487C162.084 76.9047 162.618 76.8092 163.157 76.7634Z" fill="#263238"/>
<path d="M170.897 75.3307C169.788 75.5326 168.652 75.5326 167.543 75.3307C168.652 75.1288 169.788 75.1288 170.897 75.3307Z" fill="#263238"/>
<path d="M127.126 219.818C127.946 219.957 128.729 220.26 129.429 220.708C130.129 221.157 130.733 221.741 131.202 222.427C132.13 223.813 132.728 225.393 132.95 227.045C133.48 230.213 132.623 233.812 131.447 236.806C128.215 235.286 126.491 231.524 125.74 229.555C124.575 226.451 124.278 220.109 127.097 219.818" fill="#B366FF"/>
<path d="M136.24 241.284C135.753 240.49 135.486 239.582 135.464 238.651C135.443 237.72 135.668 236.8 136.118 235.985C136.579 235.177 137.196 234.469 137.934 233.903C138.672 233.337 139.516 232.924 140.416 232.688C140.818 232.535 141.249 232.471 141.678 232.501C142.108 232.531 142.526 232.655 142.902 232.863C143.216 233.115 143.457 233.445 143.6 233.821C143.744 234.197 143.784 234.604 143.718 235C143.573 235.793 143.224 236.534 142.704 237.149C141.015 239.328 138.989 241.121 136.24 241.284Z" fill="#B366FF"/>
<path d="M135.425 251.324C135.357 251.109 135.32 250.886 135.314 250.661C135.273 250.23 135.215 249.601 135.174 248.826C135.027 246.8 135.15 244.763 135.541 242.769C135.959 240.756 136.91 238.891 138.296 237.371C138.723 236.924 139.204 236.533 139.728 236.206C139.903 236.072 140.101 235.97 140.311 235.903C139.649 236.4 139.029 236.951 138.459 237.551C137.167 239.074 136.278 240.896 135.873 242.851C135.488 244.818 135.331 246.823 135.407 248.826C135.463 249.658 135.469 250.492 135.425 251.324Z" fill="#263238"/>
<path d="M127.895 224.646C128.058 224.98 128.194 225.327 128.302 225.683C128.541 226.358 128.885 227.336 129.269 228.554C130.067 230.988 131.109 234.377 132.181 238.134C133.252 241.89 134.114 245.326 134.708 247.819C135.005 249.065 135.232 250.072 135.378 250.777C135.475 251.136 135.541 251.502 135.576 251.872C135.434 251.529 135.323 251.175 135.244 250.812C135.04 250.055 134.778 249.065 134.464 247.9C133.806 245.425 132.891 242.006 131.831 238.25C130.771 234.494 129.77 231.099 129.036 228.647L128.18 225.735C128.055 225.38 127.959 225.016 127.895 224.646Z" fill="#263238"/>
<path d="M131.936 244.278C131.123 242.497 129.899 240.935 128.364 239.719C126.829 238.504 125.027 237.672 123.107 237.289C122.129 237.103 120.924 237.126 120.376 237.965C119.829 238.803 120.3 239.922 120.889 240.725C122.144 242.392 123.865 243.649 125.834 244.337C127.804 245.026 129.934 245.114 131.954 244.592" fill="#B366FF"/>
<path d="M124.179 240.079C124.397 240.07 124.615 240.094 124.825 240.149C125.075 240.183 125.323 240.235 125.565 240.306C125.892 240.383 126.215 240.478 126.532 240.591C127.359 240.881 128.155 241.254 128.908 241.704C130.766 242.803 132.338 244.326 133.497 246.147C133.963 246.883 134.353 247.663 134.662 248.477C134.788 248.788 134.895 249.107 134.982 249.432C135.063 249.673 135.125 249.92 135.168 250.171C135.23 250.379 135.257 250.595 135.25 250.812C135.186 250.812 135.005 249.921 134.429 248.576C134.086 247.79 133.675 247.035 133.2 246.322C132.612 245.453 131.939 244.646 131.191 243.911C130.433 243.187 129.606 242.54 128.722 241.977C127.992 241.523 127.224 241.134 126.427 240.813C125.076 240.3 124.167 240.149 124.179 240.079Z" fill="#263238"/>
</svg>
